<?xml version="1.0" encoding="UTF-8" standalone="no"?>
<svg
   width="90px"
   height="130px"
   viewBox="0 0 90 130"
   version="1.1"
   id="svg9"
   sodipodi:docname="test10.svg"
   inkscape:version="1.4.3 (1:1.4.3+202512261035+0d15f75042)"
   xmlns:inkscape="http://www.inkscape.org/namespaces/inkscape"
   xmlns:sodipodi="http://sodipodi.sourceforge.net/DTD/sodipodi-0.dtd"
   xmlns="http://www.w3.org/2000/svg"
   xmlns:svg="http://www.w3.org/2000/svg">
  <sodipodi:namedview
     id="namedview9"
     pagecolor="#ffffff"
     bordercolor="#000000"
     borderopacity="0.25"
     inkscape:showpageshadow="2"
     inkscape:pageopacity="0.0"
     inkscape:pagecheckerboard="0"
     inkscape:deskcolor="#d1d1d1"
     inkscape:zoom="6.1769231"
     inkscape:cx="45.006227"
     inkscape:cy="65"
     inkscape:window-width="1854"
     inkscape:window-height="1011"
     inkscape:window-x="0"
     inkscape:window-y="0"
     inkscape:window-maximized="1"
     inkscape:current-layer="svg9" />
  <defs
     id="defs3">
    <linearGradient
       id="linear0"
       gradientUnits="userSpaceOnUse"
       x1="0"
       y1="0"
       x2="1"
       y2="0"
       gradientTransform="matrix(59.896011,0,0,89.627352,0.0519931,0.186315)">
      <stop
         offset="0"
         style="stop-color:rgb(0%,0%,0%);stop-opacity:0.2;"
         id="stop1" />
      <stop
         offset="0.3"
         style="stop-color:rgb(100%,100%,100%);stop-opacity:0.3;"
         id="stop2" />
      <stop
         offset="1"
         style="stop-color:rgb(0%,0%,0%);stop-opacity:0.2;"
         id="stop3" />
    </linearGradient>
  </defs>
  <g
     id="surface1"
     transform="matrix(1.4999846,0,0,1.4488057,0.00181691,-0.19753415)">
    <path
       style="fill:#ffffff;fill-opacity:1;fill-rule:nonzero;stroke:#000000;stroke-width:0.1;stroke-linecap:butt;stroke-linejoin:miter;stroke-miterlimit:4;stroke-opacity:1"
       d="m 3.200287,0.201158 h 51.599427 c 1.656621,0 3.001452,1.34008 3.001452,2.997045 v 81.60361 c 0,1.653147 -1.344831,2.997044 -3.001452,2.997044 H 3.200287 c -1.656622,0 -3.001452,-1.343897 -3.001452,-2.997044 V 3.198203 c 0,-1.656965 1.34483,-2.997045 3.001452,-2.997045 z m 0,0"
       transform="matrix(1.039861,0,0,1.023143,-0.155979,-0.0183135)"
       id="path3" />
    <path
       style="fill:#0087ff;fill-opacity:1;fill-rule:nonzero;stroke:none"
       d="m 5.5625,4.074219 h 48.875 c 0.859375,0 1.558594,0.6875 1.558594,1.535156 v 78.78125 c 0,0.847656 -0.699219,1.535156 -1.558594,1.535156 H 5.5625 c -0.859375,0 -1.558594,-0.6875 -1.558594,-1.535156 V 5.609375 c 0,-0.847656 0.699219,-1.535156 1.558594,-1.535156 z m 0,0"
       id="path4" />
    <path
       style="fill:none;stroke:#0087ff;stroke-width:1;stroke-linecap:butt;stroke-linejoin:miter;stroke-miterlimit:4;stroke-opacity:1"
       d="m 4.999655,2.999672 h 48.000691 c 1.104414,0 1.998463,0.897205 1.998463,2.000575 v 77.999521 c 0,1.10337 -0.894049,2.000575 -1.998463,2.000575 H 4.999655 c -1.104414,0 -1.998464,-0.897205 -1.998464,-2.000575 V 5.000247 c 0,-1.10337 0.89405,-2.000575 1.998464,-2.000575 z m 0,0"
       transform="matrix(1.039861,0,0,1.023143,-0.155979,-0.0183135)"
       id="path5" />
    <path
       style="fill:#ffffff;fill-opacity:1;fill-rule:nonzero;stroke:none"
       d="m 25.441406,23.667969 7.457032,-0.535157 c 0,4.410157 0,8.800782 0,13.1875 2.972656,-4.410156 6.273437,-8.796874 10,-13.046874 l 8,1.996093 C 47.3125,29.191406 43.65625,33.558594 40.730469,37.921875 43.539062,42.5625 46.628906,46.8125 50.757812,51.640625 l -7.714843,2.253906 C 38.726562,49.132812 36.128906,44.5625 32.898438,39.640625 v 13.070313 l -7.457032,0.925781 z m 0,0"
       id="path6" />
    <path
       style="fill:#ffffff;fill-opacity:1;fill-rule:nonzero;stroke:none"
       d="m 32.96875,59.929688 c 4.363281,-0.90625 3.253906,-2.207032 6.816406,-0.164063 l 2.3125,1.601563 c 0.425782,0.210937 0.828125,0.582031 1.226563,0.1875 0.875,-0.8125 1.722656,-1.648438 2.597656,-2.460938 0.375,-0.394531 0,-0.835938 -0.191406,-1.136719 h -0.02344 l -1.671875,-2.347656 -1.109375,0.398437 c -0.285156,0.183594 -0.664062,0.08984 -0.992187,-0.351562 L 39.480469,52.5 c -2.265625,3.089844 -5.921875,5.085938 -10.074219,5.085938 -6.84375,0 -12.410156,-5.480469 -12.410156,-12.210938 0,-4.78125 2.808594,-8.9375 6.886718,-10.933594 v -2.808594 c -0.140624,0.06641 -0.28125,0.113282 -0.398437,0.160157 -1.605469,0.652343 -1.699219,0.953125 -4.320313,-0.535157 l -2.308593,-1.625 C 16.429688,29.449219 16.027344,29.054688 15.625,29.449219 c -0.871094,0.835937 -1.71875,1.671875 -2.59375,2.507812 -0.378906,0.371094 0.02344,0.835938 0.1875,1.136719 l 1.769531,2.460938 1.296875,1.808593 c 0.191406,0.257813 0.261719,0.28125 0.167969,0.464844 -0.117187,0.1875 -0.214844,0.347656 -0.332031,0.535156 -1.722656,2.925781 -0.519532,3.15625 -4.199219,4.109375 L 9.113281,42.9375 C 8.691406,43.074219 8.125,43.074219 8.101562,43.65625 c 0,1.183594 -0.023437,2.367188 -0.023437,3.550781 -0.023437,0.535157 0.589844,0.582031 0.941406,0.675781 l 2.996094,0.53125 2.242187,0.394532 c 0.308594,0.04687 0.378907,0 0.449219,0.234375 0.921875,3.921875 2.121094,2.992187 0.117188,6.40625 l -1.628907,2.296875 c -0.210937,0.394531 -0.589843,0.789062 -0.1875,1.183594 0.847657,0.859374 1.675782,1.695312 2.523438,2.554687 0.378906,0.371094 0.851562,-0.02344 1.15625,-0.183594 l 2.5,-1.742187 1.867188,-1.253906 c 0.257812,-0.207032 0.28125,-0.277344 0.46875,-0.164063 3.730468,2.300781 3.871093,0.652344 4.957031,4.527344 L 27,65.429688 c 0.140625,0.417968 0.164062,0.953124 0.730469,0.976562 1.203125,0 2.429687,0 3.632812,0 0.542969,0 0.589844,-0.605469 0.660157,-0.953125 l 0.519531,-2.96875 0.355469,-2.183594 c 0.02344,-0.210937 0.02344,-0.304687 0.07031,-0.371093 z m 4.503906,-1.859376 c -0.02344,0.02344 -0.04687,0.02344 -0.07031,0.02344 0.02344,0 0.02344,-0.02344 0.04687,-0.02344 z m -4.269531,1.765626 c -0.07031,0.02344 -0.164063,0.04687 -0.234375,0.09375 0.04687,-0.04688 0.117188,-0.07031 0.234375,-0.09375 z m 0,0"
       id="path7" />
    <path
       style="fill:#ffffff;fill-opacity:1;fill-rule:nonzero;stroke:none"
       d="m 29.5,56.703125 c 3.914062,0 7.359375,-1.953125 9.4375,-4.921875 l -0.140625,-0.234375 c -2.429687,2.648437 -5.144531,4.367187 -9.320313,4.457031 C 24.285156,56.097656 19.023438,51.523438 19,45.535156 c -0.04687,-3.851562 1.769531,-6.453125 4.859375,-8.308594 v -1.625 c -3.46875,1.925782 -5.824219,5.617188 -5.824219,9.816407 0,6.199219 5.140625,11.285156 11.464844,11.285156 z m 0,0"
       id="path8" />
    <path
       style="fill:url(#linear0);fill-rule:nonzero;stroke:none"
       d="m 3.171875,0.1875 h 53.65625 c 1.722656,0 3.121094,1.371094 3.121094,3.066406 v 83.492188 c 0,1.691406 -1.398438,3.066406 -3.121094,3.066406 H 3.171875 c -1.722656,0 -3.1210938,-1.375 -3.1210938,-3.066406 V 3.253906 C 0.0507812,1.558594 1.449219,0.1875 3.171875,0.1875 Z m 0,0"
       id="path9" />
  </g>
</svg>
