<?xml version="1.0" encoding="UTF-8" standalone="no"?>
<svg
   width="90px"
   height="130px"
   viewBox="0 0 90 130"
   version="1.1"
   id="svg142"
   sodipodi:docname="back.svg"
   inkscape:version="1.4.3 (1:1.4.3+202512261035+0d15f75042)"
   xmlns:inkscape="http://www.inkscape.org/namespaces/inkscape"
   xmlns:sodipodi="http://sodipodi.sourceforge.net/DTD/sodipodi-0.dtd"
   xmlns="http://www.w3.org/2000/svg"
   xmlns:svg="http://www.w3.org/2000/svg">
  <defs
     id="defs142" />
  <sodipodi:namedview
     id="namedview142"
     pagecolor="#ffffff"
     bordercolor="#000000"
     borderopacity="0.25"
     inkscape:showpageshadow="2"
     inkscape:pageopacity="0.0"
     inkscape:pagecheckerboard="0"
     inkscape:deskcolor="#d1d1d1"
     showgrid="false"
     inkscape:zoom="6.1769231"
     inkscape:cx="45.006227"
     inkscape:cy="65"
     inkscape:window-width="1854"
     inkscape:window-height="1011"
     inkscape:window-x="0"
     inkscape:window-y="0"
     inkscape:window-maximized="1"
     inkscape:current-layer="svg142" />
  <g
     id="surface1"
     transform="matrix(1.5006112,0,0,1.4440542,-6.0647864e-4,-3.1036046e-7)">
    <path
       style="fill:#ffffff;fill-opacity:1;fill-rule:nonzero;stroke:#353f45;stroke-width:3;stroke-linecap:butt;stroke-linejoin:miter;stroke-miterlimit:4;stroke-opacity:1"
       d="M 9.496747,1.500069 H 135.50327 c 4.41797,0 7.99577,3.58125 7.99577,7.996875 V 206.50321 c 0,4.41562 -3.5778,7.99688 -7.99577,7.99688 H 9.496747 c -4.417969,0 -7.995769,-3.58126 -7.995769,-7.99688 V 9.496944 c 0,-4.415625 3.5778,-7.996875 7.995769,-7.996875 z m 0,0"
       transform="matrix(0.413793,0,0,0.416667,-5.35142e-7,-2.85351e-5)"
       id="path1" />
    <path
       style="fill:#7575cc;fill-opacity:1;fill-rule:nonzero;stroke:none"
       d="M 3.101562,65.832031 V 70 h 4.140626 v -4.167969 z m 2.070313,0.835938 c 1.65625,0 1.65625,2.5 0,2.5 -1.65625,0 -1.65625,-2.5 0,-2.5 z m 0,0"
       id="path2" />
    <path
       style="fill:#7575cc;fill-opacity:1;fill-rule:nonzero;stroke:none"
       d="M 19.65625,65.832031 V 70 h 4.136719 v -4.167969 z m -2.070312,0.835938 c -1.65625,0 -1.65625,2.5 0,2.5 1.65625,0 1.65625,-2.5 0,-2.5 z m 4.136718,0 c 1.65625,0 1.65625,2.5 0,2.5 -1.652344,0 -1.652344,-2.5 0,-2.5 z m 0,0"
       id="path3" />
    <path
       style="fill:#7575cc;fill-opacity:1;fill-rule:nonzero;stroke:none"
       d="M 27.929688,65.832031 V 70 h 4.140624 v -4.167969 z m -2.066407,0.835938 c -1.65625,0 -1.65625,2.5 0,2.5 1.652344,0 1.652344,-2.5 0,-2.5 z m 4.136719,0 c 1.65625,0 1.65625,2.5 0,2.5 -1.65625,0 -1.65625,-2.5 0,-2.5 z m 0,0"
       id="path4" />
    <path
       style="fill:#7575cc;fill-opacity:1;fill-rule:nonzero;stroke:none"
       d="M 36.207031,65.832031 V 70 h 4.136719 v -4.167969 z m -2.070312,0.835938 c -1.652344,0 -1.652344,2.5 0,2.5 1.65625,0 1.65625,-2.5 0,-2.5 z m 4.140625,0 c 1.652344,0 1.652344,2.5 0,2.5 -1.65625,0 -1.65625,-2.5 0,-2.5 z m 0,0"
       id="path5" />
    <path
       style="fill:#7575cc;fill-opacity:1;fill-rule:nonzero;stroke:none"
       d="M 44.484375,65.832031 V 70 h 4.136719 v -4.167969 z m -2.070313,0.835938 c -1.65625,0 -1.65625,2.5 0,2.5 1.65625,0 1.65625,-2.5 0,-2.5 z m 4.136719,0 c 1.65625,0 1.65625,2.5 0,2.5 -1.652343,0 -1.652343,-2.5 0,-2.5 z m 0,0"
       id="path6" />
    <path
       style="fill:#7575cc;fill-opacity:1;fill-rule:nonzero;stroke:none"
       d="M 11.378906,65.832031 V 70 h 4.136719 v -4.167969 z m -2.070312,0.835938 c -1.652344,0 -1.652344,2.5 0,2.5 1.65625,0 1.65625,-2.5 0,-2.5 z m 4.140625,0 c 1.652343,0 1.652343,2.5 0,2.5 -1.65625,0 -1.65625,-2.5 0,-2.5 z m 0,0"
       id="path7" />
    <path
       style="fill:#7575cc;fill-opacity:1;fill-rule:nonzero;stroke:none"
       d="M 52.757812,65.832031 V 70 h 4.140626 v -4.167969 z m -2.066406,0.835938 c -1.65625,0 -1.65625,2.5 0,2.5 1.652344,0 1.652344,-2.5 0,-2.5 z m 4.136719,0 c 1.65625,0 1.65625,2.5 0,2.5 -1.65625,0 -1.65625,-2.5 0,-2.5 z m 0,0"
       id="path8" />
    <path
       style="fill:#7575cc;fill-opacity:1;fill-rule:nonzero;stroke:none"
       d="m 7.242188,70 v 4.167969 h 4.136718 V 70 Z m -2.070313,0.832031 c -1.65625,0 -1.65625,2.5 0,2.5 1.65625,0 1.65625,-2.5 0,-2.5 z m 4.136719,0 c 1.65625,0 1.65625,2.5 0,2.5 -1.652344,0 -1.652344,-2.5 0,-2.5 z m 0,0"
       id="path9" />
    <path
       style="fill:#7575cc;fill-opacity:1;fill-rule:nonzero;stroke:none"
       d="m 15.515625,70 v 4.167969 H 19.65625 V 70 Z m -2.066406,0.832031 c -1.65625,0 -1.65625,2.5 0,2.5 1.652343,0 1.652343,-2.5 0,-2.5 z m 4.136719,0 c 1.65625,0 1.65625,2.5 0,2.5 -1.65625,0 -1.65625,-2.5 0,-2.5 z m 0,0"
       id="path10" />
    <path
       style="fill:#7575cc;fill-opacity:1;fill-rule:nonzero;stroke:none"
       d="m 23.792969,70 v 4.167969 h 4.136719 V 70 Z m -2.070313,0.832031 c -1.652344,0 -1.652344,2.5 0,2.5 1.65625,0 1.65625,-2.5 0,-2.5 z m 4.140625,0 c 1.652344,0 1.652344,2.5 0,2.5 -1.65625,0 -1.65625,-2.5 0,-2.5 z m 0,0"
       id="path11" />
    <path
       style="fill:#7575cc;fill-opacity:1;fill-rule:nonzero;stroke:none"
       d="m 32.070312,70 v 4.167969 h 4.136719 V 70 Z M 30,70.832031 c -1.65625,0 -1.65625,2.5 0,2.5 1.65625,0 1.65625,-2.5 0,-2.5 z m 4.136719,0 c 1.65625,0 1.65625,2.5 0,2.5 -1.652344,0 -1.652344,-2.5 0,-2.5 z m 0,0"
       id="path12" />
    <path
       style="fill:#7575cc;fill-opacity:1;fill-rule:nonzero;stroke:none"
       d="m 40.34375,70 v 4.167969 h 4.140625 V 70 Z m -2.066406,0.832031 c -1.65625,0 -1.65625,2.5 0,2.5 1.652344,0 1.652344,-2.5 0,-2.5 z m 4.136718,0 c 1.65625,0 1.65625,2.5 0,2.5 -1.65625,0 -1.65625,-2.5 0,-2.5 z m 0,0"
       id="path13" />
    <path
       style="fill:#7575cc;fill-opacity:1;fill-rule:nonzero;stroke:none"
       d="m 48.621094,70 v 4.167969 h 4.136718 V 70 Z m -2.070313,0.832031 c -1.652343,0 -1.652343,2.5 0,2.5 1.65625,0 1.65625,-2.5 0,-2.5 z m 4.140625,0 c 1.652344,0 1.652344,2.5 0,2.5 -1.65625,0 -1.65625,-2.5 0,-2.5 z m 0,0"
       id="path14" />
    <path
       style="fill:#7575cc;fill-opacity:1;fill-rule:nonzero;stroke:none"
       d="m 54.828125,70.832031 c -1.65625,0 -1.65625,2.5 0,2.5 1.65625,0 1.65625,-2.5 0,-2.5 z m 0,0"
       id="path15" />
    <path
       style="fill:#7575cc;fill-opacity:1;fill-rule:nonzero;stroke:none"
       d="m 3.101562,57.5 v 4.167969 H 7.242188 V 57.5 Z m 2.070313,0.832031 c 1.65625,0 1.65625,2.5 0,2.5 -1.65625,0 -1.65625,-2.5 0,-2.5 z m 0,0"
       id="path16" />
    <path
       style="fill:#7575cc;fill-opacity:1;fill-rule:nonzero;stroke:none"
       d="m 19.65625,57.5 v 4.167969 h 4.136719 V 57.5 Z m -2.070312,0.832031 c -1.65625,0 -1.65625,2.5 0,2.5 1.65625,0 1.65625,-2.5 0,-2.5 z m 4.136718,0 c 1.65625,0 1.65625,2.5 0,2.5 -1.652344,0 -1.652344,-2.5 0,-2.5 z m 0,0"
       id="path17" />
    <path
       style="fill:#7575cc;fill-opacity:1;fill-rule:nonzero;stroke:none"
       d="m 27.929688,57.5 v 4.167969 h 4.140624 V 57.5 Z m -2.066407,0.832031 c -1.65625,0 -1.65625,2.5 0,2.5 1.652344,0 1.652344,-2.5 0,-2.5 z m 4.136719,0 c 1.65625,0 1.65625,2.5 0,2.5 -1.65625,0 -1.65625,-2.5 0,-2.5 z m 0,0"
       id="path18" />
    <path
       style="fill:#7575cc;fill-opacity:1;fill-rule:nonzero;stroke:none"
       d="m 36.207031,57.5 v 4.167969 H 40.34375 V 57.5 Z m -2.070312,0.832031 c -1.652344,0 -1.652344,2.5 0,2.5 1.65625,0 1.65625,-2.5 0,-2.5 z m 4.140625,0 c 1.652344,0 1.652344,2.5 0,2.5 -1.65625,0 -1.65625,-2.5 0,-2.5 z m 0,0"
       id="path19" />
    <path
       style="fill:#7575cc;fill-opacity:1;fill-rule:nonzero;stroke:none"
       d="m 44.484375,57.5 v 4.167969 h 4.136719 V 57.5 Z m -2.070313,0.832031 c -1.65625,0 -1.65625,2.5 0,2.5 1.65625,0 1.65625,-2.5 0,-2.5 z m 4.136719,0 c 1.65625,0 1.65625,2.5 0,2.5 -1.652343,0 -1.652343,-2.5 0,-2.5 z m 0,0"
       id="path20" />
    <path
       style="fill:#7575cc;fill-opacity:1;fill-rule:nonzero;stroke:none"
       d="m 11.378906,57.5 v 4.167969 h 4.136719 V 57.5 Z m -2.070312,0.832031 c -1.652344,0 -1.652344,2.5 0,2.5 1.65625,0 1.65625,-2.5 0,-2.5 z m 4.140625,0 c 1.652343,0 1.652343,2.5 0,2.5 -1.65625,0 -1.65625,-2.5 0,-2.5 z m 0,0"
       id="path21" />
    <path
       style="fill:#7575cc;fill-opacity:1;fill-rule:nonzero;stroke:none"
       d="m 52.757812,57.5 v 4.167969 h 4.140626 V 57.5 Z m -2.066406,0.832031 c -1.65625,0 -1.65625,2.5 0,2.5 1.652344,0 1.652344,-2.5 0,-2.5 z m 4.136719,0 c 1.65625,0 1.65625,2.5 0,2.5 -1.65625,0 -1.65625,-2.5 0,-2.5 z m 0,0"
       id="path22" />
    <path
       style="fill:#7575cc;fill-opacity:1;fill-rule:nonzero;stroke:none"
       d="m 7.242188,61.667969 v 4.164062 h 4.136718 V 61.667969 Z M 5.171875,62.5 c -1.65625,0 -1.65625,2.5 0,2.5 1.65625,0 1.65625,-2.5 0,-2.5 z m 4.136719,0 c 1.65625,0 1.65625,2.5 0,2.5 -1.652344,0 -1.652344,-2.5 0,-2.5 z m 0,0"
       id="path23" />
    <path
       style="fill:#7575cc;fill-opacity:1;fill-rule:nonzero;stroke:none"
       d="m 15.515625,61.667969 v 4.164062 H 19.65625 V 61.667969 Z M 13.449219,62.5 c -1.65625,0 -1.65625,2.5 0,2.5 1.652343,0 1.652343,-2.5 0,-2.5 z m 4.136719,0 c 1.65625,0 1.65625,2.5 0,2.5 -1.65625,0 -1.65625,-2.5 0,-2.5 z m 0,0"
       id="path24" />
    <path
       style="fill:#7575cc;fill-opacity:1;fill-rule:nonzero;stroke:none"
       d="m 23.792969,61.667969 v 4.164062 h 4.136719 V 61.667969 Z M 21.722656,62.5 c -1.652344,0 -1.652344,2.5 0,2.5 1.65625,0 1.65625,-2.5 0,-2.5 z m 4.140625,0 c 1.652344,0 1.652344,2.5 0,2.5 -1.65625,0 -1.65625,-2.5 0,-2.5 z m 0,0"
       id="path25" />
    <path
       style="fill:#7575cc;fill-opacity:1;fill-rule:nonzero;stroke:none"
       d="m 32.070312,61.667969 v 4.164062 h 4.136719 V 61.667969 Z M 30,62.5 c -1.65625,0 -1.65625,2.5 0,2.5 1.65625,0 1.65625,-2.5 0,-2.5 z m 4.136719,0 c 1.65625,0 1.65625,2.5 0,2.5 -1.652344,0 -1.652344,-2.5 0,-2.5 z m 0,0"
       id="path26" />
    <path
       style="fill:#7575cc;fill-opacity:1;fill-rule:nonzero;stroke:none"
       d="m 40.34375,61.667969 v 4.164062 h 4.140625 V 61.667969 Z M 38.277344,62.5 c -1.65625,0 -1.65625,2.5 0,2.5 1.652344,0 1.652344,-2.5 0,-2.5 z m 4.136718,0 c 1.65625,0 1.65625,2.5 0,2.5 -1.65625,0 -1.65625,-2.5 0,-2.5 z m 0,0"
       id="path27" />
    <path
       style="fill:#7575cc;fill-opacity:1;fill-rule:nonzero;stroke:none"
       d="m 48.621094,61.667969 v 4.164062 h 4.136718 V 61.667969 Z M 46.550781,62.5 c -1.652343,0 -1.652343,2.5 0,2.5 1.65625,0 1.65625,-2.5 0,-2.5 z m 4.140625,0 c 1.652344,0 1.652344,2.5 0,2.5 -1.65625,0 -1.65625,-2.5 0,-2.5 z m 0,0"
       id="path28" />
    <path
       style="fill:#7575cc;fill-opacity:1;fill-rule:nonzero;stroke:none"
       d="m 54.828125,62.5 c -1.65625,0 -1.65625,2.5 0,2.5 1.65625,0 1.65625,-2.5 0,-2.5 z m 0,0"
       id="path29" />
    <path
       style="fill:#7575cc;fill-opacity:1;fill-rule:nonzero;stroke:none"
       d="m 3.101562,49.167969 v 4.164062 H 7.242188 V 49.167969 Z M 5.171875,50 c 1.65625,0 1.65625,2.5 0,2.5 -1.65625,0 -1.65625,-2.5 0,-2.5 z m 0,0"
       id="path30" />
    <path
       style="fill:#7575cc;fill-opacity:1;fill-rule:nonzero;stroke:none"
       d="m 19.65625,49.167969 v 4.164062 h 4.136719 V 49.167969 Z M 17.585938,50 c -1.65625,0 -1.65625,2.5 0,2.5 1.65625,0 1.65625,-2.5 0,-2.5 z m 4.136718,0 c 1.65625,0 1.65625,2.5 0,2.5 -1.652344,0 -1.652344,-2.5 0,-2.5 z m 0,0"
       id="path31" />
    <path
       style="fill:#7575cc;fill-opacity:1;fill-rule:nonzero;stroke:none"
       d="m 27.929688,49.167969 v 4.164062 h 4.140624 V 49.167969 Z M 25.863281,50 c -1.65625,0 -1.65625,2.5 0,2.5 1.652344,0 1.652344,-2.5 0,-2.5 z M 30,50 c 1.65625,0 1.65625,2.5 0,2.5 -1.65625,0 -1.65625,-2.5 0,-2.5 z m 0,0"
       id="path32" />
    <path
       style="fill:#7575cc;fill-opacity:1;fill-rule:nonzero;stroke:none"
       d="m 36.207031,49.167969 v 4.164062 H 40.34375 V 49.167969 Z M 34.136719,50 c -1.652344,0 -1.652344,2.5 0,2.5 1.65625,0 1.65625,-2.5 0,-2.5 z m 4.140625,0 c 1.652344,0 1.652344,2.5 0,2.5 -1.65625,0 -1.65625,-2.5 0,-2.5 z m 0,0"
       id="path33" />
    <path
       style="fill:#7575cc;fill-opacity:1;fill-rule:nonzero;stroke:none"
       d="m 44.484375,49.167969 v 4.164062 h 4.136719 V 49.167969 Z M 42.414062,50 c -1.65625,0 -1.65625,2.5 0,2.5 1.65625,0 1.65625,-2.5 0,-2.5 z m 4.136719,0 c 1.65625,0 1.65625,2.5 0,2.5 -1.652343,0 -1.652343,-2.5 0,-2.5 z m 0,0"
       id="path34" />
    <path
       style="fill:#7575cc;fill-opacity:1;fill-rule:nonzero;stroke:none"
       d="m 11.378906,49.167969 v 4.164062 h 4.136719 V 49.167969 Z M 9.308594,50 c -1.652344,0 -1.652344,2.5 0,2.5 1.65625,0 1.65625,-2.5 0,-2.5 z m 4.140625,0 c 1.652343,0 1.652343,2.5 0,2.5 -1.65625,0 -1.65625,-2.5 0,-2.5 z m 0,0"
       id="path35" />
    <path
       style="fill:#7575cc;fill-opacity:1;fill-rule:nonzero;stroke:none"
       d="m 52.757812,49.167969 v 4.164062 h 4.140626 V 49.167969 Z M 50.691406,50 c -1.65625,0 -1.65625,2.5 0,2.5 1.652344,0 1.652344,-2.5 0,-2.5 z m 4.136719,0 c 1.65625,0 1.65625,2.5 0,2.5 -1.65625,0 -1.65625,-2.5 0,-2.5 z m 0,0"
       id="path36" />
    <path
       style="fill:#7575cc;fill-opacity:1;fill-rule:nonzero;stroke:none"
       d="M 7.242188,53.332031 V 57.5 h 4.136718 v -4.167969 z m -2.070313,0.835938 c -1.65625,0 -1.65625,2.5 0,2.5 1.65625,0 1.65625,-2.5 0,-2.5 z m 4.136719,0 c 1.65625,0 1.65625,2.5 0,2.5 -1.652344,0 -1.652344,-2.5 0,-2.5 z m 0,0"
       id="path37" />
    <path
       style="fill:#7575cc;fill-opacity:1;fill-rule:nonzero;stroke:none"
       d="M 15.515625,53.332031 V 57.5 h 4.140625 v -4.167969 z m -2.066406,0.835938 c -1.65625,0 -1.65625,2.5 0,2.5 1.652343,0 1.652343,-2.5 0,-2.5 z m 4.136719,0 c 1.65625,0 1.65625,2.5 0,2.5 -1.65625,0 -1.65625,-2.5 0,-2.5 z m 0,0"
       id="path38" />
    <path
       style="fill:#7575cc;fill-opacity:1;fill-rule:nonzero;stroke:none"
       d="M 23.792969,53.332031 V 57.5 h 4.136719 v -4.167969 z m -2.070313,0.835938 c -1.652344,0 -1.652344,2.5 0,2.5 1.65625,0 1.65625,-2.5 0,-2.5 z m 4.140625,0 c 1.652344,0 1.652344,2.5 0,2.5 -1.65625,0 -1.65625,-2.5 0,-2.5 z m 0,0"
       id="path39" />
    <path
       style="fill:#7575cc;fill-opacity:1;fill-rule:nonzero;stroke:none"
       d="M 32.070312,53.332031 V 57.5 h 4.136719 V 53.332031 Z M 30,54.167969 c -1.65625,0 -1.65625,2.5 0,2.5 1.65625,0 1.65625,-2.5 0,-2.5 z m 4.136719,0 c 1.65625,0 1.65625,2.5 0,2.5 -1.652344,0 -1.652344,-2.5 0,-2.5 z m 0,0"
       id="path40" />
    <path
       style="fill:#7575cc;fill-opacity:1;fill-rule:nonzero;stroke:none"
       d="M 40.34375,53.332031 V 57.5 h 4.140625 v -4.167969 z m -2.066406,0.835938 c -1.65625,0 -1.65625,2.5 0,2.5 1.652344,0 1.652344,-2.5 0,-2.5 z m 4.136718,0 c 1.65625,0 1.65625,2.5 0,2.5 -1.65625,0 -1.65625,-2.5 0,-2.5 z m 0,0"
       id="path41" />
    <path
       style="fill:#7575cc;fill-opacity:1;fill-rule:nonzero;stroke:none"
       d="M 48.621094,53.332031 V 57.5 h 4.136718 v -4.167969 z m -2.070313,0.835938 c -1.652343,0 -1.652343,2.5 0,2.5 1.65625,0 1.65625,-2.5 0,-2.5 z m 4.140625,0 c 1.652344,0 1.652344,2.5 0,2.5 -1.65625,0 -1.65625,-2.5 0,-2.5 z m 0,0"
       id="path42" />
    <path
       style="fill:#7575cc;fill-opacity:1;fill-rule:nonzero;stroke:none"
       d="m 54.828125,54.167969 c -1.65625,0 -1.65625,2.5 0,2.5 1.65625,0 1.65625,-2.5 0,-2.5 z m 0,0"
       id="path43" />
    <path
       style="fill:#7575cc;fill-opacity:1;fill-rule:nonzero;stroke:none"
       d="M 3.101562,40.832031 V 45 h 4.140626 v -4.167969 z m 2.070313,0.835938 c 1.65625,0 1.65625,2.5 0,2.5 -1.65625,0 -1.65625,-2.5 0,-2.5 z m 0,0"
       id="path44" />
    <path
       style="fill:#7575cc;fill-opacity:1;fill-rule:nonzero;stroke:none"
       d="M 19.65625,40.832031 V 45 h 4.136719 v -4.167969 z m -2.070312,0.835938 c -1.65625,0 -1.65625,2.5 0,2.5 1.65625,0 1.65625,-2.5 0,-2.5 z m 4.136718,0 c 1.65625,0 1.65625,2.5 0,2.5 -1.652344,0 -1.652344,-2.5 0,-2.5 z m 0,0"
       id="path45" />
    <path
       style="fill:#7575cc;fill-opacity:1;fill-rule:nonzero;stroke:none"
       d="M 27.929688,40.832031 V 45 h 4.140624 v -4.167969 z m -2.066407,0.835938 c -1.65625,0 -1.65625,2.5 0,2.5 1.652344,0 1.652344,-2.5 0,-2.5 z m 4.136719,0 c 1.65625,0 1.65625,2.5 0,2.5 -1.65625,0 -1.65625,-2.5 0,-2.5 z m 0,0"
       id="path46" />
    <path
       style="fill:#7575cc;fill-opacity:1;fill-rule:nonzero;stroke:none"
       d="M 36.207031,40.832031 V 45 h 4.136719 v -4.167969 z m -2.070312,0.835938 c -1.652344,0 -1.652344,2.5 0,2.5 1.65625,0 1.65625,-2.5 0,-2.5 z m 4.140625,0 c 1.652344,0 1.652344,2.5 0,2.5 -1.65625,0 -1.65625,-2.5 0,-2.5 z m 0,0"
       id="path47" />
    <path
       style="fill:#7575cc;fill-opacity:1;fill-rule:nonzero;stroke:none"
       d="M 44.484375,40.832031 V 45 h 4.136719 v -4.167969 z m -2.070313,0.835938 c -1.65625,0 -1.65625,2.5 0,2.5 1.65625,0 1.65625,-2.5 0,-2.5 z m 4.136719,0 c 1.65625,0 1.65625,2.5 0,2.5 -1.652343,0 -1.652343,-2.5 0,-2.5 z m 0,0"
       id="path48" />
    <path
       style="fill:#7575cc;fill-opacity:1;fill-rule:nonzero;stroke:none"
       d="M 11.378906,40.832031 V 45 h 4.136719 v -4.167969 z m -2.070312,0.835938 c -1.652344,0 -1.652344,2.5 0,2.5 1.65625,0 1.65625,-2.5 0,-2.5 z m 4.140625,0 c 1.652343,0 1.652343,2.5 0,2.5 -1.65625,0 -1.65625,-2.5 0,-2.5 z m 0,0"
       id="path49" />
    <path
       style="fill:#7575cc;fill-opacity:1;fill-rule:nonzero;stroke:none"
       d="M 52.757812,40.832031 V 45 h 4.140626 v -4.167969 z m -2.066406,0.835938 c -1.65625,0 -1.65625,2.5 0,2.5 1.652344,0 1.652344,-2.5 0,-2.5 z m 4.136719,0 c 1.65625,0 1.65625,2.5 0,2.5 -1.65625,0 -1.65625,-2.5 0,-2.5 z m 0,0"
       id="path50" />
    <path
       style="fill:#7575cc;fill-opacity:1;fill-rule:nonzero;stroke:none"
       d="m 7.242188,45 v 4.167969 h 4.136718 V 45 Z m -2.070313,0.832031 c -1.65625,0 -1.65625,2.5 0,2.5 1.65625,0 1.65625,-2.5 0,-2.5 z m 4.136719,0 c 1.65625,0 1.65625,2.5 0,2.5 -1.652344,0 -1.652344,-2.5 0,-2.5 z m 0,0"
       id="path51" />
    <path
       style="fill:#7575cc;fill-opacity:1;fill-rule:nonzero;stroke:none"
       d="m 15.515625,45 v 4.167969 H 19.65625 V 45 Z m -2.066406,0.832031 c -1.65625,0 -1.65625,2.5 0,2.5 1.652343,0 1.652343,-2.5 0,-2.5 z m 4.136719,0 c 1.65625,0 1.65625,2.5 0,2.5 -1.65625,0 -1.65625,-2.5 0,-2.5 z m 0,0"
       id="path52" />
    <path
       style="fill:#7575cc;fill-opacity:1;fill-rule:nonzero;stroke:none"
       d="m 23.792969,45 v 4.167969 h 4.136719 V 45 Z m -2.070313,0.832031 c -1.652344,0 -1.652344,2.5 0,2.5 1.65625,0 1.65625,-2.5 0,-2.5 z m 4.140625,0 c 1.652344,0 1.652344,2.5 0,2.5 -1.65625,0 -1.65625,-2.5 0,-2.5 z m 0,0"
       id="path53" />
    <path
       style="fill:#7575cc;fill-opacity:1;fill-rule:nonzero;stroke:none"
       d="m 32.070312,45 v 4.167969 h 4.136719 V 45 Z M 30,45.832031 c -1.65625,0 -1.65625,2.5 0,2.5 1.65625,0 1.65625,-2.5 0,-2.5 z m 4.136719,0 c 1.65625,0 1.65625,2.5 0,2.5 -1.652344,0 -1.652344,-2.5 0,-2.5 z m 0,0"
       id="path54" />
    <path
       style="fill:#7575cc;fill-opacity:1;fill-rule:nonzero;stroke:none"
       d="m 40.34375,45 v 4.167969 h 4.140625 V 45 Z m -2.066406,0.832031 c -1.65625,0 -1.65625,2.5 0,2.5 1.652344,0 1.652344,-2.5 0,-2.5 z m 4.136718,0 c 1.65625,0 1.65625,2.5 0,2.5 -1.65625,0 -1.65625,-2.5 0,-2.5 z m 0,0"
       id="path55" />
    <path
       style="fill:#7575cc;fill-opacity:1;fill-rule:nonzero;stroke:none"
       d="m 48.621094,45 v 4.167969 h 4.136718 V 45 Z m -2.070313,0.832031 c -1.652343,0 -1.652343,2.5 0,2.5 1.65625,0 1.65625,-2.5 0,-2.5 z m 4.140625,0 c 1.652344,0 1.652344,2.5 0,2.5 -1.65625,0 -1.65625,-2.5 0,-2.5 z m 0,0"
       id="path56" />
    <path
       style="fill:#7575cc;fill-opacity:1;fill-rule:nonzero;stroke:none"
       d="m 54.828125,45.832031 c -1.65625,0 -1.65625,2.5 0,2.5 1.65625,0 1.65625,-2.5 0,-2.5 z m 0,0"
       id="path57" />
    <path
       style="fill:#7575cc;fill-opacity:1;fill-rule:nonzero;stroke:none"
       d="m 3.101562,32.5 v 4.167969 H 7.242188 V 32.5 Z m 2.070313,0.832031 c 1.65625,0 1.65625,2.5 0,2.5 -1.65625,0 -1.65625,-2.5 0,-2.5 z m 0,0"
       id="path58" />
    <path
       style="fill:#7575cc;fill-opacity:1;fill-rule:nonzero;stroke:none"
       d="m 19.65625,32.5 v 4.167969 h 4.136719 V 32.5 Z m -2.070312,0.832031 c -1.65625,0 -1.65625,2.5 0,2.5 1.65625,0 1.65625,-2.5 0,-2.5 z m 4.136718,0 c 1.65625,0 1.65625,2.5 0,2.5 -1.652344,0 -1.652344,-2.5 0,-2.5 z m 0,0"
       id="path59" />
    <path
       style="fill:#7575cc;fill-opacity:1;fill-rule:nonzero;stroke:none"
       d="m 27.929688,32.5 v 4.167969 h 4.140624 V 32.5 Z m -2.066407,0.832031 c -1.65625,0 -1.65625,2.5 0,2.5 1.652344,0 1.652344,-2.5 0,-2.5 z m 4.136719,0 c 1.65625,0 1.65625,2.5 0,2.5 -1.65625,0 -1.65625,-2.5 0,-2.5 z m 0,0"
       id="path60" />
    <path
       style="fill:#7575cc;fill-opacity:1;fill-rule:nonzero;stroke:none"
       d="m 36.207031,32.5 v 4.167969 H 40.34375 V 32.5 Z m -2.070312,0.832031 c -1.652344,0 -1.652344,2.5 0,2.5 1.65625,0 1.65625,-2.5 0,-2.5 z m 4.140625,0 c 1.652344,0 1.652344,2.5 0,2.5 -1.65625,0 -1.65625,-2.5 0,-2.5 z m 0,0"
       id="path61" />
    <path
       style="fill:#7575cc;fill-opacity:1;fill-rule:nonzero;stroke:none"
       d="m 44.484375,32.5 v 4.167969 h 4.136719 V 32.5 Z m -2.070313,0.832031 c -1.65625,0 -1.65625,2.5 0,2.5 1.65625,0 1.65625,-2.5 0,-2.5 z m 4.136719,0 c 1.65625,0 1.65625,2.5 0,2.5 -1.652343,0 -1.652343,-2.5 0,-2.5 z m 0,0"
       id="path62" />
    <path
       style="fill:#7575cc;fill-opacity:1;fill-rule:nonzero;stroke:none"
       d="m 11.378906,32.5 v 4.167969 h 4.136719 V 32.5 Z m -2.070312,0.832031 c -1.652344,0 -1.652344,2.5 0,2.5 1.65625,0 1.65625,-2.5 0,-2.5 z m 4.140625,0 c 1.652343,0 1.652343,2.5 0,2.5 -1.65625,0 -1.65625,-2.5 0,-2.5 z m 0,0"
       id="path63" />
    <path
       style="fill:#7575cc;fill-opacity:1;fill-rule:nonzero;stroke:none"
       d="m 52.757812,32.5 v 4.167969 h 4.140626 V 32.5 Z m -2.066406,0.832031 c -1.65625,0 -1.65625,2.5 0,2.5 1.652344,0 1.652344,-2.5 0,-2.5 z m 4.136719,0 c 1.65625,0 1.65625,2.5 0,2.5 -1.65625,0 -1.65625,-2.5 0,-2.5 z m 0,0"
       id="path64" />
    <path
       style="fill:#7575cc;fill-opacity:1;fill-rule:nonzero;stroke:none"
       d="m 7.242188,36.667969 v 4.164062 h 4.136718 V 36.667969 Z M 5.171875,37.5 c -1.65625,0 -1.65625,2.5 0,2.5 1.65625,0 1.65625,-2.5 0,-2.5 z m 4.136719,0 c 1.65625,0 1.65625,2.5 0,2.5 -1.652344,0 -1.652344,-2.5 0,-2.5 z m 0,0"
       id="path65" />
    <path
       style="fill:#7575cc;fill-opacity:1;fill-rule:nonzero;stroke:none"
       d="m 15.515625,36.667969 v 4.164062 H 19.65625 V 36.667969 Z M 13.449219,37.5 c -1.65625,0 -1.65625,2.5 0,2.5 1.652343,0 1.652343,-2.5 0,-2.5 z m 4.136719,0 c 1.65625,0 1.65625,2.5 0,2.5 -1.65625,0 -1.65625,-2.5 0,-2.5 z m 0,0"
       id="path66" />
    <path
       style="fill:#7575cc;fill-opacity:1;fill-rule:nonzero;stroke:none"
       d="m 23.792969,36.667969 v 4.164062 h 4.136719 V 36.667969 Z M 21.722656,37.5 c -1.652344,0 -1.652344,2.5 0,2.5 1.65625,0 1.65625,-2.5 0,-2.5 z m 4.140625,0 c 1.652344,0 1.652344,2.5 0,2.5 -1.65625,0 -1.65625,-2.5 0,-2.5 z m 0,0"
       id="path67" />
    <path
       style="fill:#7575cc;fill-opacity:1;fill-rule:nonzero;stroke:none"
       d="m 32.070312,36.667969 v 4.164062 h 4.136719 V 36.667969 Z M 30,37.5 c -1.65625,0 -1.65625,2.5 0,2.5 1.65625,0 1.65625,-2.5 0,-2.5 z m 4.136719,0 c 1.65625,0 1.65625,2.5 0,2.5 -1.652344,0 -1.652344,-2.5 0,-2.5 z m 0,0"
       id="path68" />
    <path
       style="fill:#7575cc;fill-opacity:1;fill-rule:nonzero;stroke:none"
       d="m 40.34375,36.667969 v 4.164062 h 4.140625 V 36.667969 Z M 38.277344,37.5 c -1.65625,0 -1.65625,2.5 0,2.5 1.652344,0 1.652344,-2.5 0,-2.5 z m 4.136718,0 c 1.65625,0 1.65625,2.5 0,2.5 -1.65625,0 -1.65625,-2.5 0,-2.5 z m 0,0"
       id="path69" />
    <path
       style="fill:#7575cc;fill-opacity:1;fill-rule:nonzero;stroke:none"
       d="m 48.621094,36.667969 v 4.164062 h 4.136718 V 36.667969 Z M 46.550781,37.5 c -1.652343,0 -1.652343,2.5 0,2.5 1.65625,0 1.65625,-2.5 0,-2.5 z m 4.140625,0 c 1.652344,0 1.652344,2.5 0,2.5 -1.65625,0 -1.65625,-2.5 0,-2.5 z m 0,0"
       id="path70" />
    <path
       style="fill:#7575cc;fill-opacity:1;fill-rule:nonzero;stroke:none"
       d="m 54.828125,37.5 c -1.65625,0 -1.65625,2.5 0,2.5 1.65625,0 1.65625,-2.5 0,-2.5 z m 0,0"
       id="path71" />
    <path
       style="fill:#7575cc;fill-opacity:1;fill-rule:nonzero;stroke:none"
       d="m 3.101562,24.167969 v 4.164062 H 7.242188 V 24.167969 Z M 5.171875,25 c 1.65625,0 1.65625,2.5 0,2.5 -1.65625,0 -1.65625,-2.5 0,-2.5 z m 0,0"
       id="path72" />
    <path
       style="fill:#7575cc;fill-opacity:1;fill-rule:nonzero;stroke:none"
       d="m 19.65625,24.167969 v 4.164062 h 4.136719 V 24.167969 Z M 17.585938,25 c -1.65625,0 -1.65625,2.5 0,2.5 1.65625,0 1.65625,-2.5 0,-2.5 z m 4.136718,0 c 1.65625,0 1.65625,2.5 0,2.5 -1.652344,0 -1.652344,-2.5 0,-2.5 z m 0,0"
       id="path73" />
    <path
       style="fill:#7575cc;fill-opacity:1;fill-rule:nonzero;stroke:none"
       d="m 27.929688,24.167969 v 4.164062 h 4.140624 V 24.167969 Z M 25.863281,25 c -1.65625,0 -1.65625,2.5 0,2.5 1.652344,0 1.652344,-2.5 0,-2.5 z M 30,25 c 1.65625,0 1.65625,2.5 0,2.5 -1.65625,0 -1.65625,-2.5 0,-2.5 z m 0,0"
       id="path74" />
    <path
       style="fill:#7575cc;fill-opacity:1;fill-rule:nonzero;stroke:none"
       d="m 36.207031,24.167969 v 4.164062 H 40.34375 V 24.167969 Z M 34.136719,25 c -1.652344,0 -1.652344,2.5 0,2.5 1.65625,0 1.65625,-2.5 0,-2.5 z m 4.140625,0 c 1.652344,0 1.652344,2.5 0,2.5 -1.65625,0 -1.65625,-2.5 0,-2.5 z m 0,0"
       id="path75" />
    <path
       style="fill:#7575cc;fill-opacity:1;fill-rule:nonzero;stroke:none"
       d="m 44.484375,24.167969 v 4.164062 h 4.136719 V 24.167969 Z M 42.414062,25 c -1.65625,0 -1.65625,2.5 0,2.5 1.65625,0 1.65625,-2.5 0,-2.5 z m 4.136719,0 c 1.65625,0 1.65625,2.5 0,2.5 -1.652343,0 -1.652343,-2.5 0,-2.5 z m 0,0"
       id="path76" />
    <path
       style="fill:#7575cc;fill-opacity:1;fill-rule:nonzero;stroke:none"
       d="m 11.378906,24.167969 v 4.164062 h 4.136719 V 24.167969 Z M 9.308594,25 c -1.652344,0 -1.652344,2.5 0,2.5 1.65625,0 1.65625,-2.5 0,-2.5 z m 4.140625,0 c 1.652343,0 1.652343,2.5 0,2.5 -1.65625,0 -1.65625,-2.5 0,-2.5 z m 0,0"
       id="path77" />
    <path
       style="fill:#7575cc;fill-opacity:1;fill-rule:nonzero;stroke:none"
       d="m 52.757812,24.167969 v 4.164062 h 4.140626 V 24.167969 Z M 50.691406,25 c -1.65625,0 -1.65625,2.5 0,2.5 1.652344,0 1.652344,-2.5 0,-2.5 z m 4.136719,0 c 1.65625,0 1.65625,2.5 0,2.5 -1.65625,0 -1.65625,-2.5 0,-2.5 z m 0,0"
       id="path78" />
    <path
       style="fill:#7575cc;fill-opacity:1;fill-rule:nonzero;stroke:none"
       d="M 7.242188,28.332031 V 32.5 h 4.136718 v -4.167969 z m -2.070313,0.835938 c -1.65625,0 -1.65625,2.5 0,2.5 1.65625,0 1.65625,-2.5 0,-2.5 z m 4.136719,0 c 1.65625,0 1.65625,2.5 0,2.5 -1.652344,0 -1.652344,-2.5 0,-2.5 z m 0,0"
       id="path79" />
    <path
       style="fill:#7575cc;fill-opacity:1;fill-rule:nonzero;stroke:none"
       d="M 15.515625,28.332031 V 32.5 h 4.140625 v -4.167969 z m -2.066406,0.835938 c -1.65625,0 -1.65625,2.5 0,2.5 1.652343,0 1.652343,-2.5 0,-2.5 z m 4.136719,0 c 1.65625,0 1.65625,2.5 0,2.5 -1.65625,0 -1.65625,-2.5 0,-2.5 z m 0,0"
       id="path80" />
    <path
       style="fill:#7575cc;fill-opacity:1;fill-rule:nonzero;stroke:none"
       d="M 23.792969,28.332031 V 32.5 h 4.136719 v -4.167969 z m -2.070313,0.835938 c -1.652344,0 -1.652344,2.5 0,2.5 1.65625,0 1.65625,-2.5 0,-2.5 z m 4.140625,0 c 1.652344,0 1.652344,2.5 0,2.5 -1.65625,0 -1.65625,-2.5 0,-2.5 z m 0,0"
       id="path81" />
    <path
       style="fill:#7575cc;fill-opacity:1;fill-rule:nonzero;stroke:none"
       d="M 32.070312,28.332031 V 32.5 h 4.136719 V 28.332031 Z M 30,29.167969 c -1.65625,0 -1.65625,2.5 0,2.5 1.65625,0 1.65625,-2.5 0,-2.5 z m 4.136719,0 c 1.65625,0 1.65625,2.5 0,2.5 -1.652344,0 -1.652344,-2.5 0,-2.5 z m 0,0"
       id="path82" />
    <path
       style="fill:#7575cc;fill-opacity:1;fill-rule:nonzero;stroke:none"
       d="M 40.34375,28.332031 V 32.5 h 4.140625 v -4.167969 z m -2.066406,0.835938 c -1.65625,0 -1.65625,2.5 0,2.5 1.652344,0 1.652344,-2.5 0,-2.5 z m 4.136718,0 c 1.65625,0 1.65625,2.5 0,2.5 -1.65625,0 -1.65625,-2.5 0,-2.5 z m 0,0"
       id="path83" />
    <path
       style="fill:#7575cc;fill-opacity:1;fill-rule:nonzero;stroke:none"
       d="M 48.621094,28.332031 V 32.5 h 4.136718 v -4.167969 z m -2.070313,0.835938 c -1.652343,0 -1.652343,2.5 0,2.5 1.65625,0 1.65625,-2.5 0,-2.5 z m 4.140625,0 c 1.652344,0 1.652344,2.5 0,2.5 -1.65625,0 -1.65625,-2.5 0,-2.5 z m 0,0"
       id="path84" />
    <path
       style="fill:#7575cc;fill-opacity:1;fill-rule:nonzero;stroke:none"
       d="m 54.828125,29.167969 c -1.65625,0 -1.65625,2.5 0,2.5 1.65625,0 1.65625,-2.5 0,-2.5 z m 0,0"
       id="path85" />
    <path
       style="fill:#7575cc;fill-opacity:1;fill-rule:nonzero;stroke:none"
       d="M 3.101562,15.832031 V 20 h 4.140626 v -4.167969 z m 2.070313,0.835938 c 1.65625,0 1.65625,2.5 0,2.5 -1.65625,0 -1.65625,-2.5 0,-2.5 z m 0,0"
       id="path86" />
    <path
       style="fill:#7575cc;fill-opacity:1;fill-rule:nonzero;stroke:none"
       d="M 19.65625,15.832031 V 20 h 4.136719 v -4.167969 z m -2.070312,0.835938 c -1.65625,0 -1.65625,2.5 0,2.5 1.65625,0 1.65625,-2.5 0,-2.5 z m 4.136718,0 c 1.65625,0 1.65625,2.5 0,2.5 -1.652344,0 -1.652344,-2.5 0,-2.5 z m 0,0"
       id="path87" />
    <path
       style="fill:#7575cc;fill-opacity:1;fill-rule:nonzero;stroke:none"
       d="M 27.929688,15.832031 V 20 h 4.140624 v -4.167969 z m -2.066407,0.835938 c -1.65625,0 -1.65625,2.5 0,2.5 1.652344,0 1.652344,-2.5 0,-2.5 z m 4.136719,0 c 1.65625,0 1.65625,2.5 0,2.5 -1.65625,0 -1.65625,-2.5 0,-2.5 z m 0,0"
       id="path88" />
    <path
       style="fill:#7575cc;fill-opacity:1;fill-rule:nonzero;stroke:none"
       d="M 36.207031,15.832031 V 20 h 4.136719 v -4.167969 z m -2.070312,0.835938 c -1.652344,0 -1.652344,2.5 0,2.5 1.65625,0 1.65625,-2.5 0,-2.5 z m 4.140625,0 c 1.652344,0 1.652344,2.5 0,2.5 -1.65625,0 -1.65625,-2.5 0,-2.5 z m 0,0"
       id="path89" />
    <path
       style="fill:#7575cc;fill-opacity:1;fill-rule:nonzero;stroke:none"
       d="M 44.484375,15.832031 V 20 h 4.136719 v -4.167969 z m -2.070313,0.835938 c -1.65625,0 -1.65625,2.5 0,2.5 1.65625,0 1.65625,-2.5 0,-2.5 z m 4.136719,0 c 1.65625,0 1.65625,2.5 0,2.5 -1.652343,0 -1.652343,-2.5 0,-2.5 z m 0,0"
       id="path90" />
    <path
       style="fill:#7575cc;fill-opacity:1;fill-rule:nonzero;stroke:none"
       d="M 11.378906,15.832031 V 20 h 4.136719 v -4.167969 z m -2.070312,0.835938 c -1.652344,0 -1.652344,2.5 0,2.5 1.65625,0 1.65625,-2.5 0,-2.5 z m 4.140625,0 c 1.652343,0 1.652343,2.5 0,2.5 -1.65625,0 -1.65625,-2.5 0,-2.5 z m 0,0"
       id="path91" />
    <path
       style="fill:#7575cc;fill-opacity:1;fill-rule:nonzero;stroke:none"
       d="M 52.757812,15.832031 V 20 h 4.140626 v -4.167969 z m -2.066406,0.835938 c -1.65625,0 -1.65625,2.5 0,2.5 1.652344,0 1.652344,-2.5 0,-2.5 z m 4.136719,0 c 1.65625,0 1.65625,2.5 0,2.5 -1.65625,0 -1.65625,-2.5 0,-2.5 z m 0,0"
       id="path92" />
    <path
       style="fill:#7575cc;fill-opacity:1;fill-rule:nonzero;stroke:none"
       d="m 7.242188,20 v 4.167969 h 4.136718 V 20 Z m -2.070313,0.832031 c -1.65625,0 -1.65625,2.5 0,2.5 1.65625,0 1.65625,-2.5 0,-2.5 z m 4.136719,0 c 1.65625,0 1.65625,2.5 0,2.5 -1.652344,0 -1.652344,-2.5 0,-2.5 z m 0,0"
       id="path93" />
    <path
       style="fill:#7575cc;fill-opacity:1;fill-rule:nonzero;stroke:none"
       d="m 15.515625,20 v 4.167969 H 19.65625 V 20 Z m -2.066406,0.832031 c -1.65625,0 -1.65625,2.5 0,2.5 1.652343,0 1.652343,-2.5 0,-2.5 z m 4.136719,0 c 1.65625,0 1.65625,2.5 0,2.5 -1.65625,0 -1.65625,-2.5 0,-2.5 z m 0,0"
       id="path94" />
    <path
       style="fill:#7575cc;fill-opacity:1;fill-rule:nonzero;stroke:none"
       d="m 23.792969,20 v 4.167969 h 4.136719 V 20 Z m -2.070313,0.832031 c -1.652344,0 -1.652344,2.5 0,2.5 1.65625,0 1.65625,-2.5 0,-2.5 z m 4.140625,0 c 1.652344,0 1.652344,2.5 0,2.5 -1.65625,0 -1.65625,-2.5 0,-2.5 z m 0,0"
       id="path95" />
    <path
       style="fill:#7575cc;fill-opacity:1;fill-rule:nonzero;stroke:none"
       d="m 32.070312,20 v 4.167969 h 4.136719 V 20 Z M 30,20.832031 c -1.65625,0 -1.65625,2.5 0,2.5 1.65625,0 1.65625,-2.5 0,-2.5 z m 4.136719,0 c 1.65625,0 1.65625,2.5 0,2.5 -1.652344,0 -1.652344,-2.5 0,-2.5 z m 0,0"
       id="path96" />
    <path
       style="fill:#7575cc;fill-opacity:1;fill-rule:nonzero;stroke:none"
       d="m 40.34375,20 v 4.167969 h 4.140625 V 20 Z m -2.066406,0.832031 c -1.65625,0 -1.65625,2.5 0,2.5 1.652344,0 1.652344,-2.5 0,-2.5 z m 4.136718,0 c 1.65625,0 1.65625,2.5 0,2.5 -1.65625,0 -1.65625,-2.5 0,-2.5 z m 0,0"
       id="path97" />
    <path
       style="fill:#7575cc;fill-opacity:1;fill-rule:nonzero;stroke:none"
       d="m 48.621094,20 v 4.167969 h 4.136718 V 20 Z m -2.070313,0.832031 c -1.652343,0 -1.652343,2.5 0,2.5 1.65625,0 1.65625,-2.5 0,-2.5 z m 4.140625,0 c 1.652344,0 1.652344,2.5 0,2.5 -1.65625,0 -1.65625,-2.5 0,-2.5 z m 0,0"
       id="path98" />
    <path
       style="fill:#7575cc;fill-opacity:1;fill-rule:nonzero;stroke:none"
       d="m 54.828125,20.832031 c -1.65625,0 -1.65625,2.5 0,2.5 1.65625,0 1.65625,-2.5 0,-2.5 z m 0,0"
       id="path99" />
    <path
       style="fill:#7575cc;fill-opacity:1;fill-rule:nonzero;stroke:none"
       d="m 3.101562,7.5 v 4.167969 H 7.242188 V 7.5 Z m 2.070313,0.832031 c 1.65625,0 1.65625,2.5 0,2.5 -1.65625,0 -1.65625,-2.5 0,-2.5 z m 0,0"
       id="path100" />
    <path
       style="fill:#7575cc;fill-opacity:1;fill-rule:nonzero;stroke:none"
       d="m 19.65625,7.5 v 4.167969 h 4.136719 V 7.5 Z m -2.070312,0.832031 c -1.65625,0 -1.65625,2.5 0,2.5 1.65625,0 1.65625,-2.5 0,-2.5 z m 4.136718,0 c 1.65625,0 1.65625,2.5 0,2.5 -1.652344,0 -1.652344,-2.5 0,-2.5 z m 0,0"
       id="path101" />
    <path
       style="fill:#7575cc;fill-opacity:1;fill-rule:nonzero;stroke:none"
       d="m 27.929688,7.5 v 4.167969 h 4.140624 V 7.5 Z m -2.066407,0.832031 c -1.65625,0 -1.65625,2.5 0,2.5 1.652344,0 1.652344,-2.5 0,-2.5 z m 4.136719,0 c 1.65625,0 1.65625,2.5 0,2.5 -1.65625,0 -1.65625,-2.5 0,-2.5 z m 0,0"
       id="path102" />
    <path
       style="fill:#7575cc;fill-opacity:1;fill-rule:nonzero;stroke:none"
       d="m 36.207031,7.5 v 4.167969 H 40.34375 V 7.5 Z m -2.070312,0.832031 c -1.652344,0 -1.652344,2.5 0,2.5 1.65625,0 1.65625,-2.5 0,-2.5 z m 4.140625,0 c 1.652344,0 1.652344,2.5 0,2.5 -1.65625,0 -1.65625,-2.5 0,-2.5 z m 0,0"
       id="path103" />
    <path
       style="fill:#7575cc;fill-opacity:1;fill-rule:nonzero;stroke:none"
       d="m 44.484375,7.5 v 4.167969 h 4.136719 V 7.5 Z m -2.070313,0.832031 c -1.65625,0 -1.65625,2.5 0,2.5 1.65625,0 1.65625,-2.5 0,-2.5 z m 4.136719,0 c 1.65625,0 1.65625,2.5 0,2.5 -1.652343,0 -1.652343,-2.5 0,-2.5 z m 0,0"
       id="path104" />
    <path
       style="fill:#7575cc;fill-opacity:1;fill-rule:nonzero;stroke:none"
       d="m 11.378906,7.5 v 4.167969 h 4.136719 V 7.5 Z M 9.308594,8.332031 c -1.652344,0 -1.652344,2.5 0,2.5 1.65625,0 1.65625,-2.5 0,-2.5 z m 4.140625,0 c 1.652343,0 1.652343,2.5 0,2.5 -1.65625,0 -1.65625,-2.5 0,-2.5 z m 0,0"
       id="path105" />
    <path
       style="fill:#7575cc;fill-opacity:1;fill-rule:nonzero;stroke:none"
       d="m 52.757812,7.5 v 4.167969 h 4.140626 V 7.5 Z m -2.066406,0.832031 c -1.65625,0 -1.65625,2.5 0,2.5 1.652344,0 1.652344,-2.5 0,-2.5 z m 4.136719,0 c 1.65625,0 1.65625,2.5 0,2.5 -1.65625,0 -1.65625,-2.5 0,-2.5 z m 0,0"
       id="path106" />
    <path
       style="fill:#7575cc;fill-opacity:1;fill-rule:nonzero;stroke:none"
       d="m 7.242188,11.667969 v 4.164062 h 4.136718 V 11.667969 Z M 5.171875,12.5 c -1.65625,0 -1.65625,2.5 0,2.5 1.65625,0 1.65625,-2.5 0,-2.5 z m 4.136719,0 c 1.65625,0 1.65625,2.5 0,2.5 -1.652344,0 -1.652344,-2.5 0,-2.5 z m 0,0"
       id="path107" />
    <path
       style="fill:#7575cc;fill-opacity:1;fill-rule:nonzero;stroke:none"
       d="m 15.515625,11.667969 v 4.164062 H 19.65625 V 11.667969 Z M 13.449219,12.5 c -1.65625,0 -1.65625,2.5 0,2.5 1.652343,0 1.652343,-2.5 0,-2.5 z m 4.136719,0 c 1.65625,0 1.65625,2.5 0,2.5 -1.65625,0 -1.65625,-2.5 0,-2.5 z m 0,0"
       id="path108" />
    <path
       style="fill:#7575cc;fill-opacity:1;fill-rule:nonzero;stroke:none"
       d="m 23.792969,11.667969 v 4.164062 h 4.136719 V 11.667969 Z M 21.722656,12.5 c -1.652344,0 -1.652344,2.5 0,2.5 1.65625,0 1.65625,-2.5 0,-2.5 z m 4.140625,0 c 1.652344,0 1.652344,2.5 0,2.5 -1.65625,0 -1.65625,-2.5 0,-2.5 z m 0,0"
       id="path109" />
    <path
       style="fill:#7575cc;fill-opacity:1;fill-rule:nonzero;stroke:none"
       d="m 32.070312,11.667969 v 4.164062 h 4.136719 V 11.667969 Z M 30,12.5 c -1.65625,0 -1.65625,2.5 0,2.5 1.65625,0 1.65625,-2.5 0,-2.5 z m 4.136719,0 c 1.65625,0 1.65625,2.5 0,2.5 -1.652344,0 -1.652344,-2.5 0,-2.5 z m 0,0"
       id="path110" />
    <path
       style="fill:#7575cc;fill-opacity:1;fill-rule:nonzero;stroke:none"
       d="m 40.34375,11.667969 v 4.164062 h 4.140625 V 11.667969 Z M 38.277344,12.5 c -1.65625,0 -1.65625,2.5 0,2.5 1.652344,0 1.652344,-2.5 0,-2.5 z m 4.136718,0 c 1.65625,0 1.65625,2.5 0,2.5 -1.65625,0 -1.65625,-2.5 0,-2.5 z m 0,0"
       id="path111" />
    <path
       style="fill:#7575cc;fill-opacity:1;fill-rule:nonzero;stroke:none"
       d="m 48.621094,11.667969 v 4.164062 h 4.136718 V 11.667969 Z M 46.550781,12.5 c -1.652343,0 -1.652343,2.5 0,2.5 1.65625,0 1.65625,-2.5 0,-2.5 z m 4.140625,0 c 1.652344,0 1.652344,2.5 0,2.5 -1.65625,0 -1.65625,-2.5 0,-2.5 z m 0,0"
       id="path112" />
    <path
       style="fill:#7575cc;fill-opacity:1;fill-rule:nonzero;stroke:none"
       d="m 54.828125,12.5 c -1.65625,0 -1.65625,2.5 0,2.5 1.65625,0 1.65625,-2.5 0,-2.5 z m 0,0"
       id="path113" />
    <path
       style="fill:#7575cc;fill-opacity:1;fill-rule:nonzero;stroke:none"
       d="M 7.242188,3.332031 V 7.5 h 4.136718 V 3.332031 Z M 5.171875,4.167969 c -1.65625,0 -1.65625,2.5 0,2.5 1.65625,0 1.65625,-2.5 0,-2.5 z m 4.136719,0 c 1.65625,0 1.65625,2.5 0,2.5 -1.652344,0 -1.652344,-2.5 0,-2.5 z m 0,0"
       id="path114" />
    <path
       style="fill:#7575cc;fill-opacity:1;fill-rule:nonzero;stroke:none"
       d="M 15.515625,3.332031 V 7.5 H 19.65625 V 3.332031 Z m -2.066406,0.835938 c -1.65625,0 -1.65625,2.5 0,2.5 1.652343,0 1.652343,-2.5 0,-2.5 z m 4.136719,0 c 1.65625,0 1.65625,2.5 0,2.5 -1.65625,0 -1.65625,-2.5 0,-2.5 z m 0,0"
       id="path115" />
    <path
       style="fill:#7575cc;fill-opacity:1;fill-rule:nonzero;stroke:none"
       d="M 23.792969,3.332031 V 7.5 h 4.136719 V 3.332031 Z m -2.070313,0.835938 c -1.652344,0 -1.652344,2.5 0,2.5 1.65625,0 1.65625,-2.5 0,-2.5 z m 4.140625,0 c 1.652344,0 1.652344,2.5 0,2.5 -1.65625,0 -1.65625,-2.5 0,-2.5 z m 0,0"
       id="path116" />
    <path
       style="fill:#7575cc;fill-opacity:1;fill-rule:nonzero;stroke:none"
       d="M 32.070312,3.332031 V 7.5 h 4.136719 V 3.332031 Z M 30,4.167969 c -1.65625,0 -1.65625,2.5 0,2.5 1.65625,0 1.65625,-2.5 0,-2.5 z m 4.136719,0 c 1.65625,0 1.65625,2.5 0,2.5 -1.652344,0 -1.652344,-2.5 0,-2.5 z m 0,0"
       id="path117" />
    <path
       style="fill:#7575cc;fill-opacity:1;fill-rule:nonzero;stroke:none"
       d="M 40.34375,3.332031 V 7.5 h 4.140625 V 3.332031 Z m -2.066406,0.835938 c -1.65625,0 -1.65625,2.5 0,2.5 1.652344,0 1.652344,-2.5 0,-2.5 z m 4.136718,0 c 1.65625,0 1.65625,2.5 0,2.5 -1.65625,0 -1.65625,-2.5 0,-2.5 z m 0,0"
       id="path118" />
    <path
       style="fill:#7575cc;fill-opacity:1;fill-rule:nonzero;stroke:none"
       d="M 48.621094,3.332031 V 7.5 h 4.136718 V 3.332031 Z m -2.070313,0.835938 c -1.652343,0 -1.652343,2.5 0,2.5 1.65625,0 1.65625,-2.5 0,-2.5 z m 4.140625,0 c 1.652344,0 1.652344,2.5 0,2.5 -1.65625,0 -1.65625,-2.5 0,-2.5 z m 0,0"
       id="path119" />
    <path
       style="fill:#7575cc;fill-opacity:1;fill-rule:nonzero;stroke:none"
       d="m 54.828125,4.167969 c -1.65625,0 -1.65625,2.5 0,2.5 1.65625,0 1.65625,-2.5 0,-2.5 z m 0,0"
       id="path120" />
    <path
       style="fill:#7575cc;fill-opacity:1;fill-rule:nonzero;stroke:none"
       d="M 7.242188,78.332031 V 82.5 h 4.136718 v -4.167969 z m -2.070313,0.835938 c -1.65625,0 -1.65625,2.5 0,2.5 1.65625,0 1.65625,-2.5 0,-2.5 z m 4.136719,0 c 1.65625,0 1.65625,2.5 0,2.5 -1.652344,0 -1.652344,-2.5 0,-2.5 z m 0,0"
       id="path121" />
    <path
       style="fill:#7575cc;fill-opacity:1;fill-rule:nonzero;stroke:none"
       d="M 15.515625,78.332031 V 82.5 h 4.140625 v -4.167969 z m -2.066406,0.835938 c -1.65625,0 -1.65625,2.5 0,2.5 1.652343,0 1.652343,-2.5 0,-2.5 z m 4.136719,0 c 1.65625,0 1.65625,2.5 0,2.5 -1.65625,0 -1.65625,-2.5 0,-2.5 z m 0,0"
       id="path122" />
    <path
       style="fill:#7575cc;fill-opacity:1;fill-rule:nonzero;stroke:none"
       d="M 23.792969,78.332031 V 82.5 h 4.136719 v -4.167969 z m -2.070313,0.835938 c -1.652344,0 -1.652344,2.5 0,2.5 1.65625,0 1.65625,-2.5 0,-2.5 z m 4.140625,0 c 1.652344,0 1.652344,2.5 0,2.5 -1.65625,0 -1.65625,-2.5 0,-2.5 z m 0,0"
       id="path123" />
    <path
       style="fill:#7575cc;fill-opacity:1;fill-rule:nonzero;stroke:none"
       d="M 32.070312,78.332031 V 82.5 h 4.136719 V 78.332031 Z M 30,79.167969 c -1.65625,0 -1.65625,2.5 0,2.5 1.65625,0 1.65625,-2.5 0,-2.5 z m 4.136719,0 c 1.65625,0 1.65625,2.5 0,2.5 -1.652344,0 -1.652344,-2.5 0,-2.5 z m 0,0"
       id="path124" />
    <path
       style="fill:#7575cc;fill-opacity:1;fill-rule:nonzero;stroke:none"
       d="M 40.34375,78.332031 V 82.5 h 4.140625 v -4.167969 z m -2.066406,0.835938 c -1.65625,0 -1.65625,2.5 0,2.5 1.652344,0 1.652344,-2.5 0,-2.5 z m 4.136718,0 c 1.65625,0 1.65625,2.5 0,2.5 -1.65625,0 -1.65625,-2.5 0,-2.5 z m 0,0"
       id="path125" />
    <path
       style="fill:#7575cc;fill-opacity:1;fill-rule:nonzero;stroke:none"
       d="M 48.621094,78.332031 V 82.5 h 4.136718 v -4.167969 z m -2.070313,0.835938 c -1.652343,0 -1.652343,2.5 0,2.5 1.65625,0 1.65625,-2.5 0,-2.5 z m 4.140625,0 c 1.652344,0 1.652344,2.5 0,2.5 -1.65625,0 -1.65625,-2.5 0,-2.5 z m 0,0"
       id="path126" />
    <path
       style="fill:#7575cc;fill-opacity:1;fill-rule:nonzero;stroke:none"
       d="m 54.828125,79.167969 c -1.65625,0 -1.65625,2.5 0,2.5 1.65625,0 1.65625,-2.5 0,-2.5 z m 0,0"
       id="path127" />
    <path
       style="fill:#7575cc;fill-opacity:1;fill-rule:nonzero;stroke:none"
       d="m 11.378906,82.5 v 4.167969 h 4.136719 V 82.5 Z m -2.070312,0.832031 c -1.652344,0 -1.652344,2.5 0,2.5 1.65625,0 1.65625,-2.5 0,-2.5 z m 4.140625,0 c 1.652343,0 1.652343,2.5 0,2.5 -1.65625,0 -1.65625,-2.5 0,-2.5 z m 0,0"
       id="path128" />
    <path
       style="fill:#7575cc;fill-opacity:1;fill-rule:nonzero;stroke:none"
       d="m 3.101562,82.5 v 2.207031 c 0,1.167969 0.828126,1.960938 1.945313,1.960938 H 7.242188 V 82.5 Z m 2.070313,0.832031 c 1.65625,0 1.65625,2.5 0,2.5 -1.65625,0 -1.65625,-2.5 0,-2.5 z m 0,0"
       id="path129" />
    <path
       style="fill:#7575cc;fill-opacity:1;fill-rule:nonzero;stroke:none"
       d="m 52.757812,86.667969 h 2.195313 c 1.15625,0 1.945313,-0.835938 1.945313,-1.960938 V 82.5 h -4.140626 z m 0.828126,-2.085938 c 0,-1.664062 2.484374,-1.664062 2.484374,0 0,1.667969 -2.484374,1.667969 -2.484374,0 z m 0,0"
       id="path130" />
    <path
       style="fill:#7575cc;fill-opacity:1;fill-rule:nonzero;stroke:none"
       d="m 19.65625,82.5 v 4.167969 h 4.136719 V 82.5 Z m -2.070312,0.832031 c -1.65625,0 -1.65625,2.5 0,2.5 1.65625,0 1.65625,-2.5 0,-2.5 z m 4.136718,0 c 1.65625,0 1.65625,2.5 0,2.5 -1.652344,0 -1.652344,-2.5 0,-2.5 z m 0,0"
       id="path131" />
    <path
       style="fill:#7575cc;fill-opacity:1;fill-rule:nonzero;stroke:none"
       d="m 27.929688,82.5 v 4.167969 h 4.140624 V 82.5 Z m -2.066407,0.832031 c -1.65625,0 -1.65625,2.5 0,2.5 1.652344,0 1.652344,-2.5 0,-2.5 z m 4.136719,0 c 1.65625,0 1.65625,2.5 0,2.5 -1.65625,0 -1.65625,-2.5 0,-2.5 z m 0,0"
       id="path132" />
    <path
       style="fill:#7575cc;fill-opacity:1;fill-rule:nonzero;stroke:none"
       d="m 36.207031,82.5 v 4.167969 H 40.34375 V 82.5 Z m -2.070312,0.832031 c -1.652344,0 -1.652344,2.5 0,2.5 1.65625,0 1.65625,-2.5 0,-2.5 z m 4.140625,0 c 1.652344,0 1.652344,2.5 0,2.5 -1.65625,0 -1.65625,-2.5 0,-2.5 z m 0,0"
       id="path133" />
    <path
       style="fill:#7575cc;fill-opacity:1;fill-rule:nonzero;stroke:none"
       d="m 44.484375,82.5 v 4.167969 h 4.136719 V 82.5 Z m -2.070313,0.832031 c -1.65625,0 -1.65625,2.5 0,2.5 1.65625,0 1.65625,-2.5 0,-2.5 z m 4.136719,0 c 1.65625,0 1.65625,2.5 0,2.5 -1.652343,0 -1.652343,-2.5 0,-2.5 z m 0,0"
       id="path134" />
    <path
       style="fill:#7575cc;fill-opacity:1;fill-rule:nonzero;stroke:none"
       d="m 50.691406,83.332031 c -1.65625,0 -1.65625,2.5 0,2.5 1.652344,0 1.652344,-2.5 0,-2.5 z m 0,0"
       id="path135" />
    <path
       style="fill:#7575cc;fill-opacity:1;fill-rule:nonzero;stroke:none"
       d="m 3.101562,74.167969 v 4.164062 H 7.242188 V 74.167969 Z M 5.171875,75 c 1.65625,0 1.65625,2.5 0,2.5 -1.65625,0 -1.65625,-2.5 0,-2.5 z m 0,0"
       id="path136" />
    <path
       style="fill:#7575cc;fill-opacity:1;fill-rule:nonzero;stroke:none"
       d="m 19.65625,74.167969 v 4.164062 h 4.136719 V 74.167969 Z M 17.585938,75 c -1.65625,0 -1.65625,2.5 0,2.5 1.65625,0 1.65625,-2.5 0,-2.5 z m 4.136718,0 c 1.65625,0 1.65625,2.5 0,2.5 -1.652344,0 -1.652344,-2.5 0,-2.5 z m 0,0"
       id="path137" />
    <path
       style="fill:#7575cc;fill-opacity:1;fill-rule:nonzero;stroke:none"
       d="m 27.929688,74.167969 v 4.164062 h 4.140624 V 74.167969 Z M 25.863281,75 c -1.65625,0 -1.65625,2.5 0,2.5 1.652344,0 1.652344,-2.5 0,-2.5 z M 30,75 c 1.65625,0 1.65625,2.5 0,2.5 -1.65625,0 -1.65625,-2.5 0,-2.5 z m 0,0"
       id="path138" />
    <path
       style="fill:#7575cc;fill-opacity:1;fill-rule:nonzero;stroke:none"
       d="m 36.207031,74.167969 v 4.164062 H 40.34375 V 74.167969 Z M 34.136719,75 c -1.652344,0 -1.652344,2.5 0,2.5 1.65625,0 1.65625,-2.5 0,-2.5 z m 4.140625,0 c 1.652344,0 1.652344,2.5 0,2.5 -1.65625,0 -1.65625,-2.5 0,-2.5 z m 0,0"
       id="path139" />
    <path
       style="fill:#7575cc;fill-opacity:1;fill-rule:nonzero;stroke:none"
       d="m 44.484375,74.167969 v 4.164062 h 4.136719 V 74.167969 Z M 42.414062,75 c -1.65625,0 -1.65625,2.5 0,2.5 1.65625,0 1.65625,-2.5 0,-2.5 z m 4.136719,0 c 1.65625,0 1.65625,2.5 0,2.5 -1.652343,0 -1.652343,-2.5 0,-2.5 z m 0,0"
       id="path140" />
    <path
       style="fill:#7575cc;fill-opacity:1;fill-rule:nonzero;stroke:none"
       d="m 11.378906,74.167969 v 4.164062 h 4.136719 V 74.167969 Z M 9.308594,75 c -1.652344,0 -1.652344,2.5 0,2.5 1.65625,0 1.65625,-2.5 0,-2.5 z m 4.140625,0 c 1.652343,0 1.652343,2.5 0,2.5 -1.65625,0 -1.65625,-2.5 0,-2.5 z m 0,0"
       id="path141" />
    <path
       style="fill:#7575cc;fill-opacity:1;fill-rule:nonzero;stroke:none"
       d="m 52.757812,74.167969 v 4.164062 h 4.140626 V 74.167969 Z M 50.691406,75 c -1.65625,0 -1.65625,2.5 0,2.5 1.652344,0 1.652344,-2.5 0,-2.5 z m 4.136719,0 c 1.65625,0 1.65625,2.5 0,2.5 -1.65625,0 -1.65625,-2.5 0,-2.5 z m 0,0"
       id="path142" />
  </g>
</svg>
