<?xml version="1.0" encoding="UTF-8" standalone="no"?>
<!-- Generator: Adobe Illustrator 9.0, SVG Export Plug-In  -->

<!-- This set of SVG files is a complete cards game with figures, numbers	-->

<!--    and backs of cards completely designed in SVG.				-->

<!--    									-->

<!--    Copyright (C) 2004 David Bellot						-->

<!--										-->

<!--    This library is free software; you can redistribute it and/or		-->

<!--    modify it under the terms of the GNU Lesser General Public		-->

<!--    License as published by the Free Software Foundation; either		-->

<!--    version 2 of the License, or (at your option) any later version		-->

<!--										-->

<!--    This library is distributed in the hope that it will be useful,		-->

<!--    but WITHOUT ANY WARRANTY; without even the implied warranty of		-->

<!--    MERCHANTABILITY or FITNESS FOR A PARTICULAR PURPOSE.  See the GNU	-->

<!--    Lesser General Public License for more details.				-->

<!--										-->

<!--    You should have received a copy of the GNU Lesser General Public	-->

<!--    License along with this library; if not, write to the Free Software	-->

<!--    Foundation, Inc., 59 Temple Place, Suite 330, Boston, MA 02111-1307  USA-->

<!--										-->

<!--    Contact the author David Bellot at bellot@stat.berkeley.edu or 		-->

<!--    david.bellot@free.fr or yimyom@users.sourceforge.net			-->

<svg
   width="90"
   height="130"
   viewBox="0 0 90 130"
   xml:space="preserve"
   id="svg2"
   sodipodi:version="0.32"
   inkscape:version="1.4.3 (1:1.4.3+202512261035+0d15f75042)"
   sodipodi:docname="test12.svg"
   inkscape:output_extension="org.inkscape.output.svg.inkscape"
   version="1.0"
   xmlns:inkscape="http://www.inkscape.org/namespaces/inkscape"
   xmlns:sodipodi="http://sodipodi.sourceforge.net/DTD/sodipodi-0.dtd"
   xmlns="http://www.w3.org/2000/svg"
   xmlns:svg="http://www.w3.org/2000/svg"
   xmlns:rdf="http://www.w3.org/1999/02/22-rdf-syntax-ns#"
   xmlns:cc="http://creativecommons.org/ns#"
   xmlns:dc="http://purl.org/dc/elements/1.1/"><metadata
   id="metadata300"><rdf:RDF><cc:Work
       rdf:about=""><dc:format>image/svg+xml</dc:format><dc:type
         rdf:resource="http://purl.org/dc/dcmitype/StillImage" /></cc:Work></rdf:RDF></metadata><defs
   id="defs298" /><sodipodi:namedview
   inkscape:window-height="1011"
   inkscape:window-width="1854"
   inkscape:pageshadow="2"
   inkscape:pageopacity="0.0"
   guidetolerance="10.0"
   gridtolerance="10.0"
   objecttolerance="10.0"
   borderopacity="1.0"
   bordercolor="#666666"
   pagecolor="#ffffff"
   id="base"
   width="208px"
   height="303px"
   inkscape:showpageshadow="false"
   inkscape:zoom="1.2428555"
   inkscape:cx="105.00014"
   inkscape:cy="151.66687"
   inkscape:window-x="0"
   inkscape:window-y="0"
   inkscape:current-layer="svg2"
   inkscape:pagecheckerboard="0"
   inkscape:deskcolor="#d1d1d1"
   showgrid="false"
   inkscape:window-maximized="1" />
	<g
   id="Layer_x0020_1"
   style="fill:#ffffff;fill-rule:nonzero;stroke:#000000;stroke-width:0.99849;stroke-miterlimit:4"
   transform="matrix(0.53865264,0,0,0.53571055,-2.0334461e-4,-2.0223396e-4)">
		<path
   style="stroke-width:0.499245"
   d="m 166.83643,235.54785 c 0,3.77735 -3.08594,6.86914 -6.87012,6.86914 H 7.1113281 C 3.3364258,242.41699 0.25,239.3252 0.25,235.54785 V 7.1196289 C 0.25,3.3427734 3.3364258,0.25 7.1113281,0.25 H 159.96631 c 3.78418,0 6.87012,3.0927734 6.87012,6.8696289 z"
   id="path5" />
		<path
   style="fill-rule:evenodd;stroke:none"
   d="M 119.8374,46.616211 V 9.3193359 H 82.811035 V 46.616211 Z"
   id="path7" />
		<path
   style="fill:#190c80;fill-rule:evenodd;stroke:none"
   d="M 156.84326,46.616211 V 9.3193359 H 119.8374 V 46.616211 Z"
   id="path9" />
		<path
   style="fill-rule:evenodd;stroke:none"
   d="M 156.84326,83.913086 V 46.616211 H 119.8374 v 37.296875 z"
   id="path11" />
		<path
   style="fill:#190c80;fill-rule:evenodd;stroke:none"
   d="M 119.8374,83.913086 V 46.616211 H 82.811035 v 37.296875 z"
   id="path13" />
		<path
   style="fill-rule:evenodd;stroke:none"
   d="M 45.804199,121.20898 V 83.913086 H 8.7983398 v 37.295894 z"
   id="path15" />
		<path
   style="fill:#190c80;fill-rule:evenodd;stroke:none"
   d="M 82.811035,121.20898 V 83.913086 H 45.804199 v 37.295894 z"
   id="path17" />
		<path
   style="fill-rule:evenodd;stroke:none"
   d="M 119.8374,121.20898 V 83.913086 H 82.811035 v 37.295894 z"
   id="path19" />
		<path
   style="fill:#190c80;fill-rule:evenodd;stroke:none"
   d="M 156.84326,121.20898 V 83.913086 H 119.8374 v 37.295894 z"
   id="path21" />
		<path
   style="fill-rule:evenodd;stroke:none"
   d="M 82.811035,83.913086 V 46.616211 H 45.804199 v 37.296875 z"
   id="path23" />
		<path
   style="fill:#190c80;fill-rule:evenodd;stroke:none"
   d="M 45.804199,83.913086 V 46.616211 H 8.7983398 v 37.296875 z"
   id="path25" />
		<path
   style="fill-rule:evenodd;stroke:none"
   d="M 45.804199,46.616211 V 9.3193359 H 8.7983398 V 46.616211 Z"
   id="path27" />
		<path
   style="fill:#190c80;fill-rule:evenodd;stroke:none"
   d="M 82.811035,46.616211 V 9.3193359 H 45.804199 V 46.616211 Z"
   id="path29" />
		<path
   style="fill-rule:evenodd;stroke:none"
   d="M 82.811035,233.11914 V 195.8125 H 45.804199 v 37.30664 z"
   id="path31" />
		<path
   style="fill:#190c80;fill-rule:evenodd;stroke:none"
   d="M 45.804199,233.11914 V 195.8125 H 8.7983398 v 37.30664 z"
   id="path33" />
		<path
   style="fill-rule:evenodd;stroke:none"
   d="M 45.804199,195.8125 V 158.51563 H 8.7983398 v 37.29687 z"
   id="path35" />
		<path
   style="fill:#190c80;fill-rule:evenodd;stroke:none"
   d="M 82.811035,195.8125 V 158.51563 H 45.804199 v 37.29687 z"
   id="path37" />
		<path
   style="fill-rule:evenodd;stroke:none"
   d="M 156.84326,158.51563 V 121.20898 H 119.8374 v 37.30665 z"
   id="path39" />
		<path
   style="fill:#190c80;fill-rule:evenodd;stroke:none"
   d="M 119.8374,158.51563 V 121.20898 H 82.811035 v 37.30665 z"
   id="path41" />
		<path
   style="fill-rule:evenodd;stroke:none"
   d="M 82.811035,158.51563 V 121.20898 H 45.804199 v 37.30665 z"
   id="path43" />
		<path
   style="fill:#190c80;fill-rule:evenodd;stroke:none"
   d="M 45.804199,158.51563 V 121.20898 H 8.7983398 v 37.30665 z"
   id="path45" />
		<path
   style="fill-rule:evenodd;stroke:none"
   d="M 119.8374,195.8125 V 158.51563 H 82.811035 v 37.29687 z"
   id="path47" />
		<path
   style="fill:#190c80;fill-rule:evenodd;stroke:none"
   d="M 156.84326,195.8125 V 158.51563 H 119.8374 v 37.29687 z"
   id="path49" />
		<path
   style="fill-rule:evenodd;stroke:none"
   d="M 156.84326,233.11914 V 195.8125 H 119.8374 v 37.30664 z"
   id="path51" />
		<path
   style="fill:#190c80;fill-rule:evenodd;stroke:none"
   d="M 119.8374,233.11914 V 195.8125 H 82.811035 v 37.30664 H 119.8374 Z"
   id="path53" />
		<path
   style="fill:#190c80;fill-rule:evenodd;stroke:none"
   d="M 115.20459,9.3193359 119.8374,13.967285 87.442871,46.616211 82.811035,41.947754 Z"
   id="path55" />
		<path
   style="fill-rule:evenodd;stroke:none"
   d="m 152.21143,9.3193359 4.63183,4.6479491 -32.37305,32.648926 -4.63281,-4.668457 32.37403,-32.6284181"
   id="path57" />
		<path
   style="fill:#190c80;fill-rule:evenodd;stroke:none"
   d="m 124.47021,46.616211 -4.63281,4.668457 32.37403,32.628418 4.63183,-4.669434 z"
   id="path59" />
		<path
   style="fill-rule:evenodd;stroke:none"
   d="M 87.442871,46.616211 82.811035,51.284668 115.20459,83.913086 119.8374,79.243652 87.442871,46.616211"
   id="path61" />
		<path
   style="fill:#190c80;fill-rule:evenodd;stroke:none"
   d="M 41.172852,83.913086 45.804199,88.570313 13.42041,121.20898 8.7983399,116.56152 Z"
   id="path63" />
		<path
   style="fill-rule:evenodd;stroke:none"
   d="m 78.199219,83.913086 4.611816,4.657227 -32.374512,32.638667 -4.632324,-4.64746 32.39502,-32.648434"
   id="path65" />
		<path
   style="fill:#190c80;fill-rule:evenodd;stroke:none"
   d="m 115.20459,83.913086 4.63281,4.657227 -32.394529,32.638667 -4.631836,-4.64746 z"
   id="path67" />
		<path
   style="fill-rule:evenodd;stroke:none"
   d="m 152.21143,83.913086 4.63183,4.657227 -32.37305,32.638667 -4.63281,-4.64746 32.37403,-32.648434"
   id="path69" />
		<path
   style="fill:#190c80;fill-rule:evenodd;stroke:none"
   d="m 50.436523,46.616211 -4.632324,4.668457 32.39502,32.628418 4.611816,-4.669434 z"
   id="path71" />
		<path
   style="fill-rule:evenodd;stroke:none"
   d="M 13.42041,46.616211 8.7983399,51.284668 41.172852,83.913086 45.804199,79.243652 13.42041,46.616211"
   id="path73" />
		<path
   style="fill:#190c80;fill-rule:evenodd;stroke:none"
   d="M 41.172852,9.3193359 45.804199,13.967285 13.42041,46.616211 8.7983399,41.947754 Z"
   id="path75" />
		<path
   style="fill-rule:evenodd;stroke:none"
   d="M 78.199219,9.3193359 82.811035,13.967285 50.436523,46.616211 45.804199,41.947754 78.199219,9.3193359"
   id="path77" />
		<path
   style="fill:#190c80;fill-rule:evenodd;stroke:none"
   d="m 50.436523,233.11914 -4.632324,-4.66894 32.39502,-32.6377 4.611816,4.66797 z"
   id="path79" />
		<path
   style="fill-rule:evenodd;stroke:none"
   d="M 13.42041,233.11914 8.7983399,228.4502 41.172852,195.8125 45.804199,200.48047 13.42041,233.11914"
   id="path81" />
		<path
   style="fill:#190c80;fill-rule:evenodd;stroke:none"
   d="m 41.172852,195.8125 4.631347,-4.66895 -32.383789,-32.62792 -4.6220701,4.66894 z"
   id="path83" />
		<path
   style="fill-rule:evenodd;stroke:none"
   d="m 78.199219,195.8125 4.611816,-4.66895 -32.374512,-32.62792 -4.632324,4.66894 32.39502,32.62793"
   id="path85" />
		<path
   style="fill:#190c80;fill-rule:evenodd;stroke:none"
   d="m 124.47021,158.51563 -4.63281,-4.65821 32.37403,-32.64844 4.63183,4.66895 z"
   id="path87" />
		<path
   style="fill-rule:evenodd;stroke:none"
   d="m 87.442871,158.51563 -4.631836,-4.65821 32.393555,-32.64844 4.63281,4.66895 -32.394529,32.6377"
   id="path89" />
		<path
   style="fill:#190c80;fill-rule:evenodd;stroke:none"
   d="m 50.436523,158.51563 -4.632324,-4.65821 32.39502,-32.64844 4.611816,4.66895 z"
   id="path91" />
		<path
   style="fill-rule:evenodd;stroke:none"
   d="m 13.42041,158.51563 -4.6220701,-4.65821 32.3745121,-32.64844 4.631347,4.66895 -32.383789,32.6377"
   id="path93" />
		<path
   style="fill:#190c80;fill-rule:evenodd;stroke:none"
   d="m 115.20459,195.8125 4.63281,-4.66895 -32.394529,-32.62792 -4.631836,4.66894 z"
   id="path95" />
		<path
   style="fill-rule:evenodd;stroke:none"
   d="m 152.21143,195.8125 4.63183,-4.66895 -32.37305,-32.62792 -4.63281,4.66894 32.37403,32.62793"
   id="path97" />
		<path
   style="fill:#190c80;fill-rule:evenodd;stroke:none"
   d="m 124.47021,233.11914 -4.63281,-4.66894 32.37403,-32.6377 4.63183,4.66797 z"
   id="path99" />
		<path
   style="fill-rule:evenodd;stroke:none"
   d="m 87.442871,233.11914 -4.631836,-4.66894 32.393555,-32.6377 4.63281,4.66797 -32.394529,32.63867"
   id="path101" />
		<path
   style="fill:#190c80;fill-rule:evenodd;stroke:none"
   d="m 87.442871,9.3193359 -4.631836,4.6479491 32.393555,32.648926 4.63281,-4.668457 z"
   id="path103" />
		<path
   style="fill:#190c80;fill-rule:evenodd;stroke:none"
   d="M 101.31885,9.3193359 82.811035,27.972656 101.31885,46.616211 119.8374,27.972656 Z"
   id="path105" />
		<path
   style="fill-rule:evenodd;stroke:none"
   d="m 124.47021,9.3193359 -4.63281,4.6479491 32.37403,32.648926 4.63183,-4.668457 -32.37305,-32.6284181"
   id="path107" />
		<path
   style="fill-rule:evenodd;stroke:none"
   d="M 138.32568,9.3193359 119.8374,27.972656 138.32568,46.616211 156.84326,27.972656 138.32568,9.3193359"
   id="path109" />
		<path
   style="fill:#190c80;fill-rule:evenodd;stroke:none"
   d="m 152.21143,46.616211 4.63183,4.668457 -32.37305,32.628418 -4.63281,-4.669434 z"
   id="path111" />
		<path
   style="fill:#190c80;fill-rule:evenodd;stroke:none"
   d="M 138.32568,46.616211 156.84326,65.269531 138.32568,83.913086 119.8374,65.269531 Z"
   id="path113" />
		<path
   style="fill-rule:evenodd;stroke:none"
   d="M 115.20459,46.616211 119.8374,51.284668 87.442871,83.913086 82.811035,79.243652 115.20459,46.616211"
   id="path115" />
		<path
   style="fill-rule:evenodd;stroke:none"
   d="M 101.31885,46.616211 119.8374,65.269531 101.31885,83.913086 82.811035,65.269531 101.31885,46.616211"
   id="path117" />
		<path
   style="fill:#190c80;fill-rule:evenodd;stroke:none"
   d="m 13.42041,83.913086 -4.6220701,4.657227 32.3745121,32.638667 4.631347,-4.64746 z"
   id="path119" />
		<path
   style="fill:#190c80;fill-rule:evenodd;stroke:none"
   d="M 27.316895,83.913086 8.7983398,102.56543 27.316895,121.20898 45.804199,102.56543 Z"
   id="path121" />
		<path
   style="fill-rule:evenodd;stroke:none"
   d="m 50.436523,83.913086 -4.632324,4.657227 32.39502,32.638667 4.611816,-4.64746 -32.374512,-32.648434"
   id="path123" />
		<path
   style="fill-rule:evenodd;stroke:none"
   d="M 64.323242,83.913086 45.804199,102.56543 64.323242,121.20898 82.811035,102.56543 64.323242,83.913086"
   id="path125" />
		<path
   style="fill:#190c80;fill-rule:evenodd;stroke:none"
   d="m 87.442871,83.913086 -4.631836,4.657227 32.393555,32.638667 4.63281,-4.64746 z"
   id="path127" />
		<path
   style="fill:#190c80;fill-rule:evenodd;stroke:none"
   d="M 101.31885,83.913086 82.811035,102.56543 101.31885,121.20898 119.8374,102.56543 Z"
   id="path129" />
		<path
   style="fill-rule:evenodd;stroke:none"
   d="m 124.47021,83.913086 -4.63281,4.657227 32.37403,32.638667 4.63183,-4.64746 -32.37305,-32.648434"
   id="path131" />
		<path
   style="fill-rule:evenodd;stroke:none"
   d="m 138.32568,83.913086 -18.48828,18.652344 18.48828,18.64355 18.51758,-18.64355 -18.51758,-18.652344"
   id="path133" />
		<path
   style="fill:#190c80;fill-rule:evenodd;stroke:none"
   d="m 78.199219,46.616211 4.611816,4.668457 -32.374512,32.628418 -4.632324,-4.669434 z"
   id="path135" />
		<path
   style="fill:#190c80;fill-rule:evenodd;stroke:none"
   d="M 64.323242,46.616211 82.811035,65.269531 64.323242,83.913086 45.804199,65.269531 Z"
   id="path137" />
		<path
   style="fill-rule:evenodd;stroke:none"
   d="M 41.172852,46.616211 45.804199,51.284668 13.42041,83.913086 8.7983399,79.243652 41.172852,46.616211"
   id="path139" />
		<path
   style="fill-rule:evenodd;stroke:none"
   d="M 27.316895,46.616211 45.804199,65.269531 27.316895,83.913086 8.7983398,65.269531 27.316895,46.616211"
   id="path141" />
		<path
   style="fill:#190c80;fill-rule:evenodd;stroke:none"
   d="M 13.42041,9.3193359 8.7983399,13.967285 41.172852,46.616211 45.804199,41.947754 Z"
   id="path143" />
		<path
   style="fill:#190c80;fill-rule:evenodd;stroke:none"
   d="M 27.316895,9.3193359 8.7983398,27.972656 27.316895,46.616211 45.804199,27.972656 Z"
   id="path145" />
		<path
   style="fill-rule:evenodd;stroke:none"
   d="M 50.436523,9.3193359 45.804199,13.967285 78.199219,46.616211 82.811035,41.947754 50.436523,9.3193359"
   id="path147" />
		<path
   style="fill-rule:evenodd;stroke:none"
   d="M 64.323242,9.3193359 45.804199,27.972656 64.323242,46.616211 82.811035,27.972656 64.323242,9.3193359"
   id="path149" />
		<path
   style="fill:#190c80;fill-rule:evenodd;stroke:none"
   d="m 78.199219,233.11914 4.611816,-4.66894 -32.374512,-32.6377 -4.632324,4.66797 z"
   id="path151" />
		<path
   style="fill:#190c80;fill-rule:evenodd;stroke:none"
   d="M 64.323242,233.11914 82.811035,214.45508 64.323242,195.8125 45.804199,214.45508 Z"
   id="path153" />
		<path
   style="fill-rule:evenodd;stroke:none"
   d="M 41.172852,233.11914 45.804199,228.4502 13.42041,195.8125 8.7983399,200.48047 41.172852,233.11914"
   id="path155" />
		<path
   style="fill-rule:evenodd;stroke:none"
   d="M 27.316895,233.11914 45.804199,214.45508 27.316895,195.8125 8.7983398,214.45508 27.316895,233.11914"
   id="path157" />
		<path
   style="fill:#190c80;fill-rule:evenodd;stroke:none"
   d="M 27.316895,195.8125 8.7983398,177.16895 27.316895,158.51563 45.804199,177.16895 Z"
   id="path159" />
		<path
   style="fill-rule:evenodd;stroke:none"
   d="m 50.436523,195.8125 -4.632324,-4.66895 32.39502,-32.62792 4.611816,4.66894 -32.374512,32.62793"
   id="path161" />
		<path
   style="fill-rule:evenodd;stroke:none"
   d="M 64.323242,195.8125 45.804199,177.16895 64.323242,158.51563 82.811035,177.16895 64.323242,195.8125"
   id="path163" />
		<path
   style="fill:#190c80;fill-rule:evenodd;stroke:none"
   d="m 152.21143,158.51563 4.63183,-4.65821 -32.37305,-32.64844 -4.63281,4.66895 z"
   id="path165" />
		<path
   style="fill:#190c80;fill-rule:evenodd;stroke:none"
   d="M 138.32568,158.51563 156.84326,139.8623 138.32568,121.20898 119.8374,139.8623 Z"
   id="path167" />
		<path
   style="fill-rule:evenodd;stroke:none"
   d="m 115.20459,158.51563 4.63281,-4.65821 -32.394529,-32.64844 -4.631836,4.66895 32.393555,32.6377"
   id="path169" />
		<path
   style="fill-rule:evenodd;stroke:none"
   d="M 101.31885,158.51563 119.8374,139.8623 101.31885,121.20898 82.811035,139.8623 101.31885,158.51563"
   id="path171" />
		<path
   style="fill:#190c80;fill-rule:evenodd;stroke:none"
   d="m 78.199219,158.51563 4.611816,-4.65821 -32.374512,-32.64844 -4.632324,4.66895 z"
   id="path173" />
		<path
   style="fill:#190c80;fill-rule:evenodd;stroke:none"
   d="M 64.323242,158.51563 82.811035,139.8623 64.323242,121.20898 45.804199,139.8623 Z"
   id="path175" />
		<path
   style="fill-rule:evenodd;stroke:none"
   d="m 41.172852,158.51563 4.631347,-4.65821 -32.383789,-32.64844 -4.6220701,4.66895 32.3745121,32.6377"
   id="path177" />
		<path
   style="fill-rule:evenodd;stroke:none"
   d="M 27.316895,158.51563 45.804199,139.8623 27.316895,121.20898 8.7983398,139.8623 27.316895,158.51563"
   id="path179" />
		<path
   style="fill:#190c80;fill-rule:evenodd;stroke:none"
   d="m 87.442871,195.8125 -4.631836,-4.66895 32.393555,-32.62792 4.63281,4.66894 z"
   id="path181" />
		<path
   style="fill:#190c80;fill-rule:evenodd;stroke:none"
   d="M 101.31885,195.8125 82.811035,177.16895 101.31885,158.51563 119.8374,177.16895 Z"
   id="path183" />
		<path
   style="fill-rule:evenodd;stroke:none"
   d="m 124.47021,195.8125 -4.63281,-4.66895 32.37403,-32.62792 4.63183,4.66894 -32.37305,32.62793"
   id="path185" />
		<path
   style="fill-rule:evenodd;stroke:none"
   d="m 138.32568,195.8125 -18.48828,-18.64355 18.48828,-18.65332 18.51758,18.65332 -18.51758,18.64355"
   id="path187" />
		<path
   style="fill:#190c80;fill-rule:evenodd;stroke:none"
   d="m 152.21143,233.11914 4.63183,-4.66894 -32.37305,-32.6377 -4.63281,4.66797 z"
   id="path189" />
		<path
   style="fill:#190c80;fill-rule:evenodd;stroke:none"
   d="M 138.32568,233.11914 156.84326,214.45508 138.32568,195.8125 119.8374,214.45508 Z"
   id="path191" />
		<path
   style="fill-rule:evenodd;stroke:none"
   d="m 115.20459,233.11914 4.63281,-4.66894 -32.394529,-32.6377 -4.631836,4.66797 32.393555,32.63867"
   id="path193" />
		<path
   style="fill-rule:evenodd;stroke:none"
   d="M 101.31885,233.11914 119.8374,214.45508 101.31885,195.8125 82.811035,214.45508 101.31885,233.11914"
   id="path195" />
		<path
   style="fill-rule:evenodd;stroke:none"
   d="M 110.5835,37.279297 V 18.057617 H 92.064941 v 19.22168 z"
   id="path197" />
		<path
   style="fill:#190c80;fill-rule:evenodd;stroke:none"
   d="m 147.58936,37.279297 v -19.22168 h -18.49805 v 19.22168 z"
   id="path199" />
		<path
   style="fill:#190c80;fill-rule:evenodd;stroke:none"
   d="m 101.31885,20.970215 -6.937502,7.002441 6.937502,6.972168 6.94824,-6.972168 -6.94824,-7.002441"
   id="path201" />
		<path
   style="fill-rule:evenodd;stroke:none"
   d="m 138.32568,20.970215 -6.92773,7.002441 6.92773,6.972168 6.94727,-6.972168 -6.94727,-7.002441"
   id="path203" />
		<path
   style="fill-rule:evenodd;stroke:none"
   d="m 147.58936,74.585938 v -19.22168 h -18.49805 v 19.22168 z"
   id="path205" />
		<path
   style="fill:#190c80;fill-rule:evenodd;stroke:none"
   d="M 110.5835,74.585938 V 55.364258 H 92.064941 v 19.22168 z"
   id="path207" />
		<path
   style="fill:#190c80;fill-rule:evenodd;stroke:none"
   d="m 138.32568,58.276856 6.94727,6.992675 -6.94727,6.981934 -6.92773,-6.981934 6.92773,-6.992676"
   id="path209" />
		<path
   style="fill-rule:evenodd;stroke:none"
   d="m 101.31885,58.276856 6.94824,6.992675 -6.94824,6.981934 -6.937502,-6.981934 6.937502,-6.992676"
   id="path211" />
		<path
   style="fill-rule:evenodd;stroke:none"
   d="M 36.550781,111.89258 V 92.660645 H 18.052246 v 19.231935 z"
   id="path213" />
		<path
   style="fill:#190c80;fill-rule:evenodd;stroke:none"
   d="M 73.567383,111.89258 V 92.660645 H 55.059082 v 19.231935 z"
   id="path215" />
		<path
   style="fill:#190c80;fill-rule:evenodd;stroke:none"
   d="m 27.316895,95.562988 -6.948731,7.002442 6.948731,7.00293 6.91748,-7.00293 -6.91748,-7.002442"
   id="path217" />
		<path
   style="fill-rule:evenodd;stroke:none"
   d="m 64.323242,95.562988 -6.948242,7.002442 6.948242,7.00293 6.927735,-7.00293 -6.927735,-7.002442"
   id="path219" />
		<path
   style="fill-rule:evenodd;stroke:none"
   d="M 110.5835,111.89258 V 92.660645 H 92.064941 v 19.231935 z"
   id="path221" />
		<path
   style="fill:#190c80;fill-rule:evenodd;stroke:none"
   d="M 147.58936,111.89258 V 92.660645 h -18.49805 v 19.231935 z"
   id="path223" />
		<path
   style="fill:#190c80;fill-rule:evenodd;stroke:none"
   d="m 101.31885,95.562988 -6.937502,7.002442 6.937502,7.00293 6.94824,-7.00293 -6.94824,-7.002442"
   id="path225" />
		<path
   style="fill-rule:evenodd;stroke:none"
   d="m 138.32568,95.562988 -6.92773,7.002442 6.92773,7.00293 6.94727,-7.00293 -6.94727,-7.002442"
   id="path227" />
		<path
   style="fill-rule:evenodd;stroke:none"
   d="M 73.567383,74.585938 V 55.364258 H 55.059082 v 19.22168 z"
   id="path229" />
		<path
   style="fill:#190c80;fill-rule:evenodd;stroke:none"
   d="M 36.550781,74.585938 V 55.364258 H 18.052246 v 19.22168 z"
   id="path231" />
		<path
   style="fill:#190c80;fill-rule:evenodd;stroke:none"
   d="m 64.323242,58.276856 6.927735,6.992675 -6.927735,6.981934 -6.948242,-6.981934 6.948242,-6.992676"
   id="path233" />
		<path
   style="fill-rule:evenodd;stroke:none"
   d="m 27.316895,58.276856 6.91748,6.992675 -6.91748,6.981934 -6.948731,-6.981934 6.948731,-6.992676"
   id="path235" />
		<path
   style="fill-rule:evenodd;stroke:none"
   d="M 36.550781,37.279297 V 18.057617 H 18.052246 v 19.22168 z"
   id="path237" />
		<path
   style="fill:#190c80;fill-rule:evenodd;stroke:none"
   d="M 73.567383,37.279297 V 18.057617 H 55.059082 v 19.22168 z"
   id="path239" />
		<path
   style="fill:#190c80;fill-rule:evenodd;stroke:none"
   d="m 27.316895,20.970215 -6.948731,7.002441 6.948731,6.972168 6.91748,-6.972168 -6.91748,-7.002441"
   id="path241" />
		<path
   style="fill-rule:evenodd;stroke:none"
   d="m 64.323242,20.970215 -6.948242,7.002441 6.948242,6.972168 6.927735,-6.972168 -6.927735,-7.002441"
   id="path243" />
		<path
   style="fill-rule:evenodd;stroke:none"
   d="M 73.567383,224.36035 V 205.14941 H 55.059082 v 19.21094 z"
   id="path245" />
		<path
   style="fill:#190c80;fill-rule:evenodd;stroke:none"
   d="M 36.550781,224.36035 V 205.14941 H 18.052246 v 19.21094 z"
   id="path247" />
		<path
   style="fill:#190c80;fill-rule:evenodd;stroke:none"
   d="m 64.323242,221.45801 6.927735,-7.00293 -6.927735,-6.98145 -6.948242,6.98145 6.948242,7.00293"
   id="path249" />
		<path
   style="fill-rule:evenodd;stroke:none"
   d="m 27.316895,221.45801 6.91748,-7.00293 -6.91748,-6.98145 -6.948731,6.98145 6.948731,7.00293"
   id="path251" />
		<path
   style="fill:#190c80;fill-rule:evenodd;stroke:none"
   d="M 73.567383,187.07422 V 167.84277 H 55.059082 v 19.23145 z"
   id="path253" />
		<path
   style="fill-rule:evenodd;stroke:none"
   d="m 64.323242,184.16113 -6.948242,-6.99218 6.948242,-7.00196 6.927735,7.00196 -6.927735,6.99218"
   id="path255" />
		<path
   style="fill-rule:evenodd;stroke:none"
   d="m 147.58936,149.76758 v -19.24121 h -18.49805 v 19.24121 z"
   id="path257" />
		<path
   style="fill:#190c80;fill-rule:evenodd;stroke:none"
   d="M 110.5835,149.76758 V 130.52637 H 92.064941 v 19.24121 H 110.5835 Z"
   id="path259" />
		<path
   style="fill:#190c80;fill-rule:evenodd;stroke:none"
   d="m 138.32568,146.86426 6.94727,-7.00196 -6.94727,-7.00195 -6.92773,7.00195 6.92773,7.00196"
   id="path261" />
		<path
   style="fill-rule:evenodd;stroke:none"
   d="m 101.31885,146.86426 6.94824,-7.00196 -6.94824,-7.00195 -6.937502,7.00195 6.937502,7.00196"
   id="path263" />
		<path
   style="fill-rule:evenodd;stroke:none"
   d="M 73.567383,149.76758 V 130.52637 H 55.059082 v 19.24121 z"
   id="path265" />
		<path
   style="fill:#190c80;fill-rule:evenodd;stroke:none"
   d="M 36.550781,149.76758 V 130.52637 H 18.052246 v 19.24121 z"
   id="path267" />
		<path
   style="fill:#190c80;fill-rule:evenodd;stroke:none"
   d="m 64.323242,146.86426 6.927735,-7.00196 -6.927735,-7.00195 -6.948242,7.00195 6.948242,7.00196"
   id="path269" />
		<path
   style="fill-rule:evenodd;stroke:none"
   d="m 27.316895,146.86426 6.91748,-7.00196 -6.91748,-7.00195 -6.948731,7.00195 6.948731,7.00196"
   id="path271" />
		<path
   style="fill-rule:evenodd;stroke:none"
   d="M 110.5835,187.07422 V 167.84277 H 92.064941 v 19.23145 z"
   id="path273" />
		<path
   style="fill:#190c80;fill-rule:evenodd;stroke:none"
   d="m 147.58936,187.07422 v -19.23145 h -18.49805 v 19.23145 z"
   id="path275" />
		<path
   style="fill:#190c80;fill-rule:evenodd;stroke:none"
   d="m 101.31885,184.16113 -6.937502,-6.99218 6.937502,-7.00196 6.94824,7.00196 -6.94824,6.99218"
   id="path277" />
		<path
   style="fill-rule:evenodd;stroke:none"
   d="m 138.32568,184.16113 -6.92773,-6.99218 6.92773,-7.00196 6.94727,7.00196 -6.94727,6.99218"
   id="path279" />
		<path
   style="fill-rule:evenodd;stroke:none"
   d="m 147.58936,224.36035 v -19.21094 h -18.49805 v 19.21094 z"
   id="path281" />
		<path
   style="fill:#190c80;fill-rule:evenodd;stroke:none"
   d="M 110.5835,224.36035 V 205.14941 H 92.064941 v 19.21094 H 110.5835 Z"
   id="path283" />
		<path
   style="fill:#190c80;fill-rule:evenodd;stroke:none"
   d="m 138.32568,221.45801 6.94727,-7.00293 -6.94727,-6.98145 -6.92773,6.98145 6.92773,7.00293"
   id="path285" />
		<path
   style="fill-rule:evenodd;stroke:none"
   d="m 101.31885,221.45801 6.94824,-7.00293 -6.94824,-6.98145 -6.937502,6.98145 6.937502,7.00293"
   id="path287" />
		<path
   style="fill:#190c80;fill-rule:evenodd;stroke:none"
   d="m 13.42041,195.8125 -4.6220701,-4.66895 32.3745121,-32.62792 4.631347,4.66894 z"
   id="path289" />
		<path
   style="fill-rule:evenodd;stroke:none"
   d="M 36.550781,187.07422 V 167.84277 H 18.052246 v 19.23145 z"
   id="path291" />
		<path
   style="fill:#190c80;fill-rule:evenodd;stroke:none"
   d="m 27.316895,184.16113 -6.948731,-6.99218 6.948731,-7.00196 6.91748,7.00196 -6.91748,6.99218"
   id="path293" />
		<path
   style="fill:none;fill-rule:evenodd;stroke:#1e0c7d;stroke-width:2.99547;stroke-linejoin:round;stroke-miterlimit:10"
   d="M 162.23193,236.57324 H 4.4824219 V 4.5727539 H 162.23193 Z"
   id="path295" />
	</g>
</svg>
