<?xml version="1.0" encoding="UTF-8"?>
<svg xmlns="http://www.w3.org/2000/svg" xmlns:xlink="http://www.w3.org/1999/xlink" width="90px" height="130px" viewBox="0 0 90 130" version="1.1">
<g id="surface1">
<path style="fill-rule:nonzero;fill:rgb(100%,100%,100%);fill-opacity:1;stroke-width:1.8;stroke-linecap:butt;stroke-linejoin:round;stroke:rgb(20%,18.039216%,18.039216%);stroke-opacity:1;stroke-miterlimit:4;" d="M 1986.096944 695.288429 L 2109.695917 695.288429 C 2114.944615 695.288429 2119.200146 699.54079 2119.200146 704.789899 L 2119.200146 899.388822 C 2119.200146 904.637932 2114.944615 908.890293 2109.695917 908.890293 L 1986.096944 908.890293 C 1980.854532 908.890293 1976.599001 904.637932 1976.599001 899.388822 L 1976.599001 704.789899 C 1976.599001 699.54079 1980.854532 695.288429 1986.096944 695.288429 Z M 1986.096944 695.288429 " transform="matrix(0.621434,0,0,0.603525,-1227.634247,-419.080972)"/>
<path style=" stroke:none;fill-rule:nonzero;fill:rgb(20%,18.039216%,18.039216%);fill-opacity:1;" d="M 26.3125 8.304688 C 24.652344 8.304688 23.152344 9.273438 22.515625 10.757812 C 21.878906 12.242188 22.230469 13.949219 23.40625 15.085938 C 24.152344 15.808594 25.566406 16.394531 25.566406 17.839844 C 25.566406 18.707031 25.214844 18.921875 24.59375 18.921875 C 23.023438 18.921875 23.304688 17.785156 22.117188 16.691406 C 21.355469 15.992188 20.347656 15.527344 19.210938 15.527344 C 16.9375 15.527344 15.097656 17.304688 15.097656 19.5 C 15.097656 21.695312 16.9375 23.472656 19.210938 23.472656 C 20.347656 23.472656 21.355469 23.011719 22.117188 22.308594 C 23.304688 21.214844 23.023438 20.367188 24.59375 20.367188 C 25.210938 20.367188 25.566406 20.4375 25.566406 21.160156 C 25.566406 26.503906 24.070312 27.804688 22.425781 29.03125 L 23.324219 29.972656 C 23.324219 29.972656 24.519531 29.035156 26.3125 29.035156 C 28.109375 29.035156 29.304688 29.972656 29.304688 29.972656 L 30.203125 29.035156 C 28.558594 27.804688 27.0625 26.503906 27.0625 21.160156 C 27.0625 20.4375 27.414062 20.367188 28.035156 20.367188 C 29.605469 20.367188 29.324219 21.214844 30.511719 22.308594 C 31.273438 23.007812 32.28125 23.472656 33.417969 23.472656 C 35.691406 23.472656 37.53125 21.695312 37.53125 19.5 C 37.53125 17.304688 35.691406 15.527344 33.417969 15.527344 C 32.28125 15.527344 31.273438 15.988281 30.511719 16.691406 C 29.324219 17.785156 29.605469 18.921875 28.035156 18.921875 C 27.414062 18.921875 27.0625 18.707031 27.0625 17.839844 C 27.0625 16.394531 28.476562 15.808594 29.222656 15.085938 C 30.398438 13.949219 30.75 12.242188 30.113281 10.757812 C 29.476562 9.273438 27.976562 8.304688 26.3125 8.304688 Z M 26.3125 8.304688 "/>
<path style=" stroke:none;fill-rule:nonzero;fill:rgb(20%,18.039216%,18.039216%);fill-opacity:1;" d="M 26.3125 121.695312 C 24.652344 121.695312 23.152344 120.726562 22.515625 119.242188 C 21.878906 117.757812 22.230469 116.050781 23.40625 114.914062 C 24.152344 114.191406 25.566406 113.605469 25.566406 112.160156 C 25.566406 111.292969 25.214844 111.078125 24.59375 111.078125 C 23.023438 111.078125 23.304688 112.214844 22.117188 113.308594 C 21.355469 114.007812 20.347656 114.472656 19.210938 114.472656 C 16.9375 114.472656 15.097656 112.695312 15.097656 110.5 C 15.097656 108.304688 16.9375 106.527344 19.210938 106.527344 C 20.347656 106.527344 21.355469 106.988281 22.117188 107.691406 C 23.304688 108.785156 23.023438 109.632812 24.59375 109.632812 C 25.210938 109.632812 25.566406 109.5625 25.566406 108.839844 C 25.566406 103.496094 24.070312 102.195312 22.425781 100.96875 L 23.324219 100.027344 C 23.324219 100.027344 24.519531 100.964844 26.3125 100.964844 C 28.109375 100.964844 29.304688 100.027344 29.304688 100.027344 L 30.203125 100.964844 C 28.558594 102.195312 27.0625 103.496094 27.0625 108.839844 C 27.0625 109.5625 27.414062 109.632812 28.035156 109.632812 C 29.605469 109.632812 29.324219 108.785156 30.511719 107.691406 C 31.273438 106.992188 32.28125 106.527344 33.417969 106.527344 C 35.691406 106.527344 37.53125 108.304688 37.53125 110.5 C 37.53125 112.695312 35.691406 114.472656 33.417969 114.472656 C 32.28125 114.472656 31.273438 114.011719 30.511719 113.308594 C 29.324219 112.214844 29.605469 111.078125 28.035156 111.078125 C 27.414062 111.078125 27.0625 111.292969 27.0625 112.160156 C 27.0625 113.605469 28.476562 114.191406 29.222656 114.914062 C 30.398438 116.050781 30.75 117.757812 30.113281 119.242188 C 29.476562 120.726562 27.976562 121.695312 26.3125 121.695312 Z M 26.3125 121.695312 "/>
<path style=" stroke:none;fill-rule:nonzero;fill:rgb(20%,18.039216%,18.039216%);fill-opacity:1;" d="M 63.703125 8.304688 C 62.039062 8.304688 60.539062 9.273438 59.902344 10.757812 C 59.265625 12.242188 59.621094 13.949219 60.796875 15.085938 C 61.542969 15.808594 62.957031 16.394531 62.957031 17.839844 C 62.957031 18.707031 62.601562 18.921875 61.984375 18.921875 C 60.414062 18.921875 60.695312 17.785156 59.507812 16.691406 C 58.746094 15.992188 57.734375 15.527344 56.601562 15.527344 C 54.328125 15.527344 52.488281 17.304688 52.488281 19.5 C 52.488281 21.695312 54.328125 23.472656 56.601562 23.472656 C 57.734375 23.472656 58.746094 23.011719 59.507812 22.308594 C 60.695312 21.214844 60.414062 20.367188 61.984375 20.367188 C 62.601562 20.367188 62.957031 20.4375 62.957031 21.160156 C 62.957031 26.503906 61.460938 27.804688 59.816406 29.03125 L 60.710938 29.972656 C 60.710938 29.972656 61.910156 29.035156 63.703125 29.035156 C 65.5 29.035156 66.695312 29.972656 66.695312 29.972656 L 67.59375 29.035156 C 65.945312 27.804688 64.453125 26.503906 64.453125 21.160156 C 64.453125 20.4375 64.804688 20.367188 65.421875 20.367188 C 66.992188 20.367188 66.710938 21.214844 67.898438 22.308594 C 68.664062 23.007812 69.671875 23.472656 70.808594 23.472656 C 73.078125 23.472656 74.921875 21.695312 74.921875 19.5 C 74.921875 17.304688 73.078125 15.527344 70.808594 15.527344 C 69.671875 15.527344 68.660156 15.988281 67.898438 16.691406 C 66.710938 17.785156 66.996094 18.921875 65.425781 18.921875 C 64.804688 18.921875 64.453125 18.707031 64.453125 17.839844 C 64.453125 16.394531 65.863281 15.808594 66.613281 15.085938 C 67.789062 13.949219 68.140625 12.242188 67.503906 10.757812 C 66.867188 9.273438 65.367188 8.304688 63.703125 8.304688 Z M 63.703125 8.304688 "/>
<path style=" stroke:none;fill-rule:nonzero;fill:rgb(20%,18.039216%,18.039216%);fill-opacity:1;" d="M 63.703125 121.695312 C 62.039062 121.695312 60.539062 120.726562 59.902344 119.242188 C 59.265625 117.757812 59.621094 116.050781 60.796875 114.914062 C 61.542969 114.191406 62.957031 113.605469 62.957031 112.160156 C 62.957031 111.292969 62.601562 111.078125 61.984375 111.078125 C 60.414062 111.078125 60.695312 112.214844 59.507812 113.308594 C 58.746094 114.007812 57.734375 114.472656 56.601562 114.472656 C 54.328125 114.472656 52.488281 112.695312 52.488281 110.5 C 52.488281 108.304688 54.328125 106.527344 56.601562 106.527344 C 57.734375 106.527344 58.746094 106.988281 59.507812 107.691406 C 60.695312 108.785156 60.414062 109.632812 61.984375 109.632812 C 62.601562 109.632812 62.957031 109.5625 62.957031 108.839844 C 62.957031 103.496094 61.460938 102.195312 59.816406 100.96875 L 60.710938 100.027344 C 60.710938 100.027344 61.910156 100.964844 63.703125 100.964844 C 65.5 100.964844 66.695312 100.027344 66.695312 100.027344 L 67.59375 100.964844 C 65.945312 102.195312 64.453125 103.496094 64.453125 108.839844 C 64.453125 109.5625 64.804688 109.632812 65.421875 109.632812 C 66.992188 109.632812 66.710938 108.785156 67.898438 107.691406 C 68.664062 106.992188 69.671875 106.527344 70.808594 106.527344 C 73.078125 106.527344 74.921875 108.304688 74.921875 110.5 C 74.921875 112.695312 73.078125 114.472656 70.808594 114.472656 C 69.671875 114.472656 68.660156 114.011719 67.898438 113.308594 C 66.710938 112.214844 66.996094 111.078125 65.425781 111.078125 C 64.804688 111.078125 64.453125 111.292969 64.453125 112.160156 C 64.453125 113.605469 65.863281 114.191406 66.613281 114.914062 C 67.789062 116.050781 68.140625 117.757812 67.503906 119.242188 C 66.867188 120.726562 65.367188 121.695312 63.703125 121.695312 Z M 63.703125 121.695312 "/>
<path style=" stroke:none;fill-rule:nonzero;fill:rgb(20%,18.039216%,18.039216%);fill-opacity:1;" d="M 26.3125 54.167969 C 24.652344 54.167969 23.152344 55.132812 22.515625 56.617188 C 21.878906 58.101562 22.230469 59.8125 23.40625 60.949219 C 24.152344 61.667969 25.566406 62.253906 25.566406 63.699219 C 25.566406 64.566406 25.214844 64.78125 24.59375 64.78125 C 23.023438 64.78125 23.304688 63.644531 22.117188 62.550781 C 21.355469 61.851562 20.347656 61.390625 19.210938 61.390625 C 16.9375 61.390625 15.097656 63.167969 15.097656 65.359375 C 15.097656 67.554688 16.9375 69.332031 19.210938 69.332031 C 20.347656 69.332031 21.355469 68.871094 22.117188 68.167969 C 23.304688 67.078125 23.023438 66.226562 24.59375 66.226562 C 25.210938 66.226562 25.566406 66.300781 25.566406 67.023438 C 25.566406 72.367188 24.070312 73.664062 22.425781 74.894531 L 23.324219 75.832031 C 23.324219 75.832031 24.519531 74.894531 26.3125 74.894531 C 28.109375 74.894531 29.304688 75.832031 29.304688 75.832031 L 30.203125 74.894531 C 28.558594 73.667969 27.0625 72.367188 27.0625 67.023438 C 27.0625 66.300781 27.414062 66.226562 28.035156 66.226562 C 29.605469 66.226562 29.324219 67.078125 30.511719 68.167969 C 31.273438 68.871094 32.28125 69.332031 33.417969 69.332031 C 35.691406 69.332031 37.53125 67.554688 37.53125 65.359375 C 37.53125 63.167969 35.691406 61.390625 33.417969 61.390625 C 32.28125 61.390625 31.273438 61.851562 30.511719 62.550781 C 29.324219 63.644531 29.605469 64.78125 28.035156 64.78125 C 27.414062 64.78125 27.0625 64.566406 27.0625 63.699219 C 27.0625 62.253906 28.476562 61.667969 29.222656 60.949219 C 30.398438 59.8125 30.75 58.101562 30.113281 56.617188 C 29.476562 55.132812 27.976562 54.167969 26.3125 54.167969 Z M 26.3125 54.167969 "/>
<path style=" stroke:none;fill-rule:nonzero;fill:rgb(20%,18.039216%,18.039216%);fill-opacity:1;" d="M 63.703125 54.167969 C 62.039062 54.167969 60.539062 55.132812 59.902344 56.617188 C 59.265625 58.101562 59.621094 59.8125 60.796875 60.949219 C 61.542969 61.667969 62.957031 62.253906 62.957031 63.699219 C 62.957031 64.566406 62.601562 64.78125 61.984375 64.78125 C 60.414062 64.78125 60.695312 63.644531 59.507812 62.550781 C 58.746094 61.851562 57.734375 61.390625 56.601562 61.390625 C 54.328125 61.390625 52.488281 63.167969 52.488281 65.359375 C 52.488281 67.554688 54.328125 69.332031 56.601562 69.332031 C 57.734375 69.332031 58.746094 68.871094 59.507812 68.167969 C 60.695312 67.078125 60.414062 66.226562 61.984375 66.226562 C 62.601562 66.226562 62.957031 66.300781 62.957031 67.023438 C 62.957031 72.367188 61.460938 73.664062 59.816406 74.894531 L 60.710938 75.832031 C 60.710938 75.832031 61.910156 74.894531 63.703125 74.894531 C 65.5 74.894531 66.695312 75.832031 66.695312 75.832031 L 67.59375 74.894531 C 65.945312 73.667969 64.453125 72.367188 64.453125 67.023438 C 64.453125 66.300781 64.804688 66.226562 65.421875 66.226562 C 66.992188 66.226562 66.710938 67.078125 67.898438 68.167969 C 68.664062 68.871094 69.671875 69.332031 70.808594 69.332031 C 73.078125 69.332031 74.921875 67.554688 74.921875 65.359375 C 74.921875 63.167969 73.078125 61.390625 70.808594 61.390625 C 69.671875 61.390625 68.660156 61.851562 67.898438 62.550781 C 66.710938 63.644531 66.996094 64.78125 65.425781 64.78125 C 64.804688 64.78125 64.453125 64.566406 64.453125 63.699219 C 64.453125 62.253906 65.863281 61.667969 66.613281 60.949219 C 67.789062 59.8125 68.140625 58.101562 67.503906 56.617188 C 66.867188 55.132812 65.367188 54.167969 63.703125 54.167969 Z M 63.703125 54.167969 "/>
<path style="fill:none;stroke-width:1;stroke-linecap:butt;stroke-linejoin:miter;stroke:rgb(65.098041%,54.901963%,34.901962%);stroke-opacity:1;stroke-miterlimit:4;" d="M 9.999567 6.998798 L 109.997677 6.998798 C 111.658827 6.998798 113.001329 8.345553 113.001329 10.000601 L 113.001329 169.999408 C 113.001329 171.654456 111.658827 173.001211 109.997677 173.001211 L 9.999567 173.001211 C 8.343641 173.001211 7.001139 171.654456 7.001139 169.999408 L 7.001139 10.000601 C 7.001139 8.345553 8.343641 6.998798 9.999567 6.998798 Z M 9.999567 6.998798 " transform="matrix(0.747788,0,0,0.722222,0.135729,0)"/>
<path style=" stroke:none;fill-rule:nonzero;fill:rgb(20%,18.039216%,18.039216%);fill-opacity:1;" d="M 45.007812 31.234375 C 43.34375 31.234375 41.847656 32.203125 41.210938 33.6875 C 40.574219 35.171875 40.925781 36.882812 42.101562 38.015625 C 42.847656 38.738281 44.261719 39.324219 44.261719 40.769531 C 44.261719 41.636719 43.910156 41.851562 43.289062 41.851562 C 41.71875 41.851562 42 40.714844 40.8125 39.621094 C 40.050781 38.921875 39.039062 38.457031 37.90625 38.457031 C 35.632812 38.457031 33.792969 40.238281 33.792969 42.429688 C 33.792969 44.625 35.632812 46.402344 37.90625 46.402344 C 39.039062 46.402344 40.050781 45.941406 40.8125 45.238281 C 42 44.144531 41.71875 43.296875 43.289062 43.296875 C 43.90625 43.296875 44.261719 43.367188 44.261719 44.089844 C 44.261719 49.433594 42.765625 50.734375 41.121094 51.964844 L 42.019531 52.902344 C 42.019531 52.902344 43.214844 51.964844 45.007812 51.964844 C 46.804688 51.964844 48 52.902344 48 52.902344 L 48.898438 51.964844 C 47.253906 50.734375 45.757812 49.433594 45.757812 44.089844 C 45.757812 43.367188 46.109375 43.296875 46.730469 43.296875 C 48.300781 43.296875 48.015625 44.144531 49.203125 45.238281 C 49.96875 45.941406 50.976562 46.402344 52.113281 46.402344 C 54.382812 46.402344 56.226562 44.625 56.226562 42.429688 C 56.226562 40.238281 54.382812 38.457031 52.113281 38.457031 C 50.976562 38.457031 49.96875 38.921875 49.203125 39.621094 C 48.015625 40.714844 48.300781 41.851562 46.730469 41.851562 C 46.109375 41.851562 45.757812 41.636719 45.757812 40.769531 C 45.757812 39.324219 47.167969 38.738281 47.917969 38.015625 C 49.09375 36.882812 49.445312 35.171875 48.808594 33.6875 C 48.171875 32.203125 46.671875 31.234375 45.007812 31.234375 Z M 45.007812 31.234375 "/>
<path style=" stroke:none;fill-rule:nonzero;fill:rgb(20%,18.039216%,18.039216%);fill-opacity:1;" d="M 45.007812 98.765625 C 43.34375 98.765625 41.847656 97.796875 41.210938 96.3125 C 40.574219 94.828125 40.925781 93.117188 42.101562 91.984375 C 42.847656 91.261719 44.261719 90.675781 44.261719 89.230469 C 44.261719 88.363281 43.910156 88.148438 43.289062 88.148438 C 41.71875 88.148438 42 89.285156 40.8125 90.378906 C 40.050781 91.078125 39.039062 91.542969 37.90625 91.542969 C 35.632812 91.542969 33.792969 89.761719 33.792969 87.570312 C 33.792969 85.375 35.632812 83.597656 37.90625 83.597656 C 39.039062 83.597656 40.050781 84.058594 40.8125 84.761719 C 42 85.855469 41.71875 86.703125 43.289062 86.703125 C 43.90625 86.703125 44.261719 86.632812 44.261719 85.910156 C 44.261719 80.566406 42.765625 79.265625 41.121094 78.035156 L 42.019531 77.097656 C 42.019531 77.097656 43.214844 78.035156 45.007812 78.035156 C 46.804688 78.035156 48 77.097656 48 77.097656 L 48.898438 78.035156 C 47.253906 79.265625 45.757812 80.566406 45.757812 85.910156 C 45.757812 86.632812 46.109375 86.703125 46.730469 86.703125 C 48.300781 86.703125 48.015625 85.855469 49.203125 84.761719 C 49.96875 84.058594 50.976562 83.597656 52.113281 83.597656 C 54.382812 83.597656 56.226562 85.375 56.226562 87.570312 C 56.226562 89.761719 54.382812 91.542969 52.113281 91.542969 C 50.976562 91.542969 49.96875 91.078125 49.203125 90.378906 C 48.015625 89.285156 48.300781 88.148438 46.730469 88.148438 C 46.109375 88.148438 45.757812 88.363281 45.757812 89.230469 C 45.757812 90.675781 47.167969 91.261719 47.917969 91.984375 C 49.09375 93.117188 49.445312 94.828125 48.808594 96.3125 C 48.171875 97.796875 46.671875 98.765625 45.007812 98.765625 Z M 45.007812 98.765625 "/>
<path style=" stroke:none;fill-rule:nonzero;fill:rgb(100%,100%,100%);fill-opacity:1;" d="M 3.878906 4.335938 L 3.878906 28.167969 L 14.347656 28.167969 L 14.347656 4.335938 Z M 3.878906 4.335938 "/>
<path style=" stroke:none;fill-rule:nonzero;fill:rgb(20%,18.039216%,18.039216%);fill-opacity:1;" d="M 8.347656 17.539062 C 7.734375 17.539062 7.1875 17.894531 6.953125 18.4375 C 6.71875 18.984375 6.847656 19.609375 7.277344 20.027344 C 7.554688 20.292969 8.070312 20.507812 8.070312 21.039062 C 8.070312 21.355469 7.941406 21.433594 7.714844 21.433594 C 7.140625 21.433594 7.242188 21.019531 6.804688 20.617188 C 6.527344 20.359375 6.15625 20.191406 5.738281 20.191406 C 4.90625 20.191406 4.230469 20.84375 4.230469 21.648438 C 4.230469 22.453125 4.90625 23.105469 5.738281 23.105469 C 6.15625 23.105469 6.527344 22.9375 6.804688 22.679688 C 7.242188 22.277344 7.136719 21.964844 7.714844 21.964844 C 7.941406 21.964844 8.070312 21.992188 8.070312 22.257812 C 8.070312 24.21875 7.523438 24.695312 6.917969 25.144531 L 7.25 25.492188 C 7.25 25.492188 7.6875 25.144531 8.347656 25.144531 C 9.003906 25.144531 9.445312 25.492188 9.445312 25.492188 L 9.773438 25.144531 C 9.167969 24.695312 8.621094 24.21875 8.621094 22.257812 C 8.621094 21.992188 8.75 21.964844 8.976562 21.964844 C 9.554688 21.964844 9.449219 22.277344 9.886719 22.679688 C 10.167969 22.933594 10.535156 23.105469 10.953125 23.105469 C 11.789062 23.105469 12.464844 22.453125 12.464844 21.648438 C 12.464844 20.84375 11.789062 20.191406 10.953125 20.191406 C 10.535156 20.191406 10.164062 20.359375 9.886719 20.617188 C 9.449219 21.019531 9.554688 21.433594 8.976562 21.433594 C 8.75 21.433594 8.621094 21.355469 8.621094 21.039062 C 8.621094 20.507812 9.140625 20.292969 9.414062 20.027344 C 9.84375 19.609375 9.972656 18.984375 9.742188 18.4375 C 9.507812 17.894531 8.957031 17.539062 8.347656 17.539062 Z M 8.347656 17.539062 "/>
<path style=" stroke:none;fill-rule:nonzero;fill:rgb(100%,100%,100%);fill-opacity:1;" d="M 86.128906 125.664062 L 86.128906 101.832031 L 75.660156 101.832031 L 75.660156 125.664062 Z M 86.128906 125.664062 "/>
<path style=" stroke:none;fill-rule:nonzero;fill:rgb(20%,18.039216%,18.039216%);fill-opacity:1;" d="M 81.726562 112.460938 C 82.335938 112.460938 82.886719 112.105469 83.121094 111.5625 C 83.351562 111.015625 83.222656 110.390625 82.792969 109.972656 C 82.519531 109.707031 82 109.492188 82 108.960938 C 82 108.644531 82.128906 108.566406 82.355469 108.566406 C 82.933594 108.566406 82.828125 108.980469 83.265625 109.382812 C 83.546875 109.640625 83.914062 109.808594 84.332031 109.808594 C 85.167969 109.808594 85.84375 109.15625 85.84375 108.351562 C 85.84375 107.546875 85.167969 106.894531 84.332031 106.894531 C 83.914062 106.894531 83.542969 107.0625 83.265625 107.320312 C 82.828125 107.722656 82.933594 108.035156 82.355469 108.035156 C 82.128906 108.035156 82 108.007812 82 107.742188 C 82 105.78125 82.546875 105.304688 83.152344 104.855469 L 82.824219 104.507812 C 82.824219 104.507812 82.382812 104.855469 81.726562 104.855469 C 81.066406 104.855469 80.628906 104.507812 80.628906 104.507812 L 80.296875 104.855469 C 80.902344 105.304688 81.449219 105.78125 81.449219 107.742188 C 81.449219 108.007812 81.320312 108.035156 81.09375 108.035156 C 80.519531 108.035156 80.621094 107.722656 80.183594 107.320312 C 79.90625 107.066406 79.535156 106.894531 79.117188 106.894531 C 78.285156 106.894531 77.609375 107.546875 77.609375 108.351562 C 77.609375 109.15625 78.285156 109.808594 79.117188 109.808594 C 79.535156 109.808594 79.90625 109.640625 80.183594 109.382812 C 80.621094 108.980469 80.515625 108.566406 81.09375 108.566406 C 81.320312 108.566406 81.449219 108.644531 81.449219 108.960938 C 81.449219 109.492188 80.933594 109.707031 80.65625 109.972656 C 80.226562 110.390625 80.097656 111.015625 80.332031 111.5625 C 80.566406 112.105469 81.113281 112.460938 81.726562 112.460938 Z M 81.726562 112.460938 "/>
<path style=" stroke:none;fill-rule:nonzero;fill:rgb(20%,18.039216%,18.039216%);fill-opacity:1;" d="M 11.644531 12.261719 C 11.644531 14.027344 10.425781 15.273438 8.355469 15.273438 C 5.976562 15.273438 5.019531 13.742188 5.019531 12.25 C 5.019531 11.9375 5.085938 10.515625 6.214844 9.894531 C 6.269531 9.867188 6.269531 9.828125 6.230469 9.792969 C 6.074219 9.683594 5.167969 9.007812 5.167969 7.742188 C 5.167969 6.261719 6.363281 4.945312 8.355469 4.945312 C 10.417969 4.945312 11.496094 6.3125 11.496094 7.742188 C 11.496094 8.269531 11.34375 9.152344 10.433594 9.777344 C 10.394531 9.816406 10.394531 9.851562 10.433594 9.878906 C 11.242188 10.328125 11.644531 11.253906 11.644531 12.261719 Z M 6.886719 7.777344 C 6.886719 7.9375 6.933594 9.238281 8.339844 9.238281 C 8.886719 9.238281 9.789062 8.976562 9.789062 7.765625 C 9.789062 7.054688 9.230469 6.382812 8.324219 6.382812 C 7.3125 6.382812 6.886719 7.25 6.886719 7.777344 Z M 9.894531 12.125 C 9.894531 11.707031 9.828125 10.4375 8.339844 10.4375 C 7.007812 10.4375 6.796875 11.484375 6.796875 12.140625 C 6.796875 13.136719 7.292969 13.84375 8.355469 13.84375 C 9.445312 13.84375 9.894531 13.058594 9.894531 12.125 Z M 9.894531 12.125 "/>
<path style=" stroke:none;fill-rule:nonzero;fill:rgb(20%,18.039216%,18.039216%);fill-opacity:1;" d="M 78.363281 117.738281 C 78.363281 115.972656 79.582031 114.726562 81.652344 114.726562 C 84.03125 114.726562 84.988281 116.257812 84.988281 117.75 C 84.988281 118.0625 84.917969 119.484375 83.789062 120.105469 C 83.738281 120.132812 83.738281 120.171875 83.777344 120.207031 C 83.933594 120.316406 84.835938 120.992188 84.835938 122.257812 C 84.835938 123.738281 83.640625 125.054688 81.652344 125.054688 C 79.589844 125.054688 78.511719 123.6875 78.511719 122.257812 C 78.511719 121.730469 78.660156 120.847656 79.574219 120.222656 C 79.609375 120.183594 79.609375 120.148438 79.574219 120.121094 C 78.765625 119.671875 78.363281 118.746094 78.363281 117.738281 Z M 83.117188 122.222656 C 83.117188 122.0625 83.074219 120.761719 81.667969 120.761719 C 81.121094 120.761719 80.214844 121.023438 80.214844 122.234375 C 80.214844 122.945312 80.777344 123.617188 81.683594 123.617188 C 82.691406 123.617188 83.117188 122.75 83.117188 122.222656 Z M 80.113281 117.875 C 80.113281 118.292969 80.179688 119.5625 81.667969 119.5625 C 83 119.5625 83.207031 118.515625 83.207031 117.859375 C 83.207031 116.863281 82.714844 116.15625 81.652344 116.15625 C 80.558594 116.15625 80.113281 116.941406 80.113281 117.875 Z M 80.113281 117.875 "/>
</g>
</svg>
