<?xml version="1.0" encoding="UTF-8"?>
<svg xmlns="http://www.w3.org/2000/svg" xmlns:xlink="http://www.w3.org/1999/xlink" width="90px" height="130px" viewBox="0 0 90 130" version="1.1">
<g id="surface1">
<path style="fill-rule:nonzero;fill:rgb(100%,100%,100%);fill-opacity:1;stroke-width:1.8;stroke-linecap:butt;stroke-linejoin:round;stroke:rgb(20%,18.039216%,18.039216%);stroke-opacity:1;stroke-miterlimit:4;" d="M 1986.096907 695.288429 L 2109.69588 695.288429 C 2114.944578 695.288429 2119.200109 699.54079 2119.200109 704.789899 L 2119.200109 899.388822 C 2119.200109 904.637932 2114.944578 908.890293 2109.69588 908.890293 L 1986.096907 908.890293 C 1980.854495 908.890293 1976.598964 904.637932 1976.598964 899.388822 L 1976.598964 704.789899 C 1976.598964 699.54079 1980.854495 695.288429 1986.096907 695.288429 Z M 1986.096907 695.288429 " transform="matrix(0.621434,0,0,0.603525,-1227.634224,-419.080972)"/>
<path style="fill:none;stroke-width:1;stroke-linecap:butt;stroke-linejoin:miter;stroke:rgb(65.098041%,54.901963%,34.901962%);stroke-opacity:1;stroke-miterlimit:4;" d="M 9.999537 6.998798 L 109.997647 6.998798 C 111.658797 6.998798 113.001299 8.345553 113.001299 10.000601 L 113.001299 169.999408 C 113.001299 171.654456 111.658797 173.001211 109.997647 173.001211 L 9.999537 173.001211 C 8.34361 173.001211 7.001108 171.654456 7.001108 169.999408 L 7.001108 10.000601 C 7.001108 8.345553 8.34361 6.998798 9.999537 6.998798 Z M 9.999537 6.998798 " transform="matrix(0.747788,0,0,0.722222,0.135752,0)"/>
<path style=" stroke:none;fill-rule:nonzero;fill:rgb(100%,100%,100%);fill-opacity:1;" d="M 86.128906 125.664062 L 86.128906 101.832031 L 75.660156 101.832031 L 75.660156 125.664062 Z M 86.128906 125.664062 "/>
<path style=" stroke:none;fill-rule:nonzero;fill:rgb(20%,18.039216%,18.039216%);fill-opacity:1;" d="M 45.003906 8.304688 C 43.339844 8.304688 41.839844 9.273438 41.203125 10.757812 C 40.566406 12.242188 40.917969 13.949219 42.09375 15.085938 C 42.84375 15.808594 44.253906 16.394531 44.253906 17.839844 C 44.253906 18.707031 43.902344 18.921875 43.28125 18.921875 C 41.710938 18.921875 41.996094 17.785156 40.808594 16.691406 C 40.042969 15.992188 39.035156 15.527344 37.898438 15.527344 C 35.628906 15.527344 33.785156 17.304688 33.785156 19.5 C 33.785156 21.695312 35.628906 23.472656 37.898438 23.472656 C 39.035156 23.472656 40.046875 23.011719 40.808594 22.308594 C 41.996094 21.214844 41.710938 20.367188 43.28125 20.367188 C 43.902344 20.367188 44.253906 20.4375 44.253906 21.160156 C 44.253906 26.503906 42.757812 27.804688 41.113281 29.03125 L 42.011719 29.972656 C 42.011719 29.972656 43.207031 29.035156 45.003906 29.035156 C 46.796875 29.035156 47.996094 29.972656 47.996094 29.972656 L 48.890625 29.035156 C 47.246094 27.804688 45.75 26.503906 45.75 21.160156 C 45.75 20.4375 46.105469 20.367188 46.722656 20.367188 C 48.292969 20.367188 48.011719 21.214844 49.199219 22.308594 C 49.960938 23.007812 50.972656 23.472656 52.105469 23.472656 C 54.378906 23.472656 56.21875 21.695312 56.21875 19.5 C 56.21875 17.304688 54.378906 15.527344 52.105469 15.527344 C 50.972656 15.527344 49.960938 15.988281 49.199219 16.691406 C 48.011719 17.785156 48.292969 18.921875 46.722656 18.921875 C 46.105469 18.921875 45.75 18.707031 45.75 17.839844 C 45.75 16.394531 47.164062 15.808594 47.910156 15.085938 C 49.085938 13.949219 49.4375 12.242188 48.800781 10.757812 C 48.167969 9.273438 46.667969 8.304688 45.003906 8.304688 Z M 45.003906 8.304688 "/>
<path style=" stroke:none;fill-rule:nonzero;fill:rgb(20%,18.039216%,18.039216%);fill-opacity:1;" d="M 45.003906 121.695312 C 43.339844 121.695312 41.839844 120.726562 41.203125 119.242188 C 40.566406 117.757812 40.917969 116.050781 42.09375 114.914062 C 42.84375 114.191406 44.253906 113.605469 44.253906 112.160156 C 44.253906 111.292969 43.902344 111.078125 43.28125 111.078125 C 41.710938 111.078125 41.996094 112.214844 40.808594 113.308594 C 40.042969 114.007812 39.035156 114.472656 37.898438 114.472656 C 35.628906 114.472656 33.785156 112.695312 33.785156 110.5 C 33.785156 108.304688 35.628906 106.527344 37.898438 106.527344 C 39.035156 106.527344 40.046875 106.988281 40.808594 107.691406 C 41.996094 108.785156 41.710938 109.632812 43.28125 109.632812 C 43.902344 109.632812 44.253906 109.5625 44.253906 108.839844 C 44.253906 103.496094 42.757812 102.195312 41.113281 100.96875 L 42.011719 100.027344 C 42.011719 100.027344 43.207031 100.964844 45.003906 100.964844 C 46.796875 100.964844 47.996094 100.027344 47.996094 100.027344 L 48.890625 100.964844 C 47.246094 102.195312 45.75 103.496094 45.75 108.839844 C 45.75 109.5625 46.105469 109.632812 46.722656 109.632812 C 48.292969 109.632812 48.011719 108.785156 49.199219 107.691406 C 49.960938 106.992188 50.972656 106.527344 52.105469 106.527344 C 54.378906 106.527344 56.21875 108.304688 56.21875 110.5 C 56.21875 112.695312 54.378906 114.472656 52.105469 114.472656 C 50.972656 114.472656 49.960938 114.011719 49.199219 113.308594 C 48.011719 112.214844 48.292969 111.078125 46.722656 111.078125 C 46.105469 111.078125 45.75 111.292969 45.75 112.160156 C 45.75 113.605469 47.164062 114.191406 47.910156 114.914062 C 49.085938 116.050781 49.4375 117.757812 48.800781 119.242188 C 48.167969 120.726562 46.667969 121.695312 45.003906 121.695312 Z M 45.003906 121.695312 "/>
<path style=" stroke:none;fill-rule:nonzero;fill:rgb(100%,100%,100%);fill-opacity:1;" d="M 3.878906 4.335938 L 3.878906 28.167969 L 14.347656 28.167969 L 14.347656 4.335938 Z M 3.878906 4.335938 "/>
<path style=" stroke:none;fill-rule:nonzero;fill:rgb(20%,18.039216%,18.039216%);fill-opacity:1;" d="M 8.347656 17.539062 C 7.734375 17.539062 7.1875 17.894531 6.953125 18.4375 C 6.71875 18.984375 6.847656 19.609375 7.277344 20.027344 C 7.554688 20.292969 8.070312 20.507812 8.070312 21.039062 C 8.070312 21.355469 7.941406 21.433594 7.714844 21.433594 C 7.140625 21.433594 7.242188 21.019531 6.804688 20.617188 C 6.527344 20.359375 6.15625 20.191406 5.738281 20.191406 C 4.90625 20.191406 4.230469 20.84375 4.230469 21.648438 C 4.230469 22.453125 4.90625 23.105469 5.738281 23.105469 C 6.15625 23.105469 6.527344 22.9375 6.804688 22.679688 C 7.242188 22.277344 7.136719 21.964844 7.714844 21.964844 C 7.941406 21.964844 8.070312 21.992188 8.070312 22.257812 C 8.070312 24.21875 7.523438 24.695312 6.917969 25.144531 L 7.25 25.492188 C 7.25 25.492188 7.6875 25.144531 8.347656 25.144531 C 9.003906 25.144531 9.445312 25.492188 9.445312 25.492188 L 9.773438 25.144531 C 9.167969 24.695312 8.621094 24.21875 8.621094 22.257812 C 8.621094 21.992188 8.75 21.964844 8.976562 21.964844 C 9.554688 21.964844 9.449219 22.277344 9.886719 22.679688 C 10.167969 22.933594 10.535156 23.105469 10.953125 23.105469 C 11.789062 23.105469 12.464844 22.453125 12.464844 21.648438 C 12.464844 20.84375 11.789062 20.191406 10.953125 20.191406 C 10.535156 20.191406 10.164062 20.359375 9.886719 20.617188 C 9.449219 21.019531 9.554688 21.433594 8.976562 21.433594 C 8.75 21.433594 8.621094 21.355469 8.621094 21.039062 C 8.621094 20.507812 9.140625 20.292969 9.414062 20.027344 C 9.84375 19.609375 9.972656 18.984375 9.742188 18.4375 C 9.507812 17.894531 8.957031 17.539062 8.347656 17.539062 Z M 8.347656 17.539062 "/>
<path style=" stroke:none;fill-rule:nonzero;fill:rgb(20%,18.039216%,18.039216%);fill-opacity:1;" d="M 81.726562 112.460938 C 82.335938 112.460938 82.886719 112.105469 83.121094 111.5625 C 83.351562 111.015625 83.222656 110.390625 82.792969 109.972656 C 82.519531 109.707031 82 109.492188 82 108.960938 C 82 108.644531 82.128906 108.566406 82.355469 108.566406 C 82.933594 108.566406 82.828125 108.980469 83.265625 109.382812 C 83.546875 109.640625 83.914062 109.808594 84.332031 109.808594 C 85.167969 109.808594 85.84375 109.15625 85.84375 108.351562 C 85.84375 107.546875 85.167969 106.894531 84.332031 106.894531 C 83.914062 106.894531 83.542969 107.0625 83.265625 107.320312 C 82.828125 107.722656 82.933594 108.035156 82.355469 108.035156 C 82.128906 108.035156 82 108.007812 82 107.742188 C 82 105.78125 82.546875 105.304688 83.152344 104.855469 L 82.824219 104.507812 C 82.824219 104.507812 82.382812 104.855469 81.726562 104.855469 C 81.066406 104.855469 80.628906 104.507812 80.628906 104.507812 L 80.296875 104.855469 C 80.902344 105.304688 81.449219 105.78125 81.449219 107.742188 C 81.449219 108.007812 81.320312 108.035156 81.09375 108.035156 C 80.519531 108.035156 80.621094 107.722656 80.183594 107.320312 C 79.90625 107.066406 79.535156 106.894531 79.117188 106.894531 C 78.285156 106.894531 77.609375 107.546875 77.609375 108.351562 C 77.609375 109.15625 78.285156 109.808594 79.117188 109.808594 C 79.535156 109.808594 79.90625 109.640625 80.183594 109.382812 C 80.621094 108.980469 80.515625 108.566406 81.09375 108.566406 C 81.320312 108.566406 81.449219 108.644531 81.449219 108.960938 C 81.449219 109.492188 80.933594 109.707031 80.65625 109.972656 C 80.226562 110.390625 80.097656 111.015625 80.332031 111.5625 C 80.566406 112.105469 81.113281 112.460938 81.726562 112.460938 Z M 81.726562 112.460938 "/>
<path style=" stroke:none;fill-rule:nonzero;fill:rgb(20%,18.039216%,18.039216%);fill-opacity:1;" d="M 7.277344 13.664062 C 7.226562 13.714844 7.246094 13.75 7.308594 13.75 L 11.570312 13.75 C 11.660156 13.75 11.75 13.835938 11.75 13.925781 L 11.75 15.015625 C 11.75 15.078125 11.703125 15.1875 11.570312 15.1875 L 5.136719 15.1875 C 5.085938 15.1875 4.960938 15.175781 4.960938 15.015625 L 4.960938 13.980469 C 4.960938 13.894531 4.988281 13.824219 5.046875 13.765625 C 6.199219 12.589844 7.285156 11.347656 8.382812 10.109375 C 9.296875 9.085938 9.761719 8.304688 9.761719 7.777344 C 9.761719 6.992188 9.132812 6.441406 8.203125 6.441406 C 7.320312 6.441406 6.664062 6.933594 6.664062 7.808594 L 6.664062 8.183594 C 6.664062 8.242188 6.617188 8.355469 6.484375 8.355469 L 5.09375 8.355469 C 4.980469 8.355469 4.914062 8.292969 4.914062 8.183594 L 4.914062 7.5625 C 4.972656 5.945312 6.433594 5.003906 8.203125 5.003906 C 10.335938 5.003906 11.507812 6.285156 11.507812 7.75 C 11.507812 8.535156 11.074219 9.4375 10.207031 10.464844 C 9.273438 11.570312 8.265625 12.601562 7.277344 13.65625 Z M 7.277344 13.664062 "/>
<path style=" stroke:none;fill-rule:nonzero;fill:rgb(20%,18.039216%,18.039216%);fill-opacity:1;" d="M 82.730469 116.335938 C 82.78125 116.285156 82.757812 116.25 82.699219 116.25 L 78.4375 116.25 C 78.347656 116.25 78.257812 116.164062 78.257812 116.074219 L 78.257812 114.984375 C 78.257812 114.921875 78.300781 114.8125 78.4375 114.8125 L 84.867188 114.8125 C 84.917969 114.8125 85.046875 114.824219 85.046875 114.984375 L 85.046875 116.019531 C 85.046875 116.105469 85.015625 116.175781 84.957031 116.234375 C 83.804688 117.410156 82.722656 118.652344 81.621094 119.890625 C 80.710938 120.914062 80.246094 121.695312 80.246094 122.222656 C 80.246094 123.007812 80.875 123.558594 81.800781 123.558594 C 82.683594 123.558594 83.34375 123.066406 83.34375 122.191406 L 83.34375 121.816406 C 83.34375 121.757812 83.386719 121.644531 83.523438 121.644531 L 84.914062 121.644531 C 85.023438 121.644531 85.09375 121.707031 85.09375 121.816406 L 85.09375 122.4375 C 85.03125 124.054688 83.574219 124.996094 81.800781 124.996094 C 79.671875 124.996094 78.496094 123.714844 78.496094 122.25 C 78.496094 121.464844 78.929688 120.5625 79.796875 119.535156 C 80.730469 118.429688 81.742188 117.398438 82.730469 116.34375 Z M 82.730469 116.335938 "/>
</g>
</svg>
