<?xml version="1.0" encoding="UTF-8"?>
<svg xmlns="http://www.w3.org/2000/svg" xmlns:xlink="http://www.w3.org/1999/xlink" width="90px" height="130px" viewBox="0 0 90 130" version="1.1">
<g id="surface1">
<path style="fill-rule:nonzero;fill:rgb(100%,100%,100%);fill-opacity:1;stroke-width:1.8;stroke-linecap:butt;stroke-linejoin:round;stroke:rgb(20%,18.039216%,18.039216%);stroke-opacity:1;stroke-miterlimit:4;" d="M 1986.096879 695.288429 L 2109.702027 695.288429 C 2114.944434 695.288429 2119.199961 699.54079 2119.199961 704.789899 L 2119.199961 899.388822 C 2119.199961 904.637932 2114.944434 908.890293 2109.702027 908.890293 L 1986.096879 908.890293 C 1980.854472 908.890293 1976.598945 904.637932 1976.598945 899.388822 L 1976.598945 704.789899 C 1976.598945 699.54079 1980.854472 695.288429 1986.096879 695.288429 Z M 1986.096879 695.288429 " transform="matrix(0.621434,0,0,0.603525,-1227.635319,-419.080972)"/>
<path style=" stroke:none;fill-rule:nonzero;fill:rgb(20%,18.039216%,18.039216%);fill-opacity:1;" d="M 45.007812 8.304688 C 43.34375 8.304688 41.847656 9.273438 41.210938 10.757812 C 40.574219 12.242188 40.925781 13.949219 42.101562 15.085938 C 42.847656 15.808594 44.261719 16.394531 44.261719 17.839844 C 44.261719 18.707031 43.910156 18.921875 43.289062 18.921875 C 41.71875 18.921875 42 17.785156 40.8125 16.691406 C 40.050781 15.992188 39.039062 15.527344 37.90625 15.527344 C 35.632812 15.527344 33.792969 17.304688 33.792969 19.5 C 33.792969 21.695312 35.632812 23.472656 37.90625 23.472656 C 39.039062 23.472656 40.050781 23.011719 40.8125 22.308594 C 42 21.214844 41.71875 20.367188 43.289062 20.367188 C 43.90625 20.367188 44.261719 20.4375 44.261719 21.160156 C 44.261719 26.503906 42.765625 27.804688 41.121094 29.03125 L 42.019531 29.972656 C 42.019531 29.972656 43.214844 29.035156 45.007812 29.035156 C 46.804688 29.035156 48 29.972656 48 29.972656 L 48.898438 29.035156 C 47.253906 27.804688 45.757812 26.503906 45.757812 21.160156 C 45.757812 20.4375 46.109375 20.367188 46.730469 20.367188 C 48.300781 20.367188 48.015625 21.214844 49.203125 22.308594 C 49.96875 23.007812 50.976562 23.472656 52.113281 23.472656 C 54.382812 23.472656 56.226562 21.695312 56.226562 19.5 C 56.226562 17.304688 54.382812 15.527344 52.113281 15.527344 C 50.976562 15.527344 49.96875 15.988281 49.203125 16.691406 C 48.015625 17.785156 48.300781 18.921875 46.730469 18.921875 C 46.109375 18.921875 45.757812 18.707031 45.757812 17.839844 C 45.757812 16.394531 47.167969 15.808594 47.917969 15.085938 C 49.09375 13.949219 49.445312 12.242188 48.808594 10.757812 C 48.171875 9.273438 46.671875 8.304688 45.007812 8.304688 Z M 45.007812 8.304688 "/>
<path style="fill:none;stroke-width:1;stroke-linecap:butt;stroke-linejoin:miter;stroke:rgb(65.098041%,54.901963%,34.901962%);stroke-opacity:1;stroke-miterlimit:4;" d="M 9.999512 6.998798 L 109.997532 6.998798 C 111.658681 6.998798 113.001182 8.345553 113.001182 10.000601 L 113.001182 169.999408 C 113.001182 171.654456 111.658681 173.001211 109.997532 173.001211 L 9.999512 173.001211 C 8.343587 173.001211 7.001087 171.654456 7.001087 169.999408 L 7.001087 10.000601 C 7.001087 8.345553 8.343587 6.998798 9.999512 6.998798 Z M 9.999512 6.998798 " transform="matrix(0.747788,0,0,0.722222,0.135764,0)"/>
<path style=" stroke:none;fill-rule:nonzero;fill:rgb(20%,18.039216%,18.039216%);fill-opacity:1;" d="M 45.007812 121.695312 C 43.34375 121.695312 41.847656 120.726562 41.210938 119.242188 C 40.574219 117.757812 40.925781 116.050781 42.101562 114.914062 C 42.847656 114.191406 44.261719 113.605469 44.261719 112.160156 C 44.261719 111.292969 43.910156 111.078125 43.289062 111.078125 C 41.71875 111.078125 42 112.214844 40.8125 113.308594 C 40.050781 114.007812 39.039062 114.472656 37.90625 114.472656 C 35.632812 114.472656 33.792969 112.695312 33.792969 110.5 C 33.792969 108.304688 35.632812 106.527344 37.90625 106.527344 C 39.039062 106.527344 40.050781 106.988281 40.8125 107.691406 C 42 108.785156 41.71875 109.632812 43.289062 109.632812 C 43.90625 109.632812 44.261719 109.5625 44.261719 108.839844 C 44.261719 103.496094 42.765625 102.195312 41.121094 100.96875 L 42.019531 100.027344 C 42.019531 100.027344 43.214844 100.964844 45.007812 100.964844 C 46.804688 100.964844 48 100.027344 48 100.027344 L 48.898438 100.964844 C 47.253906 102.195312 45.757812 103.496094 45.757812 108.839844 C 45.757812 109.5625 46.109375 109.632812 46.730469 109.632812 C 48.300781 109.632812 48.015625 108.785156 49.203125 107.691406 C 49.96875 106.992188 50.976562 106.527344 52.113281 106.527344 C 54.382812 106.527344 56.226562 108.304688 56.226562 110.5 C 56.226562 112.695312 54.382812 114.472656 52.113281 114.472656 C 50.976562 114.472656 49.96875 114.011719 49.203125 113.308594 C 48.015625 112.214844 48.300781 111.078125 46.730469 111.078125 C 46.109375 111.078125 45.757812 111.292969 45.757812 112.160156 C 45.757812 113.605469 47.167969 114.191406 47.917969 114.914062 C 49.09375 116.050781 49.445312 117.757812 48.808594 119.242188 C 48.171875 120.726562 46.671875 121.695312 45.007812 121.695312 Z M 45.007812 121.695312 "/>
<path style=" stroke:none;fill-rule:nonzero;fill:rgb(20%,18.039216%,18.039216%);fill-opacity:1;" d="M 45.003906 54.167969 C 43.339844 54.167969 41.839844 55.132812 41.203125 56.617188 C 40.566406 58.101562 40.917969 59.8125 42.09375 60.949219 C 42.84375 61.667969 44.253906 62.253906 44.253906 63.699219 C 44.253906 64.566406 43.902344 64.78125 43.28125 64.78125 C 41.710938 64.78125 41.996094 63.644531 40.808594 62.550781 C 40.042969 61.851562 39.035156 61.390625 37.898438 61.390625 C 35.628906 61.390625 33.785156 63.167969 33.785156 65.359375 C 33.785156 67.554688 35.628906 69.332031 37.898438 69.332031 C 39.035156 69.332031 40.046875 68.871094 40.808594 68.167969 C 41.996094 67.078125 41.710938 66.226562 43.28125 66.226562 C 43.902344 66.226562 44.253906 66.300781 44.253906 67.023438 C 44.253906 72.367188 42.757812 73.664062 41.113281 74.894531 L 42.011719 75.832031 C 42.011719 75.832031 43.207031 74.894531 45.003906 74.894531 C 46.796875 74.894531 47.996094 75.832031 47.996094 75.832031 L 48.890625 74.894531 C 47.246094 73.667969 45.75 72.367188 45.75 67.023438 C 45.75 66.300781 46.105469 66.226562 46.722656 66.226562 C 48.292969 66.226562 48.011719 67.078125 49.199219 68.167969 C 49.960938 68.871094 50.972656 69.332031 52.105469 69.332031 C 54.378906 69.332031 56.21875 67.554688 56.21875 65.359375 C 56.21875 63.167969 54.378906 61.390625 52.105469 61.390625 C 50.972656 61.390625 49.960938 61.851562 49.199219 62.550781 C 48.011719 63.644531 48.292969 64.78125 46.722656 64.78125 C 46.105469 64.78125 45.75 64.566406 45.75 63.699219 C 45.75 62.253906 47.164062 61.667969 47.910156 60.949219 C 49.085938 59.8125 49.4375 58.101562 48.800781 56.617188 C 48.167969 55.132812 46.667969 54.167969 45.003906 54.167969 Z M 45.003906 54.167969 "/>
<path style=" stroke:none;fill-rule:nonzero;fill:rgb(100%,100%,100%);fill-opacity:1;" d="M 3.878906 4.335938 L 3.878906 28.167969 L 14.347656 28.167969 L 14.347656 4.335938 Z M 3.878906 4.335938 "/>
<path style=" stroke:none;fill-rule:nonzero;fill:rgb(20%,18.039216%,18.039216%);fill-opacity:1;" d="M 8.347656 17.539062 C 7.734375 17.539062 7.1875 17.894531 6.953125 18.4375 C 6.71875 18.984375 6.847656 19.609375 7.277344 20.027344 C 7.554688 20.292969 8.070312 20.507812 8.070312 21.039062 C 8.070312 21.355469 7.941406 21.433594 7.714844 21.433594 C 7.140625 21.433594 7.242188 21.019531 6.804688 20.617188 C 6.527344 20.359375 6.15625 20.191406 5.738281 20.191406 C 4.90625 20.191406 4.230469 20.84375 4.230469 21.648438 C 4.230469 22.453125 4.90625 23.105469 5.738281 23.105469 C 6.15625 23.105469 6.527344 22.9375 6.804688 22.679688 C 7.242188 22.277344 7.140625 21.964844 7.714844 21.964844 C 7.941406 21.964844 8.070312 21.992188 8.070312 22.257812 C 8.070312 24.21875 7.523438 24.695312 6.917969 25.144531 L 7.25 25.492188 C 7.25 25.492188 7.6875 25.144531 8.347656 25.144531 C 9.003906 25.144531 9.445312 25.492188 9.445312 25.492188 L 9.773438 25.144531 C 9.167969 24.695312 8.621094 24.21875 8.621094 22.257812 C 8.621094 21.992188 8.75 21.964844 8.976562 21.964844 C 9.554688 21.964844 9.449219 22.277344 9.886719 22.679688 C 10.167969 22.933594 10.535156 23.105469 10.953125 23.105469 C 11.789062 23.105469 12.464844 22.453125 12.464844 21.648438 C 12.464844 20.84375 11.789062 20.191406 10.953125 20.191406 C 10.535156 20.191406 10.164062 20.359375 9.886719 20.617188 C 9.449219 21.019531 9.554688 21.433594 8.976562 21.433594 C 8.75 21.433594 8.621094 21.355469 8.621094 21.039062 C 8.621094 20.507812 9.140625 20.292969 9.414062 20.027344 C 9.84375 19.609375 9.972656 18.984375 9.742188 18.4375 C 9.507812 17.894531 8.957031 17.539062 8.347656 17.539062 Z M 8.347656 17.539062 "/>
<path style=" stroke:none;fill-rule:nonzero;fill:rgb(100%,100%,100%);fill-opacity:1;" d="M 86.128906 125.664062 L 86.128906 101.832031 L 75.660156 101.832031 L 75.660156 125.664062 Z M 86.128906 125.664062 "/>
<path style=" stroke:none;fill-rule:nonzero;fill:rgb(20%,18.039216%,18.039216%);fill-opacity:1;" d="M 81.726562 112.460938 C 82.335938 112.460938 82.886719 112.105469 83.121094 111.5625 C 83.355469 111.015625 83.222656 110.390625 82.792969 109.972656 C 82.519531 109.707031 82 109.492188 82 108.960938 C 82 108.644531 82.128906 108.566406 82.355469 108.566406 C 82.933594 108.566406 82.828125 108.980469 83.265625 109.382812 C 83.546875 109.640625 83.914062 109.808594 84.332031 109.808594 C 85.167969 109.808594 85.84375 109.15625 85.84375 108.351562 C 85.84375 107.546875 85.167969 106.894531 84.332031 106.894531 C 83.914062 106.894531 83.546875 107.0625 83.265625 107.320312 C 82.828125 107.722656 82.933594 108.035156 82.355469 108.035156 C 82.128906 108.035156 82 108.007812 82 107.742188 C 82 105.78125 82.546875 105.304688 83.152344 104.855469 L 82.824219 104.507812 C 82.824219 104.507812 82.382812 104.855469 81.726562 104.855469 C 81.066406 104.855469 80.628906 104.507812 80.628906 104.507812 L 80.296875 104.855469 C 80.902344 105.304688 81.449219 105.78125 81.449219 107.742188 C 81.449219 108.007812 81.320312 108.035156 81.09375 108.035156 C 80.519531 108.035156 80.621094 107.722656 80.1875 107.320312 C 79.90625 107.066406 79.535156 106.894531 79.117188 106.894531 C 78.285156 106.894531 77.609375 107.546875 77.609375 108.351562 C 77.609375 109.15625 78.285156 109.808594 79.117188 109.808594 C 79.535156 109.808594 79.90625 109.640625 80.1875 109.382812 C 80.621094 108.980469 80.519531 108.566406 81.09375 108.566406 C 81.320312 108.566406 81.449219 108.644531 81.449219 108.960938 C 81.449219 109.492188 80.933594 109.707031 80.65625 109.972656 C 80.226562 110.390625 80.097656 111.015625 80.332031 111.5625 C 80.566406 112.105469 81.113281 112.460938 81.726562 112.460938 Z M 81.726562 112.460938 "/>
<path style=" stroke:none;fill-rule:nonzero;fill:rgb(20%,18.039216%,18.039216%);fill-opacity:1;" d="M 11.628906 11.929688 C 11.628906 13.6875 10.628906 15.246094 8.324219 15.246094 C 6.835938 15.246094 5.132812 14.421875 5.035156 12.089844 C 5.035156 11.972656 5.09375 11.917969 5.214844 11.917969 L 6.605469 11.917969 C 6.722656 11.917969 6.785156 11.972656 6.785156 12.089844 C 6.828125 12.789062 7.105469 13.808594 8.324219 13.808594 C 9.683594 13.808594 9.878906 12.566406 9.878906 11.867188 C 9.878906 10.636719 9.386719 9.859375 8.308594 9.859375 C 8.136719 9.859375 7.914062 9.953125 7.621094 10.148438 C 7.53125 10.191406 7.457031 10.199219 7.367188 10.089844 L 6.679688 9.171875 C 6.597656 9.0625 6.640625 8.976562 6.695312 8.925781 L 9.160156 6.601562 C 9.199219 6.566406 9.175781 6.515625 9.117188 6.515625 L 5.378906 6.515625 C 5.332031 6.515625 5.199219 6.5 5.199219 6.339844 L 5.199219 5.25 C 5.199219 5.128906 5.308594 5.078125 5.378906 5.078125 L 11.34375 5.078125 C 11.433594 5.078125 11.523438 5.164062 11.523438 5.25 L 11.523438 6.5 C 11.523438 6.585938 11.496094 6.660156 11.433594 6.714844 L 9.296875 8.78125 C 9.257812 8.816406 9.273438 8.847656 9.355469 8.867188 C 11.082031 9.101562 11.628906 10.601562 11.628906 11.929688 Z M 11.628906 11.929688 "/>
<path style=" stroke:none;fill-rule:nonzero;fill:rgb(20%,18.039216%,18.039216%);fill-opacity:1;" d="M 78.375 118.070312 C 78.375 116.3125 79.378906 114.753906 81.683594 114.753906 C 83.171875 114.753906 84.875 115.578125 84.972656 117.910156 C 84.972656 118.027344 84.914062 118.082031 84.792969 118.082031 L 83.402344 118.082031 C 83.28125 118.082031 83.222656 118.027344 83.222656 117.910156 C 83.175781 117.210938 82.902344 116.191406 81.683594 116.191406 C 80.320312 116.191406 80.125 117.433594 80.125 118.132812 C 80.125 119.363281 80.621094 120.140625 81.695312 120.140625 C 81.867188 120.140625 82.09375 120.046875 82.386719 119.851562 C 82.476562 119.808594 82.550781 119.800781 82.640625 119.910156 L 83.328125 120.828125 C 83.410156 120.9375 83.363281 121.023438 83.3125 121.074219 L 80.84375 123.398438 C 80.808594 123.433594 80.828125 123.484375 80.890625 123.484375 L 84.628906 123.484375 C 84.671875 123.484375 84.808594 123.5 84.808594 123.660156 L 84.808594 124.75 C 84.808594 124.871094 84.695312 124.921875 84.628906 124.921875 L 78.660156 124.921875 C 78.570312 124.921875 78.480469 124.835938 78.480469 124.75 L 78.480469 123.5 C 78.480469 123.414062 78.511719 123.339844 78.570312 123.285156 L 80.710938 121.21875 C 80.746094 121.183594 80.730469 121.152344 80.648438 121.132812 C 78.921875 120.898438 78.375 119.398438 78.375 118.070312 Z M 78.375 118.070312 "/>
</g>
</svg>
