<?xml version="1.0" encoding="UTF-8"?>
<svg xmlns="http://www.w3.org/2000/svg" xmlns:xlink="http://www.w3.org/1999/xlink" width="90px" height="130px" viewBox="0 0 90 130" version="1.1">
<g id="surface1">
<path style="fill-rule:nonzero;fill:rgb(100%,100%,100%);fill-opacity:1;stroke-width:1.8;stroke-linecap:butt;stroke-linejoin:round;stroke:rgb(20%,18.039216%,18.039216%);stroke-opacity:1;stroke-miterlimit:4;" d="M 1986.096951 695.288429 L 2109.695925 695.288429 C 2114.944623 695.288429 2119.200153 699.54079 2119.200153 704.789899 L 2119.200153 899.388822 C 2119.200153 904.637932 2114.944623 908.890293 2109.695925 908.890293 L 1986.096951 908.890293 C 1980.85454 908.890293 1976.599009 904.637932 1976.599009 899.388822 L 1976.599009 704.789899 C 1976.599009 699.54079 1980.85454 695.288429 1986.096951 695.288429 Z M 1986.096951 695.288429 " transform="matrix(0.621434,0,0,0.603525,-1227.634252,-419.080972)"/>
<path style=" stroke:none;fill-rule:nonzero;fill:rgb(20%,18.039216%,18.039216%);fill-opacity:1;" d="M 26.3125 8.304688 C 24.652344 8.304688 23.152344 9.273438 22.515625 10.757812 C 21.878906 12.242188 22.230469 13.949219 23.40625 15.085938 C 24.152344 15.808594 25.566406 16.394531 25.566406 17.839844 C 25.566406 18.707031 25.214844 18.921875 24.59375 18.921875 C 23.023438 18.921875 23.304688 17.785156 22.117188 16.691406 C 21.355469 15.992188 20.347656 15.527344 19.210938 15.527344 C 16.9375 15.527344 15.097656 17.304688 15.097656 19.5 C 15.097656 21.695312 16.9375 23.472656 19.210938 23.472656 C 20.347656 23.472656 21.355469 23.011719 22.117188 22.308594 C 23.304688 21.214844 23.023438 20.367188 24.59375 20.367188 C 25.210938 20.367188 25.566406 20.4375 25.566406 21.160156 C 25.566406 26.503906 24.070312 27.804688 22.425781 29.03125 L 23.324219 29.972656 C 23.324219 29.972656 24.519531 29.035156 26.3125 29.035156 C 28.109375 29.035156 29.304688 29.972656 29.304688 29.972656 L 30.203125 29.035156 C 28.558594 27.804688 27.0625 26.503906 27.0625 21.160156 C 27.0625 20.4375 27.414062 20.367188 28.035156 20.367188 C 29.605469 20.367188 29.324219 21.214844 30.511719 22.308594 C 31.273438 23.007812 32.28125 23.472656 33.417969 23.472656 C 35.691406 23.472656 37.53125 21.695312 37.53125 19.5 C 37.53125 17.304688 35.691406 15.527344 33.417969 15.527344 C 32.28125 15.527344 31.273438 15.988281 30.511719 16.691406 C 29.324219 17.785156 29.605469 18.921875 28.035156 18.921875 C 27.414062 18.921875 27.0625 18.707031 27.0625 17.839844 C 27.0625 16.394531 28.476562 15.808594 29.222656 15.085938 C 30.398438 13.949219 30.75 12.242188 30.113281 10.757812 C 29.476562 9.273438 27.976562 8.304688 26.3125 8.304688 Z M 26.3125 8.304688 "/>
<path style=" stroke:none;fill-rule:nonzero;fill:rgb(20%,18.039216%,18.039216%);fill-opacity:1;" d="M 26.3125 121.695312 C 24.652344 121.695312 23.152344 120.726562 22.515625 119.242188 C 21.878906 117.757812 22.230469 116.050781 23.40625 114.914062 C 24.152344 114.191406 25.566406 113.605469 25.566406 112.160156 C 25.566406 111.292969 25.214844 111.078125 24.59375 111.078125 C 23.023438 111.078125 23.304688 112.214844 22.117188 113.308594 C 21.355469 114.007812 20.347656 114.472656 19.210938 114.472656 C 16.9375 114.472656 15.097656 112.695312 15.097656 110.5 C 15.097656 108.304688 16.9375 106.527344 19.210938 106.527344 C 20.347656 106.527344 21.355469 106.988281 22.117188 107.691406 C 23.304688 108.785156 23.023438 109.632812 24.59375 109.632812 C 25.210938 109.632812 25.566406 109.5625 25.566406 108.839844 C 25.566406 103.496094 24.070312 102.195312 22.425781 100.96875 L 23.324219 100.027344 C 23.324219 100.027344 24.519531 100.964844 26.3125 100.964844 C 28.109375 100.964844 29.304688 100.027344 29.304688 100.027344 L 30.203125 100.964844 C 28.558594 102.195312 27.0625 103.496094 27.0625 108.839844 C 27.0625 109.5625 27.414062 109.632812 28.035156 109.632812 C 29.605469 109.632812 29.324219 108.785156 30.511719 107.691406 C 31.273438 106.992188 32.28125 106.527344 33.417969 106.527344 C 35.691406 106.527344 37.53125 108.304688 37.53125 110.5 C 37.53125 112.695312 35.691406 114.472656 33.417969 114.472656 C 32.28125 114.472656 31.273438 114.011719 30.511719 113.308594 C 29.324219 112.214844 29.605469 111.078125 28.035156 111.078125 C 27.414062 111.078125 27.0625 111.292969 27.0625 112.160156 C 27.0625 113.605469 28.476562 114.191406 29.222656 114.914062 C 30.398438 116.050781 30.75 117.757812 30.113281 119.242188 C 29.476562 120.726562 27.976562 121.695312 26.3125 121.695312 Z M 26.3125 121.695312 "/>
<path style=" stroke:none;fill-rule:nonzero;fill:rgb(20%,18.039216%,18.039216%);fill-opacity:1;" d="M 63.703125 8.304688 C 62.039062 8.304688 60.539062 9.273438 59.902344 10.757812 C 59.265625 12.242188 59.621094 13.949219 60.796875 15.085938 C 61.542969 15.808594 62.957031 16.394531 62.957031 17.839844 C 62.957031 18.707031 62.601562 18.921875 61.984375 18.921875 C 60.414062 18.921875 60.695312 17.785156 59.507812 16.691406 C 58.746094 15.992188 57.734375 15.527344 56.601562 15.527344 C 54.328125 15.527344 52.488281 17.304688 52.488281 19.5 C 52.488281 21.695312 54.328125 23.472656 56.601562 23.472656 C 57.734375 23.472656 58.746094 23.011719 59.507812 22.308594 C 60.695312 21.214844 60.414062 20.367188 61.984375 20.367188 C 62.601562 20.367188 62.957031 20.4375 62.957031 21.160156 C 62.957031 26.503906 61.460938 27.804688 59.816406 29.03125 L 60.710938 29.972656 C 60.710938 29.972656 61.910156 29.035156 63.703125 29.035156 C 65.5 29.035156 66.695312 29.972656 66.695312 29.972656 L 67.59375 29.035156 C 65.945312 27.804688 64.453125 26.503906 64.453125 21.160156 C 64.453125 20.4375 64.804688 20.367188 65.421875 20.367188 C 66.992188 20.367188 66.710938 21.214844 67.898438 22.308594 C 68.664062 23.007812 69.671875 23.472656 70.808594 23.472656 C 73.078125 23.472656 74.921875 21.695312 74.921875 19.5 C 74.921875 17.304688 73.078125 15.527344 70.808594 15.527344 C 69.671875 15.527344 68.660156 15.988281 67.898438 16.691406 C 66.710938 17.785156 66.996094 18.921875 65.425781 18.921875 C 64.804688 18.921875 64.453125 18.707031 64.453125 17.839844 C 64.453125 16.394531 65.863281 15.808594 66.613281 15.085938 C 67.789062 13.949219 68.140625 12.242188 67.503906 10.757812 C 66.867188 9.273438 65.367188 8.304688 63.703125 8.304688 Z M 63.703125 8.304688 "/>
<path style=" stroke:none;fill-rule:nonzero;fill:rgb(20%,18.039216%,18.039216%);fill-opacity:1;" d="M 63.703125 121.695312 C 62.039062 121.695312 60.539062 120.726562 59.902344 119.242188 C 59.265625 117.757812 59.621094 116.050781 60.796875 114.914062 C 61.542969 114.191406 62.957031 113.605469 62.957031 112.160156 C 62.957031 111.292969 62.601562 111.078125 61.984375 111.078125 C 60.414062 111.078125 60.695312 112.214844 59.507812 113.308594 C 58.746094 114.007812 57.734375 114.472656 56.601562 114.472656 C 54.328125 114.472656 52.488281 112.695312 52.488281 110.5 C 52.488281 108.304688 54.328125 106.527344 56.601562 106.527344 C 57.734375 106.527344 58.746094 106.988281 59.507812 107.691406 C 60.695312 108.785156 60.414062 109.632812 61.984375 109.632812 C 62.601562 109.632812 62.957031 109.5625 62.957031 108.839844 C 62.957031 103.496094 61.460938 102.195312 59.816406 100.96875 L 60.710938 100.027344 C 60.710938 100.027344 61.910156 100.964844 63.703125 100.964844 C 65.5 100.964844 66.695312 100.027344 66.695312 100.027344 L 67.59375 100.964844 C 65.945312 102.195312 64.453125 103.496094 64.453125 108.839844 C 64.453125 109.5625 64.804688 109.632812 65.421875 109.632812 C 66.992188 109.632812 66.710938 108.785156 67.898438 107.691406 C 68.664062 106.992188 69.671875 106.527344 70.808594 106.527344 C 73.078125 106.527344 74.921875 108.304688 74.921875 110.5 C 74.921875 112.695312 73.078125 114.472656 70.808594 114.472656 C 69.671875 114.472656 68.660156 114.011719 67.898438 113.308594 C 66.710938 112.214844 66.996094 111.078125 65.425781 111.078125 C 64.804688 111.078125 64.453125 111.292969 64.453125 112.160156 C 64.453125 113.605469 65.863281 114.191406 66.613281 114.914062 C 67.789062 116.050781 68.140625 117.757812 67.503906 119.242188 C 66.867188 120.726562 65.367188 121.695312 63.703125 121.695312 Z M 63.703125 121.695312 "/>
<path style=" stroke:none;fill-rule:nonzero;fill:rgb(20%,18.039216%,18.039216%);fill-opacity:1;" d="M 26.3125 38.878906 C 24.652344 38.878906 23.152344 39.847656 22.515625 41.332031 C 21.878906 42.816406 22.230469 44.523438 23.40625 45.660156 C 24.152344 46.382812 25.566406 46.96875 25.566406 48.410156 C 25.566406 49.28125 25.214844 49.496094 24.59375 49.496094 C 23.023438 49.496094 23.304688 48.359375 22.117188 47.265625 C 21.355469 46.566406 20.347656 46.101562 19.210938 46.101562 C 16.9375 46.101562 15.097656 47.878906 15.097656 50.074219 C 15.097656 52.269531 16.9375 54.046875 19.210938 54.046875 C 20.347656 54.046875 21.355469 53.582031 22.117188 52.882812 C 23.304688 51.789062 23.023438 50.941406 24.59375 50.941406 C 25.210938 50.941406 25.566406 51.011719 25.566406 51.734375 C 25.566406 57.078125 24.070312 58.378906 22.425781 59.605469 L 23.324219 60.546875 C 23.324219 60.546875 24.519531 59.605469 26.3125 59.605469 C 28.109375 59.605469 29.304688 60.546875 29.304688 60.546875 L 30.203125 59.605469 C 28.558594 58.378906 27.0625 57.078125 27.0625 51.734375 C 27.0625 51.011719 27.414062 50.941406 28.035156 50.941406 C 29.605469 50.941406 29.324219 51.789062 30.511719 52.882812 C 31.273438 53.582031 32.28125 54.046875 33.417969 54.046875 C 35.691406 54.046875 37.53125 52.269531 37.53125 50.074219 C 37.53125 47.878906 35.691406 46.101562 33.417969 46.101562 C 32.28125 46.101562 31.273438 46.5625 30.511719 47.265625 C 29.324219 48.359375 29.605469 49.496094 28.035156 49.496094 C 27.414062 49.496094 27.0625 49.28125 27.0625 48.410156 C 27.0625 46.96875 28.476562 46.382812 29.222656 45.660156 C 30.398438 44.523438 30.75 42.816406 30.113281 41.332031 C 29.476562 39.847656 27.976562 38.878906 26.3125 38.878906 Z M 26.3125 38.878906 "/>
<path style=" stroke:none;fill-rule:nonzero;fill:rgb(20%,18.039216%,18.039216%);fill-opacity:1;" d="M 63.703125 38.878906 C 62.039062 38.878906 60.539062 39.847656 59.902344 41.332031 C 59.265625 42.816406 59.621094 44.523438 60.796875 45.660156 C 61.542969 46.382812 62.957031 46.96875 62.957031 48.410156 C 62.957031 49.28125 62.601562 49.496094 61.984375 49.496094 C 60.414062 49.496094 60.695312 48.359375 59.507812 47.265625 C 58.746094 46.566406 57.734375 46.101562 56.601562 46.101562 C 54.328125 46.101562 52.488281 47.878906 52.488281 50.074219 C 52.488281 52.269531 54.328125 54.046875 56.601562 54.046875 C 57.734375 54.046875 58.746094 53.582031 59.507812 52.882812 C 60.695312 51.789062 60.414062 50.941406 61.984375 50.941406 C 62.601562 50.941406 62.957031 51.011719 62.957031 51.734375 C 62.957031 57.078125 61.460938 58.378906 59.816406 59.605469 L 60.710938 60.546875 C 60.710938 60.546875 61.910156 59.605469 63.703125 59.605469 C 65.5 59.605469 66.695312 60.546875 66.695312 60.546875 L 67.59375 59.605469 C 65.945312 58.378906 64.453125 57.078125 64.453125 51.734375 C 64.453125 51.011719 64.804688 50.941406 65.421875 50.941406 C 66.992188 50.941406 66.710938 51.789062 67.898438 52.882812 C 68.664062 53.582031 69.671875 54.046875 70.808594 54.046875 C 73.078125 54.046875 74.921875 52.269531 74.921875 50.074219 C 74.921875 47.878906 73.078125 46.101562 70.808594 46.101562 C 69.671875 46.101562 68.660156 46.5625 67.898438 47.265625 C 66.710938 48.359375 66.996094 49.496094 65.425781 49.496094 C 64.804688 49.496094 64.453125 49.28125 64.453125 48.410156 C 64.453125 46.96875 65.863281 46.382812 66.613281 45.660156 C 67.789062 44.523438 68.140625 42.816406 67.503906 41.332031 C 66.867188 39.847656 65.367188 38.878906 63.703125 38.878906 Z M 63.703125 38.878906 "/>
<path style=" stroke:none;fill-rule:nonzero;fill:rgb(20%,18.039216%,18.039216%);fill-opacity:1;" d="M 26.3125 91.121094 C 24.652344 91.121094 23.152344 90.152344 22.515625 88.667969 C 21.878906 87.183594 22.230469 85.476562 23.40625 84.339844 C 24.152344 83.617188 25.566406 83.03125 25.566406 81.589844 C 25.566406 80.71875 25.214844 80.503906 24.59375 80.503906 C 23.023438 80.503906 23.304688 81.640625 22.117188 82.734375 C 21.355469 83.433594 20.347656 83.898438 19.210938 83.898438 C 16.9375 83.898438 15.097656 82.121094 15.097656 79.925781 C 15.097656 77.730469 16.9375 75.953125 19.210938 75.953125 C 20.347656 75.953125 21.355469 76.417969 22.117188 77.117188 C 23.304688 78.210938 23.023438 79.058594 24.59375 79.058594 C 25.210938 79.058594 25.566406 78.988281 25.566406 78.265625 C 25.566406 72.921875 24.070312 71.621094 22.425781 70.394531 L 23.324219 69.453125 C 23.324219 69.453125 24.519531 70.394531 26.3125 70.394531 C 28.109375 70.394531 29.304688 69.453125 29.304688 69.453125 L 30.203125 70.394531 C 28.558594 71.621094 27.0625 72.921875 27.0625 78.265625 C 27.0625 78.988281 27.414062 79.058594 28.035156 79.058594 C 29.605469 79.058594 29.324219 78.210938 30.511719 77.117188 C 31.273438 76.417969 32.28125 75.953125 33.417969 75.953125 C 35.691406 75.953125 37.53125 77.730469 37.53125 79.925781 C 37.53125 82.121094 35.691406 83.898438 33.417969 83.898438 C 32.28125 83.898438 31.273438 83.4375 30.511719 82.734375 C 29.324219 81.640625 29.605469 80.503906 28.035156 80.503906 C 27.414062 80.503906 27.0625 80.71875 27.0625 81.589844 C 27.0625 83.03125 28.476562 83.617188 29.222656 84.339844 C 30.398438 85.476562 30.75 87.183594 30.113281 88.667969 C 29.476562 90.152344 27.976562 91.121094 26.3125 91.121094 Z M 26.3125 91.121094 "/>
<path style="fill:none;stroke-width:1;stroke-linecap:butt;stroke-linejoin:miter;stroke:rgb(65.098041%,54.901963%,34.901962%);stroke-opacity:1;stroke-miterlimit:4;" d="M 9.999574 6.998798 L 109.997683 6.998798 C 111.658834 6.998798 113.001336 8.345553 113.001336 10.000601 L 113.001336 169.999408 C 113.001336 171.654456 111.658834 173.001211 109.997683 173.001211 L 9.999574 173.001211 C 8.343647 173.001211 7.001145 171.654456 7.001145 169.999408 L 7.001145 10.000601 C 7.001145 8.345553 8.343647 6.998798 9.999574 6.998798 Z M 9.999574 6.998798 " transform="matrix(0.747788,0,0,0.722222,0.135724,0)"/>
<path style=" stroke:none;fill-rule:nonzero;fill:rgb(20%,18.039216%,18.039216%);fill-opacity:1;" d="M 63.703125 91.121094 C 62.039062 91.121094 60.539062 90.152344 59.902344 88.667969 C 59.265625 87.183594 59.621094 85.476562 60.796875 84.339844 C 61.542969 83.617188 62.957031 83.03125 62.957031 81.589844 C 62.957031 80.71875 62.601562 80.503906 61.984375 80.503906 C 60.414062 80.503906 60.695312 81.640625 59.507812 82.734375 C 58.746094 83.433594 57.734375 83.898438 56.601562 83.898438 C 54.328125 83.898438 52.488281 82.121094 52.488281 79.925781 C 52.488281 77.730469 54.328125 75.953125 56.601562 75.953125 C 57.734375 75.953125 58.746094 76.417969 59.507812 77.117188 C 60.695312 78.210938 60.414062 79.058594 61.984375 79.058594 C 62.601562 79.058594 62.957031 78.988281 62.957031 78.265625 C 62.957031 72.921875 61.460938 71.621094 59.816406 70.394531 L 60.710938 69.453125 C 60.710938 69.453125 61.910156 70.394531 63.703125 70.394531 C 65.5 70.394531 66.695312 69.453125 66.695312 69.453125 L 67.59375 70.394531 C 65.945312 71.621094 64.453125 72.921875 64.453125 78.265625 C 64.453125 78.988281 64.804688 79.058594 65.421875 79.058594 C 66.992188 79.058594 66.710938 78.210938 67.898438 77.117188 C 68.664062 76.417969 69.671875 75.953125 70.808594 75.953125 C 73.078125 75.953125 74.921875 77.730469 74.921875 79.925781 C 74.921875 82.121094 73.078125 83.898438 70.808594 83.898438 C 69.671875 83.898438 68.660156 83.4375 67.898438 82.734375 C 66.710938 81.640625 66.996094 80.503906 65.425781 80.503906 C 64.804688 80.503906 64.453125 80.71875 64.453125 81.589844 C 64.453125 83.03125 65.863281 83.617188 66.613281 84.339844 C 67.789062 85.476562 68.140625 87.183594 67.503906 88.667969 C 66.867188 90.152344 65.367188 91.121094 63.703125 91.121094 Z M 63.703125 91.121094 "/>
<path style=" stroke:none;fill-rule:nonzero;fill:rgb(20%,18.039216%,18.039216%);fill-opacity:1;" d="M 45.007812 54.167969 C 43.34375 54.167969 41.847656 55.132812 41.210938 56.617188 C 40.574219 58.101562 40.925781 59.8125 42.101562 60.949219 C 42.847656 61.667969 44.261719 62.253906 44.261719 63.699219 C 44.261719 64.566406 43.910156 64.78125 43.289062 64.78125 C 41.71875 64.78125 42 63.644531 40.8125 62.550781 C 40.050781 61.851562 39.039062 61.390625 37.90625 61.390625 C 35.632812 61.390625 33.792969 63.167969 33.792969 65.359375 C 33.792969 67.554688 35.632812 69.332031 37.90625 69.332031 C 39.039062 69.332031 40.050781 68.871094 40.8125 68.167969 C 42 67.078125 41.71875 66.226562 43.289062 66.226562 C 43.90625 66.226562 44.261719 66.300781 44.261719 67.023438 C 44.261719 72.367188 42.765625 73.664062 41.121094 74.894531 L 42.019531 75.832031 C 42.019531 75.832031 43.214844 74.894531 45.007812 74.894531 C 46.804688 74.894531 48 75.832031 48 75.832031 L 48.898438 74.894531 C 47.253906 73.667969 45.757812 72.367188 45.757812 67.023438 C 45.757812 66.300781 46.109375 66.226562 46.730469 66.226562 C 48.300781 66.226562 48.015625 67.078125 49.203125 68.167969 C 49.96875 68.871094 50.976562 69.332031 52.113281 69.332031 C 54.382812 69.332031 56.226562 67.554688 56.226562 65.359375 C 56.226562 63.167969 54.382812 61.390625 52.113281 61.390625 C 50.976562 61.390625 49.96875 61.851562 49.203125 62.550781 C 48.015625 63.644531 48.300781 64.78125 46.730469 64.78125 C 46.109375 64.78125 45.757812 64.566406 45.757812 63.699219 C 45.757812 62.253906 47.167969 61.667969 47.917969 60.949219 C 49.09375 59.8125 49.445312 58.101562 48.808594 56.617188 C 48.171875 55.132812 46.671875 54.167969 45.007812 54.167969 Z M 45.007812 54.167969 "/>
<path style=" stroke:none;fill-rule:nonzero;fill:rgb(100%,100%,100%);fill-opacity:1;" d="M 3.878906 4.335938 L 3.878906 28.167969 L 14.347656 28.167969 L 14.347656 4.335938 Z M 3.878906 4.335938 "/>
<path style=" stroke:none;fill-rule:nonzero;fill:rgb(20%,18.039216%,18.039216%);fill-opacity:1;" d="M 8.347656 17.539062 C 7.734375 17.539062 7.1875 17.894531 6.953125 18.4375 C 6.71875 18.984375 6.847656 19.609375 7.277344 20.027344 C 7.554688 20.292969 8.070312 20.507812 8.070312 21.039062 C 8.070312 21.355469 7.941406 21.433594 7.714844 21.433594 C 7.140625 21.433594 7.242188 21.019531 6.804688 20.617188 C 6.527344 20.359375 6.15625 20.191406 5.738281 20.191406 C 4.90625 20.191406 4.230469 20.84375 4.230469 21.648438 C 4.230469 22.453125 4.90625 23.105469 5.738281 23.105469 C 6.15625 23.105469 6.527344 22.9375 6.804688 22.679688 C 7.242188 22.277344 7.136719 21.964844 7.714844 21.964844 C 7.941406 21.964844 8.070312 21.992188 8.070312 22.257812 C 8.070312 24.21875 7.523438 24.695312 6.917969 25.144531 L 7.25 25.492188 C 7.25 25.492188 7.6875 25.144531 8.347656 25.144531 C 9.003906 25.144531 9.445312 25.492188 9.445312 25.492188 L 9.773438 25.144531 C 9.167969 24.695312 8.621094 24.21875 8.621094 22.257812 C 8.621094 21.992188 8.75 21.964844 8.976562 21.964844 C 9.554688 21.964844 9.449219 22.277344 9.886719 22.679688 C 10.167969 22.933594 10.535156 23.105469 10.953125 23.105469 C 11.789062 23.105469 12.464844 22.453125 12.464844 21.648438 C 12.464844 20.84375 11.789062 20.191406 10.953125 20.191406 C 10.535156 20.191406 10.164062 20.359375 9.886719 20.617188 C 9.449219 21.019531 9.554688 21.433594 8.976562 21.433594 C 8.75 21.433594 8.621094 21.355469 8.621094 21.039062 C 8.621094 20.507812 9.140625 20.292969 9.414062 20.027344 C 9.84375 19.609375 9.972656 18.984375 9.742188 18.4375 C 9.507812 17.894531 8.957031 17.539062 8.347656 17.539062 Z M 8.347656 17.539062 "/>
<path style=" stroke:none;fill-rule:nonzero;fill:rgb(100%,100%,100%);fill-opacity:1;" d="M 86.128906 125.664062 L 86.128906 101.832031 L 75.660156 101.832031 L 75.660156 125.664062 Z M 86.128906 125.664062 "/>
<path style=" stroke:none;fill-rule:nonzero;fill:rgb(20%,18.039216%,18.039216%);fill-opacity:1;" d="M 81.726562 112.460938 C 82.335938 112.460938 82.886719 112.105469 83.121094 111.5625 C 83.351562 111.015625 83.222656 110.390625 82.792969 109.972656 C 82.519531 109.707031 82 109.492188 82 108.960938 C 82 108.644531 82.128906 108.566406 82.355469 108.566406 C 82.933594 108.566406 82.828125 108.980469 83.265625 109.382812 C 83.546875 109.640625 83.914062 109.808594 84.332031 109.808594 C 85.167969 109.808594 85.84375 109.15625 85.84375 108.351562 C 85.84375 107.546875 85.167969 106.894531 84.332031 106.894531 C 83.914062 106.894531 83.542969 107.0625 83.265625 107.320312 C 82.828125 107.722656 82.933594 108.035156 82.355469 108.035156 C 82.128906 108.035156 82 108.007812 82 107.742188 C 82 105.78125 82.546875 105.304688 83.152344 104.855469 L 82.824219 104.507812 C 82.824219 104.507812 82.382812 104.855469 81.726562 104.855469 C 81.066406 104.855469 80.628906 104.507812 80.628906 104.507812 L 80.296875 104.855469 C 80.902344 105.304688 81.449219 105.78125 81.449219 107.742188 C 81.449219 108.007812 81.320312 108.035156 81.09375 108.035156 C 80.519531 108.035156 80.621094 107.722656 80.183594 107.320312 C 79.90625 107.066406 79.535156 106.894531 79.117188 106.894531 C 78.285156 106.894531 77.609375 107.546875 77.609375 108.351562 C 77.609375 109.15625 78.285156 109.808594 79.117188 109.808594 C 79.535156 109.808594 79.90625 109.640625 80.183594 109.382812 C 80.621094 108.980469 80.515625 108.566406 81.09375 108.566406 C 81.320312 108.566406 81.449219 108.644531 81.449219 108.960938 C 81.449219 109.492188 80.933594 109.707031 80.65625 109.972656 C 80.226562 110.390625 80.097656 111.015625 80.332031 111.5625 C 80.566406 112.105469 81.113281 112.460938 81.726562 112.460938 Z M 81.726562 112.460938 "/>
<path style=" stroke:none;fill-rule:nonzero;fill:rgb(20%,18.039216%,18.039216%);fill-opacity:1;" d="M 11.621094 8.253906 L 11.621094 12.660156 C 11.621094 14.183594 10.394531 15.273438 8.421875 15.273438 C 6.617188 15.273438 5.296875 14.308594 5.296875 12.734375 L 5.296875 12.414062 C 5.296875 12.292969 5.40625 12.242188 5.476562 12.242188 L 6.851562 12.242188 C 6.941406 12.242188 7.03125 12.328125 7.03125 12.414062 L 7.03125 12.515625 C 7.03125 13.265625 7.5625 13.832031 8.421875 13.832031 C 9.320312 13.832031 9.886719 13.238281 9.886719 12.457031 L 9.886719 10.871094 C 9.886719 10.8125 9.835938 10.789062 9.796875 10.824219 C 9.371094 11.230469 8.789062 11.433594 8.046875 11.433594 C 6.230469 11.433594 5.042969 10.25 5.042969 8.242188 C 5.042969 6.082031 6.445312 4.945312 8.316406 4.945312 C 9.992188 4.945312 11.621094 5.886719 11.621094 8.253906 Z M 9.886719 8.167969 C 9.886719 7.632812 9.738281 6.40625 8.347656 6.40625 C 6.875 6.40625 6.777344 7.84375 6.777344 8.210938 C 6.777344 9.144531 7.226562 10.015625 8.332031 10.015625 C 9.699219 10.015625 9.886719 8.824219 9.886719 8.167969 Z M 9.886719 8.167969 "/>
<path style=" stroke:none;fill-rule:nonzero;fill:rgb(20%,18.039216%,18.039216%);fill-opacity:1;" d="M 78.382812 121.746094 L 78.382812 117.339844 C 78.382812 115.816406 79.609375 114.726562 81.585938 114.726562 C 83.386719 114.726562 84.710938 115.691406 84.710938 117.265625 L 84.710938 117.585938 C 84.710938 117.707031 84.597656 117.757812 84.53125 117.757812 L 83.15625 117.757812 C 83.066406 117.757812 82.976562 117.671875 82.976562 117.585938 L 82.976562 117.484375 C 82.976562 116.734375 82.445312 116.167969 81.585938 116.167969 C 80.6875 116.167969 80.121094 116.761719 80.121094 117.542969 L 80.121094 119.128906 C 80.121094 119.1875 80.171875 119.210938 80.207031 119.175781 C 80.636719 118.769531 81.21875 118.566406 81.957031 118.566406 C 83.777344 118.566406 84.964844 119.75 84.964844 121.757812 C 84.964844 123.917969 83.558594 125.054688 81.6875 125.054688 C 80.015625 125.054688 78.382812 124.113281 78.382812 121.746094 Z M 80.121094 121.832031 C 80.121094 122.367188 80.269531 123.59375 81.660156 123.59375 C 83.132812 123.59375 83.230469 122.15625 83.230469 121.789062 C 83.230469 120.855469 82.78125 119.984375 81.675781 119.984375 C 80.304688 119.984375 80.121094 121.175781 80.121094 121.832031 Z M 80.121094 121.832031 "/>
</g>
</svg>
