<?xml version="1.0" encoding="UTF-8"?>
<svg xmlns="http://www.w3.org/2000/svg" xmlns:xlink="http://www.w3.org/1999/xlink" width="90px" height="130px" viewBox="0 0 90 130" version="1.1">
<g id="surface1">
<path style="fill-rule:nonzero;fill:rgb(100%,100%,100%);fill-opacity:1;stroke-width:1.8;stroke-linecap:butt;stroke-linejoin:round;stroke:rgb(20%,18.039216%,18.039216%);stroke-opacity:1;stroke-miterlimit:4;" d="M 1986.096921 695.288429 L 2109.695894 695.288429 C 2114.944592 695.288429 2119.200123 699.54079 2119.200123 704.789899 L 2119.200123 899.388822 C 2119.200123 904.637932 2114.944592 908.890293 2109.695894 908.890293 L 1986.096921 908.890293 C 1980.854509 908.890293 1976.598978 904.637932 1976.598978 899.388822 L 1976.598978 704.789899 C 1976.598978 699.54079 1980.854509 695.288429 1986.096921 695.288429 Z M 1986.096921 695.288429 " transform="matrix(0.621434,0,0,0.603525,-1227.634233,-419.080972)"/>
<path style=" stroke:none;fill-rule:nonzero;fill:rgb(20%,18.039216%,18.039216%);fill-opacity:1;" d="M 26.3125 8.304688 C 24.652344 8.304688 23.152344 9.273438 22.515625 10.757812 C 21.878906 12.242188 22.230469 13.949219 23.40625 15.085938 C 24.152344 15.808594 25.566406 16.394531 25.566406 17.839844 C 25.566406 18.707031 25.214844 18.921875 24.59375 18.921875 C 23.023438 18.921875 23.304688 17.785156 22.117188 16.691406 C 21.355469 15.992188 20.347656 15.527344 19.210938 15.527344 C 16.9375 15.527344 15.097656 17.304688 15.097656 19.5 C 15.097656 21.695312 16.9375 23.472656 19.210938 23.472656 C 20.347656 23.472656 21.355469 23.011719 22.117188 22.308594 C 23.304688 21.214844 23.023438 20.367188 24.59375 20.367188 C 25.210938 20.367188 25.566406 20.4375 25.566406 21.160156 C 25.566406 26.503906 24.070312 27.804688 22.425781 29.03125 L 23.324219 29.972656 C 23.324219 29.972656 24.519531 29.035156 26.3125 29.035156 C 28.109375 29.035156 29.304688 29.972656 29.304688 29.972656 L 30.203125 29.035156 C 28.558594 27.804688 27.0625 26.503906 27.0625 21.160156 C 27.0625 20.4375 27.414062 20.367188 28.035156 20.367188 C 29.605469 20.367188 29.324219 21.214844 30.511719 22.308594 C 31.273438 23.007812 32.28125 23.472656 33.417969 23.472656 C 35.691406 23.472656 37.53125 21.695312 37.53125 19.5 C 37.53125 17.304688 35.691406 15.527344 33.417969 15.527344 C 32.28125 15.527344 31.273438 15.988281 30.511719 16.691406 C 29.324219 17.785156 29.605469 18.921875 28.035156 18.921875 C 27.414062 18.921875 27.0625 18.707031 27.0625 17.839844 C 27.0625 16.394531 28.476562 15.808594 29.222656 15.085938 C 30.398438 13.949219 30.75 12.242188 30.113281 10.757812 C 29.476562 9.273438 27.976562 8.304688 26.3125 8.304688 Z M 26.3125 8.304688 "/>
<path style=" stroke:none;fill-rule:nonzero;fill:rgb(20%,18.039216%,18.039216%);fill-opacity:1;" d="M 26.3125 121.695312 C 24.652344 121.695312 23.152344 120.726562 22.515625 119.242188 C 21.878906 117.757812 22.230469 116.050781 23.40625 114.914062 C 24.152344 114.191406 25.566406 113.605469 25.566406 112.160156 C 25.566406 111.292969 25.214844 111.078125 24.59375 111.078125 C 23.023438 111.078125 23.304688 112.214844 22.117188 113.308594 C 21.355469 114.007812 20.347656 114.472656 19.210938 114.472656 C 16.9375 114.472656 15.097656 112.695312 15.097656 110.5 C 15.097656 108.304688 16.9375 106.527344 19.210938 106.527344 C 20.347656 106.527344 21.355469 106.988281 22.117188 107.691406 C 23.304688 108.785156 23.023438 109.632812 24.59375 109.632812 C 25.210938 109.632812 25.566406 109.5625 25.566406 108.839844 C 25.566406 103.496094 24.070312 102.195312 22.425781 100.96875 L 23.324219 100.027344 C 23.324219 100.027344 24.519531 100.964844 26.3125 100.964844 C 28.109375 100.964844 29.304688 100.027344 29.304688 100.027344 L 30.203125 100.964844 C 28.558594 102.195312 27.0625 103.496094 27.0625 108.839844 C 27.0625 109.5625 27.414062 109.632812 28.035156 109.632812 C 29.605469 109.632812 29.324219 108.785156 30.511719 107.691406 C 31.273438 106.992188 32.28125 106.527344 33.417969 106.527344 C 35.691406 106.527344 37.53125 108.304688 37.53125 110.5 C 37.53125 112.695312 35.691406 114.472656 33.417969 114.472656 C 32.28125 114.472656 31.273438 114.011719 30.511719 113.308594 C 29.324219 112.214844 29.605469 111.078125 28.035156 111.078125 C 27.414062 111.078125 27.0625 111.292969 27.0625 112.160156 C 27.0625 113.605469 28.476562 114.191406 29.222656 114.914062 C 30.398438 116.050781 30.75 117.757812 30.113281 119.242188 C 29.476562 120.726562 27.976562 121.695312 26.3125 121.695312 Z M 26.3125 121.695312 "/>
<path style=" stroke:none;fill-rule:nonzero;fill:rgb(20%,18.039216%,18.039216%);fill-opacity:1;" d="M 63.703125 8.304688 C 62.039062 8.304688 60.539062 9.273438 59.902344 10.757812 C 59.265625 12.242188 59.621094 13.949219 60.796875 15.085938 C 61.542969 15.808594 62.957031 16.394531 62.957031 17.839844 C 62.957031 18.707031 62.601562 18.921875 61.984375 18.921875 C 60.414062 18.921875 60.695312 17.785156 59.507812 16.691406 C 58.746094 15.992188 57.734375 15.527344 56.601562 15.527344 C 54.328125 15.527344 52.488281 17.304688 52.488281 19.5 C 52.488281 21.695312 54.328125 23.472656 56.601562 23.472656 C 57.734375 23.472656 58.746094 23.011719 59.507812 22.308594 C 60.695312 21.214844 60.414062 20.367188 61.984375 20.367188 C 62.601562 20.367188 62.957031 20.4375 62.957031 21.160156 C 62.957031 26.503906 61.460938 27.804688 59.816406 29.03125 L 60.710938 29.972656 C 60.710938 29.972656 61.910156 29.035156 63.703125 29.035156 C 65.5 29.035156 66.695312 29.972656 66.695312 29.972656 L 67.59375 29.035156 C 65.945312 27.804688 64.453125 26.503906 64.453125 21.160156 C 64.453125 20.4375 64.804688 20.367188 65.421875 20.367188 C 66.992188 20.367188 66.710938 21.214844 67.898438 22.308594 C 68.664062 23.007812 69.671875 23.472656 70.808594 23.472656 C 73.078125 23.472656 74.921875 21.695312 74.921875 19.5 C 74.921875 17.304688 73.078125 15.527344 70.808594 15.527344 C 69.671875 15.527344 68.660156 15.988281 67.898438 16.691406 C 66.710938 17.785156 66.996094 18.921875 65.425781 18.921875 C 64.804688 18.921875 64.453125 18.707031 64.453125 17.839844 C 64.453125 16.394531 65.863281 15.808594 66.613281 15.085938 C 67.789062 13.949219 68.140625 12.242188 67.503906 10.757812 C 66.867188 9.273438 65.367188 8.304688 63.703125 8.304688 Z M 63.703125 8.304688 "/>
<path style="fill:none;stroke-width:1;stroke-linecap:butt;stroke-linejoin:miter;stroke:rgb(65.098041%,54.901963%,34.901962%);stroke-opacity:1;stroke-miterlimit:4;" d="M 9.999548 6.998798 L 109.997658 6.998798 C 111.658808 6.998798 113.00131 8.345553 113.00131 10.000601 L 113.00131 169.999408 C 113.00131 171.654456 111.658808 173.001211 109.997658 173.001211 L 9.999548 173.001211 C 8.343622 173.001211 7.00112 171.654456 7.00112 169.999408 L 7.00112 10.000601 C 7.00112 8.345553 8.343622 6.998798 9.999548 6.998798 Z M 9.999548 6.998798 " transform="matrix(0.747788,0,0,0.722222,0.135743,0)"/>
<path style=" stroke:none;fill-rule:nonzero;fill:rgb(20%,18.039216%,18.039216%);fill-opacity:1;" d="M 63.703125 121.695312 C 62.039062 121.695312 60.539062 120.726562 59.902344 119.242188 C 59.265625 117.757812 59.621094 116.050781 60.796875 114.914062 C 61.542969 114.191406 62.957031 113.605469 62.957031 112.160156 C 62.957031 111.292969 62.601562 111.078125 61.984375 111.078125 C 60.414062 111.078125 60.695312 112.214844 59.507812 113.308594 C 58.746094 114.007812 57.734375 114.472656 56.601562 114.472656 C 54.328125 114.472656 52.488281 112.695312 52.488281 110.5 C 52.488281 108.304688 54.328125 106.527344 56.601562 106.527344 C 57.734375 106.527344 58.746094 106.988281 59.507812 107.691406 C 60.695312 108.785156 60.414062 109.632812 61.984375 109.632812 C 62.601562 109.632812 62.957031 109.5625 62.957031 108.839844 C 62.957031 103.496094 61.460938 102.195312 59.816406 100.96875 L 60.710938 100.027344 C 60.710938 100.027344 61.910156 100.964844 63.703125 100.964844 C 65.5 100.964844 66.695312 100.027344 66.695312 100.027344 L 67.59375 100.964844 C 65.945312 102.195312 64.453125 103.496094 64.453125 108.839844 C 64.453125 109.5625 64.804688 109.632812 65.421875 109.632812 C 66.992188 109.632812 66.710938 108.785156 67.898438 107.691406 C 68.664062 106.992188 69.671875 106.527344 70.808594 106.527344 C 73.078125 106.527344 74.921875 108.304688 74.921875 110.5 C 74.921875 112.695312 73.078125 114.472656 70.808594 114.472656 C 69.671875 114.472656 68.660156 114.011719 67.898438 113.308594 C 66.710938 112.214844 66.996094 111.078125 65.425781 111.078125 C 64.804688 111.078125 64.453125 111.292969 64.453125 112.160156 C 64.453125 113.605469 65.863281 114.191406 66.613281 114.914062 C 67.789062 116.050781 68.140625 117.757812 67.503906 119.242188 C 66.867188 120.726562 65.367188 121.695312 63.703125 121.695312 Z M 63.703125 121.695312 "/>
<path style=" stroke:none;fill-rule:nonzero;fill:rgb(20%,18.039216%,18.039216%);fill-opacity:1;" d="M 45.003906 54.167969 C 43.339844 54.167969 41.839844 55.132812 41.203125 56.617188 C 40.566406 58.101562 40.917969 59.8125 42.09375 60.949219 C 42.84375 61.667969 44.253906 62.253906 44.253906 63.699219 C 44.253906 64.566406 43.902344 64.78125 43.28125 64.78125 C 41.710938 64.78125 41.996094 63.644531 40.808594 62.550781 C 40.042969 61.851562 39.035156 61.390625 37.898438 61.390625 C 35.628906 61.390625 33.785156 63.167969 33.785156 65.359375 C 33.785156 67.554688 35.628906 69.332031 37.898438 69.332031 C 39.035156 69.332031 40.046875 68.871094 40.808594 68.167969 C 41.996094 67.078125 41.710938 66.226562 43.28125 66.226562 C 43.902344 66.226562 44.253906 66.300781 44.253906 67.023438 C 44.253906 72.367188 42.757812 73.664062 41.113281 74.894531 L 42.011719 75.832031 C 42.011719 75.832031 43.207031 74.894531 45.003906 74.894531 C 46.796875 74.894531 47.996094 75.832031 47.996094 75.832031 L 48.890625 74.894531 C 47.246094 73.667969 45.75 72.367188 45.75 67.023438 C 45.75 66.300781 46.105469 66.226562 46.722656 66.226562 C 48.292969 66.226562 48.011719 67.078125 49.199219 68.167969 C 49.960938 68.871094 50.972656 69.332031 52.105469 69.332031 C 54.378906 69.332031 56.21875 67.554688 56.21875 65.359375 C 56.21875 63.167969 54.378906 61.390625 52.105469 61.390625 C 50.972656 61.390625 49.960938 61.851562 49.199219 62.550781 C 48.011719 63.644531 48.292969 64.78125 46.722656 64.78125 C 46.105469 64.78125 45.75 64.566406 45.75 63.699219 C 45.75 62.253906 47.164062 61.667969 47.910156 60.949219 C 49.085938 59.8125 49.4375 58.101562 48.800781 56.617188 C 48.167969 55.132812 46.667969 54.167969 45.003906 54.167969 Z M 45.003906 54.167969 "/>
<path style=" stroke:none;fill-rule:nonzero;fill:rgb(100%,100%,100%);fill-opacity:1;" d="M 3.878906 4.335938 L 3.878906 28.167969 L 14.347656 28.167969 L 14.347656 4.335938 Z M 3.878906 4.335938 "/>
<path style=" stroke:none;fill-rule:nonzero;fill:rgb(20%,18.039216%,18.039216%);fill-opacity:1;" d="M 8.347656 17.539062 C 7.734375 17.539062 7.1875 17.894531 6.953125 18.4375 C 6.71875 18.984375 6.847656 19.609375 7.277344 20.027344 C 7.554688 20.292969 8.070312 20.507812 8.070312 21.039062 C 8.070312 21.355469 7.941406 21.433594 7.714844 21.433594 C 7.140625 21.433594 7.242188 21.019531 6.804688 20.617188 C 6.527344 20.359375 6.15625 20.191406 5.738281 20.191406 C 4.90625 20.191406 4.230469 20.84375 4.230469 21.648438 C 4.230469 22.453125 4.90625 23.105469 5.738281 23.105469 C 6.15625 23.105469 6.527344 22.9375 6.804688 22.679688 C 7.242188 22.277344 7.136719 21.964844 7.714844 21.964844 C 7.941406 21.964844 8.070312 21.992188 8.070312 22.257812 C 8.070312 24.21875 7.523438 24.695312 6.917969 25.144531 L 7.25 25.492188 C 7.25 25.492188 7.6875 25.144531 8.347656 25.144531 C 9.003906 25.144531 9.445312 25.492188 9.445312 25.492188 L 9.773438 25.144531 C 9.167969 24.695312 8.621094 24.21875 8.621094 22.257812 C 8.621094 21.992188 8.75 21.964844 8.976562 21.964844 C 9.554688 21.964844 9.449219 22.277344 9.886719 22.679688 C 10.167969 22.933594 10.535156 23.105469 10.953125 23.105469 C 11.789062 23.105469 12.464844 22.453125 12.464844 21.648438 C 12.464844 20.84375 11.789062 20.191406 10.953125 20.191406 C 10.535156 20.191406 10.164062 20.359375 9.886719 20.617188 C 9.449219 21.019531 9.554688 21.433594 8.976562 21.433594 C 8.75 21.433594 8.621094 21.355469 8.621094 21.039062 C 8.621094 20.507812 9.140625 20.292969 9.414062 20.027344 C 9.84375 19.609375 9.972656 18.984375 9.742188 18.4375 C 9.507812 17.894531 8.957031 17.539062 8.347656 17.539062 Z M 8.347656 17.539062 "/>
<path style=" stroke:none;fill-rule:nonzero;fill:rgb(100%,100%,100%);fill-opacity:1;" d="M 86.128906 125.664062 L 86.128906 101.832031 L 75.660156 101.832031 L 75.660156 125.664062 Z M 86.128906 125.664062 "/>
<path style=" stroke:none;fill-rule:nonzero;fill:rgb(20%,18.039216%,18.039216%);fill-opacity:1;" d="M 81.726562 112.460938 C 82.335938 112.460938 82.886719 112.105469 83.121094 111.5625 C 83.351562 111.015625 83.222656 110.390625 82.792969 109.972656 C 82.519531 109.707031 82 109.492188 82 108.960938 C 82 108.644531 82.128906 108.566406 82.355469 108.566406 C 82.933594 108.566406 82.828125 108.980469 83.265625 109.382812 C 83.546875 109.640625 83.914062 109.808594 84.332031 109.808594 C 85.167969 109.808594 85.84375 109.15625 85.84375 108.351562 C 85.84375 107.546875 85.167969 106.894531 84.332031 106.894531 C 83.914062 106.894531 83.542969 107.0625 83.265625 107.320312 C 82.828125 107.722656 82.933594 108.035156 82.355469 108.035156 C 82.128906 108.035156 82 108.007812 82 107.742188 C 82 105.78125 82.546875 105.304688 83.152344 104.855469 L 82.824219 104.507812 C 82.824219 104.507812 82.382812 104.855469 81.726562 104.855469 C 81.066406 104.855469 80.628906 104.507812 80.628906 104.507812 L 80.296875 104.855469 C 80.902344 105.304688 81.449219 105.78125 81.449219 107.742188 C 81.449219 108.007812 81.320312 108.035156 81.09375 108.035156 C 80.519531 108.035156 80.621094 107.722656 80.183594 107.320312 C 79.90625 107.066406 79.535156 106.894531 79.117188 106.894531 C 78.285156 106.894531 77.609375 107.546875 77.609375 108.351562 C 77.609375 109.15625 78.285156 109.808594 79.117188 109.808594 C 79.535156 109.808594 79.90625 109.640625 80.183594 109.382812 C 80.621094 108.980469 80.515625 108.566406 81.09375 108.566406 C 81.320312 108.566406 81.449219 108.644531 81.449219 108.960938 C 81.449219 109.492188 80.933594 109.707031 80.65625 109.972656 C 80.226562 110.390625 80.097656 111.015625 80.332031 111.5625 C 80.566406 112.105469 81.113281 112.460938 81.726562 112.460938 Z M 81.726562 112.460938 "/>
<path style=" stroke:none;fill-rule:nonzero;fill:rgb(20%,18.039216%,18.039216%);fill-opacity:1;" d="M 11.621094 11.988281 C 11.621094 14.3125 9.976562 15.261719 8.316406 15.261719 C 6.722656 15.261719 5.648438 14.4375 5.234375 13.324219 C 5.152344 13.117188 5.09375 12.878906 5.042969 12.609375 L 5.042969 12.582031 C 5.042969 12.472656 5.101562 12.421875 5.21875 12.421875 L 6.640625 12.421875 C 6.738281 12.421875 6.804688 12.472656 6.835938 12.582031 C 6.84375 12.640625 6.875 12.726562 6.910156 12.839844 C 7.121094 13.433594 7.582031 13.832031 8.300781 13.832031 C 9.550781 13.832031 9.855469 12.683594 9.855469 11.996094 C 9.855469 11.195312 9.601562 10.203125 8.347656 10.203125 C 7.742188 10.203125 7.066406 10.488281 6.894531 11.007812 C 6.859375 11.101562 6.785156 11.152344 6.6875 11.152344 L 5.234375 11.152344 C 5.117188 11.152344 5.054688 11.085938 5.054688 10.976562 L 5.054688 5.292969 C 5.054688 5.164062 5.167969 5.121094 5.234375 5.121094 L 11.054688 5.121094 C 11.144531 5.121094 11.234375 5.207031 11.234375 5.292969 L 11.234375 6.382812 C 11.234375 6.449219 11.179688 6.558594 11.054688 6.558594 L 6.867188 6.558594 C 6.8125 6.558594 6.792969 6.578125 6.792969 6.628906 L 6.777344 9.214844 C 6.777344 9.296875 6.820312 9.300781 6.867188 9.257812 C 7.335938 8.925781 7.898438 8.761719 8.554688 8.761719 C 9.84375 8.761719 11.621094 9.433594 11.621094 12.003906 Z M 11.621094 11.988281 "/>
<path style=" stroke:none;fill-rule:nonzero;fill:rgb(20%,18.039216%,18.039216%);fill-opacity:1;" d="M 78.382812 118.011719 C 78.382812 115.6875 80.03125 114.738281 81.691406 114.738281 C 83.28125 114.738281 84.359375 115.5625 84.769531 116.675781 C 84.851562 116.882812 84.914062 117.121094 84.964844 117.390625 L 84.964844 117.417969 C 84.964844 117.527344 84.90625 117.578125 84.785156 117.578125 L 83.363281 117.578125 C 83.265625 117.578125 83.199219 117.527344 83.171875 117.417969 C 83.164062 117.359375 83.132812 117.273438 83.09375 117.160156 C 82.886719 116.566406 82.421875 116.167969 81.703125 116.167969 C 80.457031 116.167969 80.148438 117.316406 80.148438 118.003906 C 80.148438 118.804688 80.402344 119.796875 81.660156 119.796875 C 82.265625 119.796875 82.9375 119.511719 83.109375 118.992188 C 83.148438 118.898438 83.222656 118.847656 83.320312 118.847656 L 84.769531 118.847656 C 84.890625 118.847656 84.949219 118.914062 84.949219 119.023438 L 84.949219 124.707031 C 84.949219 124.835938 84.835938 124.878906 84.769531 124.878906 L 78.953125 124.878906 C 78.863281 124.878906 78.773438 124.792969 78.773438 124.707031 L 78.773438 123.617188 C 78.773438 123.550781 78.824219 123.441406 78.953125 123.441406 L 83.140625 123.441406 C 83.191406 123.441406 83.214844 123.421875 83.214844 123.371094 L 83.230469 120.785156 C 83.230469 120.703125 83.183594 120.699219 83.140625 120.742188 C 82.667969 121.074219 82.109375 121.238281 81.449219 121.238281 C 80.164062 121.238281 78.382812 120.566406 78.382812 117.996094 Z M 78.382812 118.011719 "/>
</g>
</svg>
