<?xml version="1.0" encoding="UTF-8"?>
<svg xmlns="http://www.w3.org/2000/svg" xmlns:xlink="http://www.w3.org/1999/xlink" width="90px" height="130px" viewBox="0 0 90 130" version="1.1">
<g id="surface1">
<path style="fill-rule:nonzero;fill:rgb(100%,100%,100%);fill-opacity:1;stroke-width:1.8;stroke-linecap:butt;stroke-linejoin:round;stroke:rgb(20%,18.039216%,18.039216%);stroke-opacity:1;stroke-miterlimit:4;" d="M 1986.096959 695.288429 L 2109.695932 695.288429 C 2114.94463 695.288429 2119.200161 699.54079 2119.200161 704.789899 L 2119.200161 899.388822 C 2119.200161 904.637932 2114.94463 908.890293 2109.695932 908.890293 L 1986.096959 908.890293 C 1980.854547 908.890293 1976.599016 904.637932 1976.599016 899.388822 L 1976.599016 704.789899 C 1976.599016 699.54079 1980.854547 695.288429 1986.096959 695.288429 Z M 1986.096959 695.288429 " transform="matrix(0.621434,0,0,0.603525,-1227.634256,-419.080972)"/>
<path style=" stroke:none;fill-rule:nonzero;fill:rgb(20%,18.039216%,18.039216%);fill-opacity:1;" d="M 26.3125 8.304688 C 24.652344 8.304688 23.152344 9.273438 22.515625 10.757812 C 21.878906 12.242188 22.230469 13.949219 23.40625 15.085938 C 24.152344 15.808594 25.566406 16.394531 25.566406 17.839844 C 25.566406 18.707031 25.214844 18.921875 24.59375 18.921875 C 23.023438 18.921875 23.304688 17.785156 22.117188 16.691406 C 21.355469 15.992188 20.347656 15.527344 19.210938 15.527344 C 16.9375 15.527344 15.097656 17.304688 15.097656 19.5 C 15.097656 21.695312 16.9375 23.472656 19.210938 23.472656 C 20.347656 23.472656 21.355469 23.011719 22.117188 22.308594 C 23.304688 21.214844 23.023438 20.367188 24.59375 20.367188 C 25.210938 20.367188 25.566406 20.4375 25.566406 21.160156 C 25.566406 26.503906 24.070312 27.804688 22.425781 29.03125 L 23.324219 29.972656 C 23.324219 29.972656 24.519531 29.035156 26.3125 29.035156 C 28.109375 29.035156 29.304688 29.972656 29.304688 29.972656 L 30.203125 29.035156 C 28.558594 27.804688 27.0625 26.503906 27.0625 21.160156 C 27.0625 20.4375 27.414062 20.367188 28.035156 20.367188 C 29.605469 20.367188 29.324219 21.214844 30.511719 22.308594 C 31.273438 23.007812 32.28125 23.472656 33.417969 23.472656 C 35.691406 23.472656 37.53125 21.695312 37.53125 19.5 C 37.53125 17.304688 35.691406 15.527344 33.417969 15.527344 C 32.28125 15.527344 31.273438 15.988281 30.511719 16.691406 C 29.324219 17.785156 29.605469 18.921875 28.035156 18.921875 C 27.414062 18.921875 27.0625 18.707031 27.0625 17.839844 C 27.0625 16.394531 28.476562 15.808594 29.222656 15.085938 C 30.398438 13.949219 30.75 12.242188 30.113281 10.757812 C 29.476562 9.273438 27.976562 8.304688 26.3125 8.304688 Z M 26.3125 8.304688 "/>
<path style=" stroke:none;fill-rule:nonzero;fill:rgb(20%,18.039216%,18.039216%);fill-opacity:1;" d="M 26.3125 121.695312 C 24.652344 121.695312 23.152344 120.726562 22.515625 119.242188 C 21.878906 117.757812 22.230469 116.050781 23.40625 114.914062 C 24.152344 114.191406 25.566406 113.605469 25.566406 112.160156 C 25.566406 111.292969 25.214844 111.078125 24.59375 111.078125 C 23.023438 111.078125 23.304688 112.214844 22.117188 113.308594 C 21.355469 114.007812 20.347656 114.472656 19.210938 114.472656 C 16.9375 114.472656 15.097656 112.695312 15.097656 110.5 C 15.097656 108.304688 16.9375 106.527344 19.210938 106.527344 C 20.347656 106.527344 21.355469 106.988281 22.117188 107.691406 C 23.304688 108.785156 23.023438 109.632812 24.59375 109.632812 C 25.210938 109.632812 25.566406 109.5625 25.566406 108.839844 C 25.566406 103.496094 24.070312 102.195312 22.425781 100.96875 L 23.324219 100.027344 C 23.324219 100.027344 24.519531 100.964844 26.3125 100.964844 C 28.109375 100.964844 29.304688 100.027344 29.304688 100.027344 L 30.203125 100.964844 C 28.558594 102.195312 27.0625 103.496094 27.0625 108.839844 C 27.0625 109.5625 27.414062 109.632812 28.035156 109.632812 C 29.605469 109.632812 29.324219 108.785156 30.511719 107.691406 C 31.273438 106.992188 32.28125 106.527344 33.417969 106.527344 C 35.691406 106.527344 37.53125 108.304688 37.53125 110.5 C 37.53125 112.695312 35.691406 114.472656 33.417969 114.472656 C 32.28125 114.472656 31.273438 114.011719 30.511719 113.308594 C 29.324219 112.214844 29.605469 111.078125 28.035156 111.078125 C 27.414062 111.078125 27.0625 111.292969 27.0625 112.160156 C 27.0625 113.605469 28.476562 114.191406 29.222656 114.914062 C 30.398438 116.050781 30.75 117.757812 30.113281 119.242188 C 29.476562 120.726562 27.976562 121.695312 26.3125 121.695312 Z M 26.3125 121.695312 "/>
<path style=" stroke:none;fill-rule:nonzero;fill:rgb(20%,18.039216%,18.039216%);fill-opacity:1;" d="M 63.703125 8.304688 C 62.039062 8.304688 60.539062 9.273438 59.902344 10.757812 C 59.265625 12.242188 59.621094 13.949219 60.796875 15.085938 C 61.542969 15.808594 62.957031 16.394531 62.957031 17.839844 C 62.957031 18.707031 62.601562 18.921875 61.984375 18.921875 C 60.414062 18.921875 60.695312 17.785156 59.507812 16.691406 C 58.746094 15.992188 57.734375 15.527344 56.601562 15.527344 C 54.328125 15.527344 52.488281 17.304688 52.488281 19.5 C 52.488281 21.695312 54.328125 23.472656 56.601562 23.472656 C 57.734375 23.472656 58.746094 23.011719 59.507812 22.308594 C 60.695312 21.214844 60.414062 20.367188 61.984375 20.367188 C 62.601562 20.367188 62.957031 20.4375 62.957031 21.160156 C 62.957031 26.503906 61.460938 27.804688 59.816406 29.03125 L 60.710938 29.972656 C 60.710938 29.972656 61.910156 29.035156 63.703125 29.035156 C 65.5 29.035156 66.695312 29.972656 66.695312 29.972656 L 67.59375 29.035156 C 65.945312 27.804688 64.453125 26.503906 64.453125 21.160156 C 64.453125 20.4375 64.804688 20.367188 65.421875 20.367188 C 66.992188 20.367188 66.710938 21.214844 67.898438 22.308594 C 68.664062 23.007812 69.671875 23.472656 70.808594 23.472656 C 73.078125 23.472656 74.921875 21.695312 74.921875 19.5 C 74.921875 17.304688 73.078125 15.527344 70.808594 15.527344 C 69.671875 15.527344 68.660156 15.988281 67.898438 16.691406 C 66.710938 17.785156 66.996094 18.921875 65.425781 18.921875 C 64.804688 18.921875 64.453125 18.707031 64.453125 17.839844 C 64.453125 16.394531 65.863281 15.808594 66.613281 15.085938 C 67.789062 13.949219 68.140625 12.242188 67.503906 10.757812 C 66.867188 9.273438 65.367188 8.304688 63.703125 8.304688 Z M 63.703125 8.304688 "/>
<path style=" stroke:none;fill-rule:nonzero;fill:rgb(20%,18.039216%,18.039216%);fill-opacity:1;" d="M 63.703125 121.695312 C 62.039062 121.695312 60.539062 120.726562 59.902344 119.242188 C 59.265625 117.757812 59.621094 116.050781 60.796875 114.914062 C 61.542969 114.191406 62.957031 113.605469 62.957031 112.160156 C 62.957031 111.292969 62.601562 111.078125 61.984375 111.078125 C 60.414062 111.078125 60.695312 112.214844 59.507812 113.308594 C 58.746094 114.007812 57.734375 114.472656 56.601562 114.472656 C 54.328125 114.472656 52.488281 112.695312 52.488281 110.5 C 52.488281 108.304688 54.328125 106.527344 56.601562 106.527344 C 57.734375 106.527344 58.746094 106.988281 59.507812 107.691406 C 60.695312 108.785156 60.414062 109.632812 61.984375 109.632812 C 62.601562 109.632812 62.957031 109.5625 62.957031 108.839844 C 62.957031 103.496094 61.460938 102.195312 59.816406 100.96875 L 60.710938 100.027344 C 60.710938 100.027344 61.910156 100.964844 63.703125 100.964844 C 65.5 100.964844 66.695312 100.027344 66.695312 100.027344 L 67.59375 100.964844 C 65.945312 102.195312 64.453125 103.496094 64.453125 108.839844 C 64.453125 109.5625 64.804688 109.632812 65.421875 109.632812 C 66.992188 109.632812 66.710938 108.785156 67.898438 107.691406 C 68.664062 106.992188 69.671875 106.527344 70.808594 106.527344 C 73.078125 106.527344 74.921875 108.304688 74.921875 110.5 C 74.921875 112.695312 73.078125 114.472656 70.808594 114.472656 C 69.671875 114.472656 68.660156 114.011719 67.898438 113.308594 C 66.710938 112.214844 66.996094 111.078125 65.425781 111.078125 C 64.804688 111.078125 64.453125 111.292969 64.453125 112.160156 C 64.453125 113.605469 65.863281 114.191406 66.613281 114.914062 C 67.789062 116.050781 68.140625 117.757812 67.503906 119.242188 C 66.867188 120.726562 65.367188 121.695312 63.703125 121.695312 Z M 63.703125 121.695312 "/>
<path style=" stroke:none;fill-rule:nonzero;fill:rgb(20%,18.039216%,18.039216%);fill-opacity:1;" d="M 26.3125 38.878906 C 24.652344 38.878906 23.152344 39.847656 22.515625 41.332031 C 21.878906 42.816406 22.230469 44.523438 23.40625 45.660156 C 24.152344 46.382812 25.566406 46.96875 25.566406 48.410156 C 25.566406 49.28125 25.214844 49.496094 24.59375 49.496094 C 23.023438 49.496094 23.304688 48.359375 22.117188 47.265625 C 21.355469 46.566406 20.347656 46.101562 19.210938 46.101562 C 16.9375 46.101562 15.097656 47.878906 15.097656 50.074219 C 15.097656 52.269531 16.9375 54.046875 19.210938 54.046875 C 20.347656 54.046875 21.355469 53.582031 22.117188 52.882812 C 23.304688 51.789062 23.023438 50.941406 24.59375 50.941406 C 25.210938 50.941406 25.566406 51.011719 25.566406 51.734375 C 25.566406 57.078125 24.070312 58.378906 22.425781 59.605469 L 23.324219 60.546875 C 23.324219 60.546875 24.519531 59.605469 26.3125 59.605469 C 28.109375 59.605469 29.304688 60.546875 29.304688 60.546875 L 30.203125 59.605469 C 28.558594 58.378906 27.0625 57.078125 27.0625 51.734375 C 27.0625 51.011719 27.414062 50.941406 28.035156 50.941406 C 29.605469 50.941406 29.324219 51.789062 30.511719 52.882812 C 31.273438 53.582031 32.28125 54.046875 33.417969 54.046875 C 35.691406 54.046875 37.53125 52.269531 37.53125 50.074219 C 37.53125 47.878906 35.691406 46.101562 33.417969 46.101562 C 32.28125 46.101562 31.273438 46.5625 30.511719 47.265625 C 29.324219 48.359375 29.605469 49.496094 28.035156 49.496094 C 27.414062 49.496094 27.0625 49.28125 27.0625 48.410156 C 27.0625 46.96875 28.476562 46.382812 29.222656 45.660156 C 30.398438 44.523438 30.75 42.816406 30.113281 41.332031 C 29.476562 39.847656 27.976562 38.878906 26.3125 38.878906 Z M 26.3125 38.878906 "/>
<path style=" stroke:none;fill-rule:nonzero;fill:rgb(20%,18.039216%,18.039216%);fill-opacity:1;" d="M 63.703125 38.878906 C 62.039062 38.878906 60.539062 39.847656 59.902344 41.332031 C 59.265625 42.816406 59.621094 44.523438 60.796875 45.660156 C 61.542969 46.382812 62.957031 46.96875 62.957031 48.410156 C 62.957031 49.28125 62.601562 49.496094 61.984375 49.496094 C 60.414062 49.496094 60.695312 48.359375 59.507812 47.265625 C 58.746094 46.566406 57.734375 46.101562 56.601562 46.101562 C 54.328125 46.101562 52.488281 47.878906 52.488281 50.074219 C 52.488281 52.269531 54.328125 54.046875 56.601562 54.046875 C 57.734375 54.046875 58.746094 53.582031 59.507812 52.882812 C 60.695312 51.789062 60.414062 50.941406 61.984375 50.941406 C 62.601562 50.941406 62.957031 51.011719 62.957031 51.734375 C 62.957031 57.078125 61.460938 58.378906 59.816406 59.605469 L 60.710938 60.546875 C 60.710938 60.546875 61.910156 59.605469 63.703125 59.605469 C 65.5 59.605469 66.695312 60.546875 66.695312 60.546875 L 67.59375 59.605469 C 65.945312 58.378906 64.453125 57.078125 64.453125 51.734375 C 64.453125 51.011719 64.804688 50.941406 65.421875 50.941406 C 66.992188 50.941406 66.710938 51.789062 67.898438 52.882812 C 68.664062 53.582031 69.671875 54.046875 70.808594 54.046875 C 73.078125 54.046875 74.921875 52.269531 74.921875 50.074219 C 74.921875 47.878906 73.078125 46.101562 70.808594 46.101562 C 69.671875 46.101562 68.660156 46.5625 67.898438 47.265625 C 66.710938 48.359375 66.996094 49.496094 65.425781 49.496094 C 64.804688 49.496094 64.453125 49.28125 64.453125 48.410156 C 64.453125 46.96875 65.863281 46.382812 66.613281 45.660156 C 67.789062 44.523438 68.140625 42.816406 67.503906 41.332031 C 66.867188 39.847656 65.367188 38.878906 63.703125 38.878906 Z M 63.703125 38.878906 "/>
<path style=" stroke:none;fill-rule:nonzero;fill:rgb(20%,18.039216%,18.039216%);fill-opacity:1;" d="M 26.3125 91.121094 C 24.652344 91.121094 23.152344 90.152344 22.515625 88.667969 C 21.878906 87.183594 22.230469 85.476562 23.40625 84.339844 C 24.152344 83.617188 25.566406 83.03125 25.566406 81.589844 C 25.566406 80.71875 25.214844 80.503906 24.59375 80.503906 C 23.023438 80.503906 23.304688 81.640625 22.117188 82.734375 C 21.355469 83.433594 20.347656 83.898438 19.210938 83.898438 C 16.9375 83.898438 15.097656 82.121094 15.097656 79.925781 C 15.097656 77.730469 16.9375 75.953125 19.210938 75.953125 C 20.347656 75.953125 21.355469 76.417969 22.117188 77.117188 C 23.304688 78.210938 23.023438 79.058594 24.59375 79.058594 C 25.210938 79.058594 25.566406 78.988281 25.566406 78.265625 C 25.566406 72.921875 24.070312 71.621094 22.425781 70.394531 L 23.324219 69.453125 C 23.324219 69.453125 24.519531 70.394531 26.3125 70.394531 C 28.109375 70.394531 29.304688 69.453125 29.304688 69.453125 L 30.203125 70.394531 C 28.558594 71.621094 27.0625 72.921875 27.0625 78.265625 C 27.0625 78.988281 27.414062 79.058594 28.035156 79.058594 C 29.605469 79.058594 29.324219 78.210938 30.511719 77.117188 C 31.273438 76.417969 32.28125 75.953125 33.417969 75.953125 C 35.691406 75.953125 37.53125 77.730469 37.53125 79.925781 C 37.53125 82.121094 35.691406 83.898438 33.417969 83.898438 C 32.28125 83.898438 31.273438 83.4375 30.511719 82.734375 C 29.324219 81.640625 29.605469 80.503906 28.035156 80.503906 C 27.414062 80.503906 27.0625 80.71875 27.0625 81.589844 C 27.0625 83.03125 28.476562 83.617188 29.222656 84.339844 C 30.398438 85.476562 30.75 87.183594 30.113281 88.667969 C 29.476562 90.152344 27.976562 91.121094 26.3125 91.121094 Z M 26.3125 91.121094 "/>
<path style=" stroke:none;fill-rule:nonzero;fill:rgb(20%,18.039216%,18.039216%);fill-opacity:1;" d="M 63.703125 91.121094 C 62.039062 91.121094 60.539062 90.152344 59.902344 88.667969 C 59.265625 87.183594 59.621094 85.476562 60.796875 84.339844 C 61.542969 83.617188 62.957031 83.03125 62.957031 81.589844 C 62.957031 80.71875 62.601562 80.503906 61.984375 80.503906 C 60.414062 80.503906 60.695312 81.640625 59.507812 82.734375 C 58.746094 83.433594 57.734375 83.898438 56.601562 83.898438 C 54.328125 83.898438 52.488281 82.121094 52.488281 79.925781 C 52.488281 77.730469 54.328125 75.953125 56.601562 75.953125 C 57.734375 75.953125 58.746094 76.417969 59.507812 77.117188 C 60.695312 78.210938 60.414062 79.058594 61.984375 79.058594 C 62.601562 79.058594 62.957031 78.988281 62.957031 78.265625 C 62.957031 72.921875 61.460938 71.621094 59.816406 70.394531 L 60.710938 69.453125 C 60.710938 69.453125 61.910156 70.394531 63.703125 70.394531 C 65.5 70.394531 66.695312 69.453125 66.695312 69.453125 L 67.59375 70.394531 C 65.945312 71.621094 64.453125 72.921875 64.453125 78.265625 C 64.453125 78.988281 64.804688 79.058594 65.421875 79.058594 C 66.992188 79.058594 66.710938 78.210938 67.898438 77.117188 C 68.664062 76.417969 69.671875 75.953125 70.808594 75.953125 C 73.078125 75.953125 74.921875 77.730469 74.921875 79.925781 C 74.921875 82.121094 73.078125 83.898438 70.808594 83.898438 C 69.671875 83.898438 68.660156 83.4375 67.898438 82.734375 C 66.710938 81.640625 66.996094 80.503906 65.425781 80.503906 C 64.804688 80.503906 64.453125 80.71875 64.453125 81.589844 C 64.453125 83.03125 65.863281 83.617188 66.613281 84.339844 C 67.789062 85.476562 68.140625 87.183594 67.503906 88.667969 C 66.867188 90.152344 65.367188 91.121094 63.703125 91.121094 Z M 63.703125 91.121094 "/>
<path style="fill:none;stroke-width:1;stroke-linecap:butt;stroke-linejoin:miter;stroke:rgb(65.098041%,54.901963%,34.901962%);stroke-opacity:1;stroke-miterlimit:4;" d="M 9.99958 6.998798 L 109.99769 6.998798 C 111.65884 6.998798 113.001342 8.345553 113.001342 10.000601 L 113.001342 169.999408 C 113.001342 171.654456 111.65884 173.001211 109.99769 173.001211 L 9.99958 173.001211 C 8.343653 173.001211 7.001151 171.654456 7.001151 169.999408 L 7.001151 10.000601 C 7.001151 8.345553 8.343653 6.998798 9.99958 6.998798 Z M 9.99958 6.998798 " transform="matrix(0.747788,0,0,0.722222,0.13572,0)"/>
<path style=" stroke:none;fill-rule:nonzero;fill:rgb(20%,18.039216%,18.039216%);fill-opacity:1;" d="M 45.007812 23.59375 C 43.34375 23.59375 41.847656 24.558594 41.210938 26.042969 C 40.574219 27.527344 40.925781 29.238281 42.101562 30.375 C 42.847656 31.09375 44.261719 31.679688 44.261719 33.125 C 44.261719 33.992188 43.910156 34.207031 43.289062 34.207031 C 41.71875 34.207031 42 33.070312 40.8125 31.976562 C 40.050781 31.277344 39.039062 30.8125 37.90625 30.8125 C 35.632812 30.8125 33.792969 32.59375 33.792969 34.785156 C 33.792969 36.980469 35.632812 38.757812 37.90625 38.757812 C 39.039062 38.757812 40.050781 38.296875 40.8125 37.59375 C 42 36.5 41.71875 35.652344 43.289062 35.652344 C 43.90625 35.652344 44.261719 35.726562 44.261719 36.445312 C 44.261719 41.792969 42.765625 43.089844 41.121094 44.320312 L 42.019531 45.257812 C 42.019531 45.257812 43.214844 44.320312 45.007812 44.320312 C 46.804688 44.320312 48 45.257812 48 45.257812 L 48.898438 44.320312 C 47.253906 43.09375 45.757812 41.792969 45.757812 36.445312 C 45.757812 35.726562 46.109375 35.652344 46.730469 35.652344 C 48.300781 35.652344 48.015625 36.5 49.203125 37.59375 C 49.96875 38.296875 50.976562 38.757812 52.113281 38.757812 C 54.382812 38.757812 56.226562 36.980469 56.226562 34.785156 C 56.226562 32.59375 54.382812 30.8125 52.113281 30.8125 C 50.976562 30.8125 49.964844 31.277344 49.203125 31.976562 C 48.015625 33.070312 48.300781 34.207031 46.730469 34.207031 C 46.109375 34.207031 45.757812 33.992188 45.757812 33.125 C 45.757812 31.679688 47.167969 31.09375 47.917969 30.375 C 49.09375 29.238281 49.445312 27.527344 48.808594 26.042969 C 48.171875 24.558594 46.671875 23.59375 45.007812 23.59375 Z M 45.007812 23.59375 "/>
<path style=" stroke:none;fill-rule:nonzero;fill:rgb(20%,18.039216%,18.039216%);fill-opacity:1;" d="M 45.007812 106.40625 C 43.34375 106.40625 41.847656 105.441406 41.210938 103.957031 C 40.574219 102.472656 40.925781 100.761719 42.101562 99.625 C 42.847656 98.90625 44.261719 98.320312 44.261719 96.875 C 44.261719 96.007812 43.910156 95.792969 43.289062 95.792969 C 41.71875 95.792969 42 96.929688 40.8125 98.023438 C 40.050781 98.722656 39.039062 99.1875 37.90625 99.1875 C 35.632812 99.1875 33.792969 97.40625 33.792969 95.214844 C 33.792969 93.019531 35.632812 91.242188 37.90625 91.242188 C 39.039062 91.242188 40.050781 91.703125 40.8125 92.40625 C 42 93.5 41.71875 94.347656 43.289062 94.347656 C 43.90625 94.347656 44.261719 94.273438 44.261719 93.554688 C 44.261719 88.207031 42.765625 86.910156 41.121094 85.679688 L 42.019531 84.742188 C 42.019531 84.742188 43.214844 85.679688 45.007812 85.679688 C 46.804688 85.679688 48 84.742188 48 84.742188 L 48.898438 85.679688 C 47.253906 86.90625 45.757812 88.207031 45.757812 93.554688 C 45.757812 94.273438 46.109375 94.347656 46.730469 94.347656 C 48.300781 94.347656 48.015625 93.5 49.203125 92.40625 C 49.96875 91.703125 50.976562 91.242188 52.113281 91.242188 C 54.382812 91.242188 56.226562 93.019531 56.226562 95.214844 C 56.226562 97.40625 54.382812 99.1875 52.113281 99.1875 C 50.976562 99.1875 49.964844 98.722656 49.203125 98.023438 C 48.015625 96.929688 48.300781 95.792969 46.730469 95.792969 C 46.109375 95.792969 45.757812 96.007812 45.757812 96.875 C 45.757812 98.320312 47.167969 98.90625 47.917969 99.625 C 49.09375 100.761719 49.445312 102.472656 48.808594 103.957031 C 48.171875 105.441406 46.671875 106.40625 45.007812 106.40625 Z M 45.007812 106.40625 "/>
<path style=" stroke:none;fill-rule:nonzero;fill:rgb(100%,100%,100%);fill-opacity:1;" d="M 3.878906 4.335938 L 3.878906 28.167969 L 14.347656 28.167969 L 14.347656 4.335938 Z M 3.878906 4.335938 "/>
<path style=" stroke:none;fill-rule:nonzero;fill:rgb(20%,18.039216%,18.039216%);fill-opacity:1;" d="M 8.347656 17.539062 C 7.734375 17.539062 7.1875 17.894531 6.953125 18.4375 C 6.71875 18.984375 6.847656 19.609375 7.277344 20.027344 C 7.554688 20.292969 8.070312 20.507812 8.070312 21.039062 C 8.070312 21.355469 7.941406 21.433594 7.714844 21.433594 C 7.140625 21.433594 7.242188 21.019531 6.804688 20.617188 C 6.527344 20.359375 6.15625 20.191406 5.738281 20.191406 C 4.90625 20.191406 4.230469 20.84375 4.230469 21.648438 C 4.230469 22.453125 4.90625 23.105469 5.738281 23.105469 C 6.15625 23.105469 6.527344 22.9375 6.804688 22.679688 C 7.242188 22.277344 7.136719 21.964844 7.714844 21.964844 C 7.941406 21.964844 8.070312 21.992188 8.070312 22.257812 C 8.070312 24.21875 7.523438 24.695312 6.917969 25.144531 L 7.25 25.492188 C 7.25 25.492188 7.6875 25.144531 8.347656 25.144531 C 9.003906 25.144531 9.445312 25.492188 9.445312 25.492188 L 9.773438 25.144531 C 9.167969 24.695312 8.621094 24.21875 8.621094 22.257812 C 8.621094 21.992188 8.75 21.964844 8.976562 21.964844 C 9.554688 21.964844 9.449219 22.277344 9.886719 22.679688 C 10.167969 22.933594 10.535156 23.105469 10.953125 23.105469 C 11.789062 23.105469 12.464844 22.453125 12.464844 21.648438 C 12.464844 20.84375 11.789062 20.191406 10.953125 20.191406 C 10.535156 20.191406 10.164062 20.359375 9.886719 20.617188 C 9.449219 21.019531 9.554688 21.433594 8.976562 21.433594 C 8.75 21.433594 8.621094 21.355469 8.621094 21.039062 C 8.621094 20.507812 9.140625 20.292969 9.414062 20.027344 C 9.84375 19.609375 9.972656 18.984375 9.742188 18.4375 C 9.507812 17.894531 8.957031 17.539062 8.347656 17.539062 Z M 8.347656 17.539062 "/>
<path style=" stroke:none;fill-rule:nonzero;fill:rgb(100%,100%,100%);fill-opacity:1;" d="M 86.128906 125.664062 L 86.128906 101.832031 L 75.660156 101.832031 L 75.660156 125.664062 Z M 86.128906 125.664062 "/>
<path style=" stroke:none;fill-rule:nonzero;fill:rgb(20%,18.039216%,18.039216%);fill-opacity:1;" d="M 81.726562 112.460938 C 82.335938 112.460938 82.886719 112.105469 83.121094 111.5625 C 83.351562 111.015625 83.222656 110.390625 82.792969 109.972656 C 82.519531 109.707031 82 109.492188 82 108.960938 C 82 108.644531 82.128906 108.566406 82.355469 108.566406 C 82.933594 108.566406 82.828125 108.980469 83.265625 109.382812 C 83.546875 109.640625 83.914062 109.808594 84.332031 109.808594 C 85.167969 109.808594 85.84375 109.15625 85.84375 108.351562 C 85.84375 107.546875 85.167969 106.894531 84.332031 106.894531 C 83.914062 106.894531 83.542969 107.0625 83.265625 107.320312 C 82.828125 107.722656 82.933594 108.035156 82.355469 108.035156 C 82.128906 108.035156 82 108.007812 82 107.742188 C 82 105.78125 82.546875 105.304688 83.152344 104.855469 L 82.824219 104.507812 C 82.824219 104.507812 82.382812 104.855469 81.726562 104.855469 C 81.066406 104.855469 80.628906 104.507812 80.628906 104.507812 L 80.296875 104.855469 C 80.902344 105.304688 81.449219 105.78125 81.449219 107.742188 C 81.449219 108.007812 81.320312 108.035156 81.09375 108.035156 C 80.519531 108.035156 80.621094 107.722656 80.183594 107.320312 C 79.90625 107.066406 79.535156 106.894531 79.117188 106.894531 C 78.285156 106.894531 77.609375 107.546875 77.609375 108.351562 C 77.609375 109.15625 78.285156 109.808594 79.117188 109.808594 C 79.535156 109.808594 79.90625 109.640625 80.183594 109.382812 C 80.621094 108.980469 80.515625 108.566406 81.09375 108.566406 C 81.320312 108.566406 81.449219 108.644531 81.449219 108.960938 C 81.449219 109.492188 80.933594 109.707031 80.65625 109.972656 C 80.226562 110.390625 80.097656 111.015625 80.332031 111.5625 C 80.566406 112.105469 81.113281 112.460938 81.726562 112.460938 Z M 81.726562 112.460938 "/>
<path style=" stroke:none;fill-rule:nonzero;fill:rgb(20%,18.039216%,18.039216%);fill-opacity:1;" d="M 9.640625 5.054688 C 7.980469 5.054688 6.84375 6.160156 6.84375 8.109375 L 6.84375 12.074219 C 6.84375 13.988281 7.90625 15.167969 9.632812 15.175781 C 11.375 15.175781 12.453125 13.953125 12.453125 12.074219 L 12.453125 8.109375 C 12.453125 6.160156 11.269531 5.0625 9.632812 5.0625 Z M 4.339844 5.273438 C 4.25 5.273438 4.1875 5.359375 4.1875 5.4375 L 4.1875 14.785156 C 4.1875 14.878906 4.234375 14.949219 4.339844 14.949219 L 5.46875 14.949219 C 5.558594 14.957031 5.617188 14.863281 5.617188 14.785156 L 5.617188 5.4375 C 5.617188 5.367188 5.550781 5.273438 5.46875 5.273438 Z M 9.640625 6.464844 C 10.425781 6.464844 11.03125 7.011719 11.03125 8.054688 L 11.03125 12.164062 C 11.03125 13.144531 10.492188 13.75 9.640625 13.75 C 8.816406 13.75 8.273438 13.1875 8.273438 12.164062 L 8.273438 8.054688 C 8.273438 6.984375 8.890625 6.464844 9.640625 6.464844 Z M 9.640625 6.464844 "/>
<path style=" stroke:none;fill-rule:nonzero;fill:rgb(20%,18.039216%,18.039216%);fill-opacity:1;" d="M 80.367188 124.945312 C 82.027344 124.945312 83.164062 123.839844 83.164062 121.890625 L 83.164062 117.925781 C 83.164062 116.011719 82.101562 114.832031 80.375 114.824219 C 78.632812 114.824219 77.554688 116.046875 77.554688 117.925781 L 77.554688 121.890625 C 77.554688 123.839844 78.734375 124.9375 80.375 124.9375 Z M 85.667969 124.726562 C 85.757812 124.726562 85.816406 124.640625 85.816406 124.5625 L 85.816406 115.214844 C 85.816406 115.121094 85.773438 115.050781 85.667969 115.050781 L 84.539062 115.050781 C 84.449219 115.042969 84.390625 115.136719 84.390625 115.214844 L 84.390625 124.5625 C 84.390625 124.632812 84.457031 124.726562 84.539062 124.726562 Z M 80.367188 123.535156 C 79.582031 123.535156 78.976562 122.988281 78.976562 121.945312 L 78.976562 117.835938 C 78.976562 116.855469 79.511719 116.25 80.367188 116.25 C 81.1875 116.25 81.734375 116.8125 81.734375 117.835938 L 81.734375 121.945312 C 81.734375 123.015625 81.113281 123.535156 80.367188 123.535156 Z M 80.367188 123.535156 "/>
</g>
</svg>
