<?xml version="1.0" encoding="UTF-8"?>
<svg xmlns="http://www.w3.org/2000/svg" xmlns:xlink="http://www.w3.org/1999/xlink" width="90px" height="130px" viewBox="0 0 90 130" version="1.1">
<g id="surface1">
<path style="fill-rule:nonzero;fill:rgb(100%,100%,100%);fill-opacity:1;stroke-width:1.8;stroke-linecap:butt;stroke-linejoin:round;stroke:rgb(20%,18.039216%,18.039216%);stroke-opacity:1;stroke-miterlimit:4;" d="M 1986.096907 695.28844 L 2109.69588 695.28844 C 2114.944578 695.28844 2119.200109 699.540801 2119.200109 704.789911 L 2119.200109 899.388834 C 2119.200109 904.637943 2114.944578 908.890304 2109.69588 908.890304 L 1986.096907 908.890304 C 1980.854495 908.890304 1976.598964 904.637943 1976.598964 899.388834 L 1976.598964 704.789911 C 1976.598964 699.540801 1980.854495 695.28844 1986.096907 695.28844 Z M 1986.096907 695.28844 " transform="matrix(0.621434,0,0,0.603525,-1227.634224,-419.080978)"/>
<path style="fill:none;stroke-width:1;stroke-linecap:butt;stroke-linejoin:miter;stroke:rgb(65.098041%,54.901963%,34.901962%);stroke-opacity:1;stroke-miterlimit:4;" d="M 9.999537 6.998808 L 109.997647 6.998808 C 111.658797 6.998808 113.001299 8.345563 113.001299 10.000611 L 113.001299 169.999417 C 113.001299 171.654466 111.658797 173.00122 109.997647 173.00122 L 9.999537 173.00122 C 8.34361 173.00122 7.001108 171.654466 7.001108 169.999417 L 7.001108 10.000611 C 7.001108 8.345563 8.34361 6.998808 9.999537 6.998808 Z M 9.999537 6.998808 " transform="matrix(0.747788,0,0,0.722222,0.135752,-0.00000683341)"/>
<path style=" stroke:none;fill-rule:nonzero;fill:rgb(100%,100%,100%);fill-opacity:1;" d="M 3.878906 4.335938 L 3.878906 28.167969 L 14.347656 28.167969 L 14.347656 4.335938 Z M 3.878906 4.335938 "/>
<path style=" stroke:none;fill-rule:nonzero;fill:rgb(94.901961%,19.215687%,19.215687%);fill-opacity:1;" d="M 45.003906 7.945312 C 47.246094 13.722656 50.984375 17.332031 56.96875 19.5 C 51.28125 21.789062 47.246094 25.277344 45.003906 31.054688 C 42.691406 25.351562 38.863281 21.773438 33.039062 19.5 C 39.019531 17.332031 42.984375 13.679688 45.003906 7.945312 Z M 45.003906 7.945312 "/>
<path style=" stroke:none;fill-rule:nonzero;fill:rgb(94.901961%,19.215687%,19.215687%);fill-opacity:1;" d="M 45.003906 122.054688 C 42.757812 116.277344 39.019531 112.667969 33.039062 110.5 C 38.726562 108.210938 42.757812 104.722656 45.003906 98.945312 C 47.3125 104.648438 51.144531 108.226562 56.96875 110.5 C 50.984375 112.667969 47.023438 116.320312 45.003906 122.054688 Z M 45.003906 122.054688 "/>
<path style=" stroke:none;fill-rule:nonzero;fill:rgb(94.901961%,19.215687%,19.215687%);fill-opacity:1;" d="M 8.183594 17.585938 C 9.023438 19.753906 10.425781 21.105469 12.667969 21.917969 C 10.535156 22.777344 9.023438 24.085938 8.183594 26.253906 C 7.316406 24.113281 5.878906 22.773438 3.695312 21.917969 C 5.9375 21.105469 7.425781 19.738281 8.183594 17.585938 Z M 8.183594 17.585938 "/>
<path style=" stroke:none;fill-rule:nonzero;fill:rgb(100%,100%,100%);fill-opacity:1;" d="M 86.128906 125.664062 L 86.128906 101.832031 L 75.660156 101.832031 L 75.660156 125.664062 Z M 86.128906 125.664062 "/>
<path style=" stroke:none;fill-rule:nonzero;fill:rgb(94.901961%,19.215687%,19.215687%);fill-opacity:1;" d="M 81.890625 112.417969 C 81.046875 110.253906 79.648438 108.898438 77.402344 108.085938 C 79.535156 107.226562 81.046875 105.917969 81.890625 103.753906 C 82.757812 105.890625 84.191406 107.234375 86.375 108.085938 C 84.132812 108.898438 82.648438 110.269531 81.890625 112.417969 Z M 81.890625 112.417969 "/>
<path style=" stroke:none;fill-rule:nonzero;fill:rgb(94.901961%,19.215687%,19.215687%);fill-opacity:1;" d="M 7.277344 13.664062 C 7.226562 13.714844 7.246094 13.75 7.308594 13.75 L 11.570312 13.75 C 11.660156 13.75 11.75 13.835938 11.75 13.925781 L 11.75 15.015625 C 11.75 15.078125 11.703125 15.1875 11.570312 15.1875 L 5.136719 15.1875 C 5.085938 15.1875 4.960938 15.175781 4.960938 15.015625 L 4.960938 13.980469 C 4.960938 13.894531 4.988281 13.824219 5.046875 13.765625 C 6.199219 12.589844 7.285156 11.347656 8.382812 10.109375 C 9.296875 9.085938 9.761719 8.304688 9.761719 7.777344 C 9.761719 6.992188 9.132812 6.441406 8.203125 6.441406 C 7.320312 6.441406 6.664062 6.933594 6.664062 7.808594 L 6.664062 8.183594 C 6.664062 8.242188 6.617188 8.355469 6.484375 8.355469 L 5.09375 8.355469 C 4.980469 8.355469 4.914062 8.292969 4.914062 8.183594 L 4.914062 7.5625 C 4.972656 5.945312 6.433594 5.003906 8.203125 5.003906 C 10.335938 5.003906 11.507812 6.285156 11.507812 7.75 C 11.507812 8.535156 11.074219 9.4375 10.207031 10.464844 C 9.273438 11.570312 8.265625 12.601562 7.277344 13.65625 Z M 7.277344 13.664062 "/>
<path style=" stroke:none;fill-rule:nonzero;fill:rgb(94.901961%,19.215687%,19.215687%);fill-opacity:1;" d="M 82.730469 116.335938 C 82.78125 116.285156 82.757812 116.25 82.699219 116.25 L 78.4375 116.25 C 78.347656 116.25 78.257812 116.164062 78.257812 116.074219 L 78.257812 114.984375 C 78.257812 114.921875 78.300781 114.8125 78.4375 114.8125 L 84.867188 114.8125 C 84.917969 114.8125 85.046875 114.824219 85.046875 114.984375 L 85.046875 116.019531 C 85.046875 116.105469 85.015625 116.175781 84.957031 116.234375 C 83.804688 117.410156 82.722656 118.652344 81.621094 119.890625 C 80.710938 120.914062 80.246094 121.695312 80.246094 122.222656 C 80.246094 123.007812 80.875 123.558594 81.800781 123.558594 C 82.683594 123.558594 83.34375 123.066406 83.34375 122.191406 L 83.34375 121.816406 C 83.34375 121.757812 83.386719 121.644531 83.523438 121.644531 L 84.914062 121.644531 C 85.023438 121.644531 85.09375 121.707031 85.09375 121.816406 L 85.09375 122.4375 C 85.03125 124.054688 83.574219 124.996094 81.800781 124.996094 C 79.671875 124.996094 78.496094 123.714844 78.496094 122.25 C 78.496094 121.464844 78.929688 120.558594 79.796875 119.535156 C 80.730469 118.429688 81.742188 117.398438 82.730469 116.34375 Z M 82.730469 116.335938 "/>
</g>
</svg>
