<?xml version="1.0" encoding="UTF-8"?>
<svg xmlns="http://www.w3.org/2000/svg" xmlns:xlink="http://www.w3.org/1999/xlink" width="90px" height="130px" viewBox="0 0 90 130" version="1.1">
<g id="surface1">
<path style="fill-rule:nonzero;fill:rgb(100%,100%,100%);fill-opacity:1;stroke-width:1.8;stroke-linecap:butt;stroke-linejoin:round;stroke:rgb(20%,18.039216%,18.039216%);stroke-opacity:1;stroke-miterlimit:4;" d="M 1986.096944 695.28844 L 2109.695917 695.28844 C 2114.944615 695.28844 2119.200146 699.540801 2119.200146 704.789911 L 2119.200146 899.388834 C 2119.200146 904.637943 2114.944615 908.890304 2109.695917 908.890304 L 1986.096944 908.890304 C 1980.854532 908.890304 1976.599001 904.637943 1976.599001 899.388834 L 1976.599001 704.789911 C 1976.599001 699.540801 1980.854532 695.28844 1986.096944 695.28844 Z M 1986.096944 695.28844 " transform="matrix(0.621434,0,0,0.603525,-1227.634247,-419.080978)"/>
<path style="fill:none;stroke-width:1;stroke-linecap:butt;stroke-linejoin:miter;stroke:rgb(65.098041%,54.901963%,34.901962%);stroke-opacity:1;stroke-miterlimit:4;" d="M 9.999567 6.998808 L 109.997677 6.998808 C 111.658827 6.998808 113.001329 8.345563 113.001329 10.000611 L 113.001329 169.999417 C 113.001329 171.654466 111.658827 173.00122 109.997677 173.00122 L 9.999567 173.00122 C 8.343641 173.00122 7.001139 171.654466 7.001139 169.999417 L 7.001139 10.000611 C 7.001139 8.345563 8.343641 6.998808 9.999567 6.998808 Z M 9.999567 6.998808 " transform="matrix(0.747788,0,0,0.722222,0.135729,-0.00000683341)"/>
<path style=" stroke:none;fill-rule:nonzero;fill:rgb(100%,100%,100%);fill-opacity:1;" d="M 3.878906 4.335938 L 3.878906 28.167969 L 14.347656 28.167969 L 14.347656 4.335938 Z M 3.878906 4.335938 "/>
<path style=" stroke:none;fill-rule:nonzero;fill:rgb(94.901961%,19.215687%,19.215687%);fill-opacity:1;" d="M 26.308594 7.945312 C 28.550781 13.722656 32.289062 17.332031 38.273438 19.5 C 32.585938 21.789062 28.550781 25.277344 26.308594 31.054688 C 23.996094 25.351562 20.167969 21.773438 14.34375 19.5 C 20.324219 17.332031 24.289062 13.679688 26.308594 7.945312 Z M 26.308594 7.945312 "/>
<path style=" stroke:none;fill-rule:nonzero;fill:rgb(94.901961%,19.215687%,19.215687%);fill-opacity:1;" d="M 26.324219 122.054688 C 24.078125 116.277344 20.339844 112.667969 14.359375 110.5 C 20.046875 108.210938 24.078125 104.722656 26.324219 98.945312 C 28.632812 104.648438 32.464844 108.226562 38.289062 110.5 C 32.304688 112.667969 28.34375 116.320312 26.324219 122.054688 Z M 26.324219 122.054688 "/>
<path style=" stroke:none;fill-rule:nonzero;fill:rgb(94.901961%,19.215687%,19.215687%);fill-opacity:1;" d="M 63.699219 7.945312 C 65.941406 13.722656 69.679688 17.332031 75.664062 19.5 C 69.972656 21.789062 65.941406 25.277344 63.699219 31.054688 C 61.386719 25.351562 57.554688 21.773438 51.734375 19.5 C 57.714844 17.332031 61.675781 13.679688 63.699219 7.945312 Z M 63.699219 7.945312 "/>
<path style=" stroke:none;fill-rule:nonzero;fill:rgb(94.901961%,19.215687%,19.215687%);fill-opacity:1;" d="M 63.710938 122.054688 C 61.46875 116.277344 57.730469 112.667969 51.746094 110.5 C 57.4375 108.210938 61.46875 104.722656 63.710938 98.945312 C 66.023438 104.648438 69.855469 108.226562 75.675781 110.5 C 69.695312 112.667969 65.734375 116.320312 63.710938 122.054688 Z M 63.710938 122.054688 "/>
<path style=" stroke:none;fill-rule:nonzero;fill:rgb(94.901961%,19.215687%,19.215687%);fill-opacity:1;" d="M 26.308594 53.445312 C 28.550781 59.222656 32.289062 62.832031 38.273438 65 C 32.585938 67.289062 28.550781 70.777344 26.308594 76.554688 C 23.996094 70.851562 20.167969 67.273438 14.34375 65 C 20.324219 62.832031 24.289062 59.179688 26.308594 53.445312 Z M 26.308594 53.445312 "/>
<path style=" stroke:none;fill-rule:nonzero;fill:rgb(94.901961%,19.215687%,19.215687%);fill-opacity:1;" d="M 63.699219 53.445312 C 65.941406 59.222656 69.679688 62.832031 75.664062 65 C 69.972656 67.289062 65.941406 70.777344 63.699219 76.554688 C 61.386719 70.851562 57.554688 67.273438 51.734375 65 C 57.714844 62.832031 61.675781 59.179688 63.699219 53.445312 Z M 63.699219 53.445312 "/>
<path style=" stroke:none;fill-rule:nonzero;fill:rgb(94.901961%,19.215687%,19.215687%);fill-opacity:1;" d="M 45.003906 30.695312 C 47.246094 36.472656 50.984375 40.082031 56.96875 42.25 C 51.28125 44.539062 47.246094 48.027344 45.003906 53.804688 C 42.691406 48.101562 38.863281 44.523438 33.039062 42.25 C 39.019531 40.082031 42.984375 36.429688 45.003906 30.695312 Z M 45.003906 30.695312 "/>
<path style=" stroke:none;fill-rule:nonzero;fill:rgb(94.901961%,19.215687%,19.215687%);fill-opacity:1;" d="M 45.003906 76.195312 C 47.246094 81.972656 50.984375 85.582031 56.96875 87.75 C 51.28125 90.039062 47.246094 93.527344 45.003906 99.304688 C 42.691406 93.601562 38.863281 90.023438 33.039062 87.75 C 39.019531 85.582031 42.984375 81.929688 45.003906 76.195312 Z M 45.003906 76.195312 "/>
<path style=" stroke:none;fill-rule:nonzero;fill:rgb(94.901961%,19.215687%,19.215687%);fill-opacity:1;" d="M 8.183594 17.585938 C 9.023438 19.753906 10.425781 21.105469 12.667969 21.917969 C 10.535156 22.777344 9.023438 24.085938 8.183594 26.253906 C 7.316406 24.113281 5.878906 22.773438 3.695312 21.917969 C 5.9375 21.105469 7.425781 19.738281 8.183594 17.585938 Z M 8.183594 17.585938 "/>
<path style=" stroke:none;fill-rule:nonzero;fill:rgb(100%,100%,100%);fill-opacity:1;" d="M 86.128906 125.664062 L 86.128906 101.832031 L 75.660156 101.832031 L 75.660156 125.664062 Z M 86.128906 125.664062 "/>
<path style=" stroke:none;fill-rule:nonzero;fill:rgb(94.901961%,19.215687%,19.215687%);fill-opacity:1;" d="M 81.890625 112.417969 C 81.046875 110.253906 79.644531 108.898438 77.402344 108.085938 C 79.535156 107.226562 81.046875 105.917969 81.890625 103.753906 C 82.757812 105.890625 84.191406 107.234375 86.375 108.085938 C 84.132812 108.898438 82.648438 110.269531 81.890625 112.417969 Z M 81.890625 112.417969 "/>
<path style=" stroke:none;fill-rule:nonzero;fill:rgb(94.901961%,19.215687%,19.215687%);fill-opacity:1;" d="M 11.644531 12.261719 C 11.644531 14.027344 10.425781 15.273438 8.355469 15.273438 C 5.976562 15.273438 5.019531 13.742188 5.019531 12.25 C 5.019531 11.9375 5.085938 10.515625 6.214844 9.894531 C 6.269531 9.867188 6.269531 9.828125 6.230469 9.792969 C 6.074219 9.683594 5.167969 9.007812 5.167969 7.742188 C 5.167969 6.261719 6.363281 4.945312 8.355469 4.945312 C 10.417969 4.945312 11.496094 6.3125 11.496094 7.742188 C 11.496094 8.269531 11.34375 9.152344 10.433594 9.777344 C 10.394531 9.816406 10.394531 9.851562 10.433594 9.878906 C 11.242188 10.328125 11.644531 11.253906 11.644531 12.261719 Z M 6.886719 7.777344 C 6.886719 7.9375 6.933594 9.238281 8.339844 9.238281 C 8.886719 9.238281 9.789062 8.976562 9.789062 7.765625 C 9.789062 7.054688 9.230469 6.382812 8.324219 6.382812 C 7.3125 6.382812 6.886719 7.25 6.886719 7.777344 Z M 9.894531 12.125 C 9.894531 11.707031 9.828125 10.4375 8.339844 10.4375 C 7.007812 10.4375 6.796875 11.484375 6.796875 12.140625 C 6.796875 13.136719 7.292969 13.84375 8.355469 13.84375 C 9.445312 13.84375 9.894531 13.058594 9.894531 12.125 Z M 9.894531 12.125 "/>
<path style=" stroke:none;fill-rule:nonzero;fill:rgb(94.901961%,19.215687%,19.215687%);fill-opacity:1;" d="M 78.363281 117.738281 C 78.363281 115.972656 79.582031 114.726562 81.652344 114.726562 C 84.03125 114.726562 84.988281 116.257812 84.988281 117.75 C 84.988281 118.0625 84.917969 119.484375 83.789062 120.105469 C 83.738281 120.132812 83.738281 120.171875 83.777344 120.207031 C 83.933594 120.316406 84.835938 120.992188 84.835938 122.257812 C 84.835938 123.738281 83.640625 125.054688 81.652344 125.054688 C 79.589844 125.054688 78.511719 123.6875 78.511719 122.257812 C 78.511719 121.730469 78.660156 120.847656 79.574219 120.222656 C 79.609375 120.183594 79.609375 120.148438 79.574219 120.121094 C 78.765625 119.671875 78.363281 118.746094 78.363281 117.738281 Z M 83.117188 122.222656 C 83.117188 122.0625 83.074219 120.761719 81.667969 120.761719 C 81.121094 120.761719 80.214844 121.023438 80.214844 122.234375 C 80.214844 122.945312 80.777344 123.617188 81.683594 123.617188 C 82.691406 123.617188 83.117188 122.75 83.117188 122.222656 Z M 80.113281 117.875 C 80.113281 118.292969 80.179688 119.5625 81.667969 119.5625 C 83 119.5625 83.207031 118.515625 83.207031 117.859375 C 83.207031 116.863281 82.714844 116.15625 81.652344 116.15625 C 80.558594 116.15625 80.113281 116.941406 80.113281 117.875 Z M 80.113281 117.875 "/>
</g>
</svg>
