<?xml version="1.0" encoding="UTF-8"?>
<svg xmlns="http://www.w3.org/2000/svg" xmlns:xlink="http://www.w3.org/1999/xlink" width="90px" height="130px" viewBox="0 0 90 130" version="1.1">
<g id="surface1">
<path style="fill-rule:nonzero;fill:rgb(100%,100%,100%);fill-opacity:1;stroke-width:1.8;stroke-linecap:butt;stroke-linejoin:round;stroke:rgb(20%,18.039216%,18.039216%);stroke-opacity:1;stroke-miterlimit:4;" d="M 1986.096914 695.28844 L 2109.695887 695.28844 C 2114.944585 695.28844 2119.200116 699.540801 2119.200116 704.789911 L 2119.200116 899.388834 C 2119.200116 904.637943 2114.944585 908.890304 2109.695887 908.890304 L 1986.096914 908.890304 C 1980.854502 908.890304 1976.598971 904.637943 1976.598971 899.388834 L 1976.598971 704.789911 C 1976.598971 699.540801 1980.854502 695.28844 1986.096914 695.28844 Z M 1986.096914 695.28844 " transform="matrix(0.621434,0,0,0.603525,-1227.634228,-419.080978)"/>
<path style="fill:none;stroke-width:1;stroke-linecap:butt;stroke-linejoin:miter;stroke:rgb(65.098041%,54.901963%,34.901962%);stroke-opacity:1;stroke-miterlimit:4;" d="M 9.999542 6.998808 L 109.997652 6.998808 C 111.658802 6.998808 113.001304 8.345563 113.001304 10.000611 L 113.001304 169.999417 C 113.001304 171.654466 111.658802 173.00122 109.997652 173.00122 L 9.999542 173.00122 C 8.343616 173.00122 7.001114 171.654466 7.001114 169.999417 L 7.001114 10.000611 C 7.001114 8.345563 8.343616 6.998808 9.999542 6.998808 Z M 9.999542 6.998808 " transform="matrix(0.747788,0,0,0.722222,0.135748,-0.00000683341)"/>
<path style=" stroke:none;fill-rule:nonzero;fill:rgb(100%,100%,100%);fill-opacity:1;" d="M 3.878906 4.335938 L 3.878906 28.167969 L 14.347656 28.167969 L 14.347656 4.335938 Z M 3.878906 4.335938 "/>
<path style=" stroke:none;fill-rule:nonzero;fill:rgb(94.901961%,19.215687%,19.215687%);fill-opacity:1;" d="M 26.308594 7.945312 C 28.550781 13.722656 32.289062 17.332031 38.273438 19.5 C 32.585938 21.789062 28.550781 25.277344 26.308594 31.054688 C 23.996094 25.351562 20.167969 21.773438 14.34375 19.5 C 20.324219 17.332031 24.289062 13.679688 26.308594 7.945312 Z M 26.308594 7.945312 "/>
<path style=" stroke:none;fill-rule:nonzero;fill:rgb(94.901961%,19.215687%,19.215687%);fill-opacity:1;" d="M 26.324219 122.054688 C 24.078125 116.277344 20.339844 112.667969 14.359375 110.5 C 20.046875 108.210938 24.078125 104.722656 26.324219 98.945312 C 28.632812 104.648438 32.464844 108.226562 38.289062 110.5 C 32.304688 112.667969 28.34375 116.320312 26.324219 122.054688 Z M 26.324219 122.054688 "/>
<path style=" stroke:none;fill-rule:nonzero;fill:rgb(94.901961%,19.215687%,19.215687%);fill-opacity:1;" d="M 63.699219 7.945312 C 65.941406 13.722656 69.679688 17.332031 75.664062 19.5 C 69.976562 21.789062 65.941406 25.277344 63.699219 31.054688 C 61.386719 25.351562 57.554688 21.773438 51.734375 19.5 C 57.714844 17.332031 61.675781 13.679688 63.699219 7.945312 Z M 63.699219 7.945312 "/>
<path style=" stroke:none;fill-rule:nonzero;fill:rgb(94.901961%,19.215687%,19.215687%);fill-opacity:1;" d="M 63.710938 122.054688 C 61.46875 116.277344 57.730469 112.667969 51.75 110.5 C 57.4375 108.210938 61.46875 104.722656 63.710938 98.945312 C 66.023438 104.648438 69.855469 108.226562 75.675781 110.5 C 69.695312 112.667969 65.734375 116.320312 63.710938 122.054688 Z M 63.710938 122.054688 "/>
<path style=" stroke:none;fill-rule:nonzero;fill:rgb(94.901961%,19.215687%,19.215687%);fill-opacity:1;" d="M 8.183594 17.585938 C 9.023438 19.753906 10.425781 21.105469 12.667969 21.917969 C 10.535156 22.777344 9.023438 24.085938 8.183594 26.253906 C 7.316406 24.113281 5.878906 22.773438 3.695312 21.917969 C 5.9375 21.105469 7.425781 19.738281 8.183594 17.585938 Z M 8.183594 17.585938 "/>
<path style=" stroke:none;fill-rule:nonzero;fill:rgb(100%,100%,100%);fill-opacity:1;" d="M 86.128906 125.664062 L 86.128906 101.832031 L 75.660156 101.832031 L 75.660156 125.664062 Z M 86.128906 125.664062 "/>
<path style=" stroke:none;fill-rule:nonzero;fill:rgb(94.901961%,19.215687%,19.215687%);fill-opacity:1;" d="M 81.890625 112.417969 C 81.046875 110.253906 79.648438 108.898438 77.402344 108.085938 C 79.535156 107.226562 81.046875 105.917969 81.890625 103.753906 C 82.757812 105.890625 84.191406 107.234375 86.375 108.085938 C 84.132812 108.898438 82.648438 110.269531 81.890625 112.417969 Z M 81.890625 112.417969 "/>
<path style=" stroke:none;fill-rule:nonzero;fill:rgb(94.901961%,19.215687%,19.215687%);fill-opacity:1;" d="M 11.859375 11.027344 C 11.949219 11.027344 12.039062 11.113281 12.039062 11.203125 L 12.039062 12.386719 C 12.039062 12.449219 11.996094 12.558594 11.859375 12.558594 L 11.234375 12.558594 C 11.179688 12.558594 11.15625 12.582031 11.15625 12.632812 L 11.15625 15.09375 C 11.15625 15.160156 11.113281 15.269531 10.980469 15.269531 L 9.601562 15.269531 C 9.484375 15.269531 9.421875 15.203125 9.421875 15.09375 L 9.421875 12.632812 C 9.421875 12.582031 9.402344 12.558594 9.347656 12.558594 L 4.800781 12.558594 C 4.683594 12.558594 4.621094 12.496094 4.621094 12.386719 L 4.621094 11.441406 C 4.621094 11.382812 4.636719 11.308594 4.667969 11.214844 L 7.492188 5.078125 C 7.53125 4.992188 7.605469 4.945312 7.703125 4.945312 L 9.167969 4.945312 C 9.265625 4.945312 9.371094 4.996094 9.304688 5.15625 L 6.640625 10.941406 C 6.632812 10.96875 6.632812 11.027344 6.6875 11.027344 L 9.347656 11.027344 C 9.402344 11.027344 9.421875 11.007812 9.421875 10.957031 L 9.421875 8.949219 C 9.421875 8.816406 9.535156 8.773438 9.601562 8.773438 L 10.980469 8.773438 C 11.070312 8.773438 11.15625 8.863281 11.15625 8.949219 L 11.15625 10.957031 C 11.15625 11.007812 11.179688 11.027344 11.234375 11.027344 Z M 11.859375 11.027344 "/>
<path style=" stroke:none;fill-rule:nonzero;fill:rgb(94.901961%,19.215687%,19.215687%);fill-opacity:1;" d="M 78.144531 118.972656 C 78.054688 118.972656 77.964844 118.886719 77.964844 118.796875 L 77.964844 117.613281 C 77.964844 117.550781 78.011719 117.441406 78.144531 117.441406 L 78.773438 117.441406 C 78.824219 117.441406 78.847656 117.417969 78.847656 117.367188 L 78.847656 114.90625 C 78.847656 114.839844 78.894531 114.730469 79.027344 114.730469 L 80.402344 114.730469 C 80.523438 114.730469 80.582031 114.796875 80.582031 114.90625 L 80.582031 117.367188 C 80.582031 117.417969 80.605469 117.441406 80.65625 117.441406 L 85.203125 117.441406 C 85.324219 117.441406 85.382812 117.503906 85.382812 117.613281 L 85.382812 118.558594 C 85.382812 118.617188 85.367188 118.691406 85.339844 118.785156 L 82.511719 124.921875 C 82.476562 125.007812 82.398438 125.054688 82.300781 125.054688 L 80.835938 125.054688 C 80.738281 125.054688 80.636719 125.003906 80.703125 124.84375 L 83.363281 119.058594 C 83.371094 119.03125 83.371094 118.972656 83.320312 118.972656 L 80.65625 118.972656 C 80.605469 118.972656 80.582031 118.992188 80.582031 119.042969 L 80.582031 121.050781 C 80.582031 121.183594 80.46875 121.226562 80.402344 121.226562 L 79.027344 121.226562 C 78.9375 121.226562 78.847656 121.136719 78.847656 121.050781 L 78.847656 119.042969 C 78.847656 118.992188 78.824219 118.972656 78.773438 118.972656 Z M 78.144531 118.972656 "/>
</g>
</svg>
