<?xml version="1.0" encoding="UTF-8"?>
<svg xmlns="http://www.w3.org/2000/svg" xmlns:xlink="http://www.w3.org/1999/xlink" width="90px" height="130px" viewBox="0 0 90 130" version="1.1">
<g id="surface1">
<path style="fill-rule:nonzero;fill:rgb(100%,100%,100%);fill-opacity:1;stroke-width:1.8;stroke-linecap:butt;stroke-linejoin:round;stroke:rgb(20%,18.039216%,18.039216%);stroke-opacity:1;stroke-miterlimit:4;" d="M 1986.096921 695.28844 L 2109.695894 695.28844 C 2114.944592 695.28844 2119.200123 699.540801 2119.200123 704.789911 L 2119.200123 899.388834 C 2119.200123 904.637943 2114.944592 908.890304 2109.695894 908.890304 L 1986.096921 908.890304 C 1980.854509 908.890304 1976.598978 904.637943 1976.598978 899.388834 L 1976.598978 704.789911 C 1976.598978 699.540801 1980.854509 695.28844 1986.096921 695.28844 Z M 1986.096921 695.28844 " transform="matrix(0.621434,0,0,0.603525,-1227.634233,-419.080978)"/>
<path style="fill:none;stroke-width:1;stroke-linecap:butt;stroke-linejoin:miter;stroke:rgb(65.098041%,54.901963%,34.901962%);stroke-opacity:1;stroke-miterlimit:4;" d="M 9.999548 6.998808 L 109.997658 6.998808 C 111.658808 6.998808 113.00131 8.345563 113.00131 10.000611 L 113.00131 169.999417 C 113.00131 171.654466 111.658808 173.00122 109.997658 173.00122 L 9.999548 173.00122 C 8.343622 173.00122 7.00112 171.654466 7.00112 169.999417 L 7.00112 10.000611 C 7.00112 8.345563 8.343622 6.998808 9.999548 6.998808 Z M 9.999548 6.998808 " transform="matrix(0.747788,0,0,0.722222,0.135743,-0.00000683341)"/>
<path style=" stroke:none;fill-rule:nonzero;fill:rgb(100%,100%,100%);fill-opacity:1;" d="M 3.878906 4.335938 L 3.878906 28.167969 L 14.347656 28.167969 L 14.347656 4.335938 Z M 3.878906 4.335938 "/>
<path style=" stroke:none;fill-rule:nonzero;fill:rgb(94.901961%,19.215687%,19.215687%);fill-opacity:1;" d="M 26.308594 7.945312 C 28.550781 13.722656 32.289062 17.332031 38.273438 19.5 C 32.585938 21.789062 28.550781 25.277344 26.308594 31.054688 C 23.996094 25.351562 20.167969 21.773438 14.34375 19.5 C 20.324219 17.332031 24.289062 13.679688 26.308594 7.945312 Z M 26.308594 7.945312 "/>
<path style=" stroke:none;fill-rule:nonzero;fill:rgb(94.901961%,19.215687%,19.215687%);fill-opacity:1;" d="M 26.324219 122.054688 C 24.078125 116.277344 20.339844 112.667969 14.359375 110.5 C 20.046875 108.210938 24.078125 104.722656 26.324219 98.945312 C 28.632812 104.648438 32.464844 108.226562 38.289062 110.5 C 32.304688 112.667969 28.34375 116.320312 26.324219 122.054688 Z M 26.324219 122.054688 "/>
<path style=" stroke:none;fill-rule:nonzero;fill:rgb(94.901961%,19.215687%,19.215687%);fill-opacity:1;" d="M 63.699219 7.945312 C 65.941406 13.722656 69.679688 17.332031 75.664062 19.5 C 69.976562 21.789062 65.941406 25.277344 63.699219 31.054688 C 61.386719 25.351562 57.554688 21.773438 51.734375 19.5 C 57.714844 17.332031 61.675781 13.679688 63.699219 7.945312 Z M 63.699219 7.945312 "/>
<path style=" stroke:none;fill-rule:nonzero;fill:rgb(94.901961%,19.215687%,19.215687%);fill-opacity:1;" d="M 63.710938 122.054688 C 61.46875 116.277344 57.730469 112.667969 51.746094 110.5 C 57.4375 108.210938 61.46875 104.722656 63.710938 98.945312 C 66.023438 104.648438 69.855469 108.226562 75.675781 110.5 C 69.695312 112.667969 65.734375 116.320312 63.710938 122.054688 Z M 63.710938 122.054688 "/>
<path style=" stroke:none;fill-rule:nonzero;fill:rgb(94.901961%,19.215687%,19.215687%);fill-opacity:1;" d="M 45.003906 53.445312 C 47.246094 59.222656 50.984375 62.832031 56.96875 65 C 51.28125 67.289062 47.246094 70.777344 45.003906 76.554688 C 42.691406 70.851562 38.863281 67.273438 33.039062 65 C 39.019531 62.832031 42.984375 59.179688 45.003906 53.445312 Z M 45.003906 53.445312 "/>
<path style=" stroke:none;fill-rule:nonzero;fill:rgb(94.901961%,19.215687%,19.215687%);fill-opacity:1;" d="M 8.183594 17.585938 C 9.023438 19.753906 10.425781 21.105469 12.667969 21.917969 C 10.535156 22.777344 9.023438 24.085938 8.183594 26.253906 C 7.316406 24.113281 5.878906 22.773438 3.695312 21.917969 C 5.9375 21.105469 7.425781 19.738281 8.183594 17.585938 Z M 8.183594 17.585938 "/>
<path style=" stroke:none;fill-rule:nonzero;fill:rgb(100%,100%,100%);fill-opacity:1;" d="M 86.128906 125.664062 L 86.128906 101.832031 L 75.660156 101.832031 L 75.660156 125.664062 Z M 86.128906 125.664062 "/>
<path style=" stroke:none;fill-rule:nonzero;fill:rgb(94.901961%,19.215687%,19.215687%);fill-opacity:1;" d="M 81.890625 112.417969 C 81.046875 110.253906 79.648438 108.898438 77.402344 108.085938 C 79.535156 107.226562 81.046875 105.917969 81.890625 103.753906 C 82.757812 105.890625 84.191406 107.234375 86.375 108.085938 C 84.132812 108.898438 82.648438 110.269531 81.890625 112.417969 Z M 81.890625 112.417969 "/>
<path style=" stroke:none;fill-rule:nonzero;fill:rgb(94.901961%,19.215687%,19.215687%);fill-opacity:1;" d="M 11.621094 11.988281 C 11.621094 14.3125 9.976562 15.261719 8.316406 15.261719 C 6.722656 15.261719 5.648438 14.4375 5.234375 13.324219 C 5.152344 13.117188 5.09375 12.878906 5.042969 12.609375 L 5.042969 12.582031 C 5.042969 12.472656 5.101562 12.421875 5.21875 12.421875 L 6.640625 12.421875 C 6.738281 12.421875 6.804688 12.472656 6.835938 12.582031 C 6.84375 12.640625 6.875 12.726562 6.910156 12.839844 C 7.121094 13.433594 7.582031 13.832031 8.300781 13.832031 C 9.550781 13.832031 9.855469 12.683594 9.855469 11.996094 C 9.855469 11.195312 9.601562 10.203125 8.347656 10.203125 C 7.742188 10.203125 7.066406 10.488281 6.894531 11.007812 C 6.859375 11.101562 6.785156 11.152344 6.6875 11.152344 L 5.234375 11.152344 C 5.117188 11.152344 5.054688 11.085938 5.054688 10.976562 L 5.054688 5.292969 C 5.054688 5.164062 5.167969 5.121094 5.234375 5.121094 L 11.054688 5.121094 C 11.144531 5.121094 11.234375 5.207031 11.234375 5.292969 L 11.234375 6.382812 C 11.234375 6.449219 11.179688 6.558594 11.054688 6.558594 L 6.867188 6.558594 C 6.8125 6.558594 6.792969 6.578125 6.792969 6.628906 L 6.777344 9.214844 C 6.777344 9.296875 6.820312 9.300781 6.867188 9.257812 C 7.335938 8.925781 7.898438 8.761719 8.554688 8.761719 C 9.84375 8.761719 11.621094 9.433594 11.621094 12.003906 Z M 11.621094 11.988281 "/>
<path style=" stroke:none;fill-rule:nonzero;fill:rgb(94.901961%,19.215687%,19.215687%);fill-opacity:1;" d="M 78.382812 118.011719 C 78.382812 115.683594 80.03125 114.738281 81.691406 114.738281 C 83.28125 114.738281 84.359375 115.5625 84.769531 116.675781 C 84.851562 116.882812 84.914062 117.121094 84.964844 117.390625 L 84.964844 117.417969 C 84.964844 117.527344 84.90625 117.578125 84.785156 117.578125 L 83.363281 117.578125 C 83.265625 117.578125 83.199219 117.527344 83.171875 117.417969 C 83.164062 117.359375 83.132812 117.273438 83.09375 117.160156 C 82.886719 116.566406 82.421875 116.167969 81.703125 116.167969 C 80.457031 116.167969 80.148438 117.316406 80.148438 118.003906 C 80.148438 118.804688 80.402344 119.796875 81.660156 119.796875 C 82.265625 119.796875 82.9375 119.511719 83.109375 118.992188 C 83.148438 118.898438 83.222656 118.847656 83.320312 118.847656 L 84.769531 118.847656 C 84.890625 118.847656 84.949219 118.914062 84.949219 119.023438 L 84.949219 124.707031 C 84.949219 124.835938 84.835938 124.878906 84.769531 124.878906 L 78.953125 124.878906 C 78.863281 124.878906 78.773438 124.792969 78.773438 124.707031 L 78.773438 123.617188 C 78.773438 123.550781 78.824219 123.441406 78.953125 123.441406 L 83.140625 123.441406 C 83.191406 123.441406 83.214844 123.421875 83.214844 123.371094 L 83.230469 120.785156 C 83.230469 120.703125 83.183594 120.699219 83.140625 120.742188 C 82.667969 121.074219 82.109375 121.238281 81.449219 121.238281 C 80.164062 121.238281 78.382812 120.566406 78.382812 117.996094 Z M 78.382812 118.011719 "/>
</g>
</svg>
