<?xml version="1.0" encoding="UTF-8"?>
<svg xmlns="http://www.w3.org/2000/svg" xmlns:xlink="http://www.w3.org/1999/xlink" width="90px" height="130px" viewBox="0 0 90 130" version="1.1">
<g id="surface1">
<path style="fill-rule:nonzero;fill:rgb(100%,100%,100%);fill-opacity:1;stroke-width:1.8;stroke-linecap:butt;stroke-linejoin:round;stroke:rgb(20%,18.039216%,18.039216%);stroke-opacity:1;stroke-miterlimit:4;" d="M 1986.096959 695.28844 L 2109.695932 695.28844 C 2114.94463 695.28844 2119.200161 699.540801 2119.200161 704.789911 L 2119.200161 899.388834 C 2119.200161 904.637943 2114.94463 908.890304 2109.695932 908.890304 L 1986.096959 908.890304 C 1980.854547 908.890304 1976.599016 904.637943 1976.599016 899.388834 L 1976.599016 704.789911 C 1976.599016 699.540801 1980.854547 695.28844 1986.096959 695.28844 Z M 1986.096959 695.28844 " transform="matrix(0.621434,0,0,0.603525,-1227.634256,-419.080978)"/>
<path style="fill:none;stroke-width:1;stroke-linecap:butt;stroke-linejoin:miter;stroke:rgb(65.098041%,54.901963%,34.901962%);stroke-opacity:1;stroke-miterlimit:4;" d="M 9.99958 6.998808 L 109.99769 6.998808 C 111.65884 6.998808 113.001342 8.345563 113.001342 10.000611 L 113.001342 169.999417 C 113.001342 171.654466 111.65884 173.00122 109.99769 173.00122 L 9.99958 173.00122 C 8.343653 173.00122 7.001151 171.654466 7.001151 169.999417 L 7.001151 10.000611 C 7.001151 8.345563 8.343653 6.998808 9.99958 6.998808 Z M 9.99958 6.998808 " transform="matrix(0.747788,0,0,0.722222,0.13572,-0.00000683341)"/>
<path style=" stroke:none;fill-rule:nonzero;fill:rgb(100%,100%,100%);fill-opacity:1;" d="M 86.128906 125.664062 L 86.128906 101.832031 L 75.660156 101.832031 L 75.660156 125.664062 Z M 86.128906 125.664062 "/>
<path style=" stroke:none;fill-rule:nonzero;fill:rgb(94.901961%,19.215687%,19.215687%);fill-opacity:1;" d="M 26.308594 7.945312 C 28.550781 13.722656 32.289062 17.332031 38.273438 19.5 C 32.585938 21.789062 28.550781 25.277344 26.308594 31.054688 C 23.996094 25.351562 20.167969 21.773438 14.34375 19.5 C 20.324219 17.332031 24.289062 13.679688 26.308594 7.945312 Z M 26.308594 7.945312 "/>
<path style=" stroke:none;fill-rule:nonzero;fill:rgb(94.901961%,19.215687%,19.215687%);fill-opacity:1;" d="M 26.324219 122.054688 C 24.078125 116.277344 20.339844 112.667969 14.359375 110.5 C 20.046875 108.210938 24.078125 104.722656 26.324219 98.945312 C 28.632812 104.648438 32.464844 108.226562 38.289062 110.5 C 32.304688 112.667969 28.34375 116.320312 26.324219 122.054688 Z M 26.324219 122.054688 "/>
<path style=" stroke:none;fill-rule:nonzero;fill:rgb(94.901961%,19.215687%,19.215687%);fill-opacity:1;" d="M 63.699219 7.945312 C 65.941406 13.722656 69.679688 17.332031 75.664062 19.5 C 69.972656 21.789062 65.941406 25.277344 63.699219 31.054688 C 61.386719 25.351562 57.554688 21.773438 51.734375 19.5 C 57.714844 17.332031 61.675781 13.679688 63.699219 7.945312 Z M 63.699219 7.945312 "/>
<path style=" stroke:none;fill-rule:nonzero;fill:rgb(94.901961%,19.215687%,19.215687%);fill-opacity:1;" d="M 63.710938 122.054688 C 61.46875 116.277344 57.730469 112.667969 51.746094 110.5 C 57.4375 108.210938 61.46875 104.722656 63.710938 98.945312 C 66.023438 104.648438 69.855469 108.226562 75.675781 110.5 C 69.695312 112.667969 65.734375 116.320312 63.710938 122.054688 Z M 63.710938 122.054688 "/>
<path style=" stroke:none;fill-rule:nonzero;fill:rgb(94.901961%,19.215687%,19.215687%);fill-opacity:1;" d="M 26.308594 68.609375 C 28.550781 74.390625 32.289062 78 38.273438 80.167969 C 32.585938 82.457031 28.550781 85.945312 26.308594 91.722656 C 23.996094 86.019531 20.167969 82.441406 14.34375 80.167969 C 20.324219 78 24.289062 74.347656 26.308594 68.609375 Z M 26.308594 68.609375 "/>
<path style=" stroke:none;fill-rule:nonzero;fill:rgb(94.901961%,19.215687%,19.215687%);fill-opacity:1;" d="M 63.699219 68.609375 C 65.941406 74.390625 69.679688 78 75.664062 80.167969 C 69.972656 82.457031 65.941406 85.945312 63.699219 91.722656 C 61.386719 86.019531 57.554688 82.441406 51.734375 80.167969 C 57.714844 78 61.675781 74.347656 63.699219 68.609375 Z M 63.699219 68.609375 "/>
<path style=" stroke:none;fill-rule:nonzero;fill:rgb(94.901961%,19.215687%,19.215687%);fill-opacity:1;" d="M 26.308594 38.277344 C 28.550781 44.054688 32.289062 47.667969 38.273438 49.832031 C 32.585938 52.121094 28.550781 55.609375 26.308594 61.390625 C 23.996094 55.6875 20.167969 52.105469 14.34375 49.832031 C 20.324219 47.667969 24.289062 44.011719 26.308594 38.277344 Z M 26.308594 38.277344 "/>
<path style=" stroke:none;fill-rule:nonzero;fill:rgb(94.901961%,19.215687%,19.215687%);fill-opacity:1;" d="M 63.699219 38.277344 C 65.941406 44.054688 69.679688 47.667969 75.664062 49.832031 C 69.972656 52.121094 65.941406 55.609375 63.699219 61.390625 C 61.386719 55.6875 57.554688 52.105469 51.734375 49.832031 C 57.714844 47.667969 61.675781 44.011719 63.699219 38.277344 Z M 63.699219 38.277344 "/>
<path style=" stroke:none;fill-rule:nonzero;fill:rgb(94.901961%,19.215687%,19.215687%);fill-opacity:1;" d="M 45.003906 83.777344 C 47.246094 89.554688 50.984375 93.167969 56.96875 95.332031 C 51.28125 97.621094 47.246094 101.109375 45.003906 106.890625 C 42.691406 101.1875 38.863281 97.605469 33.039062 95.332031 C 39.019531 93.167969 42.984375 89.511719 45.003906 83.777344 Z M 45.003906 83.777344 "/>
<path style=" stroke:none;fill-rule:nonzero;fill:rgb(94.901961%,19.215687%,19.215687%);fill-opacity:1;" d="M 45.003906 23.109375 C 47.246094 28.890625 50.984375 32.5 56.96875 34.667969 C 51.28125 36.957031 47.246094 40.445312 45.003906 46.222656 C 42.691406 40.519531 38.863281 36.941406 33.039062 34.667969 C 39.019531 32.5 42.984375 28.847656 45.003906 23.109375 Z M 45.003906 23.109375 "/>
<path style=" stroke:none;fill-rule:nonzero;fill:rgb(100%,100%,100%);fill-opacity:1;" d="M 3.878906 4.335938 L 3.878906 28.167969 L 14.347656 28.167969 L 14.347656 4.335938 Z M 3.878906 4.335938 "/>
<path style=" stroke:none;fill-rule:nonzero;fill:rgb(94.901961%,19.215687%,19.215687%);fill-opacity:1;" d="M 8.183594 17.585938 C 9.023438 19.753906 10.425781 21.105469 12.667969 21.917969 C 10.535156 22.777344 9.023438 24.085938 8.183594 26.253906 C 7.316406 24.113281 5.878906 22.773438 3.695312 21.917969 C 5.9375 21.105469 7.425781 19.738281 8.183594 17.585938 Z M 8.183594 17.585938 "/>
<path style=" stroke:none;fill-rule:nonzero;fill:rgb(94.901961%,19.215687%,19.215687%);fill-opacity:1;" d="M 81.890625 112.417969 C 81.046875 110.253906 79.644531 108.898438 77.402344 108.085938 C 79.535156 107.226562 81.046875 105.917969 81.890625 103.753906 C 82.757812 105.890625 84.191406 107.234375 86.375 108.085938 C 84.132812 108.898438 82.648438 110.269531 81.890625 112.417969 Z M 81.890625 112.417969 "/>
<path style=" stroke:none;fill-rule:nonzero;fill:rgb(94.901961%,19.215687%,19.215687%);fill-opacity:1;" d="M 9.640625 5.054688 C 7.980469 5.054688 6.84375 6.160156 6.84375 8.109375 L 6.84375 12.074219 C 6.84375 13.988281 7.90625 15.167969 9.632812 15.175781 C 11.375 15.175781 12.453125 13.953125 12.453125 12.074219 L 12.453125 8.109375 C 12.453125 6.160156 11.269531 5.0625 9.632812 5.0625 Z M 4.339844 5.273438 C 4.25 5.273438 4.1875 5.359375 4.1875 5.4375 L 4.1875 14.785156 C 4.1875 14.878906 4.234375 14.949219 4.339844 14.949219 L 5.46875 14.949219 C 5.558594 14.957031 5.617188 14.863281 5.617188 14.785156 L 5.617188 5.4375 C 5.617188 5.367188 5.550781 5.273438 5.46875 5.273438 Z M 9.640625 6.464844 C 10.425781 6.464844 11.03125 7.011719 11.03125 8.054688 L 11.03125 12.164062 C 11.03125 13.144531 10.492188 13.75 9.640625 13.75 C 8.816406 13.75 8.273438 13.1875 8.273438 12.164062 L 8.273438 8.054688 C 8.273438 6.984375 8.890625 6.464844 9.640625 6.464844 Z M 9.640625 6.464844 "/>
<path style=" stroke:none;fill-rule:nonzero;fill:rgb(94.901961%,19.215687%,19.215687%);fill-opacity:1;" d="M 80.367188 124.945312 C 82.027344 124.945312 83.164062 123.839844 83.164062 121.890625 L 83.164062 117.925781 C 83.164062 116.011719 82.101562 114.832031 80.375 114.824219 C 78.632812 114.824219 77.554688 116.046875 77.554688 117.925781 L 77.554688 121.890625 C 77.554688 123.839844 78.734375 124.9375 80.375 124.9375 Z M 85.667969 124.726562 C 85.757812 124.726562 85.816406 124.640625 85.816406 124.5625 L 85.816406 115.214844 C 85.816406 115.121094 85.773438 115.050781 85.667969 115.050781 L 84.539062 115.050781 C 84.449219 115.042969 84.390625 115.136719 84.390625 115.214844 L 84.390625 124.5625 C 84.390625 124.632812 84.457031 124.726562 84.539062 124.726562 Z M 80.367188 123.535156 C 79.582031 123.535156 78.976562 122.988281 78.976562 121.945312 L 78.976562 117.835938 C 78.976562 116.855469 79.511719 116.25 80.367188 116.25 C 81.1875 116.25 81.734375 116.8125 81.734375 117.835938 L 81.734375 121.945312 C 81.734375 123.015625 81.113281 123.535156 80.367188 123.535156 Z M 80.367188 123.535156 "/>
</g>
</svg>
