<?xml version="1.0" encoding="UTF-8"?>
<svg xmlns="http://www.w3.org/2000/svg" xmlns:xlink="http://www.w3.org/1999/xlink" width="90px" height="130px" viewBox="0 0 90 130" version="1.1">
<g id="surface1">
<path style="fill-rule:nonzero;fill:rgb(100%,100%,100%);fill-opacity:1;stroke-width:1.8;stroke-linecap:butt;stroke-linejoin:round;stroke:rgb(20%,18.039216%,18.039216%);stroke-opacity:1;stroke-miterlimit:4;" d="M 1986.096929 695.28844 L 2109.695902 695.28844 C 2114.9446 695.28844 2119.200131 699.540801 2119.200131 704.789911 L 2119.200131 899.388834 C 2119.200131 904.637943 2114.9446 908.890304 2109.695902 908.890304 L 1986.096929 908.890304 C 1980.854517 908.890304 1976.598986 904.637943 1976.598986 899.388834 L 1976.598986 704.789911 C 1976.598986 699.540801 1980.854517 695.28844 1986.096929 695.28844 Z M 1986.096929 695.28844 " transform="matrix(0.621434,0,0,0.603525,-1227.634237,-419.080978)"/>
<path style="fill:none;stroke-width:1;stroke-linecap:butt;stroke-linejoin:miter;stroke:rgb(65.098041%,54.901963%,34.901962%);stroke-opacity:1;stroke-miterlimit:4;" d="M 9.999555 6.998808 L 109.997665 6.998808 C 111.658815 6.998808 113.001317 8.345563 113.001317 10.000611 L 113.001317 169.999417 C 113.001317 171.654466 111.658815 173.00122 109.997665 173.00122 L 9.999555 173.00122 C 8.343628 173.00122 7.001126 171.654466 7.001126 169.999417 L 7.001126 10.000611 C 7.001126 8.345563 8.343628 6.998808 9.999555 6.998808 Z M 9.999555 6.998808 " transform="matrix(0.747788,0,0,0.722222,0.135739,-0.00000683341)"/>
<path style=" stroke:none;fill-rule:nonzero;fill:rgb(100%,100%,100%);fill-opacity:1;" d="M 3.878906 4.335938 L 3.878906 28.167969 L 14.347656 28.167969 L 14.347656 4.335938 Z M 3.878906 4.335938 "/>
<path style=" stroke:none;fill-rule:nonzero;fill:rgb(94.901961%,19.215687%,19.215687%);fill-opacity:1;" d="M 26.308594 7.945312 C 28.550781 13.722656 32.289062 17.332031 38.273438 19.5 C 32.585938 21.789062 28.550781 25.277344 26.308594 31.054688 C 23.996094 25.351562 20.167969 21.773438 14.34375 19.5 C 20.324219 17.332031 24.289062 13.679688 26.308594 7.945312 Z M 26.308594 7.945312 "/>
<path style=" stroke:none;fill-rule:nonzero;fill:rgb(94.901961%,19.215687%,19.215687%);fill-opacity:1;" d="M 26.324219 122.054688 C 24.078125 116.277344 20.339844 112.667969 14.359375 110.5 C 20.046875 108.210938 24.078125 104.722656 26.324219 98.945312 C 28.632812 104.648438 32.464844 108.226562 38.289062 110.5 C 32.304688 112.667969 28.34375 116.320312 26.324219 122.054688 Z M 26.324219 122.054688 "/>
<path style=" stroke:none;fill-rule:nonzero;fill:rgb(94.901961%,19.215687%,19.215687%);fill-opacity:1;" d="M 63.699219 7.945312 C 65.941406 13.722656 69.679688 17.332031 75.664062 19.5 C 69.976562 21.789062 65.941406 25.277344 63.699219 31.054688 C 61.386719 25.351562 57.554688 21.773438 51.734375 19.5 C 57.714844 17.332031 61.675781 13.679688 63.699219 7.945312 Z M 63.699219 7.945312 "/>
<path style=" stroke:none;fill-rule:nonzero;fill:rgb(94.901961%,19.215687%,19.215687%);fill-opacity:1;" d="M 63.710938 122.054688 C 61.46875 116.277344 57.730469 112.667969 51.746094 110.5 C 57.4375 108.210938 61.46875 104.722656 63.710938 98.945312 C 66.023438 104.648438 69.855469 108.226562 75.675781 110.5 C 69.695312 112.667969 65.734375 116.320312 63.710938 122.054688 Z M 63.710938 122.054688 "/>
<path style=" stroke:none;fill-rule:nonzero;fill:rgb(94.901961%,19.215687%,19.215687%);fill-opacity:1;" d="M 26.308594 53.445312 C 28.550781 59.222656 32.289062 62.832031 38.273438 65 C 32.585938 67.289062 28.550781 70.777344 26.308594 76.554688 C 23.996094 70.851562 20.167969 67.273438 14.34375 65 C 20.324219 62.832031 24.289062 59.179688 26.308594 53.445312 Z M 26.308594 53.445312 "/>
<path style=" stroke:none;fill-rule:nonzero;fill:rgb(94.901961%,19.215687%,19.215687%);fill-opacity:1;" d="M 63.699219 53.445312 C 65.941406 59.222656 69.679688 62.832031 75.664062 65 C 69.976562 67.289062 65.941406 70.777344 63.699219 76.554688 C 61.386719 70.851562 57.554688 67.273438 51.734375 65 C 57.714844 62.832031 61.675781 59.179688 63.699219 53.445312 Z M 63.699219 53.445312 "/>
<path style=" stroke:none;fill-rule:nonzero;fill:rgb(94.901961%,19.215687%,19.215687%);fill-opacity:1;" d="M 8.183594 17.585938 C 9.023438 19.753906 10.425781 21.105469 12.667969 21.917969 C 10.535156 22.777344 9.023438 24.085938 8.183594 26.253906 C 7.316406 24.113281 5.878906 22.773438 3.695312 21.917969 C 5.9375 21.105469 7.425781 19.738281 8.183594 17.585938 Z M 8.183594 17.585938 "/>
<path style=" stroke:none;fill-rule:nonzero;fill:rgb(100%,100%,100%);fill-opacity:1;" d="M 86.128906 125.664062 L 86.128906 101.832031 L 75.660156 101.832031 L 75.660156 125.664062 Z M 86.128906 125.664062 "/>
<path style=" stroke:none;fill-rule:nonzero;fill:rgb(94.901961%,19.215687%,19.215687%);fill-opacity:1;" d="M 81.890625 112.417969 C 81.046875 110.253906 79.648438 108.898438 77.402344 108.085938 C 79.535156 107.226562 81.046875 105.917969 81.890625 103.753906 C 82.757812 105.890625 84.191406 107.234375 86.375 108.085938 C 84.132812 108.898438 82.648438 110.269531 81.890625 112.417969 Z M 81.890625 112.417969 "/>
<path style=" stroke:none;fill-rule:nonzero;fill:rgb(94.901961%,19.215687%,19.215687%);fill-opacity:1;" d="M 5.042969 11.96875 L 5.042969 7.5625 C 5.042969 6.039062 6.269531 4.945312 8.242188 4.945312 C 10.042969 4.945312 11.367188 5.914062 11.367188 7.488281 L 11.367188 7.808594 C 11.367188 7.929688 11.253906 7.980469 11.1875 7.980469 L 9.8125 7.980469 C 9.722656 7.980469 9.632812 7.894531 9.632812 7.808594 L 9.632812 7.707031 C 9.632812 6.953125 9.101562 6.390625 8.242188 6.390625 C 7.34375 6.390625 6.777344 6.984375 6.777344 7.765625 L 6.777344 9.351562 C 6.777344 9.410156 6.828125 9.433594 6.867188 9.394531 C 7.292969 8.992188 7.875 8.789062 8.617188 8.789062 C 10.433594 8.789062 11.621094 9.972656 11.621094 11.980469 C 11.621094 14.140625 10.214844 15.273438 8.347656 15.273438 C 6.671875 15.273438 5.042969 14.335938 5.042969 11.96875 Z M 6.777344 12.054688 C 6.777344 12.589844 6.925781 13.816406 8.316406 13.816406 C 9.789062 13.816406 9.886719 12.378906 9.886719 12.011719 C 9.886719 11.078125 9.4375 10.203125 8.332031 10.203125 C 6.964844 10.203125 6.777344 11.398438 6.777344 12.054688 Z M 6.777344 12.054688 "/>
<path style=" stroke:none;fill-rule:nonzero;fill:rgb(94.901961%,19.215687%,19.215687%);fill-opacity:1;" d="M 84.964844 118.03125 L 84.964844 122.4375 C 84.964844 123.960938 83.738281 125.054688 81.765625 125.054688 C 79.960938 125.054688 78.636719 124.085938 78.636719 122.511719 L 78.636719 122.191406 C 78.636719 122.070312 78.75 122.019531 78.816406 122.019531 L 80.195312 122.019531 C 80.285156 122.019531 80.375 122.105469 80.375 122.191406 L 80.375 122.292969 C 80.375 123.046875 80.902344 123.609375 81.765625 123.609375 C 82.660156 123.609375 83.230469 123.015625 83.230469 122.234375 L 83.230469 120.648438 C 83.230469 120.589844 83.175781 120.566406 83.140625 120.605469 C 82.714844 121.007812 82.128906 121.210938 81.390625 121.210938 C 79.574219 121.210938 78.382812 120.027344 78.382812 118.019531 C 78.382812 115.859375 79.789062 114.726562 81.660156 114.726562 C 83.335938 114.726562 84.964844 115.664062 84.964844 118.03125 Z M 83.230469 117.945312 C 83.230469 117.410156 83.082031 116.183594 81.6875 116.183594 C 80.214844 116.183594 80.117188 117.621094 80.117188 117.988281 C 80.117188 118.921875 80.566406 119.796875 81.675781 119.796875 C 83.042969 119.796875 83.230469 118.601562 83.230469 117.945312 Z M 83.230469 117.945312 "/>
</g>
</svg>
