<?xml version="1.0" encoding="UTF-8"?>
<svg xmlns="http://www.w3.org/2000/svg" xmlns:xlink="http://www.w3.org/1999/xlink" width="90px" height="130px" viewBox="0 0 90 130" version="1.1">
<g id="surface1">
<path style="fill-rule:nonzero;fill:rgb(100%,100%,100%);fill-opacity:1;stroke-width:1.8;stroke-linecap:butt;stroke-linejoin:round;stroke:rgb(20%,18.039216%,18.039216%);stroke-opacity:1;stroke-miterlimit:4;" d="M 1986.096936 695.28844 L 2109.69591 695.28844 C 2114.944607 695.28844 2119.200138 699.540801 2119.200138 704.789911 L 2119.200138 899.388834 C 2119.200138 904.637943 2114.944607 908.890304 2109.69591 908.890304 L 1986.096936 908.890304 C 1980.854524 908.890304 1976.598994 904.637943 1976.598994 899.388834 L 1976.598994 704.789911 C 1976.598994 699.540801 1980.854524 695.28844 1986.096936 695.28844 Z M 1986.096936 695.28844 " transform="matrix(0.621434,0,0,0.603525,-1227.634242,-419.080978)"/>
<path style="fill:none;stroke-width:1;stroke-linecap:butt;stroke-linejoin:miter;stroke:rgb(65.098041%,54.901963%,34.901962%);stroke-opacity:1;stroke-miterlimit:4;" d="M 9.999561 6.998808 L 109.997671 6.998808 C 111.658821 6.998808 113.001323 8.345563 113.001323 10.000611 L 113.001323 169.999417 C 113.001323 171.654466 111.658821 173.00122 109.997671 173.00122 L 9.999561 173.00122 C 8.343634 173.00122 7.001133 171.654466 7.001133 169.999417 L 7.001133 10.000611 C 7.001133 8.345563 8.343634 6.998808 9.999561 6.998808 Z M 9.999561 6.998808 " transform="matrix(0.747788,0,0,0.722222,0.135734,-0.00000683341)"/>
<path style=" stroke:none;fill-rule:nonzero;fill:rgb(100%,100%,100%);fill-opacity:1;" d="M 3.878906 4.335938 L 3.878906 28.167969 L 14.347656 28.167969 L 14.347656 4.335938 Z M 3.878906 4.335938 "/>
<path style=" stroke:none;fill-rule:nonzero;fill:rgb(94.901961%,19.215687%,19.215687%);fill-opacity:1;" d="M 26.308594 7.945312 C 28.550781 13.722656 32.289062 17.332031 38.273438 19.5 C 32.585938 21.789062 28.550781 25.277344 26.308594 31.054688 C 23.996094 25.351562 20.167969 21.773438 14.34375 19.5 C 20.324219 17.332031 24.289062 13.679688 26.308594 7.945312 Z M 26.308594 7.945312 "/>
<path style=" stroke:none;fill-rule:nonzero;fill:rgb(94.901961%,19.215687%,19.215687%);fill-opacity:1;" d="M 26.324219 122.054688 C 24.078125 116.277344 20.339844 112.667969 14.359375 110.5 C 20.046875 108.210938 24.078125 104.722656 26.324219 98.945312 C 28.632812 104.648438 32.464844 108.226562 38.289062 110.5 C 32.304688 112.667969 28.34375 116.320312 26.324219 122.054688 Z M 26.324219 122.054688 "/>
<path style=" stroke:none;fill-rule:nonzero;fill:rgb(94.901961%,19.215687%,19.215687%);fill-opacity:1;" d="M 63.699219 7.945312 C 65.941406 13.722656 69.679688 17.332031 75.664062 19.5 C 69.972656 21.789062 65.941406 25.277344 63.699219 31.054688 C 61.386719 25.351562 57.554688 21.773438 51.734375 19.5 C 57.714844 17.332031 61.675781 13.679688 63.699219 7.945312 Z M 63.699219 7.945312 "/>
<path style=" stroke:none;fill-rule:nonzero;fill:rgb(94.901961%,19.215687%,19.215687%);fill-opacity:1;" d="M 63.710938 122.054688 C 61.46875 116.277344 57.730469 112.667969 51.746094 110.5 C 57.4375 108.210938 61.46875 104.722656 63.710938 98.945312 C 66.023438 104.648438 69.855469 108.226562 75.675781 110.5 C 69.695312 112.667969 65.734375 116.320312 63.710938 122.054688 Z M 63.710938 122.054688 "/>
<path style=" stroke:none;fill-rule:nonzero;fill:rgb(94.901961%,19.215687%,19.215687%);fill-opacity:1;" d="M 26.308594 53.445312 C 28.550781 59.222656 32.289062 62.832031 38.273438 65 C 32.585938 67.289062 28.550781 70.777344 26.308594 76.554688 C 23.996094 70.851562 20.167969 67.273438 14.34375 65 C 20.324219 62.832031 24.289062 59.179688 26.308594 53.445312 Z M 26.308594 53.445312 "/>
<path style=" stroke:none;fill-rule:nonzero;fill:rgb(94.901961%,19.215687%,19.215687%);fill-opacity:1;" d="M 63.699219 53.445312 C 65.941406 59.222656 69.679688 62.832031 75.664062 65 C 69.972656 67.289062 65.941406 70.777344 63.699219 76.554688 C 61.386719 70.851562 57.554688 67.273438 51.734375 65 C 57.714844 62.832031 61.675781 59.179688 63.699219 53.445312 Z M 63.699219 53.445312 "/>
<path style=" stroke:none;fill-rule:nonzero;fill:rgb(94.901961%,19.215687%,19.215687%);fill-opacity:1;" d="M 45.003906 30.695312 C 47.246094 36.472656 50.984375 40.082031 56.96875 42.25 C 51.28125 44.539062 47.246094 48.027344 45.003906 53.804688 C 42.691406 48.101562 38.863281 44.523438 33.039062 42.25 C 39.019531 40.082031 42.984375 36.429688 45.003906 30.695312 Z M 45.003906 30.695312 "/>
<path style=" stroke:none;fill-rule:nonzero;fill:rgb(94.901961%,19.215687%,19.215687%);fill-opacity:1;" d="M 8.183594 17.585938 C 9.023438 19.753906 10.425781 21.105469 12.667969 21.917969 C 10.535156 22.777344 9.023438 24.085938 8.183594 26.253906 C 7.316406 24.113281 5.878906 22.773438 3.695312 21.917969 C 5.9375 21.105469 7.425781 19.738281 8.183594 17.585938 Z M 8.183594 17.585938 "/>
<path style=" stroke:none;fill-rule:nonzero;fill:rgb(100%,100%,100%);fill-opacity:1;" d="M 86.128906 125.664062 L 86.128906 101.832031 L 75.660156 101.832031 L 75.660156 125.664062 Z M 86.128906 125.664062 "/>
<path style=" stroke:none;fill-rule:nonzero;fill:rgb(94.901961%,19.215687%,19.215687%);fill-opacity:1;" d="M 81.890625 112.417969 C 81.046875 110.253906 79.644531 108.898438 77.402344 108.085938 C 79.535156 107.226562 81.046875 105.917969 81.890625 103.753906 C 82.757812 105.890625 84.191406 107.234375 86.375 108.085938 C 84.132812 108.898438 82.648438 110.269531 81.890625 112.417969 Z M 81.890625 112.417969 "/>
<path style=" stroke:none;fill-rule:nonzero;fill:rgb(94.901961%,19.215687%,19.215687%);fill-opacity:1;" d="M 6.632812 15.238281 C 6.484375 15.238281 6.433594 15.175781 6.484375 15.035156 L 9.789062 6.660156 C 9.8125 6.601562 9.789062 6.570312 9.730469 6.570312 L 6.515625 6.570312 C 6.460938 6.570312 6.441406 6.59375 6.441406 6.644531 L 6.441406 7.292969 C 6.441406 7.359375 6.386719 7.46875 6.261719 7.46875 L 5.183594 7.46875 C 5.019531 7.46875 5.003906 7.34375 5.003906 7.292969 L 5.003906 5.300781 C 5.003906 5.179688 5.117188 5.128906 5.183594 5.128906 L 11.480469 5.128906 C 11.570312 5.128906 11.660156 5.214844 11.660156 5.300781 L 11.660156 6.457031 C 11.660156 6.515625 11.644531 6.585938 11.613281 6.671875 L 8.324219 15.09375 C 8.292969 15.1875 8.226562 15.238281 8.113281 15.238281 Z M 6.632812 15.238281 "/>
<path style=" stroke:none;fill-rule:nonzero;fill:rgb(94.901961%,19.215687%,19.215687%);fill-opacity:1;" d="M 83.371094 114.761719 C 83.523438 114.761719 83.574219 114.824219 83.523438 114.964844 L 80.214844 123.339844 C 80.195312 123.398438 80.214844 123.429688 80.277344 123.429688 L 83.492188 123.429688 C 83.542969 123.429688 83.566406 123.40625 83.566406 123.355469 L 83.566406 122.707031 C 83.566406 122.640625 83.617188 122.53125 83.746094 122.53125 L 84.824219 122.53125 C 84.988281 122.53125 85.003906 122.65625 85.003906 122.707031 L 85.003906 124.699219 C 85.003906 124.820312 84.890625 124.871094 84.824219 124.871094 L 78.527344 124.871094 C 78.4375 124.871094 78.347656 124.785156 78.347656 124.699219 L 78.347656 123.542969 C 78.347656 123.484375 78.363281 123.414062 78.390625 123.328125 L 81.683594 114.90625 C 81.710938 114.8125 81.777344 114.761719 81.890625 114.761719 Z M 83.371094 114.761719 "/>
</g>
</svg>
