<?xml version="1.0" encoding="UTF-8"?>
<svg xmlns="http://www.w3.org/2000/svg" xmlns:xlink="http://www.w3.org/1999/xlink" width="90px" height="130px" viewBox="0 0 90 130" version="1.1">
<g id="surface1">
<path style="fill-rule:nonzero;fill:rgb(100%,100%,100%);fill-opacity:1;stroke-width:1.8;stroke-linecap:butt;stroke-linejoin:round;stroke:rgb(20%,18.039216%,18.039216%);stroke-opacity:1;stroke-miterlimit:4;" d="M 1986.096906 695.28844 L 2109.695879 695.28844 C 2114.944577 695.28844 2119.200108 699.540801 2119.200108 704.789911 L 2119.200108 899.388834 C 2119.200108 904.637943 2114.944577 908.890304 2109.695879 908.890304 L 1986.096906 908.890304 C 1980.854494 908.890304 1976.598963 904.637943 1976.598963 899.388834 L 1976.598963 704.789911 C 1976.598963 699.540801 1980.854494 695.28844 1986.096906 695.28844 Z M 1986.096906 695.28844 " transform="matrix(0.621434,0,0,0.603525,-1227.634223,-419.080978)"/>
<path style="fill:none;stroke-width:1;stroke-linecap:butt;stroke-linejoin:miter;stroke:rgb(65.098041%,54.901963%,34.901962%);stroke-opacity:1;stroke-miterlimit:4;" d="M 9.999536 6.998808 L 109.997646 6.998808 C 111.658796 6.998808 113.001298 8.345563 113.001298 10.000611 L 113.001298 169.999417 C 113.001298 171.654466 111.658796 173.00122 109.997646 173.00122 L 9.999536 173.00122 C 8.343609 173.00122 7.001107 171.654466 7.001107 169.999417 L 7.001107 10.000611 C 7.001107 8.345563 8.343609 6.998808 9.999536 6.998808 Z M 9.999536 6.998808 " transform="matrix(0.747788,0,0,0.722222,0.135753,-0.00000683341)"/>
<path style=" stroke:none;fill-rule:nonzero;fill:rgb(100%,100%,100%);fill-opacity:1;" d="M 3.878906 4.335938 L 3.878906 28.167969 L 14.347656 28.167969 L 14.347656 4.335938 Z M 3.878906 4.335938 "/>
<path style=" stroke:none;fill-rule:nonzero;fill:rgb(94.901961%,19.215687%,19.215687%);fill-opacity:1;" d="M 45.003906 7.945312 C 47.246094 13.722656 50.984375 17.332031 56.96875 19.5 C 51.28125 21.789062 47.246094 25.277344 45.003906 31.054688 C 42.691406 25.351562 38.863281 21.773438 33.039062 19.5 C 39.019531 17.332031 42.984375 13.679688 45.003906 7.945312 Z M 45.003906 7.945312 "/>
<path style=" stroke:none;fill-rule:nonzero;fill:rgb(94.901961%,19.215687%,19.215687%);fill-opacity:1;" d="M 45.003906 122.054688 C 42.757812 116.277344 39.019531 112.667969 33.039062 110.5 C 38.726562 108.210938 42.757812 104.722656 45.003906 98.945312 C 47.3125 104.648438 51.144531 108.226562 56.96875 110.5 C 50.984375 112.667969 47.023438 116.320312 45.003906 122.054688 Z M 45.003906 122.054688 "/>
<path style=" stroke:none;fill-rule:nonzero;fill:rgb(94.901961%,19.215687%,19.215687%);fill-opacity:1;" d="M 45.003906 53.445312 C 47.246094 59.222656 50.984375 62.832031 56.96875 65 C 51.28125 67.289062 47.246094 70.777344 45.003906 76.554688 C 42.691406 70.851562 38.863281 67.273438 33.039062 65 C 39.019531 62.832031 42.984375 59.179688 45.003906 53.445312 Z M 45.003906 53.445312 "/>
<path style=" stroke:none;fill-rule:nonzero;fill:rgb(94.901961%,19.215687%,19.215687%);fill-opacity:1;" d="M 8.183594 17.585938 C 9.023438 19.753906 10.425781 21.105469 12.667969 21.917969 C 10.535156 22.777344 9.023438 24.085938 8.183594 26.253906 C 7.316406 24.113281 5.878906 22.773438 3.695312 21.917969 C 5.9375 21.105469 7.425781 19.738281 8.183594 17.585938 Z M 8.183594 17.585938 "/>
<path style=" stroke:none;fill-rule:nonzero;fill:rgb(100%,100%,100%);fill-opacity:1;" d="M 86.128906 125.664062 L 86.128906 101.832031 L 75.660156 101.832031 L 75.660156 125.664062 Z M 86.128906 125.664062 "/>
<path style=" stroke:none;fill-rule:nonzero;fill:rgb(94.901961%,19.215687%,19.215687%);fill-opacity:1;" d="M 81.890625 112.417969 C 81.046875 110.253906 79.648438 108.898438 77.402344 108.085938 C 79.535156 107.226562 81.046875 105.917969 81.890625 103.753906 C 82.757812 105.890625 84.191406 107.234375 86.375 108.085938 C 84.132812 108.898438 82.648438 110.269531 81.890625 112.417969 Z M 81.890625 112.417969 "/>
<path style=" stroke:none;fill-rule:nonzero;fill:rgb(94.901961%,19.215687%,19.215687%);fill-opacity:1;" d="M 11.628906 11.929688 C 11.628906 13.6875 10.628906 15.246094 8.324219 15.246094 C 6.835938 15.246094 5.132812 14.421875 5.035156 12.089844 C 5.035156 11.972656 5.09375 11.917969 5.214844 11.917969 L 6.605469 11.917969 C 6.722656 11.917969 6.785156 11.972656 6.785156 12.089844 C 6.828125 12.789062 7.105469 13.808594 8.324219 13.808594 C 9.683594 13.808594 9.878906 12.566406 9.878906 11.867188 C 9.878906 10.636719 9.386719 9.859375 8.308594 9.859375 C 8.136719 9.859375 7.914062 9.953125 7.621094 10.148438 C 7.53125 10.191406 7.457031 10.199219 7.367188 10.089844 L 6.679688 9.171875 C 6.597656 9.0625 6.640625 8.976562 6.695312 8.925781 L 9.160156 6.601562 C 9.199219 6.566406 9.175781 6.515625 9.117188 6.515625 L 5.378906 6.515625 C 5.332031 6.515625 5.199219 6.5 5.199219 6.339844 L 5.199219 5.25 C 5.199219 5.128906 5.308594 5.078125 5.378906 5.078125 L 11.34375 5.078125 C 11.433594 5.078125 11.523438 5.164062 11.523438 5.25 L 11.523438 6.5 C 11.523438 6.585938 11.496094 6.660156 11.433594 6.714844 L 9.296875 8.78125 C 9.257812 8.816406 9.273438 8.847656 9.355469 8.867188 C 11.082031 9.101562 11.628906 10.601562 11.628906 11.929688 Z M 11.628906 11.929688 "/>
<path style=" stroke:none;fill-rule:nonzero;fill:rgb(94.901961%,19.215687%,19.215687%);fill-opacity:1;" d="M 78.375 118.070312 C 78.375 116.3125 79.378906 114.753906 81.683594 114.753906 C 83.171875 114.753906 84.875 115.578125 84.972656 117.910156 C 84.972656 118.027344 84.914062 118.082031 84.792969 118.082031 L 83.402344 118.082031 C 83.28125 118.082031 83.222656 118.027344 83.222656 117.910156 C 83.175781 117.210938 82.902344 116.191406 81.683594 116.191406 C 80.320312 116.191406 80.125 117.433594 80.125 118.132812 C 80.125 119.363281 80.621094 120.140625 81.695312 120.140625 C 81.867188 120.140625 82.09375 120.046875 82.386719 119.851562 C 82.476562 119.808594 82.550781 119.800781 82.640625 119.910156 L 83.328125 120.828125 C 83.410156 120.9375 83.363281 121.023438 83.3125 121.074219 L 80.84375 123.398438 C 80.808594 123.433594 80.828125 123.484375 80.890625 123.484375 L 84.628906 123.484375 C 84.671875 123.484375 84.808594 123.5 84.808594 123.660156 L 84.808594 124.75 C 84.808594 124.871094 84.695312 124.921875 84.628906 124.921875 L 78.660156 124.921875 C 78.570312 124.921875 78.480469 124.835938 78.480469 124.75 L 78.480469 123.5 C 78.480469 123.414062 78.511719 123.339844 78.570312 123.285156 L 80.710938 121.21875 C 80.746094 121.183594 80.730469 121.152344 80.648438 121.132812 C 78.921875 120.898438 78.375 119.398438 78.375 118.070312 Z M 78.375 118.070312 "/>
</g>
</svg>
