<?xml version="1.0" encoding="UTF-8"?>
<svg xmlns="http://www.w3.org/2000/svg" xmlns:xlink="http://www.w3.org/1999/xlink" width="90px" height="130px" viewBox="0 0 90 130" version="1.1">
<g id="surface1">
<path style="fill-rule:nonzero;fill:rgb(100%,100%,100%);fill-opacity:1;stroke-width:1.8;stroke-linecap:butt;stroke-linejoin:round;stroke:rgb(20%,18.039216%,18.039216%);stroke-opacity:1;stroke-miterlimit:4;" d="M 1986.096951 695.28844 L 2109.695925 695.28844 C 2114.944623 695.28844 2119.200153 699.540801 2119.200153 704.789911 L 2119.200153 899.388834 C 2119.200153 904.637943 2114.944623 908.890304 2109.695925 908.890304 L 1986.096951 908.890304 C 1980.85454 908.890304 1976.599009 904.637943 1976.599009 899.388834 L 1976.599009 704.789911 C 1976.599009 699.540801 1980.85454 695.28844 1986.096951 695.28844 Z M 1986.096951 695.28844 " transform="matrix(0.621434,0,0,0.603525,-1227.634252,-419.080978)"/>
<path style=" stroke:none;fill-rule:nonzero;fill:rgb(94.901961%,19.215687%,19.215687%);fill-opacity:1;" d="M 26.308594 7.945312 C 28.550781 13.722656 32.289062 17.332031 38.273438 19.5 C 32.585938 21.789062 28.550781 25.277344 26.308594 31.054688 C 23.996094 25.351562 20.167969 21.773438 14.34375 19.5 C 20.324219 17.332031 24.289062 13.679688 26.308594 7.945312 Z M 26.308594 7.945312 "/>
<path style=" stroke:none;fill-rule:nonzero;fill:rgb(94.901961%,19.215687%,19.215687%);fill-opacity:1;" d="M 26.324219 122.054688 C 24.078125 116.277344 20.339844 112.667969 14.359375 110.5 C 20.046875 108.210938 24.078125 104.722656 26.324219 98.945312 C 28.632812 104.648438 32.464844 108.226562 38.289062 110.5 C 32.304688 112.667969 28.34375 116.320312 26.324219 122.054688 Z M 26.324219 122.054688 "/>
<path style=" stroke:none;fill-rule:nonzero;fill:rgb(94.901961%,19.215687%,19.215687%);fill-opacity:1;" d="M 63.699219 7.945312 C 65.941406 13.722656 69.679688 17.332031 75.664062 19.5 C 69.972656 21.789062 65.941406 25.277344 63.699219 31.054688 C 61.386719 25.351562 57.554688 21.773438 51.734375 19.5 C 57.714844 17.332031 61.675781 13.679688 63.699219 7.945312 Z M 63.699219 7.945312 "/>
<path style="fill:none;stroke-width:1;stroke-linecap:butt;stroke-linejoin:miter;stroke:rgb(65.098041%,54.901963%,34.901962%);stroke-opacity:1;stroke-miterlimit:4;" d="M 9.999574 6.998808 L 109.997683 6.998808 C 111.658834 6.998808 113.001336 8.345563 113.001336 10.000611 L 113.001336 169.999417 C 113.001336 171.654466 111.658834 173.00122 109.997683 173.00122 L 9.999574 173.00122 C 8.343647 173.00122 7.001145 171.654466 7.001145 169.999417 L 7.001145 10.000611 C 7.001145 8.345563 8.343647 6.998808 9.999574 6.998808 Z M 9.999574 6.998808 " transform="matrix(0.747788,0,0,0.722222,0.135724,-0.00000683341)"/>
<path style=" stroke:none;fill-rule:nonzero;fill:rgb(94.901961%,19.215687%,19.215687%);fill-opacity:1;" d="M 63.710938 122.054688 C 61.46875 116.277344 57.730469 112.667969 51.746094 110.5 C 57.4375 108.210938 61.46875 104.722656 63.710938 98.945312 C 66.023438 104.648438 69.855469 108.226562 75.675781 110.5 C 69.695312 112.667969 65.734375 116.320312 63.710938 122.054688 Z M 63.710938 122.054688 "/>
<path style=" stroke:none;fill-rule:nonzero;fill:rgb(94.901961%,19.215687%,19.215687%);fill-opacity:1;" d="M 26.308594 68.609375 C 28.550781 74.390625 32.289062 78 38.273438 80.167969 C 32.585938 82.457031 28.550781 85.945312 26.308594 91.722656 C 23.996094 86.019531 20.167969 82.441406 14.34375 80.167969 C 20.324219 78 24.289062 74.347656 26.308594 68.609375 Z M 26.308594 68.609375 "/>
<path style=" stroke:none;fill-rule:nonzero;fill:rgb(94.901961%,19.215687%,19.215687%);fill-opacity:1;" d="M 63.699219 68.609375 C 65.941406 74.390625 69.679688 78 75.664062 80.167969 C 69.972656 82.457031 65.941406 85.945312 63.699219 91.722656 C 61.386719 86.019531 57.554688 82.441406 51.734375 80.167969 C 57.714844 78 61.675781 74.347656 63.699219 68.609375 Z M 63.699219 68.609375 "/>
<path style=" stroke:none;fill-rule:nonzero;fill:rgb(94.901961%,19.215687%,19.215687%);fill-opacity:1;" d="M 26.308594 38.277344 C 28.550781 44.054688 32.289062 47.667969 38.273438 49.832031 C 32.585938 52.121094 28.550781 55.609375 26.308594 61.390625 C 23.996094 55.6875 20.167969 52.105469 14.34375 49.832031 C 20.324219 47.667969 24.289062 44.011719 26.308594 38.277344 Z M 26.308594 38.277344 "/>
<path style=" stroke:none;fill-rule:nonzero;fill:rgb(94.901961%,19.215687%,19.215687%);fill-opacity:1;" d="M 63.699219 38.277344 C 65.941406 44.054688 69.679688 47.667969 75.664062 49.832031 C 69.972656 52.121094 65.941406 55.609375 63.699219 61.390625 C 61.386719 55.6875 57.554688 52.105469 51.734375 49.832031 C 57.714844 47.667969 61.675781 44.011719 63.699219 38.277344 Z M 63.699219 38.277344 "/>
<path style=" stroke:none;fill-rule:nonzero;fill:rgb(94.901961%,19.215687%,19.215687%);fill-opacity:1;" d="M 45.003906 53.445312 C 47.246094 59.222656 50.984375 62.832031 56.96875 65 C 51.28125 67.289062 47.246094 70.777344 45.003906 76.554688 C 42.691406 70.851562 38.863281 67.273438 33.039062 65 C 39.019531 62.832031 42.984375 59.179688 45.003906 53.445312 Z M 45.003906 53.445312 "/>
<path style=" stroke:none;fill-rule:nonzero;fill:rgb(100%,100%,100%);fill-opacity:1;" d="M 3.878906 4.335938 L 3.878906 28.167969 L 14.347656 28.167969 L 14.347656 4.335938 Z M 3.878906 4.335938 "/>
<path style=" stroke:none;fill-rule:nonzero;fill:rgb(94.901961%,19.215687%,19.215687%);fill-opacity:1;" d="M 8.183594 17.585938 C 9.023438 19.753906 10.425781 21.105469 12.667969 21.917969 C 10.535156 22.777344 9.023438 24.085938 8.183594 26.253906 C 7.316406 24.113281 5.878906 22.773438 3.695312 21.917969 C 5.9375 21.105469 7.425781 19.738281 8.183594 17.585938 Z M 8.183594 17.585938 "/>
<path style=" stroke:none;fill-rule:nonzero;fill:rgb(100%,100%,100%);fill-opacity:1;" d="M 86.128906 125.664062 L 86.128906 101.832031 L 75.660156 101.832031 L 75.660156 125.664062 Z M 86.128906 125.664062 "/>
<path style=" stroke:none;fill-rule:nonzero;fill:rgb(94.901961%,19.215687%,19.215687%);fill-opacity:1;" d="M 81.890625 112.417969 C 81.046875 110.253906 79.644531 108.898438 77.402344 108.085938 C 79.535156 107.226562 81.046875 105.917969 81.890625 103.753906 C 82.757812 105.890625 84.191406 107.234375 86.375 108.085938 C 84.132812 108.898438 82.648438 110.269531 81.890625 112.417969 Z M 81.890625 112.417969 "/>
<path style=" stroke:none;fill-rule:nonzero;fill:rgb(94.901961%,19.215687%,19.215687%);fill-opacity:1;" d="M 11.621094 8.253906 L 11.621094 12.660156 C 11.621094 14.183594 10.394531 15.273438 8.421875 15.273438 C 6.617188 15.273438 5.296875 14.308594 5.296875 12.734375 L 5.296875 12.414062 C 5.296875 12.292969 5.40625 12.242188 5.476562 12.242188 L 6.851562 12.242188 C 6.941406 12.242188 7.03125 12.328125 7.03125 12.414062 L 7.03125 12.515625 C 7.03125 13.265625 7.5625 13.832031 8.421875 13.832031 C 9.320312 13.832031 9.886719 13.238281 9.886719 12.457031 L 9.886719 10.871094 C 9.886719 10.8125 9.835938 10.789062 9.796875 10.824219 C 9.371094 11.230469 8.789062 11.433594 8.046875 11.433594 C 6.230469 11.433594 5.042969 10.25 5.042969 8.242188 C 5.042969 6.082031 6.445312 4.945312 8.316406 4.945312 C 9.992188 4.945312 11.621094 5.886719 11.621094 8.253906 Z M 9.886719 8.167969 C 9.886719 7.632812 9.738281 6.40625 8.347656 6.40625 C 6.875 6.40625 6.777344 7.84375 6.777344 8.210938 C 6.777344 9.144531 7.226562 10.015625 8.332031 10.015625 C 9.699219 10.015625 9.886719 8.824219 9.886719 8.167969 Z M 9.886719 8.167969 "/>
<path style=" stroke:none;fill-rule:nonzero;fill:rgb(94.901961%,19.215687%,19.215687%);fill-opacity:1;" d="M 78.382812 121.746094 L 78.382812 117.339844 C 78.382812 115.816406 79.609375 114.726562 81.585938 114.726562 C 83.386719 114.726562 84.710938 115.691406 84.710938 117.265625 L 84.710938 117.585938 C 84.710938 117.707031 84.597656 117.757812 84.53125 117.757812 L 83.15625 117.757812 C 83.066406 117.757812 82.976562 117.671875 82.976562 117.585938 L 82.976562 117.484375 C 82.976562 116.734375 82.445312 116.167969 81.585938 116.167969 C 80.6875 116.167969 80.121094 116.761719 80.121094 117.542969 L 80.121094 119.128906 C 80.121094 119.1875 80.171875 119.210938 80.207031 119.175781 C 80.636719 118.769531 81.21875 118.566406 81.957031 118.566406 C 83.777344 118.566406 84.964844 119.75 84.964844 121.757812 C 84.964844 123.917969 83.558594 125.054688 81.6875 125.054688 C 80.015625 125.054688 78.382812 124.113281 78.382812 121.746094 Z M 80.121094 121.832031 C 80.121094 122.367188 80.269531 123.59375 81.660156 123.59375 C 83.132812 123.59375 83.230469 122.15625 83.230469 121.789062 C 83.230469 120.855469 82.78125 119.984375 81.675781 119.984375 C 80.304688 119.984375 80.121094 121.175781 80.121094 121.832031 Z M 80.121094 121.832031 "/>
</g>
</svg>
