<?xml version="1.0" encoding="UTF-8"?>
<svg xmlns="http://www.w3.org/2000/svg" xmlns:xlink="http://www.w3.org/1999/xlink" width="90px" height="130px" viewBox="0 0 90 130" version="1.1">
<g id="surface1">
<path style="fill-rule:nonzero;fill:rgb(100%,100%,100%);fill-opacity:1;stroke-width:1.8;stroke-linecap:butt;stroke-linejoin:round;stroke:rgb(20%,18.039216%,18.039216%);stroke-opacity:1;stroke-miterlimit:4;" d="M 1986.096906 695.288451 L 2109.695879 695.288451 C 2114.944577 695.288451 2119.200108 699.540813 2119.200108 704.789922 L 2119.200108 899.388845 C 2119.200108 904.637954 2114.944577 908.890316 2109.695879 908.890316 L 1986.096906 908.890316 C 1980.854494 908.890316 1976.598963 904.637954 1976.598963 899.388845 L 1976.598963 704.789922 C 1976.598963 699.540813 1980.854494 695.288451 1986.096906 695.288451 Z M 1986.096906 695.288451 " transform="matrix(0.621434,0,0,0.603525,-1227.634223,-419.080985)"/>
<path style="fill:none;stroke-width:1;stroke-linecap:butt;stroke-linejoin:miter;stroke:rgb(65.098041%,54.901963%,34.901962%);stroke-opacity:1;stroke-miterlimit:4;" d="M 9.999536 6.998817 L 109.997646 6.998817 C 111.658796 6.998817 113.001298 8.345572 113.001298 10.00062 L 113.001298 169.999427 C 113.001298 171.654475 111.658796 173.00123 109.997646 173.00123 L 9.999536 173.00123 C 8.343609 173.00123 7.001107 171.654475 7.001107 169.999427 L 7.001107 10.00062 C 7.001107 8.345572 8.343609 6.998817 9.999536 6.998817 Z M 9.999536 6.998817 " transform="matrix(0.747788,0,0,0.722222,0.135753,-0.0000136668)"/>
<path style=" stroke:none;fill-rule:nonzero;fill:rgb(100%,100%,100%);fill-opacity:1;" d="M 3.878906 4.335938 L 3.878906 28.167969 L 14.347656 28.167969 L 14.347656 4.335938 Z M 3.878906 4.335938 "/>
<path style=" stroke:none;fill-rule:nonzero;fill:rgb(94.901961%,19.215687%,19.215687%);fill-opacity:1;" d="M 39.769531 8.304688 C 36.878906 8.304688 34.535156 10.371094 34.535156 13.359375 C 34.53125 19.140625 40.515625 20.582031 45.003906 27.804688 C 49.574219 20.449219 55.398438 19.1875 55.472656 13.359375 C 55.445312 10.371094 53.128906 8.304688 50.238281 8.304688 C 47.484375 8.304688 45.976562 9.964844 45.003906 11.917969 C 44.03125 9.964844 42.523438 8.304688 39.769531 8.304688 Z M 39.769531 8.304688 "/>
<path style=" stroke:none;fill-rule:nonzero;fill:rgb(94.901961%,19.215687%,19.215687%);fill-opacity:1;" d="M 50.238281 121.695312 C 53.128906 121.695312 55.46875 119.628906 55.472656 116.640625 C 55.476562 110.859375 49.488281 109.417969 45.003906 102.195312 C 40.433594 109.550781 34.605469 110.8125 34.535156 116.640625 C 34.5625 119.628906 36.878906 121.695312 39.769531 121.695312 C 42.523438 121.695312 44.03125 120.035156 45.003906 118.082031 C 45.976562 120.035156 47.484375 121.695312 50.238281 121.695312 Z M 50.238281 121.695312 "/>
<path style=" stroke:none;fill-rule:nonzero;fill:rgb(94.901961%,19.215687%,19.215687%);fill-opacity:1;" d="M 39.769531 56.332031 C 36.878906 56.332031 34.535156 58.398438 34.535156 61.390625 C 34.53125 67.167969 40.515625 68.609375 45.003906 75.832031 C 49.574219 68.476562 55.398438 67.214844 55.472656 61.390625 C 55.445312 58.398438 53.128906 56.332031 50.238281 56.332031 C 47.484375 56.332031 45.976562 57.996094 45.003906 59.945312 C 44.03125 57.996094 42.523438 56.335938 39.769531 56.332031 Z M 39.769531 56.332031 "/>
<path style=" stroke:none;fill-rule:nonzero;fill:rgb(94.901961%,19.215687%,19.215687%);fill-opacity:1;" d="M 6.175781 18.027344 C 5.058594 18.027344 4.15625 18.789062 4.15625 19.898438 C 4.15625 22.035156 6.464844 22.570312 8.195312 25.242188 C 9.960938 22.519531 12.210938 22.054688 12.238281 19.898438 C 12.226562 18.789062 11.332031 18.027344 10.21875 18.027344 C 9.152344 18.027344 8.570312 18.640625 8.195312 19.363281 C 7.820312 18.640625 7.238281 18.027344 6.175781 18.027344 Z M 6.175781 18.027344 "/>
<path style=" stroke:none;fill-rule:nonzero;fill:rgb(100%,100%,100%);fill-opacity:1;" d="M 86.128906 125.664062 L 86.128906 101.832031 L 75.660156 101.832031 L 75.660156 125.664062 Z M 86.128906 125.664062 "/>
<path style=" stroke:none;fill-rule:nonzero;fill:rgb(94.901961%,19.215687%,19.215687%);fill-opacity:1;" d="M 83.894531 111.980469 C 85.011719 111.980469 85.914062 111.214844 85.914062 110.109375 C 85.917969 107.972656 83.605469 107.4375 81.875 104.765625 C 80.109375 107.488281 77.863281 107.953125 77.832031 110.109375 C 77.84375 111.214844 78.738281 111.980469 79.855469 111.980469 C 80.917969 111.980469 81.5 111.363281 81.875 110.644531 C 82.25 111.363281 82.832031 111.980469 83.894531 111.980469 Z M 83.894531 111.980469 "/>
<path style=" stroke:none;fill-rule:nonzero;fill:rgb(94.901961%,19.215687%,19.215687%);fill-opacity:1;" d="M 11.628906 11.929688 C 11.628906 13.6875 10.628906 15.246094 8.324219 15.246094 C 6.835938 15.246094 5.132812 14.421875 5.035156 12.089844 C 5.035156 11.972656 5.09375 11.917969 5.214844 11.917969 L 6.605469 11.917969 C 6.722656 11.917969 6.785156 11.972656 6.785156 12.089844 C 6.828125 12.789062 7.105469 13.808594 8.324219 13.808594 C 9.683594 13.808594 9.878906 12.566406 9.878906 11.867188 C 9.878906 10.636719 9.386719 9.859375 8.308594 9.859375 C 8.136719 9.859375 7.914062 9.953125 7.621094 10.148438 C 7.53125 10.191406 7.457031 10.199219 7.367188 10.089844 L 6.679688 9.171875 C 6.597656 9.0625 6.640625 8.976562 6.695312 8.925781 L 9.160156 6.601562 C 9.199219 6.566406 9.175781 6.515625 9.117188 6.515625 L 5.378906 6.515625 C 5.332031 6.515625 5.199219 6.5 5.199219 6.339844 L 5.199219 5.25 C 5.199219 5.128906 5.308594 5.078125 5.378906 5.078125 L 11.34375 5.078125 C 11.433594 5.078125 11.523438 5.164062 11.523438 5.25 L 11.523438 6.5 C 11.523438 6.585938 11.496094 6.660156 11.433594 6.714844 L 9.296875 8.78125 C 9.257812 8.816406 9.273438 8.847656 9.355469 8.867188 C 11.082031 9.101562 11.628906 10.601562 11.628906 11.929688 Z M 11.628906 11.929688 "/>
<path style=" stroke:none;fill-rule:nonzero;fill:rgb(94.901961%,19.215687%,19.215687%);fill-opacity:1;" d="M 78.375 118.070312 C 78.375 116.3125 79.378906 114.753906 81.683594 114.753906 C 83.171875 114.753906 84.875 115.578125 84.972656 117.910156 C 84.972656 118.027344 84.914062 118.082031 84.792969 118.082031 L 83.402344 118.082031 C 83.28125 118.082031 83.222656 118.027344 83.222656 117.910156 C 83.175781 117.210938 82.902344 116.191406 81.683594 116.191406 C 80.320312 116.191406 80.125 117.433594 80.125 118.132812 C 80.125 119.363281 80.621094 120.140625 81.695312 120.140625 C 81.867188 120.140625 82.09375 120.046875 82.386719 119.851562 C 82.476562 119.808594 82.550781 119.800781 82.640625 119.910156 L 83.328125 120.828125 C 83.410156 120.9375 83.363281 121.023438 83.3125 121.074219 L 80.84375 123.398438 C 80.808594 123.433594 80.828125 123.484375 80.890625 123.484375 L 84.628906 123.484375 C 84.671875 123.484375 84.808594 123.5 84.808594 123.660156 L 84.808594 124.75 C 84.808594 124.871094 84.695312 124.921875 84.628906 124.921875 L 78.660156 124.921875 C 78.570312 124.921875 78.480469 124.835938 78.480469 124.75 L 78.480469 123.5 C 78.480469 123.414062 78.511719 123.339844 78.570312 123.285156 L 80.710938 121.21875 C 80.746094 121.183594 80.730469 121.152344 80.648438 121.132812 C 78.921875 120.898438 78.375 119.398438 78.375 118.070312 Z M 78.375 118.070312 "/>
</g>
</svg>
