<?xml version="1.0" encoding="UTF-8"?>
<svg xmlns="http://www.w3.org/2000/svg" xmlns:xlink="http://www.w3.org/1999/xlink" width="90px" height="130px" viewBox="0 0 90 130" version="1.1">
<g id="surface1">
<path style="fill-rule:nonzero;fill:rgb(100%,100%,100%);fill-opacity:1;stroke-width:1.8;stroke-linecap:butt;stroke-linejoin:round;stroke:rgb(20%,18.039216%,18.039216%);stroke-opacity:1;stroke-miterlimit:4;" d="M 1986.096936 695.288451 L 2109.69591 695.288451 C 2114.944607 695.288451 2119.200138 699.540813 2119.200138 704.789922 L 2119.200138 899.388845 C 2119.200138 904.637954 2114.944607 908.890316 2109.69591 908.890316 L 1986.096936 908.890316 C 1980.854524 908.890316 1976.598994 904.637954 1976.598994 899.388845 L 1976.598994 704.789922 C 1976.598994 699.540813 1980.854524 695.288451 1986.096936 695.288451 Z M 1986.096936 695.288451 " transform="matrix(0.621434,0,0,0.603525,-1227.634242,-419.080985)"/>
<path style="fill:none;stroke-width:1;stroke-linecap:butt;stroke-linejoin:miter;stroke:rgb(65.098041%,54.901963%,34.901962%);stroke-opacity:1;stroke-miterlimit:4;" d="M 9.999561 6.998817 L 109.997671 6.998817 C 111.658821 6.998817 113.001323 8.345572 113.001323 10.00062 L 113.001323 169.999427 C 113.001323 171.654475 111.658821 173.00123 109.997671 173.00123 L 9.999561 173.00123 C 8.343634 173.00123 7.001133 171.654475 7.001133 169.999427 L 7.001133 10.00062 C 7.001133 8.345572 8.343634 6.998817 9.999561 6.998817 Z M 9.999561 6.998817 " transform="matrix(0.747788,0,0,0.722222,0.135734,-0.0000136668)"/>
<path style=" stroke:none;fill-rule:nonzero;fill:rgb(94.901961%,19.215687%,19.215687%);fill-opacity:1;" d="M 21.074219 8.304688 C 18.183594 8.304688 15.839844 10.371094 15.839844 13.359375 C 15.835938 19.140625 21.820312 20.582031 26.308594 27.804688 C 30.878906 20.449219 36.707031 19.1875 36.777344 13.359375 C 36.75 10.371094 34.433594 8.304688 31.542969 8.304688 C 28.789062 8.304688 27.28125 9.964844 26.308594 11.917969 C 25.335938 9.964844 23.828125 8.304688 21.074219 8.304688 Z M 21.074219 8.304688 "/>
<path style=" stroke:none;fill-rule:nonzero;fill:rgb(94.901961%,19.215687%,19.215687%);fill-opacity:1;" d="M 31.542969 121.695312 C 34.433594 121.695312 36.777344 119.628906 36.777344 116.640625 C 36.78125 110.859375 30.796875 109.417969 26.308594 102.195312 C 21.738281 109.550781 15.910156 110.8125 15.839844 116.640625 C 15.867188 119.628906 18.183594 121.695312 21.074219 121.695312 C 23.828125 121.695312 25.335938 120.035156 26.308594 118.082031 C 27.28125 120.035156 28.789062 121.695312 31.542969 121.695312 Z M 31.542969 121.695312 "/>
<path style=" stroke:none;fill-rule:nonzero;fill:rgb(94.901961%,19.215687%,19.215687%);fill-opacity:1;" d="M 21.074219 56.332031 C 18.183594 56.332031 15.839844 58.398438 15.839844 61.390625 C 15.835938 67.167969 21.820312 68.609375 26.308594 75.832031 C 30.878906 68.476562 36.707031 67.214844 36.777344 61.390625 C 36.75 58.398438 34.433594 56.332031 31.542969 56.332031 C 28.789062 56.332031 27.28125 57.996094 26.308594 59.945312 C 25.335938 57.996094 23.828125 56.335938 21.074219 56.332031 Z M 21.074219 56.332031 "/>
<path style=" stroke:none;fill-rule:nonzero;fill:rgb(94.901961%,19.215687%,19.215687%);fill-opacity:1;" d="M 58.464844 8.304688 C 55.570312 8.304688 53.230469 10.371094 53.230469 13.359375 C 53.226562 19.140625 59.210938 20.582031 63.699219 27.804688 C 68.269531 20.449219 74.09375 19.1875 74.167969 13.359375 C 74.136719 10.371094 71.824219 8.304688 68.933594 8.304688 C 66.175781 8.304688 64.667969 9.964844 63.699219 11.917969 C 62.726562 9.964844 61.21875 8.304688 58.464844 8.304688 Z M 58.464844 8.304688 "/>
<path style=" stroke:none;fill-rule:nonzero;fill:rgb(94.901961%,19.215687%,19.215687%);fill-opacity:1;" d="M 68.933594 121.695312 C 71.824219 121.695312 74.164062 119.628906 74.167969 116.640625 C 74.167969 110.859375 68.183594 109.417969 63.699219 102.195312 C 59.125 109.550781 53.300781 110.8125 53.230469 116.640625 C 53.257812 119.628906 55.570312 121.695312 58.464844 121.695312 C 61.21875 121.695312 62.726562 120.035156 63.699219 118.082031 C 64.667969 120.035156 66.175781 121.695312 68.933594 121.695312 Z M 68.933594 121.695312 "/>
<path style=" stroke:none;fill-rule:nonzero;fill:rgb(94.901961%,19.215687%,19.215687%);fill-opacity:1;" d="M 58.464844 56.332031 C 55.570312 56.332031 53.230469 58.398438 53.230469 61.390625 C 53.226562 67.167969 59.210938 68.609375 63.699219 75.832031 C 68.269531 68.476562 74.09375 67.214844 74.167969 61.390625 C 74.136719 58.398438 71.824219 56.332031 68.933594 56.332031 C 66.175781 56.332031 64.667969 57.996094 63.699219 59.945312 C 62.726562 57.996094 61.21875 56.335938 58.464844 56.332031 Z M 58.464844 56.332031 "/>
<path style=" stroke:none;fill-rule:nonzero;fill:rgb(94.901961%,19.215687%,19.215687%);fill-opacity:1;" d="M 39.746094 32.320312 C 36.855469 32.320312 34.511719 34.382812 34.511719 37.375 C 34.507812 43.152344 40.492188 44.597656 44.980469 51.820312 C 49.550781 44.460938 55.378906 43.203125 55.449219 37.375 C 55.421875 34.382812 53.105469 32.320312 50.214844 32.320312 C 47.460938 32.320312 45.953125 33.980469 44.980469 35.929688 C 44.007812 33.980469 42.5 32.320312 39.746094 32.320312 Z M 39.746094 32.320312 "/>
<path style=" stroke:none;fill-rule:nonzero;fill:rgb(100%,100%,100%);fill-opacity:1;" d="M 3.878906 4.335938 L 3.878906 28.167969 L 14.347656 28.167969 L 14.347656 4.335938 Z M 3.878906 4.335938 "/>
<path style=" stroke:none;fill-rule:nonzero;fill:rgb(94.901961%,19.215687%,19.215687%);fill-opacity:1;" d="M 6.175781 18.027344 C 5.058594 18.027344 4.15625 18.789062 4.15625 19.898438 C 4.15625 22.035156 6.464844 22.570312 8.195312 25.242188 C 9.960938 22.519531 12.210938 22.054688 12.238281 19.898438 C 12.226562 18.789062 11.332031 18.027344 10.21875 18.027344 C 9.152344 18.027344 8.570312 18.640625 8.195312 19.363281 C 7.820312 18.640625 7.238281 18.027344 6.175781 18.027344 Z M 6.175781 18.027344 "/>
<path style=" stroke:none;fill-rule:nonzero;fill:rgb(100%,100%,100%);fill-opacity:1;" d="M 86.128906 125.664062 L 86.128906 101.832031 L 75.660156 101.832031 L 75.660156 125.664062 Z M 86.128906 125.664062 "/>
<path style=" stroke:none;fill-rule:nonzero;fill:rgb(94.901961%,19.215687%,19.215687%);fill-opacity:1;" d="M 83.894531 111.980469 C 85.011719 111.980469 85.914062 111.214844 85.914062 110.109375 C 85.917969 107.972656 83.605469 107.4375 81.875 104.765625 C 80.109375 107.488281 77.863281 107.953125 77.832031 110.109375 C 77.84375 111.214844 78.738281 111.980469 79.855469 111.980469 C 80.917969 111.980469 81.5 111.363281 81.875 110.644531 C 82.25 111.363281 82.832031 111.980469 83.894531 111.980469 Z M 83.894531 111.980469 "/>
<path style=" stroke:none;fill-rule:nonzero;fill:rgb(94.901961%,19.215687%,19.215687%);fill-opacity:1;" d="M 6.632812 15.238281 C 6.484375 15.238281 6.433594 15.175781 6.484375 15.035156 L 9.789062 6.660156 C 9.8125 6.601562 9.789062 6.570312 9.730469 6.570312 L 6.515625 6.570312 C 6.460938 6.570312 6.441406 6.59375 6.441406 6.644531 L 6.441406 7.292969 C 6.441406 7.359375 6.386719 7.46875 6.261719 7.46875 L 5.183594 7.46875 C 5.019531 7.46875 5.003906 7.34375 5.003906 7.292969 L 5.003906 5.300781 C 5.003906 5.179688 5.117188 5.128906 5.183594 5.128906 L 11.480469 5.128906 C 11.570312 5.128906 11.660156 5.214844 11.660156 5.300781 L 11.660156 6.457031 C 11.660156 6.515625 11.644531 6.585938 11.613281 6.671875 L 8.324219 15.09375 C 8.292969 15.1875 8.226562 15.238281 8.113281 15.238281 Z M 6.632812 15.238281 "/>
<path style=" stroke:none;fill-rule:nonzero;fill:rgb(94.901961%,19.215687%,19.215687%);fill-opacity:1;" d="M 83.371094 114.761719 C 83.523438 114.761719 83.574219 114.824219 83.523438 114.964844 L 80.214844 123.339844 C 80.195312 123.398438 80.214844 123.429688 80.277344 123.429688 L 83.492188 123.429688 C 83.542969 123.429688 83.566406 123.40625 83.566406 123.355469 L 83.566406 122.707031 C 83.566406 122.640625 83.617188 122.53125 83.746094 122.53125 L 84.824219 122.53125 C 84.988281 122.53125 85.003906 122.65625 85.003906 122.707031 L 85.003906 124.699219 C 85.003906 124.820312 84.890625 124.871094 84.824219 124.871094 L 78.527344 124.871094 C 78.4375 124.871094 78.347656 124.785156 78.347656 124.699219 L 78.347656 123.542969 C 78.347656 123.484375 78.363281 123.414062 78.390625 123.328125 L 81.683594 114.90625 C 81.710938 114.8125 81.777344 114.761719 81.890625 114.761719 Z M 83.371094 114.761719 "/>
</g>
</svg>
