<?xml version="1.0" encoding="UTF-8"?>
<svg xmlns="http://www.w3.org/2000/svg" xmlns:xlink="http://www.w3.org/1999/xlink" width="90px" height="130px" viewBox="0 0 90 130" version="1.1">
<g id="surface1">
<path style="fill-rule:nonzero;fill:rgb(100%,100%,100%);fill-opacity:1;stroke-width:1.8;stroke-linecap:butt;stroke-linejoin:round;stroke:rgb(20%,18.039216%,18.039216%);stroke-opacity:1;stroke-miterlimit:4;" d="M 1986.096907 695.288451 L 2109.69588 695.288451 C 2114.944578 695.288451 2119.200109 699.540813 2119.200109 704.789922 L 2119.200109 899.388845 C 2119.200109 904.637954 2114.944578 908.890316 2109.69588 908.890316 L 1986.096907 908.890316 C 1980.854495 908.890316 1976.598964 904.637954 1976.598964 899.388845 L 1976.598964 704.789922 C 1976.598964 699.540813 1980.854495 695.288451 1986.096907 695.288451 Z M 1986.096907 695.288451 " transform="matrix(0.621434,0,0,0.603525,-1227.634224,-419.080985)"/>
<path style="fill:none;stroke-width:1;stroke-linecap:butt;stroke-linejoin:miter;stroke:rgb(65.098041%,54.901963%,34.901962%);stroke-opacity:1;stroke-miterlimit:4;" d="M 9.999537 6.998817 L 109.997647 6.998817 C 111.658797 6.998817 113.001299 8.345572 113.001299 10.00062 L 113.001299 169.999427 C 113.001299 171.654475 111.658797 173.00123 109.997647 173.00123 L 9.999537 173.00123 C 8.34361 173.00123 7.001108 171.654475 7.001108 169.999427 L 7.001108 10.00062 C 7.001108 8.345572 8.34361 6.998817 9.999537 6.998817 Z M 9.999537 6.998817 " transform="matrix(0.747788,0,0,0.722222,0.135752,-0.0000136668)"/>
<path style=" stroke:none;fill-rule:nonzero;fill:rgb(94.901961%,19.215687%,19.215687%);fill-opacity:1;" d="M 39.769531 8.304688 C 36.878906 8.304688 34.535156 10.371094 34.535156 13.359375 C 34.53125 19.140625 40.515625 20.582031 45.003906 27.804688 C 49.574219 20.449219 55.398438 19.1875 55.472656 13.359375 C 55.445312 10.371094 53.128906 8.304688 50.238281 8.304688 C 47.484375 8.304688 45.976562 9.964844 45.003906 11.917969 C 44.03125 9.964844 42.523438 8.304688 39.769531 8.304688 Z M 39.769531 8.304688 "/>
<path style=" stroke:none;fill-rule:nonzero;fill:rgb(94.901961%,19.215687%,19.215687%);fill-opacity:1;" d="M 50.238281 121.695312 C 53.128906 121.695312 55.46875 119.628906 55.472656 116.640625 C 55.476562 110.859375 49.488281 109.417969 45.003906 102.195312 C 40.433594 109.550781 34.605469 110.8125 34.535156 116.640625 C 34.5625 119.628906 36.878906 121.695312 39.769531 121.695312 C 42.523438 121.695312 44.03125 120.035156 45.003906 118.082031 C 45.976562 120.035156 47.484375 121.695312 50.238281 121.695312 Z M 50.238281 121.695312 "/>
<path style=" stroke:none;fill-rule:nonzero;fill:rgb(100%,100%,100%);fill-opacity:1;" d="M 3.878906 4.335938 L 3.878906 28.167969 L 14.347656 28.167969 L 14.347656 4.335938 Z M 3.878906 4.335938 "/>
<path style=" stroke:none;fill-rule:nonzero;fill:rgb(94.901961%,19.215687%,19.215687%);fill-opacity:1;" d="M 6.175781 18.027344 C 5.058594 18.027344 4.15625 18.789062 4.15625 19.898438 C 4.15625 22.035156 6.464844 22.570312 8.195312 25.242188 C 9.960938 22.519531 12.210938 22.054688 12.238281 19.898438 C 12.226562 18.789062 11.332031 18.027344 10.21875 18.027344 C 9.152344 18.027344 8.570312 18.640625 8.195312 19.363281 C 7.820312 18.640625 7.238281 18.027344 6.175781 18.027344 Z M 6.175781 18.027344 "/>
<path style=" stroke:none;fill-rule:nonzero;fill:rgb(100%,100%,100%);fill-opacity:1;" d="M 86.128906 125.664062 L 86.128906 101.832031 L 75.660156 101.832031 L 75.660156 125.664062 Z M 86.128906 125.664062 "/>
<path style=" stroke:none;fill-rule:nonzero;fill:rgb(94.901961%,19.215687%,19.215687%);fill-opacity:1;" d="M 83.894531 111.980469 C 85.011719 111.980469 85.914062 111.214844 85.914062 110.109375 C 85.917969 107.972656 83.605469 107.4375 81.875 104.765625 C 80.109375 107.488281 77.863281 107.953125 77.832031 110.109375 C 77.84375 111.214844 78.738281 111.980469 79.855469 111.980469 C 80.917969 111.980469 81.5 111.363281 81.875 110.644531 C 82.25 111.363281 82.832031 111.980469 83.894531 111.980469 Z M 83.894531 111.980469 "/>
<path style=" stroke:none;fill-rule:nonzero;fill:rgb(94.901961%,19.215687%,19.215687%);fill-opacity:1;" d="M 7.277344 13.664062 C 7.226562 13.714844 7.246094 13.75 7.308594 13.75 L 11.570312 13.75 C 11.660156 13.75 11.75 13.835938 11.75 13.925781 L 11.75 15.015625 C 11.75 15.078125 11.703125 15.1875 11.570312 15.1875 L 5.136719 15.1875 C 5.085938 15.1875 4.960938 15.175781 4.960938 15.015625 L 4.960938 13.980469 C 4.960938 13.894531 4.988281 13.824219 5.046875 13.765625 C 6.199219 12.589844 7.285156 11.347656 8.382812 10.109375 C 9.296875 9.085938 9.761719 8.304688 9.761719 7.777344 C 9.761719 6.992188 9.132812 6.441406 8.203125 6.441406 C 7.320312 6.441406 6.664062 6.933594 6.664062 7.808594 L 6.664062 8.183594 C 6.664062 8.242188 6.617188 8.355469 6.484375 8.355469 L 5.09375 8.355469 C 4.980469 8.355469 4.914062 8.292969 4.914062 8.183594 L 4.914062 7.5625 C 4.972656 5.945312 6.433594 5.003906 8.203125 5.003906 C 10.335938 5.003906 11.507812 6.285156 11.507812 7.75 C 11.507812 8.535156 11.074219 9.4375 10.207031 10.464844 C 9.273438 11.570312 8.265625 12.601562 7.277344 13.65625 Z M 7.277344 13.664062 "/>
<path style=" stroke:none;fill-rule:nonzero;fill:rgb(94.901961%,19.215687%,19.215687%);fill-opacity:1;" d="M 82.730469 116.335938 C 82.78125 116.285156 82.757812 116.25 82.699219 116.25 L 78.4375 116.25 C 78.347656 116.25 78.257812 116.164062 78.257812 116.074219 L 78.257812 114.984375 C 78.257812 114.921875 78.300781 114.8125 78.4375 114.8125 L 84.867188 114.8125 C 84.917969 114.8125 85.046875 114.824219 85.046875 114.984375 L 85.046875 116.019531 C 85.046875 116.105469 85.015625 116.175781 84.957031 116.234375 C 83.804688 117.410156 82.722656 118.652344 81.621094 119.890625 C 80.710938 120.914062 80.246094 121.695312 80.246094 122.222656 C 80.246094 123.007812 80.875 123.558594 81.800781 123.558594 C 82.683594 123.558594 83.34375 123.066406 83.34375 122.191406 L 83.34375 121.816406 C 83.34375 121.757812 83.386719 121.644531 83.523438 121.644531 L 84.914062 121.644531 C 85.023438 121.644531 85.09375 121.707031 85.09375 121.816406 L 85.09375 122.4375 C 85.03125 124.054688 83.574219 124.996094 81.800781 124.996094 C 79.671875 124.996094 78.496094 123.714844 78.496094 122.25 C 78.496094 121.464844 78.929688 120.558594 79.796875 119.535156 C 80.730469 118.429688 81.742188 117.398438 82.730469 116.34375 Z M 82.730469 116.335938 "/>
</g>
</svg>
