<?xml version="1.0" encoding="UTF-8"?>
<svg xmlns="http://www.w3.org/2000/svg" xmlns:xlink="http://www.w3.org/1999/xlink" width="90px" height="130px" viewBox="0 0 90 130" version="1.1">
<g id="surface1">
<path style="fill-rule:nonzero;fill:rgb(100%,100%,100%);fill-opacity:1;stroke-width:1.8;stroke-linecap:butt;stroke-linejoin:round;stroke:rgb(20%,18.039216%,18.039216%);stroke-opacity:1;stroke-miterlimit:4;" d="M 1986.096959 695.288451 L 2109.695932 695.288451 C 2114.94463 695.288451 2119.200161 699.540813 2119.200161 704.789922 L 2119.200161 899.388845 C 2119.200161 904.637954 2114.94463 908.890316 2109.695932 908.890316 L 1986.096959 908.890316 C 1980.854547 908.890316 1976.599016 904.637954 1976.599016 899.388845 L 1976.599016 704.789922 C 1976.599016 699.540813 1980.854547 695.288451 1986.096959 695.288451 Z M 1986.096959 695.288451 " transform="matrix(0.621434,0,0,0.603525,-1227.634256,-419.080985)"/>
<path style="fill:none;stroke-width:1;stroke-linecap:butt;stroke-linejoin:miter;stroke:rgb(65.098041%,54.901963%,34.901962%);stroke-opacity:1;stroke-miterlimit:4;" d="M 9.99958 6.998817 L 109.99769 6.998817 C 111.65884 6.998817 113.001342 8.345572 113.001342 10.00062 L 113.001342 169.999427 C 113.001342 171.654475 111.65884 173.00123 109.99769 173.00123 L 9.99958 173.00123 C 8.343653 173.00123 7.001151 171.654475 7.001151 169.999427 L 7.001151 10.00062 C 7.001151 8.345572 8.343653 6.998817 9.99958 6.998817 Z M 9.99958 6.998817 " transform="matrix(0.747788,0,0,0.722222,0.13572,-0.0000136668)"/>
<path style=" stroke:none;fill-rule:nonzero;fill:rgb(94.901961%,19.215687%,19.215687%);fill-opacity:1;" d="M 21.074219 8.304688 C 18.183594 8.304688 15.839844 10.371094 15.839844 13.359375 C 15.835938 19.140625 21.820312 20.582031 26.308594 27.804688 C 30.878906 20.449219 36.707031 19.1875 36.777344 13.359375 C 36.75 10.371094 34.433594 8.304688 31.542969 8.304688 C 28.789062 8.304688 27.28125 9.964844 26.308594 11.917969 C 25.335938 9.964844 23.828125 8.304688 21.074219 8.304688 Z M 21.074219 8.304688 "/>
<path style=" stroke:none;fill-rule:nonzero;fill:rgb(94.901961%,19.215687%,19.215687%);fill-opacity:1;" d="M 31.542969 121.695312 C 34.433594 121.695312 36.777344 119.628906 36.777344 116.640625 C 36.78125 110.859375 30.796875 109.417969 26.308594 102.195312 C 21.738281 109.550781 15.910156 110.8125 15.839844 116.640625 C 15.867188 119.628906 18.183594 121.695312 21.074219 121.695312 C 23.828125 121.695312 25.335938 120.035156 26.308594 118.082031 C 27.28125 120.035156 28.789062 121.695312 31.542969 121.695312 Z M 31.542969 121.695312 "/>
<path style=" stroke:none;fill-rule:nonzero;fill:rgb(94.901961%,19.215687%,19.215687%);fill-opacity:1;" d="M 58.464844 8.304688 C 55.570312 8.304688 53.230469 10.371094 53.230469 13.359375 C 53.226562 19.140625 59.210938 20.582031 63.699219 27.804688 C 68.269531 20.449219 74.09375 19.1875 74.167969 13.359375 C 74.136719 10.371094 71.824219 8.304688 68.933594 8.304688 C 66.175781 8.304688 64.667969 9.964844 63.699219 11.917969 C 62.726562 9.964844 61.21875 8.304688 58.464844 8.304688 Z M 58.464844 8.304688 "/>
<path style=" stroke:none;fill-rule:nonzero;fill:rgb(94.901961%,19.215687%,19.215687%);fill-opacity:1;" d="M 68.933594 121.695312 C 71.824219 121.695312 74.164062 119.628906 74.167969 116.640625 C 74.167969 110.859375 68.183594 109.417969 63.699219 102.195312 C 59.125 109.550781 53.300781 110.8125 53.230469 116.640625 C 53.257812 119.628906 55.570312 121.695312 58.464844 121.695312 C 61.21875 121.695312 62.726562 120.035156 63.699219 118.082031 C 64.667969 120.035156 66.175781 121.695312 68.933594 121.695312 Z M 68.933594 121.695312 "/>
<path style=" stroke:none;fill-rule:nonzero;fill:rgb(94.901961%,19.215687%,19.215687%);fill-opacity:1;" d="M 58.464844 39.597656 C 55.570312 39.597656 53.230469 41.664062 53.230469 44.65625 C 53.226562 50.433594 59.210938 51.878906 63.699219 59.097656 C 68.269531 51.742188 74.09375 50.480469 74.167969 44.65625 C 74.136719 41.664062 71.824219 39.597656 68.933594 39.597656 C 66.175781 39.597656 64.667969 41.261719 63.699219 43.210938 C 62.726562 41.261719 61.21875 39.601562 58.464844 39.597656 Z M 58.464844 39.597656 "/>
<path style=" stroke:none;fill-rule:nonzero;fill:rgb(94.901961%,19.215687%,19.215687%);fill-opacity:1;" d="M 31.542969 90.402344 C 34.433594 90.402344 36.777344 88.335938 36.777344 85.34375 C 36.78125 79.566406 30.796875 78.121094 26.308594 70.902344 C 21.738281 78.257812 15.910156 79.519531 15.839844 85.34375 C 15.867188 88.335938 18.183594 90.402344 21.074219 90.402344 C 23.828125 90.402344 25.335938 88.738281 26.308594 86.789062 C 27.28125 88.738281 28.789062 90.398438 31.542969 90.402344 Z M 31.542969 90.402344 "/>
<path style=" stroke:none;fill-rule:nonzero;fill:rgb(94.901961%,19.215687%,19.215687%);fill-opacity:1;" d="M 68.933594 90.402344 C 71.824219 90.402344 74.164062 88.335938 74.167969 85.34375 C 74.167969 79.566406 68.183594 78.121094 63.699219 70.902344 C 59.125 78.257812 53.300781 79.519531 53.230469 85.34375 C 53.257812 88.335938 55.570312 90.402344 58.464844 90.402344 C 61.21875 90.402344 62.726562 88.738281 63.699219 86.789062 C 64.667969 88.738281 66.175781 90.398438 68.933594 90.402344 Z M 68.933594 90.402344 "/>
<path style=" stroke:none;fill-rule:nonzero;fill:rgb(94.901961%,19.215687%,19.215687%);fill-opacity:1;" d="M 39.769531 23.957031 C 36.878906 23.957031 34.535156 26.019531 34.535156 29.011719 C 34.53125 34.789062 40.515625 36.234375 45.003906 43.457031 C 49.574219 36.097656 55.398438 34.839844 55.472656 29.011719 C 55.445312 26.019531 53.128906 23.957031 50.238281 23.957031 C 47.484375 23.957031 45.976562 25.617188 45.003906 27.566406 C 44.03125 25.617188 42.523438 23.957031 39.769531 23.957031 Z M 39.769531 23.957031 "/>
<path style=" stroke:none;fill-rule:nonzero;fill:rgb(94.901961%,19.215687%,19.215687%);fill-opacity:1;" d="M 50.238281 106.050781 C 53.128906 106.050781 55.46875 103.988281 55.472656 100.996094 C 55.476562 95.21875 49.488281 93.773438 45.003906 86.550781 C 40.433594 93.910156 34.605469 95.167969 34.535156 100.996094 C 34.5625 103.988281 36.878906 106.050781 39.769531 106.050781 C 42.523438 106.050781 44.03125 104.390625 45.003906 102.441406 C 45.976562 104.390625 47.484375 106.050781 50.238281 106.050781 Z M 50.238281 106.050781 "/>
<path style=" stroke:none;fill-rule:nonzero;fill:rgb(94.901961%,19.215687%,19.215687%);fill-opacity:1;" d="M 21.074219 39.597656 C 18.183594 39.597656 15.839844 41.664062 15.839844 44.65625 C 15.835938 50.433594 21.820312 51.878906 26.308594 59.097656 C 30.878906 51.742188 36.707031 50.480469 36.777344 44.65625 C 36.75 41.664062 34.433594 39.597656 31.542969 39.597656 C 28.789062 39.597656 27.28125 41.261719 26.308594 43.210938 C 25.335938 41.261719 23.828125 39.601562 21.074219 39.597656 Z M 21.074219 39.597656 "/>
<path style=" stroke:none;fill-rule:nonzero;fill:rgb(100%,100%,100%);fill-opacity:1;" d="M 3.878906 4.335938 L 3.878906 28.167969 L 14.347656 28.167969 L 14.347656 4.335938 Z M 3.878906 4.335938 "/>
<path style=" stroke:none;fill-rule:nonzero;fill:rgb(94.901961%,19.215687%,19.215687%);fill-opacity:1;" d="M 6.175781 18.027344 C 5.058594 18.027344 4.15625 18.789062 4.15625 19.898438 C 4.15625 22.035156 6.464844 22.570312 8.195312 25.242188 C 9.960938 22.519531 12.210938 22.054688 12.238281 19.898438 C 12.226562 18.789062 11.332031 18.027344 10.21875 18.027344 C 9.152344 18.027344 8.570312 18.640625 8.195312 19.363281 C 7.820312 18.640625 7.238281 18.027344 6.175781 18.027344 Z M 6.175781 18.027344 "/>
<path style=" stroke:none;fill-rule:nonzero;fill:rgb(100%,100%,100%);fill-opacity:1;" d="M 86.128906 125.664062 L 86.128906 101.832031 L 75.660156 101.832031 L 75.660156 125.664062 Z M 86.128906 125.664062 "/>
<path style=" stroke:none;fill-rule:nonzero;fill:rgb(94.901961%,19.215687%,19.215687%);fill-opacity:1;" d="M 83.894531 111.980469 C 85.011719 111.980469 85.914062 111.214844 85.914062 110.109375 C 85.917969 107.972656 83.605469 107.4375 81.875 104.765625 C 80.109375 107.488281 77.863281 107.953125 77.832031 110.109375 C 77.84375 111.214844 78.738281 111.980469 79.855469 111.980469 C 80.917969 111.980469 81.5 111.363281 81.875 110.644531 C 82.25 111.363281 82.832031 111.980469 83.894531 111.980469 Z M 83.894531 111.980469 "/>
<path style=" stroke:none;fill-rule:nonzero;fill:rgb(94.901961%,19.215687%,19.215687%);fill-opacity:1;" d="M 9.640625 5.054688 C 7.980469 5.054688 6.84375 6.160156 6.84375 8.109375 L 6.84375 12.074219 C 6.84375 13.988281 7.90625 15.167969 9.632812 15.175781 C 11.375 15.175781 12.453125 13.953125 12.453125 12.074219 L 12.453125 8.109375 C 12.453125 6.160156 11.269531 5.0625 9.632812 5.0625 Z M 4.339844 5.273438 C 4.25 5.273438 4.1875 5.359375 4.1875 5.4375 L 4.1875 14.785156 C 4.1875 14.878906 4.234375 14.949219 4.339844 14.949219 L 5.46875 14.949219 C 5.558594 14.957031 5.617188 14.863281 5.617188 14.785156 L 5.617188 5.4375 C 5.617188 5.367188 5.550781 5.273438 5.46875 5.273438 Z M 9.640625 6.464844 C 10.425781 6.464844 11.03125 7.011719 11.03125 8.054688 L 11.03125 12.164062 C 11.03125 13.144531 10.492188 13.75 9.640625 13.75 C 8.816406 13.75 8.273438 13.1875 8.273438 12.164062 L 8.273438 8.054688 C 8.273438 6.984375 8.890625 6.464844 9.640625 6.464844 Z M 9.640625 6.464844 "/>
<path style=" stroke:none;fill-rule:nonzero;fill:rgb(94.901961%,19.215687%,19.215687%);fill-opacity:1;" d="M 80.367188 124.945312 C 82.027344 124.945312 83.164062 123.839844 83.164062 121.890625 L 83.164062 117.925781 C 83.164062 116.011719 82.101562 114.832031 80.375 114.824219 C 78.632812 114.824219 77.554688 116.046875 77.554688 117.925781 L 77.554688 121.890625 C 77.554688 123.839844 78.734375 124.9375 80.375 124.9375 Z M 85.667969 124.726562 C 85.757812 124.726562 85.816406 124.640625 85.816406 124.5625 L 85.816406 115.214844 C 85.816406 115.121094 85.773438 115.050781 85.667969 115.050781 L 84.539062 115.050781 C 84.449219 115.042969 84.390625 115.136719 84.390625 115.214844 L 84.390625 124.5625 C 84.390625 124.632812 84.457031 124.726562 84.539062 124.726562 Z M 80.367188 123.535156 C 79.582031 123.535156 78.976562 122.988281 78.976562 121.945312 L 78.976562 117.835938 C 78.976562 116.855469 79.511719 116.25 80.367188 116.25 C 81.1875 116.25 81.734375 116.8125 81.734375 117.835938 L 81.734375 121.945312 C 81.734375 123.015625 81.113281 123.535156 80.367188 123.535156 Z M 80.367188 123.535156 "/>
</g>
</svg>
