<?xml version="1.0" encoding="UTF-8"?>
<svg xmlns="http://www.w3.org/2000/svg" xmlns:xlink="http://www.w3.org/1999/xlink" width="90px" height="130px" viewBox="0 0 90 130" version="1.1">
<g id="surface1">
<path style="fill-rule:nonzero;fill:rgb(100%,100%,100%);fill-opacity:1;stroke-width:1.8;stroke-linecap:butt;stroke-linejoin:round;stroke:rgb(20%,18.039216%,18.039216%);stroke-opacity:1;stroke-miterlimit:4;" d="M 1986.096951 695.288451 L 2109.695925 695.288451 C 2114.944623 695.288451 2119.200153 699.540813 2119.200153 704.789922 L 2119.200153 899.388845 C 2119.200153 904.637954 2114.944623 908.890316 2109.695925 908.890316 L 1986.096951 908.890316 C 1980.85454 908.890316 1976.599009 904.637954 1976.599009 899.388845 L 1976.599009 704.789922 C 1976.599009 699.540813 1980.85454 695.288451 1986.096951 695.288451 Z M 1986.096951 695.288451 " transform="matrix(0.621434,0,0,0.603525,-1227.634252,-419.080985)"/>
<path style="fill:none;stroke-width:1;stroke-linecap:butt;stroke-linejoin:miter;stroke:rgb(65.098041%,54.901963%,34.901962%);stroke-opacity:1;stroke-miterlimit:4;" d="M 9.999574 6.998817 L 109.997683 6.998817 C 111.658834 6.998817 113.001336 8.345572 113.001336 10.00062 L 113.001336 169.999427 C 113.001336 171.654475 111.658834 173.00123 109.997683 173.00123 L 9.999574 173.00123 C 8.343647 173.00123 7.001145 171.654475 7.001145 169.999427 L 7.001145 10.00062 C 7.001145 8.345572 8.343647 6.998817 9.999574 6.998817 Z M 9.999574 6.998817 " transform="matrix(0.747788,0,0,0.722222,0.135724,-0.0000136668)"/>
<path style=" stroke:none;fill-rule:nonzero;fill:rgb(94.901961%,19.215687%,19.215687%);fill-opacity:1;" d="M 21.074219 8.304688 C 18.183594 8.304688 15.839844 10.371094 15.839844 13.359375 C 15.835938 19.140625 21.820312 20.582031 26.308594 27.804688 C 30.878906 20.449219 36.707031 19.1875 36.777344 13.359375 C 36.75 10.371094 34.433594 8.304688 31.542969 8.304688 C 28.789062 8.304688 27.28125 9.964844 26.308594 11.917969 C 25.335938 9.964844 23.828125 8.304688 21.074219 8.304688 Z M 21.074219 8.304688 "/>
<path style=" stroke:none;fill-rule:nonzero;fill:rgb(94.901961%,19.215687%,19.215687%);fill-opacity:1;" d="M 31.542969 121.695312 C 34.433594 121.695312 36.777344 119.628906 36.777344 116.640625 C 36.78125 110.859375 30.796875 109.417969 26.308594 102.195312 C 21.738281 109.550781 15.910156 110.8125 15.839844 116.640625 C 15.867188 119.628906 18.183594 121.695312 21.074219 121.695312 C 23.828125 121.695312 25.335938 120.035156 26.308594 118.082031 C 27.28125 120.035156 28.789062 121.695312 31.542969 121.695312 Z M 31.542969 121.695312 "/>
<path style=" stroke:none;fill-rule:nonzero;fill:rgb(94.901961%,19.215687%,19.215687%);fill-opacity:1;" d="M 58.464844 8.304688 C 55.570312 8.304688 53.230469 10.371094 53.230469 13.359375 C 53.226562 19.140625 59.210938 20.582031 63.699219 27.804688 C 68.269531 20.449219 74.09375 19.1875 74.167969 13.359375 C 74.136719 10.371094 71.824219 8.304688 68.933594 8.304688 C 66.175781 8.304688 64.667969 9.964844 63.699219 11.917969 C 62.726562 9.964844 61.21875 8.304688 58.464844 8.304688 Z M 58.464844 8.304688 "/>
<path style=" stroke:none;fill-rule:nonzero;fill:rgb(94.901961%,19.215687%,19.215687%);fill-opacity:1;" d="M 68.933594 121.695312 C 71.824219 121.695312 74.164062 119.628906 74.167969 116.640625 C 74.167969 110.859375 68.183594 109.417969 63.699219 102.195312 C 59.125 109.550781 53.300781 110.8125 53.230469 116.640625 C 53.257812 119.628906 55.570312 121.695312 58.464844 121.695312 C 61.21875 121.695312 62.726562 120.035156 63.699219 118.082031 C 64.667969 120.035156 66.175781 121.695312 68.933594 121.695312 Z M 68.933594 121.695312 "/>
<path style=" stroke:none;fill-rule:nonzero;fill:rgb(94.901961%,19.215687%,19.215687%);fill-opacity:1;" d="M 58.464844 39.597656 C 55.570312 39.597656 53.230469 41.664062 53.230469 44.65625 C 53.226562 50.433594 59.210938 51.878906 63.699219 59.097656 C 68.269531 51.742188 74.09375 50.480469 74.167969 44.65625 C 74.136719 41.664062 71.824219 39.597656 68.933594 39.597656 C 66.175781 39.597656 64.667969 41.261719 63.699219 43.210938 C 62.726562 41.261719 61.21875 39.601562 58.464844 39.597656 Z M 58.464844 39.597656 "/>
<path style=" stroke:none;fill-rule:nonzero;fill:rgb(94.901961%,19.215687%,19.215687%);fill-opacity:1;" d="M 31.542969 90.402344 C 34.433594 90.402344 36.777344 88.335938 36.777344 85.34375 C 36.78125 79.566406 30.796875 78.121094 26.308594 70.902344 C 21.738281 78.257812 15.910156 79.519531 15.839844 85.34375 C 15.867188 88.335938 18.183594 90.402344 21.074219 90.402344 C 23.828125 90.402344 25.335938 88.738281 26.308594 86.789062 C 27.28125 88.738281 28.789062 90.398438 31.542969 90.402344 Z M 31.542969 90.402344 "/>
<path style=" stroke:none;fill-rule:nonzero;fill:rgb(94.901961%,19.215687%,19.215687%);fill-opacity:1;" d="M 68.933594 90.402344 C 71.824219 90.402344 74.164062 88.335938 74.167969 85.34375 C 74.167969 79.566406 68.183594 78.121094 63.699219 70.902344 C 59.125 78.257812 53.300781 79.519531 53.230469 85.34375 C 53.257812 88.335938 55.570312 90.402344 58.464844 90.402344 C 61.21875 90.402344 62.726562 88.738281 63.699219 86.789062 C 64.667969 88.738281 66.175781 90.398438 68.933594 90.402344 Z M 68.933594 90.402344 "/>
<path style=" stroke:none;fill-rule:nonzero;fill:rgb(94.901961%,19.215687%,19.215687%);fill-opacity:1;" d="M 21.074219 39.597656 C 18.183594 39.597656 15.839844 41.664062 15.839844 44.65625 C 15.835938 50.433594 21.820312 51.878906 26.308594 59.097656 C 30.878906 51.742188 36.707031 50.480469 36.777344 44.65625 C 36.75 41.664062 34.433594 39.597656 31.542969 39.597656 C 28.789062 39.597656 27.28125 41.261719 26.308594 43.210938 C 25.335938 41.261719 23.828125 39.601562 21.074219 39.597656 Z M 21.074219 39.597656 "/>
<path style=" stroke:none;fill-rule:nonzero;fill:rgb(94.901961%,19.215687%,19.215687%);fill-opacity:1;" d="M 39.746094 57.417969 C 36.855469 57.417969 34.511719 59.480469 34.511719 62.472656 C 34.507812 68.25 40.492188 69.695312 44.980469 76.917969 C 49.550781 69.558594 55.378906 68.300781 55.449219 62.472656 C 55.421875 59.480469 53.105469 57.417969 50.214844 57.417969 C 47.460938 57.417969 45.953125 59.078125 44.980469 61.027344 C 44.007812 59.078125 42.5 57.417969 39.746094 57.417969 Z M 39.746094 57.417969 "/>
<path style=" stroke:none;fill-rule:nonzero;fill:rgb(100%,100%,100%);fill-opacity:1;" d="M 3.878906 4.335938 L 3.878906 28.167969 L 14.347656 28.167969 L 14.347656 4.335938 Z M 3.878906 4.335938 "/>
<path style=" stroke:none;fill-rule:nonzero;fill:rgb(94.901961%,19.215687%,19.215687%);fill-opacity:1;" d="M 6.175781 18.027344 C 5.058594 18.027344 4.15625 18.789062 4.15625 19.898438 C 4.15625 22.035156 6.464844 22.570312 8.195312 25.242188 C 9.960938 22.519531 12.210938 22.054688 12.238281 19.898438 C 12.226562 18.789062 11.332031 18.027344 10.21875 18.027344 C 9.152344 18.027344 8.570312 18.640625 8.195312 19.363281 C 7.820312 18.640625 7.238281 18.027344 6.175781 18.027344 Z M 6.175781 18.027344 "/>
<path style=" stroke:none;fill-rule:nonzero;fill:rgb(100%,100%,100%);fill-opacity:1;" d="M 86.128906 125.664062 L 86.128906 101.832031 L 75.660156 101.832031 L 75.660156 125.664062 Z M 86.128906 125.664062 "/>
<path style=" stroke:none;fill-rule:nonzero;fill:rgb(94.901961%,19.215687%,19.215687%);fill-opacity:1;" d="M 83.894531 111.980469 C 85.011719 111.980469 85.914062 111.214844 85.914062 110.109375 C 85.917969 107.972656 83.605469 107.4375 81.875 104.765625 C 80.109375 107.488281 77.863281 107.953125 77.832031 110.109375 C 77.84375 111.214844 78.738281 111.980469 79.855469 111.980469 C 80.917969 111.980469 81.5 111.363281 81.875 110.644531 C 82.25 111.363281 82.832031 111.980469 83.894531 111.980469 Z M 83.894531 111.980469 "/>
<path style=" stroke:none;fill-rule:nonzero;fill:rgb(94.901961%,19.215687%,19.215687%);fill-opacity:1;" d="M 11.621094 8.253906 L 11.621094 12.660156 C 11.621094 14.183594 10.394531 15.273438 8.421875 15.273438 C 6.617188 15.273438 5.296875 14.308594 5.296875 12.734375 L 5.296875 12.414062 C 5.296875 12.292969 5.40625 12.242188 5.476562 12.242188 L 6.851562 12.242188 C 6.941406 12.242188 7.03125 12.328125 7.03125 12.414062 L 7.03125 12.515625 C 7.03125 13.265625 7.5625 13.832031 8.421875 13.832031 C 9.320312 13.832031 9.886719 13.238281 9.886719 12.457031 L 9.886719 10.871094 C 9.886719 10.8125 9.835938 10.789062 9.796875 10.824219 C 9.371094 11.230469 8.789062 11.433594 8.046875 11.433594 C 6.230469 11.433594 5.042969 10.25 5.042969 8.242188 C 5.042969 6.082031 6.445312 4.945312 8.316406 4.945312 C 9.992188 4.945312 11.621094 5.886719 11.621094 8.253906 Z M 9.886719 8.167969 C 9.886719 7.632812 9.738281 6.40625 8.347656 6.40625 C 6.875 6.40625 6.777344 7.84375 6.777344 8.210938 C 6.777344 9.144531 7.226562 10.015625 8.332031 10.015625 C 9.699219 10.015625 9.886719 8.824219 9.886719 8.167969 Z M 9.886719 8.167969 "/>
<path style=" stroke:none;fill-rule:nonzero;fill:rgb(94.901961%,19.215687%,19.215687%);fill-opacity:1;" d="M 78.382812 121.746094 L 78.382812 117.339844 C 78.382812 115.816406 79.609375 114.726562 81.585938 114.726562 C 83.386719 114.726562 84.710938 115.691406 84.710938 117.265625 L 84.710938 117.585938 C 84.710938 117.707031 84.597656 117.757812 84.53125 117.757812 L 83.15625 117.757812 C 83.066406 117.757812 82.976562 117.671875 82.976562 117.585938 L 82.976562 117.484375 C 82.976562 116.734375 82.445312 116.167969 81.585938 116.167969 C 80.6875 116.167969 80.121094 116.761719 80.121094 117.542969 L 80.121094 119.128906 C 80.121094 119.1875 80.171875 119.210938 80.207031 119.175781 C 80.636719 118.769531 81.21875 118.566406 81.957031 118.566406 C 83.777344 118.566406 84.964844 119.75 84.964844 121.757812 C 84.964844 123.917969 83.558594 125.054688 81.6875 125.054688 C 80.015625 125.054688 78.382812 124.113281 78.382812 121.746094 Z M 80.121094 121.832031 C 80.121094 122.367188 80.269531 123.59375 81.660156 123.59375 C 83.132812 123.59375 83.230469 122.15625 83.230469 121.789062 C 83.230469 120.855469 82.78125 119.984375 81.675781 119.984375 C 80.304688 119.984375 80.121094 121.175781 80.121094 121.832031 Z M 80.121094 121.832031 "/>
</g>
</svg>
