<?xml version="1.0" encoding="UTF-8"?>
<svg xmlns="http://www.w3.org/2000/svg" xmlns:xlink="http://www.w3.org/1999/xlink" width="90px" height="130px" viewBox="0 0 90 130" version="1.1">
<g id="surface1">
<path style="fill-rule:nonzero;fill:rgb(100%,100%,100%);fill-opacity:1;stroke-width:1.8;stroke-linecap:butt;stroke-linejoin:round;stroke:rgb(20%,18.039216%,18.039216%);stroke-opacity:1;stroke-miterlimit:4;" d="M 1986.096921 695.288451 L 2109.695894 695.288451 C 2114.944592 695.288451 2119.200123 699.540813 2119.200123 704.789922 L 2119.200123 899.388845 C 2119.200123 904.637954 2114.944592 908.890316 2109.695894 908.890316 L 1986.096921 908.890316 C 1980.854509 908.890316 1976.598978 904.637954 1976.598978 899.388845 L 1976.598978 704.789922 C 1976.598978 699.540813 1980.854509 695.288451 1986.096921 695.288451 Z M 1986.096921 695.288451 " transform="matrix(0.621434,0,0,0.603525,-1227.634233,-419.080985)"/>
<path style="fill:none;stroke-width:1;stroke-linecap:butt;stroke-linejoin:miter;stroke:rgb(65.098041%,54.901963%,34.901962%);stroke-opacity:1;stroke-miterlimit:4;" d="M 9.999548 6.998817 L 109.997658 6.998817 C 111.658808 6.998817 113.00131 8.345572 113.00131 10.00062 L 113.00131 169.999427 C 113.00131 171.654475 111.658808 173.00123 109.997658 173.00123 L 9.999548 173.00123 C 8.343622 173.00123 7.00112 171.654475 7.00112 169.999427 L 7.00112 10.00062 C 7.00112 8.345572 8.343622 6.998817 9.999548 6.998817 Z M 9.999548 6.998817 " transform="matrix(0.747788,0,0,0.722222,0.135743,-0.0000136668)"/>
<path style=" stroke:none;fill-rule:nonzero;fill:rgb(94.901961%,19.215687%,19.215687%);fill-opacity:1;" d="M 21.074219 8.304688 C 18.183594 8.304688 15.839844 10.371094 15.839844 13.359375 C 15.835938 19.140625 21.820312 20.582031 26.308594 27.804688 C 30.878906 20.449219 36.707031 19.1875 36.777344 13.359375 C 36.75 10.371094 34.433594 8.304688 31.542969 8.304688 C 28.789062 8.304688 27.28125 9.964844 26.308594 11.917969 C 25.335938 9.964844 23.828125 8.304688 21.074219 8.304688 Z M 21.074219 8.304688 "/>
<path style=" stroke:none;fill-rule:nonzero;fill:rgb(94.901961%,19.215687%,19.215687%);fill-opacity:1;" d="M 31.542969 121.695312 C 34.433594 121.695312 36.777344 119.628906 36.777344 116.640625 C 36.78125 110.859375 30.796875 109.417969 26.308594 102.195312 C 21.738281 109.550781 15.910156 110.8125 15.839844 116.640625 C 15.867188 119.628906 18.183594 121.695312 21.074219 121.695312 C 23.828125 121.695312 25.335938 120.035156 26.308594 118.082031 C 27.28125 120.035156 28.789062 121.695312 31.542969 121.695312 Z M 31.542969 121.695312 "/>
<path style=" stroke:none;fill-rule:nonzero;fill:rgb(94.901961%,19.215687%,19.215687%);fill-opacity:1;" d="M 58.464844 8.304688 C 55.570312 8.304688 53.230469 10.371094 53.230469 13.359375 C 53.226562 19.140625 59.210938 20.582031 63.699219 27.804688 C 68.269531 20.449219 74.09375 19.1875 74.167969 13.359375 C 74.136719 10.371094 71.824219 8.304688 68.933594 8.304688 C 66.175781 8.304688 64.667969 9.964844 63.699219 11.917969 C 62.726562 9.964844 61.21875 8.304688 58.464844 8.304688 Z M 58.464844 8.304688 "/>
<path style=" stroke:none;fill-rule:nonzero;fill:rgb(94.901961%,19.215687%,19.215687%);fill-opacity:1;" d="M 68.933594 121.695312 C 71.824219 121.695312 74.164062 119.628906 74.167969 116.640625 C 74.167969 110.859375 68.183594 109.417969 63.699219 102.195312 C 59.125 109.550781 53.300781 110.8125 53.230469 116.640625 C 53.257812 119.628906 55.570312 121.695312 58.464844 121.695312 C 61.21875 121.695312 62.726562 120.035156 63.699219 118.082031 C 64.667969 120.035156 66.175781 121.695312 68.933594 121.695312 Z M 68.933594 121.695312 "/>
<path style=" stroke:none;fill-rule:nonzero;fill:rgb(94.901961%,19.215687%,19.215687%);fill-opacity:1;" d="M 39.769531 56.332031 C 36.878906 56.332031 34.535156 58.398438 34.535156 61.390625 C 34.53125 67.167969 40.515625 68.609375 45.003906 75.832031 C 49.574219 68.476562 55.398438 67.214844 55.472656 61.390625 C 55.445312 58.398438 53.128906 56.332031 50.238281 56.332031 C 47.484375 56.332031 45.976562 57.996094 45.003906 59.945312 C 44.03125 57.996094 42.523438 56.335938 39.769531 56.332031 Z M 39.769531 56.332031 "/>
<path style=" stroke:none;fill-rule:nonzero;fill:rgb(100%,100%,100%);fill-opacity:1;" d="M 3.878906 4.335938 L 3.878906 28.167969 L 14.347656 28.167969 L 14.347656 4.335938 Z M 3.878906 4.335938 "/>
<path style=" stroke:none;fill-rule:nonzero;fill:rgb(94.901961%,19.215687%,19.215687%);fill-opacity:1;" d="M 6.175781 18.027344 C 5.058594 18.027344 4.15625 18.789062 4.15625 19.898438 C 4.15625 22.035156 6.464844 22.570312 8.195312 25.242188 C 9.960938 22.519531 12.210938 22.054688 12.238281 19.898438 C 12.226562 18.789062 11.332031 18.027344 10.21875 18.027344 C 9.152344 18.027344 8.570312 18.640625 8.195312 19.363281 C 7.820312 18.640625 7.238281 18.027344 6.175781 18.027344 Z M 6.175781 18.027344 "/>
<path style=" stroke:none;fill-rule:nonzero;fill:rgb(100%,100%,100%);fill-opacity:1;" d="M 86.128906 125.664062 L 86.128906 101.832031 L 75.660156 101.832031 L 75.660156 125.664062 Z M 86.128906 125.664062 "/>
<path style=" stroke:none;fill-rule:nonzero;fill:rgb(94.901961%,19.215687%,19.215687%);fill-opacity:1;" d="M 83.894531 111.980469 C 85.011719 111.980469 85.914062 111.214844 85.914062 110.109375 C 85.917969 107.972656 83.605469 107.4375 81.875 104.765625 C 80.109375 107.488281 77.863281 107.953125 77.832031 110.109375 C 77.84375 111.214844 78.738281 111.980469 79.855469 111.980469 C 80.917969 111.980469 81.5 111.363281 81.875 110.644531 C 82.25 111.363281 82.832031 111.980469 83.894531 111.980469 Z M 83.894531 111.980469 "/>
<path style=" stroke:none;fill-rule:nonzero;fill:rgb(94.901961%,19.215687%,19.215687%);fill-opacity:1;" d="M 11.621094 11.988281 C 11.621094 14.3125 9.976562 15.261719 8.316406 15.261719 C 6.722656 15.261719 5.648438 14.4375 5.234375 13.324219 C 5.152344 13.117188 5.09375 12.878906 5.042969 12.609375 L 5.042969 12.582031 C 5.042969 12.472656 5.101562 12.421875 5.21875 12.421875 L 6.640625 12.421875 C 6.738281 12.421875 6.804688 12.472656 6.835938 12.582031 C 6.84375 12.640625 6.875 12.726562 6.910156 12.839844 C 7.121094 13.433594 7.582031 13.832031 8.300781 13.832031 C 9.550781 13.832031 9.855469 12.683594 9.855469 11.996094 C 9.855469 11.195312 9.601562 10.203125 8.347656 10.203125 C 7.742188 10.203125 7.066406 10.488281 6.894531 11.007812 C 6.859375 11.101562 6.785156 11.152344 6.6875 11.152344 L 5.234375 11.152344 C 5.117188 11.152344 5.054688 11.085938 5.054688 10.976562 L 5.054688 5.292969 C 5.054688 5.164062 5.167969 5.121094 5.234375 5.121094 L 11.054688 5.121094 C 11.144531 5.121094 11.234375 5.207031 11.234375 5.292969 L 11.234375 6.382812 C 11.234375 6.449219 11.179688 6.558594 11.054688 6.558594 L 6.867188 6.558594 C 6.8125 6.558594 6.792969 6.578125 6.792969 6.628906 L 6.777344 9.214844 C 6.777344 9.296875 6.820312 9.300781 6.867188 9.257812 C 7.335938 8.925781 7.898438 8.761719 8.554688 8.761719 C 9.84375 8.761719 11.621094 9.433594 11.621094 12.003906 Z M 11.621094 11.988281 "/>
<path style=" stroke:none;fill-rule:nonzero;fill:rgb(94.901961%,19.215687%,19.215687%);fill-opacity:1;" d="M 78.382812 118.011719 C 78.382812 115.683594 80.03125 114.738281 81.691406 114.738281 C 83.28125 114.738281 84.359375 115.5625 84.769531 116.675781 C 84.851562 116.882812 84.914062 117.121094 84.964844 117.390625 L 84.964844 117.417969 C 84.964844 117.527344 84.90625 117.578125 84.785156 117.578125 L 83.363281 117.578125 C 83.265625 117.578125 83.199219 117.527344 83.171875 117.417969 C 83.164062 117.359375 83.132812 117.273438 83.09375 117.160156 C 82.886719 116.566406 82.421875 116.167969 81.703125 116.167969 C 80.457031 116.167969 80.148438 117.316406 80.148438 118.003906 C 80.148438 118.804688 80.402344 119.796875 81.660156 119.796875 C 82.265625 119.796875 82.9375 119.511719 83.109375 118.992188 C 83.148438 118.898438 83.222656 118.847656 83.320312 118.847656 L 84.769531 118.847656 C 84.890625 118.847656 84.949219 118.914062 84.949219 119.023438 L 84.949219 124.707031 C 84.949219 124.835938 84.835938 124.878906 84.769531 124.878906 L 78.953125 124.878906 C 78.863281 124.878906 78.773438 124.792969 78.773438 124.707031 L 78.773438 123.617188 C 78.773438 123.550781 78.824219 123.441406 78.953125 123.441406 L 83.140625 123.441406 C 83.191406 123.441406 83.214844 123.421875 83.214844 123.371094 L 83.230469 120.785156 C 83.230469 120.703125 83.183594 120.699219 83.140625 120.742188 C 82.667969 121.074219 82.109375 121.238281 81.449219 121.238281 C 80.164062 121.238281 78.382812 120.566406 78.382812 117.996094 Z M 78.382812 118.011719 "/>
</g>
</svg>
