<?xml version="1.0" encoding="UTF-8"?>
<svg xmlns="http://www.w3.org/2000/svg" xmlns:xlink="http://www.w3.org/1999/xlink" width="90px" height="130px" viewBox="0 0 90 130" version="1.1">
<g id="surface1">
<path style="fill-rule:nonzero;fill:rgb(100%,100%,100%);fill-opacity:1;stroke-width:1.8;stroke-linecap:butt;stroke-linejoin:round;stroke:rgb(20%,18.039216%,18.039216%);stroke-opacity:1;stroke-miterlimit:4;" d="M 1986.096944 695.288451 L 2109.695917 695.288451 C 2114.944615 695.288451 2119.200146 699.540813 2119.200146 704.789922 L 2119.200146 899.388845 C 2119.200146 904.637954 2114.944615 908.890316 2109.695917 908.890316 L 1986.096944 908.890316 C 1980.854532 908.890316 1976.599001 904.637954 1976.599001 899.388845 L 1976.599001 704.789922 C 1976.599001 699.540813 1980.854532 695.288451 1986.096944 695.288451 Z M 1986.096944 695.288451 " transform="matrix(0.621434,0,0,0.603525,-1227.634247,-419.080985)"/>
<path style="fill:none;stroke-width:1;stroke-linecap:butt;stroke-linejoin:miter;stroke:rgb(65.098041%,54.901963%,34.901962%);stroke-opacity:1;stroke-miterlimit:4;" d="M 9.999567 6.998817 L 109.997677 6.998817 C 111.658827 6.998817 113.001329 8.345572 113.001329 10.00062 L 113.001329 169.999427 C 113.001329 171.654475 111.658827 173.00123 109.997677 173.00123 L 9.999567 173.00123 C 8.343641 173.00123 7.001139 171.654475 7.001139 169.999427 L 7.001139 10.00062 C 7.001139 8.345572 8.343641 6.998817 9.999567 6.998817 Z M 9.999567 6.998817 " transform="matrix(0.747788,0,0,0.722222,0.135729,-0.0000136668)"/>
<path style=" stroke:none;fill-rule:nonzero;fill:rgb(94.901961%,19.215687%,19.215687%);fill-opacity:1;" d="M 21.074219 8.304688 C 18.183594 8.304688 15.839844 10.371094 15.839844 13.359375 C 15.835938 19.140625 21.820312 20.582031 26.308594 27.804688 C 30.878906 20.449219 36.707031 19.1875 36.777344 13.359375 C 36.75 10.371094 34.433594 8.304688 31.542969 8.304688 C 28.789062 8.304688 27.28125 9.964844 26.308594 11.917969 C 25.335938 9.964844 23.828125 8.304688 21.074219 8.304688 Z M 21.074219 8.304688 "/>
<path style=" stroke:none;fill-rule:nonzero;fill:rgb(94.901961%,19.215687%,19.215687%);fill-opacity:1;" d="M 31.542969 121.695312 C 34.433594 121.695312 36.777344 119.628906 36.777344 116.640625 C 36.78125 110.859375 30.796875 109.417969 26.308594 102.195312 C 21.738281 109.550781 15.910156 110.8125 15.839844 116.640625 C 15.867188 119.628906 18.183594 121.695312 21.074219 121.695312 C 23.828125 121.695312 25.335938 120.035156 26.308594 118.082031 C 27.28125 120.035156 28.789062 121.695312 31.542969 121.695312 Z M 31.542969 121.695312 "/>
<path style=" stroke:none;fill-rule:nonzero;fill:rgb(94.901961%,19.215687%,19.215687%);fill-opacity:1;" d="M 21.074219 56.332031 C 18.183594 56.332031 15.839844 58.398438 15.839844 61.390625 C 15.835938 67.167969 21.820312 68.609375 26.308594 75.832031 C 30.878906 68.476562 36.707031 67.214844 36.777344 61.390625 C 36.75 58.398438 34.433594 56.332031 31.542969 56.332031 C 28.789062 56.332031 27.28125 57.996094 26.308594 59.945312 C 25.335938 57.996094 23.828125 56.335938 21.074219 56.332031 Z M 21.074219 56.332031 "/>
<path style=" stroke:none;fill-rule:nonzero;fill:rgb(94.901961%,19.215687%,19.215687%);fill-opacity:1;" d="M 58.464844 8.304688 C 55.570312 8.304688 53.230469 10.371094 53.230469 13.359375 C 53.226562 19.140625 59.210938 20.582031 63.699219 27.804688 C 68.269531 20.449219 74.09375 19.1875 74.167969 13.359375 C 74.136719 10.371094 71.824219 8.304688 68.933594 8.304688 C 66.175781 8.304688 64.667969 9.964844 63.699219 11.917969 C 62.726562 9.964844 61.21875 8.304688 58.464844 8.304688 Z M 58.464844 8.304688 "/>
<path style=" stroke:none;fill-rule:nonzero;fill:rgb(94.901961%,19.215687%,19.215687%);fill-opacity:1;" d="M 68.933594 121.695312 C 71.824219 121.695312 74.164062 119.628906 74.167969 116.640625 C 74.167969 110.859375 68.183594 109.417969 63.699219 102.195312 C 59.125 109.550781 53.300781 110.8125 53.230469 116.640625 C 53.257812 119.628906 55.570312 121.695312 58.464844 121.695312 C 61.21875 121.695312 62.726562 120.035156 63.699219 118.082031 C 64.667969 120.035156 66.175781 121.695312 68.933594 121.695312 Z M 68.933594 121.695312 "/>
<path style=" stroke:none;fill-rule:nonzero;fill:rgb(94.901961%,19.215687%,19.215687%);fill-opacity:1;" d="M 58.464844 56.332031 C 55.570312 56.332031 53.230469 58.398438 53.230469 61.390625 C 53.226562 67.167969 59.210938 68.609375 63.699219 75.832031 C 68.269531 68.476562 74.09375 67.214844 74.167969 61.390625 C 74.136719 58.398438 71.824219 56.332031 68.933594 56.332031 C 66.175781 56.332031 64.667969 57.996094 63.699219 59.945312 C 62.726562 57.996094 61.21875 56.335938 58.464844 56.332031 Z M 58.464844 56.332031 "/>
<path style=" stroke:none;fill-rule:nonzero;fill:rgb(94.901961%,19.215687%,19.215687%);fill-opacity:1;" d="M 39.746094 32.320312 C 36.855469 32.320312 34.511719 34.382812 34.511719 37.375 C 34.507812 43.152344 40.492188 44.597656 44.980469 51.820312 C 49.550781 44.460938 55.378906 43.203125 55.449219 37.375 C 55.421875 34.382812 53.105469 32.320312 50.214844 32.320312 C 47.460938 32.320312 45.953125 33.980469 44.980469 35.929688 C 44.007812 33.980469 42.5 32.320312 39.746094 32.320312 Z M 39.746094 32.320312 "/>
<path style=" stroke:none;fill-rule:nonzero;fill:rgb(94.901961%,19.215687%,19.215687%);fill-opacity:1;" d="M 39.746094 98.769531 C 36.855469 98.769531 34.511719 96.707031 34.511719 93.714844 C 34.507812 87.9375 40.492188 86.492188 44.980469 79.269531 C 49.550781 86.628906 55.378906 87.886719 55.449219 93.714844 C 55.421875 96.707031 53.105469 98.769531 50.214844 98.769531 C 47.460938 98.769531 45.953125 97.109375 44.980469 95.160156 C 44.007812 97.109375 42.5 98.769531 39.746094 98.769531 Z M 39.746094 98.769531 "/>
<path style=" stroke:none;fill-rule:nonzero;fill:rgb(100%,100%,100%);fill-opacity:1;" d="M 3.878906 4.335938 L 3.878906 28.167969 L 14.347656 28.167969 L 14.347656 4.335938 Z M 3.878906 4.335938 "/>
<path style=" stroke:none;fill-rule:nonzero;fill:rgb(94.901961%,19.215687%,19.215687%);fill-opacity:1;" d="M 6.175781 18.027344 C 5.058594 18.027344 4.15625 18.789062 4.15625 19.898438 C 4.15625 22.035156 6.464844 22.570312 8.195312 25.242188 C 9.960938 22.519531 12.210938 22.054688 12.238281 19.898438 C 12.226562 18.789062 11.332031 18.027344 10.21875 18.027344 C 9.152344 18.027344 8.570312 18.640625 8.195312 19.363281 C 7.820312 18.640625 7.238281 18.027344 6.175781 18.027344 Z M 6.175781 18.027344 "/>
<path style=" stroke:none;fill-rule:nonzero;fill:rgb(100%,100%,100%);fill-opacity:1;" d="M 86.128906 125.664062 L 86.128906 101.832031 L 75.660156 101.832031 L 75.660156 125.664062 Z M 86.128906 125.664062 "/>
<path style=" stroke:none;fill-rule:nonzero;fill:rgb(94.901961%,19.215687%,19.215687%);fill-opacity:1;" d="M 83.894531 111.980469 C 85.011719 111.980469 85.914062 111.214844 85.914062 110.109375 C 85.917969 107.972656 83.605469 107.4375 81.875 104.765625 C 80.109375 107.488281 77.863281 107.953125 77.832031 110.109375 C 77.84375 111.214844 78.738281 111.980469 79.855469 111.980469 C 80.917969 111.980469 81.5 111.363281 81.875 110.644531 C 82.25 111.363281 82.832031 111.980469 83.894531 111.980469 Z M 83.894531 111.980469 "/>
<path style=" stroke:none;fill-rule:nonzero;fill:rgb(94.901961%,19.215687%,19.215687%);fill-opacity:1;" d="M 11.644531 12.261719 C 11.644531 14.027344 10.425781 15.273438 8.355469 15.273438 C 5.976562 15.273438 5.019531 13.742188 5.019531 12.25 C 5.019531 11.9375 5.085938 10.515625 6.214844 9.894531 C 6.269531 9.867188 6.269531 9.828125 6.230469 9.792969 C 6.074219 9.683594 5.167969 9.007812 5.167969 7.742188 C 5.167969 6.261719 6.363281 4.945312 8.355469 4.945312 C 10.417969 4.945312 11.496094 6.3125 11.496094 7.742188 C 11.496094 8.269531 11.34375 9.152344 10.433594 9.777344 C 10.394531 9.816406 10.394531 9.851562 10.433594 9.878906 C 11.242188 10.328125 11.644531 11.253906 11.644531 12.261719 Z M 6.886719 7.777344 C 6.886719 7.9375 6.933594 9.238281 8.339844 9.238281 C 8.886719 9.238281 9.789062 8.976562 9.789062 7.765625 C 9.789062 7.054688 9.230469 6.382812 8.324219 6.382812 C 7.3125 6.382812 6.886719 7.25 6.886719 7.777344 Z M 9.894531 12.125 C 9.894531 11.707031 9.828125 10.4375 8.339844 10.4375 C 7.007812 10.4375 6.796875 11.484375 6.796875 12.140625 C 6.796875 13.136719 7.292969 13.84375 8.355469 13.84375 C 9.445312 13.84375 9.894531 13.058594 9.894531 12.125 Z M 9.894531 12.125 "/>
<path style=" stroke:none;fill-rule:nonzero;fill:rgb(94.901961%,19.215687%,19.215687%);fill-opacity:1;" d="M 78.363281 117.738281 C 78.363281 115.972656 79.582031 114.726562 81.652344 114.726562 C 84.03125 114.726562 84.988281 116.257812 84.988281 117.75 C 84.988281 118.0625 84.917969 119.484375 83.789062 120.105469 C 83.738281 120.132812 83.738281 120.171875 83.777344 120.207031 C 83.933594 120.316406 84.835938 120.992188 84.835938 122.257812 C 84.835938 123.738281 83.640625 125.054688 81.652344 125.054688 C 79.589844 125.054688 78.511719 123.6875 78.511719 122.257812 C 78.511719 121.730469 78.660156 120.847656 79.574219 120.222656 C 79.609375 120.183594 79.609375 120.148438 79.574219 120.121094 C 78.765625 119.671875 78.363281 118.746094 78.363281 117.738281 Z M 83.117188 122.222656 C 83.117188 122.0625 83.074219 120.761719 81.667969 120.761719 C 81.121094 120.761719 80.214844 121.023438 80.214844 122.234375 C 80.214844 122.945312 80.777344 123.617188 81.683594 123.617188 C 82.691406 123.617188 83.117188 122.75 83.117188 122.222656 Z M 80.113281 117.875 C 80.113281 118.292969 80.179688 119.5625 81.667969 119.5625 C 83 119.5625 83.207031 118.515625 83.207031 117.859375 C 83.207031 116.863281 82.714844 116.15625 81.652344 116.15625 C 80.558594 116.15625 80.113281 116.941406 80.113281 117.875 Z M 80.113281 117.875 "/>
</g>
</svg>
