<?xml version="1.0" encoding="UTF-8"?>
<svg xmlns="http://www.w3.org/2000/svg" xmlns:xlink="http://www.w3.org/1999/xlink" width="90px" height="130px" viewBox="0 0 90 130" version="1.1">
<g id="surface1">
<path style="fill-rule:nonzero;fill:rgb(100%,100%,100%);fill-opacity:1;stroke-width:1.8;stroke-linecap:butt;stroke-linejoin:round;stroke:rgb(20%,18.039216%,18.039216%);stroke-opacity:1;stroke-miterlimit:4;" d="M 1986.096929 695.288451 L 2109.695902 695.288451 C 2114.9446 695.288451 2119.200131 699.540813 2119.200131 704.789922 L 2119.200131 899.388845 C 2119.200131 904.637954 2114.9446 908.890316 2109.695902 908.890316 L 1986.096929 908.890316 C 1980.854517 908.890316 1976.598986 904.637954 1976.598986 899.388845 L 1976.598986 704.789922 C 1976.598986 699.540813 1980.854517 695.288451 1986.096929 695.288451 Z M 1986.096929 695.288451 " transform="matrix(0.621434,0,0,0.603525,-1227.634237,-419.080985)"/>
<path style="fill:none;stroke-width:1;stroke-linecap:butt;stroke-linejoin:miter;stroke:rgb(65.098041%,54.901963%,34.901962%);stroke-opacity:1;stroke-miterlimit:4;" d="M 9.999555 6.998817 L 109.997665 6.998817 C 111.658815 6.998817 113.001317 8.345572 113.001317 10.00062 L 113.001317 169.999427 C 113.001317 171.654475 111.658815 173.00123 109.997665 173.00123 L 9.999555 173.00123 C 8.343628 173.00123 7.001126 171.654475 7.001126 169.999427 L 7.001126 10.00062 C 7.001126 8.345572 8.343628 6.998817 9.999555 6.998817 Z M 9.999555 6.998817 " transform="matrix(0.747788,0,0,0.722222,0.135739,-0.0000136668)"/>
<path style=" stroke:none;fill-rule:nonzero;fill:rgb(94.901961%,19.215687%,19.215687%);fill-opacity:1;" d="M 6.175781 18.027344 C 5.058594 18.027344 4.15625 18.789062 4.15625 19.898438 C 4.15625 22.035156 6.464844 22.570312 8.195312 25.242188 C 9.960938 22.519531 12.210938 22.054688 12.238281 19.898438 C 12.226562 18.789062 11.332031 18.027344 10.21875 18.027344 C 9.152344 18.027344 8.570312 18.640625 8.195312 19.363281 C 7.820312 18.640625 7.238281 18.027344 6.175781 18.027344 Z M 6.175781 18.027344 "/>
<path style=" stroke:none;fill-rule:nonzero;fill:rgb(94.901961%,19.215687%,19.215687%);fill-opacity:1;" d="M 21.097656 8.304688 C 18.207031 8.304688 15.863281 10.371094 15.863281 13.359375 C 15.859375 19.140625 21.84375 20.582031 26.332031 27.804688 C 30.902344 20.449219 36.726562 19.1875 36.800781 13.359375 C 36.769531 10.371094 34.457031 8.304688 31.566406 8.304688 C 28.808594 8.304688 27.304688 9.964844 26.332031 11.917969 C 25.359375 9.964844 23.851562 8.304688 21.097656 8.304688 Z M 21.097656 8.304688 "/>
<path style=" stroke:none;fill-rule:nonzero;fill:rgb(94.901961%,19.215687%,19.215687%);fill-opacity:1;" d="M 31.519531 121.695312 C 34.410156 121.695312 36.753906 119.628906 36.753906 116.640625 C 36.757812 110.859375 30.773438 109.417969 26.285156 102.195312 C 21.714844 109.550781 15.886719 110.8125 15.816406 116.640625 C 15.84375 119.628906 18.160156 121.695312 21.050781 121.695312 C 23.804688 121.695312 25.3125 120.035156 26.285156 118.082031 C 27.257812 120.035156 28.765625 121.695312 31.519531 121.695312 Z M 31.519531 121.695312 "/>
<path style=" stroke:none;fill-rule:nonzero;fill:rgb(94.901961%,19.215687%,19.215687%);fill-opacity:1;" d="M 21.050781 56.332031 C 18.160156 56.332031 15.816406 58.398438 15.816406 61.390625 C 15.8125 67.167969 21.800781 68.609375 26.285156 75.832031 C 30.855469 68.476562 36.683594 67.214844 36.753906 61.390625 C 36.726562 58.398438 34.410156 56.332031 31.519531 56.332031 C 28.765625 56.332031 27.257812 57.996094 26.285156 59.945312 C 25.3125 57.996094 23.804688 56.335938 21.050781 56.332031 Z M 21.050781 56.332031 "/>
<path style=" stroke:none;fill-rule:nonzero;fill:rgb(94.901961%,19.215687%,19.215687%);fill-opacity:1;" d="M 58.464844 8.304688 C 55.570312 8.304688 53.230469 10.371094 53.230469 13.359375 C 53.226562 19.140625 59.210938 20.582031 63.699219 27.804688 C 68.269531 20.449219 74.09375 19.1875 74.167969 13.359375 C 74.136719 10.371094 71.824219 8.304688 68.933594 8.304688 C 66.175781 8.304688 64.667969 9.964844 63.699219 11.917969 C 62.726562 9.964844 61.21875 8.304688 58.464844 8.304688 Z M 58.464844 8.304688 "/>
<path style=" stroke:none;fill-rule:nonzero;fill:rgb(94.901961%,19.215687%,19.215687%);fill-opacity:1;" d="M 68.933594 121.695312 C 71.824219 121.695312 74.164062 119.628906 74.167969 116.640625 C 74.167969 110.859375 68.183594 109.417969 63.699219 102.195312 C 59.125 109.550781 53.300781 110.8125 53.230469 116.640625 C 53.257812 119.628906 55.570312 121.695312 58.464844 121.695312 C 61.21875 121.695312 62.726562 120.035156 63.699219 118.082031 C 64.667969 120.035156 66.175781 121.695312 68.933594 121.695312 Z M 68.933594 121.695312 "/>
<path style=" stroke:none;fill-rule:nonzero;fill:rgb(94.901961%,19.215687%,19.215687%);fill-opacity:1;" d="M 58.464844 56.332031 C 55.570312 56.332031 53.230469 58.398438 53.230469 61.390625 C 53.226562 67.167969 59.210938 68.609375 63.699219 75.832031 C 68.269531 68.476562 74.09375 67.214844 74.167969 61.390625 C 74.136719 58.398438 71.824219 56.332031 68.933594 56.332031 C 66.175781 56.332031 64.667969 57.996094 63.699219 59.945312 C 62.726562 57.996094 61.21875 56.335938 58.464844 56.332031 Z M 58.464844 56.332031 "/>
<path style=" stroke:none;fill-rule:nonzero;fill:rgb(100%,100%,100%);fill-opacity:1;" d="M 3.878906 4.335938 L 3.878906 28.167969 L 14.347656 28.167969 L 14.347656 4.335938 Z M 3.878906 4.335938 "/>
<path style=" stroke:none;fill-rule:nonzero;fill:rgb(94.901961%,19.215687%,19.215687%);fill-opacity:1;" d="M 6.175781 18.027344 C 5.058594 18.027344 4.15625 18.789062 4.15625 19.898438 C 4.15625 22.035156 6.464844 22.570312 8.195312 25.242188 C 9.960938 22.519531 12.210938 22.054688 12.238281 19.898438 C 12.226562 18.789062 11.332031 18.027344 10.21875 18.027344 C 9.152344 18.027344 8.570312 18.640625 8.195312 19.363281 C 7.820312 18.640625 7.238281 18.027344 6.175781 18.027344 Z M 6.175781 18.027344 "/>
<path style=" stroke:none;fill-rule:nonzero;fill:rgb(100%,100%,100%);fill-opacity:1;" d="M 86.128906 125.664062 L 86.128906 101.832031 L 75.660156 101.832031 L 75.660156 125.664062 Z M 86.128906 125.664062 "/>
<path style=" stroke:none;fill-rule:nonzero;fill:rgb(94.901961%,19.215687%,19.215687%);fill-opacity:1;" d="M 83.894531 111.980469 C 85.011719 111.980469 85.914062 111.214844 85.914062 110.109375 C 85.917969 107.972656 83.605469 107.4375 81.875 104.765625 C 80.109375 107.488281 77.863281 107.953125 77.832031 110.109375 C 77.84375 111.214844 78.738281 111.980469 79.855469 111.980469 C 80.917969 111.980469 81.5 111.363281 81.875 110.644531 C 82.25 111.363281 82.832031 111.980469 83.894531 111.980469 Z M 83.894531 111.980469 "/>
<path style=" stroke:none;fill-rule:nonzero;fill:rgb(94.901961%,19.215687%,19.215687%);fill-opacity:1;" d="M 5.042969 11.96875 L 5.042969 7.5625 C 5.042969 6.039062 6.269531 4.945312 8.242188 4.945312 C 10.042969 4.945312 11.367188 5.914062 11.367188 7.488281 L 11.367188 7.808594 C 11.367188 7.929688 11.253906 7.980469 11.1875 7.980469 L 9.8125 7.980469 C 9.722656 7.980469 9.632812 7.894531 9.632812 7.808594 L 9.632812 7.707031 C 9.632812 6.953125 9.101562 6.390625 8.242188 6.390625 C 7.34375 6.390625 6.777344 6.984375 6.777344 7.765625 L 6.777344 9.351562 C 6.777344 9.410156 6.828125 9.433594 6.867188 9.394531 C 7.292969 8.992188 7.875 8.789062 8.617188 8.789062 C 10.433594 8.789062 11.621094 9.972656 11.621094 11.980469 C 11.621094 14.140625 10.214844 15.273438 8.347656 15.273438 C 6.671875 15.273438 5.042969 14.335938 5.042969 11.96875 Z M 6.777344 12.054688 C 6.777344 12.589844 6.925781 13.816406 8.316406 13.816406 C 9.789062 13.816406 9.886719 12.378906 9.886719 12.011719 C 9.886719 11.078125 9.4375 10.203125 8.332031 10.203125 C 6.964844 10.203125 6.777344 11.398438 6.777344 12.054688 Z M 6.777344 12.054688 "/>
<path style=" stroke:none;fill-rule:nonzero;fill:rgb(94.901961%,19.215687%,19.215687%);fill-opacity:1;" d="M 84.964844 118.03125 L 84.964844 122.4375 C 84.964844 123.960938 83.738281 125.054688 81.765625 125.054688 C 79.960938 125.054688 78.636719 124.085938 78.636719 122.511719 L 78.636719 122.191406 C 78.636719 122.070312 78.75 122.019531 78.816406 122.019531 L 80.195312 122.019531 C 80.285156 122.019531 80.375 122.105469 80.375 122.191406 L 80.375 122.292969 C 80.375 123.046875 80.902344 123.609375 81.765625 123.609375 C 82.660156 123.609375 83.230469 123.015625 83.230469 122.234375 L 83.230469 120.648438 C 83.230469 120.589844 83.175781 120.566406 83.140625 120.605469 C 82.714844 121.007812 82.128906 121.210938 81.390625 121.210938 C 79.574219 121.210938 78.382812 120.027344 78.382812 118.019531 C 78.382812 115.859375 79.789062 114.726562 81.660156 114.726562 C 83.335938 114.726562 84.964844 115.664062 84.964844 118.03125 Z M 83.230469 117.945312 C 83.230469 117.410156 83.082031 116.183594 81.6875 116.183594 C 80.214844 116.183594 80.117188 117.621094 80.117188 117.988281 C 80.117188 118.921875 80.566406 119.796875 81.675781 119.796875 C 83.042969 119.796875 83.230469 118.601562 83.230469 117.945312 Z M 83.230469 117.945312 "/>
</g>
</svg>
