<?xml version="1.0" encoding="UTF-8"?>
<svg xmlns="http://www.w3.org/2000/svg" xmlns:xlink="http://www.w3.org/1999/xlink" width="90px" height="130px" viewBox="0 0 90 130" version="1.1">
<g id="surface1">
<path style="fill-rule:nonzero;fill:rgb(100%,100%,100%);fill-opacity:1;stroke-width:1.8;stroke-linecap:butt;stroke-linejoin:round;stroke:rgb(20%,18.039216%,18.039216%);stroke-opacity:1;stroke-miterlimit:4;" d="M 1986.096914 695.288451 L 2109.695887 695.288451 C 2114.944585 695.288451 2119.200116 699.540813 2119.200116 704.789922 L 2119.200116 899.388845 C 2119.200116 904.637954 2114.944585 908.890316 2109.695887 908.890316 L 1986.096914 908.890316 C 1980.854502 908.890316 1976.598971 904.637954 1976.598971 899.388845 L 1976.598971 704.789922 C 1976.598971 699.540813 1980.854502 695.288451 1986.096914 695.288451 Z M 1986.096914 695.288451 " transform="matrix(0.621434,0,0,0.603525,-1227.634228,-419.080985)"/>
<path style="fill:none;stroke-width:1;stroke-linecap:butt;stroke-linejoin:miter;stroke:rgb(65.098041%,54.901963%,34.901962%);stroke-opacity:1;stroke-miterlimit:4;" d="M 9.999542 6.998817 L 109.997652 6.998817 C 111.658802 6.998817 113.001304 8.345572 113.001304 10.00062 L 113.001304 169.999427 C 113.001304 171.654475 111.658802 173.00123 109.997652 173.00123 L 9.999542 173.00123 C 8.343616 173.00123 7.001114 171.654475 7.001114 169.999427 L 7.001114 10.00062 C 7.001114 8.345572 8.343616 6.998817 9.999542 6.998817 Z M 9.999542 6.998817 " transform="matrix(0.747788,0,0,0.722222,0.135748,-0.0000136668)"/>
<path style=" stroke:none;fill-rule:nonzero;fill:rgb(94.901961%,19.215687%,19.215687%);fill-opacity:1;" d="M 21.074219 8.304688 C 18.183594 8.304688 15.839844 10.371094 15.839844 13.359375 C 15.835938 19.140625 21.820312 20.582031 26.308594 27.804688 C 30.878906 20.449219 36.707031 19.1875 36.777344 13.359375 C 36.75 10.371094 34.433594 8.304688 31.542969 8.304688 C 28.789062 8.304688 27.28125 9.964844 26.308594 11.917969 C 25.335938 9.964844 23.828125 8.304688 21.074219 8.304688 Z M 21.074219 8.304688 "/>
<path style=" stroke:none;fill-rule:nonzero;fill:rgb(94.901961%,19.215687%,19.215687%);fill-opacity:1;" d="M 31.542969 121.695312 C 34.433594 121.695312 36.777344 119.628906 36.777344 116.640625 C 36.78125 110.859375 30.796875 109.417969 26.308594 102.195312 C 21.738281 109.550781 15.910156 110.8125 15.839844 116.640625 C 15.867188 119.628906 18.183594 121.695312 21.074219 121.695312 C 23.828125 121.695312 25.335938 120.035156 26.308594 118.082031 C 27.28125 120.035156 28.789062 121.695312 31.542969 121.695312 Z M 31.542969 121.695312 "/>
<path style=" stroke:none;fill-rule:nonzero;fill:rgb(94.901961%,19.215687%,19.215687%);fill-opacity:1;" d="M 58.464844 8.304688 C 55.570312 8.304688 53.230469 10.371094 53.230469 13.359375 C 53.226562 19.140625 59.210938 20.582031 63.699219 27.804688 C 68.269531 20.449219 74.09375 19.1875 74.167969 13.359375 C 74.136719 10.371094 71.824219 8.304688 68.933594 8.304688 C 66.175781 8.304688 64.667969 9.964844 63.699219 11.917969 C 62.726562 9.964844 61.21875 8.304688 58.464844 8.304688 Z M 58.464844 8.304688 "/>
<path style=" stroke:none;fill-rule:nonzero;fill:rgb(94.901961%,19.215687%,19.215687%);fill-opacity:1;" d="M 68.933594 121.695312 C 71.824219 121.695312 74.164062 119.628906 74.167969 116.640625 C 74.167969 110.859375 68.183594 109.417969 63.699219 102.195312 C 59.125 109.550781 53.300781 110.8125 53.230469 116.640625 C 53.257812 119.628906 55.570312 121.695312 58.464844 121.695312 C 61.21875 121.695312 62.726562 120.035156 63.699219 118.082031 C 64.667969 120.035156 66.175781 121.695312 68.933594 121.695312 Z M 68.933594 121.695312 "/>
<path style=" stroke:none;fill-rule:nonzero;fill:rgb(100%,100%,100%);fill-opacity:1;" d="M 3.878906 4.335938 L 3.878906 28.167969 L 14.347656 28.167969 L 14.347656 4.335938 Z M 3.878906 4.335938 "/>
<path style=" stroke:none;fill-rule:nonzero;fill:rgb(94.901961%,19.215687%,19.215687%);fill-opacity:1;" d="M 6.175781 18.027344 C 5.058594 18.027344 4.15625 18.789062 4.15625 19.898438 C 4.15625 22.035156 6.464844 22.570312 8.195312 25.242188 C 9.960938 22.519531 12.210938 22.054688 12.238281 19.898438 C 12.226562 18.789062 11.332031 18.027344 10.21875 18.027344 C 9.152344 18.027344 8.570312 18.640625 8.195312 19.363281 C 7.820312 18.640625 7.238281 18.027344 6.175781 18.027344 Z M 6.175781 18.027344 "/>
<path style=" stroke:none;fill-rule:nonzero;fill:rgb(100%,100%,100%);fill-opacity:1;" d="M 86.128906 125.664062 L 86.128906 101.832031 L 75.660156 101.832031 L 75.660156 125.664062 Z M 86.128906 125.664062 "/>
<path style=" stroke:none;fill-rule:nonzero;fill:rgb(94.901961%,19.215687%,19.215687%);fill-opacity:1;" d="M 83.894531 111.980469 C 85.011719 111.980469 85.914062 111.214844 85.914062 110.109375 C 85.917969 107.972656 83.605469 107.4375 81.875 104.765625 C 80.109375 107.488281 77.863281 107.953125 77.832031 110.109375 C 77.84375 111.214844 78.738281 111.980469 79.855469 111.980469 C 80.917969 111.980469 81.5 111.363281 81.875 110.644531 C 82.25 111.363281 82.832031 111.980469 83.894531 111.980469 Z M 83.894531 111.980469 "/>
<path style=" stroke:none;fill-rule:nonzero;fill:rgb(94.901961%,19.215687%,19.215687%);fill-opacity:1;" d="M 11.859375 11.027344 C 11.949219 11.027344 12.039062 11.113281 12.039062 11.203125 L 12.039062 12.386719 C 12.039062 12.449219 11.996094 12.558594 11.859375 12.558594 L 11.234375 12.558594 C 11.179688 12.558594 11.15625 12.582031 11.15625 12.632812 L 11.15625 15.09375 C 11.15625 15.160156 11.113281 15.269531 10.980469 15.269531 L 9.601562 15.269531 C 9.484375 15.269531 9.421875 15.203125 9.421875 15.09375 L 9.421875 12.632812 C 9.421875 12.582031 9.402344 12.558594 9.347656 12.558594 L 4.800781 12.558594 C 4.683594 12.558594 4.621094 12.496094 4.621094 12.386719 L 4.621094 11.441406 C 4.621094 11.382812 4.636719 11.308594 4.667969 11.214844 L 7.492188 5.078125 C 7.53125 4.992188 7.605469 4.945312 7.703125 4.945312 L 9.167969 4.945312 C 9.265625 4.945312 9.371094 4.996094 9.304688 5.15625 L 6.640625 10.941406 C 6.632812 10.96875 6.632812 11.027344 6.6875 11.027344 L 9.347656 11.027344 C 9.402344 11.027344 9.421875 11.007812 9.421875 10.957031 L 9.421875 8.949219 C 9.421875 8.816406 9.535156 8.773438 9.601562 8.773438 L 10.980469 8.773438 C 11.070312 8.773438 11.15625 8.863281 11.15625 8.949219 L 11.15625 10.957031 C 11.15625 11.007812 11.179688 11.027344 11.234375 11.027344 Z M 11.859375 11.027344 "/>
<path style=" stroke:none;fill-rule:nonzero;fill:rgb(94.901961%,19.215687%,19.215687%);fill-opacity:1;" d="M 78.144531 118.972656 C 78.054688 118.972656 77.964844 118.886719 77.964844 118.796875 L 77.964844 117.613281 C 77.964844 117.550781 78.011719 117.441406 78.144531 117.441406 L 78.773438 117.441406 C 78.824219 117.441406 78.847656 117.417969 78.847656 117.367188 L 78.847656 114.90625 C 78.847656 114.839844 78.894531 114.730469 79.027344 114.730469 L 80.402344 114.730469 C 80.523438 114.730469 80.582031 114.796875 80.582031 114.90625 L 80.582031 117.367188 C 80.582031 117.417969 80.605469 117.441406 80.65625 117.441406 L 85.203125 117.441406 C 85.324219 117.441406 85.382812 117.503906 85.382812 117.613281 L 85.382812 118.558594 C 85.382812 118.617188 85.367188 118.691406 85.339844 118.785156 L 82.511719 124.921875 C 82.476562 125.007812 82.398438 125.054688 82.300781 125.054688 L 80.835938 125.054688 C 80.738281 125.054688 80.636719 125.003906 80.703125 124.84375 L 83.363281 119.058594 C 83.371094 119.03125 83.371094 118.972656 83.320312 118.972656 L 80.65625 118.972656 C 80.605469 118.972656 80.582031 118.992188 80.582031 119.042969 L 80.582031 121.050781 C 80.582031 121.183594 80.46875 121.226562 80.402344 121.226562 L 79.027344 121.226562 C 78.9375 121.226562 78.847656 121.136719 78.847656 121.050781 L 78.847656 119.042969 C 78.847656 118.992188 78.824219 118.972656 78.773438 118.972656 Z M 78.144531 118.972656 "/>
</g>
</svg>
