<?xml version="1.0" encoding="UTF-8"?>
<svg xmlns="http://www.w3.org/2000/svg" xmlns:xlink="http://www.w3.org/1999/xlink" width="90px" height="130px" viewBox="0 0 90 130" version="1.1">
<g id="surface1">
<path style="fill-rule:nonzero;fill:rgb(100%,100%,100%);fill-opacity:1;stroke-width:1.8;stroke-linecap:butt;stroke-linejoin:round;stroke:rgb(20%,18.039216%,18.039216%);stroke-opacity:1;stroke-miterlimit:4;" d="M 1986.096921 695.288463 L 2109.695894 695.288463 C 2114.944592 695.288463 2119.200123 699.540824 2119.200123 704.789933 L 2119.200123 899.388856 C 2119.200123 904.637966 2114.944592 908.890327 2109.695894 908.890327 L 1986.096921 908.890327 C 1980.854509 908.890327 1976.598978 904.637966 1976.598978 899.388856 L 1976.598978 704.789933 C 1976.598978 699.540824 1980.854509 695.288463 1986.096921 695.288463 Z M 1986.096921 695.288463 " transform="matrix(0.621434,0,0,0.603525,-1227.634233,-419.080992)"/>
<path style="fill:none;stroke-width:1;stroke-linecap:butt;stroke-linejoin:miter;stroke:rgb(65.098041%,54.901963%,34.901962%);stroke-opacity:1;stroke-miterlimit:4;" d="M 9.999548 6.998827 L 109.997658 6.998827 C 111.658808 6.998827 113.00131 8.345582 113.00131 10.00063 L 113.00131 169.999436 C 113.00131 171.654485 111.658808 173.001239 109.997658 173.001239 L 9.999548 173.001239 C 8.343622 173.001239 7.00112 171.654485 7.00112 169.999436 L 7.00112 10.00063 C 7.00112 8.345582 8.343622 6.998827 9.999548 6.998827 Z M 9.999548 6.998827 " transform="matrix(0.747788,0,0,0.722222,0.135743,-0.0000205002)"/>
<path style=" stroke:none;fill-rule:nonzero;fill:rgb(100%,100%,100%);fill-opacity:1;" d="M 3.878906 4.335938 L 3.878906 28.167969 L 14.347656 28.167969 L 14.347656 4.335938 Z M 3.878906 4.335938 "/>
<path style=" stroke:none;fill-rule:nonzero;fill:rgb(20%,18.039216%,18.039216%);fill-opacity:1;" d="M 26.261719 7.945312 C 26.261719 7.945312 24.679688 10.828125 21.402344 13.542969 C 18.785156 15.707031 15.980469 18.089844 15.980469 21.484375 C 15.980469 24.078125 17.699219 26.359375 20.28125 26.359375 C 23.296875 26.359375 24.863281 23.871094 24.863281 21.957031 C 24.863281 21.8125 24.996094 21.703125 25.140625 21.703125 C 25.289062 21.703125 25.410156 21.8125 25.421875 21.957031 L 25.421875 22.929688 C 25.421875 25.875 25.089844 28.089844 22.710938 29.792969 L 23.609375 30.695312 C 23.609375 30.695312 24.769531 29.828125 26.261719 29.828125 C 27.757812 29.828125 28.917969 30.695312 28.917969 30.695312 L 29.816406 29.792969 C 27.4375 28.089844 27.105469 25.875 27.105469 22.929688 L 27.105469 21.957031 C 27.113281 21.8125 27.238281 21.703125 27.386719 21.703125 C 27.53125 21.703125 27.664062 21.8125 27.664062 21.957031 C 27.664062 23.871094 29.226562 26.359375 32.246094 26.359375 C 34.828125 26.359375 36.546875 24.078125 36.546875 21.484375 C 36.546875 18.089844 33.742188 15.707031 31.125 13.542969 C 27.847656 10.828125 26.261719 7.945312 26.261719 7.945312 Z M 26.261719 7.945312 "/>
<path style=" stroke:none;fill-rule:nonzero;fill:rgb(20%,18.039216%,18.039216%);fill-opacity:1;" d="M 26.328125 122.054688 C 26.328125 122.054688 27.910156 119.171875 31.191406 116.457031 C 33.808594 114.292969 36.613281 111.910156 36.613281 108.515625 C 36.613281 105.921875 34.894531 103.640625 32.3125 103.640625 C 29.292969 103.640625 27.730469 106.128906 27.730469 108.042969 C 27.730469 108.1875 27.597656 108.296875 27.449219 108.296875 C 27.304688 108.296875 27.179688 108.1875 27.171875 108.042969 L 27.171875 107.070312 C 27.171875 104.125 27.5 101.910156 29.882812 100.207031 L 28.984375 99.304688 C 28.984375 99.304688 27.824219 100.171875 26.328125 100.171875 C 24.832031 100.171875 23.675781 99.304688 23.675781 99.304688 L 22.777344 100.207031 C 25.15625 101.910156 25.488281 104.125 25.488281 107.070312 L 25.488281 108.042969 C 25.476562 108.1875 25.355469 108.296875 25.207031 108.296875 C 25.058594 108.296875 24.925781 108.1875 24.925781 108.042969 C 24.925781 106.128906 23.363281 103.640625 20.347656 103.640625 C 17.765625 103.640625 16.046875 105.921875 16.046875 108.515625 C 16.046875 111.910156 18.851562 114.292969 21.46875 116.457031 C 24.746094 119.171875 26.328125 122.054688 26.328125 122.054688 Z M 26.328125 122.054688 "/>
<path style=" stroke:none;fill-rule:nonzero;fill:rgb(20%,18.039216%,18.039216%);fill-opacity:1;" d="M 63.652344 7.945312 C 63.652344 7.945312 62.070312 10.828125 58.792969 13.542969 C 56.175781 15.707031 53.371094 18.089844 53.371094 21.484375 C 53.371094 24.078125 55.089844 26.359375 57.671875 26.359375 C 60.6875 26.359375 62.25 23.871094 62.25 21.957031 C 62.25 21.8125 62.382812 21.703125 62.53125 21.703125 C 62.679688 21.703125 62.800781 21.8125 62.8125 21.957031 L 62.8125 22.929688 C 62.8125 25.875 62.480469 28.089844 60.101562 29.792969 L 61 30.695312 C 61 30.695312 62.15625 29.828125 63.652344 29.828125 C 65.148438 29.828125 66.308594 30.695312 66.308594 30.695312 L 67.203125 29.792969 C 64.824219 28.089844 64.492188 25.875 64.492188 22.929688 L 64.492188 21.957031 C 64.503906 21.8125 64.628906 21.703125 64.773438 21.703125 C 64.921875 21.703125 65.054688 21.8125 65.054688 21.957031 C 65.054688 23.871094 66.617188 26.359375 69.636719 26.359375 C 72.214844 26.359375 73.933594 24.078125 73.933594 21.484375 C 73.933594 18.089844 71.128906 15.707031 68.511719 13.542969 C 65.234375 10.828125 63.652344 7.945312 63.652344 7.945312 Z M 63.652344 7.945312 "/>
<path style=" stroke:none;fill-rule:nonzero;fill:rgb(20%,18.039216%,18.039216%);fill-opacity:1;" d="M 63.71875 122.054688 C 63.71875 122.054688 65.300781 119.171875 68.578125 116.457031 C 71.195312 114.292969 74 111.910156 74 108.515625 C 74 105.921875 72.28125 103.640625 69.699219 103.640625 C 66.683594 103.640625 65.121094 106.128906 65.121094 108.042969 C 65.121094 108.1875 64.988281 108.296875 64.839844 108.296875 C 64.691406 108.296875 64.570312 108.1875 64.558594 108.042969 L 64.558594 107.070312 C 64.558594 104.125 64.890625 101.910156 67.269531 100.207031 L 66.375 99.304688 C 66.375 99.304688 65.214844 100.171875 63.71875 100.171875 C 62.222656 100.171875 61.0625 99.304688 61.0625 99.304688 L 60.167969 100.207031 C 62.546875 101.910156 62.878906 104.125 62.878906 107.070312 L 62.878906 108.042969 C 62.867188 108.1875 62.746094 108.296875 62.597656 108.296875 C 62.449219 108.296875 62.316406 108.1875 62.316406 108.042969 C 62.316406 106.128906 60.753906 103.640625 57.738281 103.640625 C 55.15625 103.640625 53.4375 105.921875 53.4375 108.515625 C 53.4375 111.910156 56.242188 114.292969 58.859375 116.457031 C 62.136719 119.171875 63.71875 122.054688 63.71875 122.054688 Z M 63.71875 122.054688 "/>
<path style=" stroke:none;fill-rule:nonzero;fill:rgb(20%,18.039216%,18.039216%);fill-opacity:1;" d="M 45.003906 53.625 C 45.003906 53.625 43.421875 56.507812 40.140625 59.222656 C 37.523438 61.390625 34.722656 63.773438 34.722656 67.167969 C 34.722656 69.757812 36.4375 72.042969 39.019531 72.042969 C 42.039062 72.042969 43.601562 69.550781 43.601562 67.636719 C 43.601562 67.492188 43.734375 67.382812 43.882812 67.382812 C 44.027344 67.382812 44.152344 67.492188 44.160156 67.636719 L 44.160156 68.609375 C 44.160156 71.554688 43.832031 73.769531 41.449219 75.472656 L 42.347656 76.375 C 42.347656 76.375 43.507812 75.507812 45.003906 75.507812 C 46.5 75.507812 47.65625 76.375 47.65625 76.375 L 48.554688 75.472656 C 46.175781 73.769531 45.84375 71.554688 45.84375 68.609375 L 45.84375 67.636719 C 45.855469 67.492188 45.976562 67.382812 46.125 67.382812 C 46.273438 67.382812 46.40625 67.492188 46.40625 67.636719 C 46.40625 69.550781 47.96875 72.042969 50.984375 72.042969 C 53.566406 72.042969 55.285156 69.757812 55.285156 67.167969 C 55.285156 63.773438 52.480469 61.390625 49.863281 59.222656 C 46.585938 56.507812 45.003906 53.625 45.003906 53.625 Z M 45.003906 53.625 "/>
<path style=" stroke:none;fill-rule:nonzero;fill:rgb(20%,18.039216%,18.039216%);fill-opacity:1;" d="M 8.183594 17.332031 C 8.183594 17.332031 7.550781 18.488281 6.238281 19.570312 C 5.191406 20.4375 4.070312 21.390625 4.070312 22.75 C 4.070312 23.785156 4.757812 24.699219 5.789062 24.699219 C 6.996094 24.699219 7.621094 23.703125 7.621094 22.9375 C 7.621094 22.878906 7.675781 22.835938 7.734375 22.835938 C 7.792969 22.835938 7.839844 22.878906 7.84375 22.9375 L 7.84375 23.328125 C 7.84375 24.503906 7.714844 25.390625 6.761719 26.070312 L 7.121094 26.433594 C 7.121094 26.433594 7.582031 26.085938 8.183594 26.085938 C 8.78125 26.085938 9.242188 26.433594 9.242188 26.433594 L 9.601562 26.070312 C 8.652344 25.390625 8.519531 24.503906 8.519531 23.328125 L 8.519531 22.9375 C 8.523438 22.878906 8.570312 22.835938 8.628906 22.835938 C 8.691406 22.835938 8.742188 22.878906 8.742188 22.9375 C 8.742188 23.703125 9.367188 24.699219 10.574219 24.699219 C 11.605469 24.699219 12.292969 23.785156 12.292969 22.75 C 12.292969 21.390625 11.171875 20.4375 10.125 19.570312 C 8.816406 18.488281 8.183594 17.332031 8.183594 17.332031 Z M 8.183594 17.332031 "/>
<path style=" stroke:none;fill-rule:nonzero;fill:rgb(100%,100%,100%);fill-opacity:1;" d="M 86.128906 125.664062 L 86.128906 101.832031 L 75.660156 101.832031 L 75.660156 125.664062 Z M 86.128906 125.664062 "/>
<path style=" stroke:none;fill-rule:nonzero;fill:rgb(20%,18.039216%,18.039216%);fill-opacity:1;" d="M 81.890625 112.671875 C 81.890625 112.671875 82.523438 111.519531 83.835938 110.433594 C 84.882812 109.566406 86.003906 108.613281 86.003906 107.253906 C 86.003906 106.21875 85.316406 105.304688 84.28125 105.304688 C 83.074219 105.304688 82.449219 106.300781 82.449219 107.066406 C 82.449219 107.125 82.398438 107.167969 82.339844 107.167969 C 82.28125 107.167969 82.230469 107.125 82.226562 107.066406 L 82.226562 106.679688 C 82.226562 105.5 82.359375 104.613281 83.3125 103.933594 L 82.953125 103.574219 C 82.953125 103.574219 82.488281 103.917969 81.890625 103.917969 C 81.292969 103.917969 80.828125 103.574219 80.828125 103.574219 L 80.46875 103.933594 C 81.421875 104.613281 81.554688 105.5 81.554688 106.679688 L 81.554688 107.066406 C 81.550781 107.125 81.5 107.167969 81.441406 107.167969 C 81.382812 107.167969 81.328125 107.125 81.328125 107.066406 C 81.328125 106.300781 80.703125 105.304688 79.496094 105.304688 C 78.464844 105.304688 77.777344 106.21875 77.777344 107.253906 C 77.777344 108.613281 78.898438 109.566406 79.945312 110.433594 C 81.257812 111.519531 81.890625 112.671875 81.890625 112.671875 Z M 81.890625 112.671875 "/>
<path style=" stroke:none;fill-rule:nonzero;fill:rgb(20%,18.039216%,18.039216%);fill-opacity:1;" d="M 11.621094 11.988281 C 11.621094 14.3125 9.976562 15.261719 8.316406 15.261719 C 6.722656 15.261719 5.648438 14.4375 5.234375 13.324219 C 5.152344 13.117188 5.09375 12.878906 5.042969 12.609375 L 5.042969 12.582031 C 5.042969 12.472656 5.101562 12.421875 5.21875 12.421875 L 6.640625 12.421875 C 6.738281 12.421875 6.804688 12.472656 6.835938 12.582031 C 6.84375 12.640625 6.875 12.726562 6.910156 12.839844 C 7.121094 13.433594 7.582031 13.832031 8.300781 13.832031 C 9.550781 13.832031 9.855469 12.683594 9.855469 11.996094 C 9.855469 11.195312 9.601562 10.203125 8.347656 10.203125 C 7.742188 10.203125 7.066406 10.488281 6.894531 11.007812 C 6.859375 11.101562 6.785156 11.152344 6.6875 11.152344 L 5.234375 11.152344 C 5.117188 11.152344 5.054688 11.085938 5.054688 10.976562 L 5.054688 5.292969 C 5.054688 5.164062 5.167969 5.121094 5.234375 5.121094 L 11.054688 5.121094 C 11.144531 5.121094 11.234375 5.207031 11.234375 5.292969 L 11.234375 6.382812 C 11.234375 6.449219 11.179688 6.558594 11.054688 6.558594 L 6.867188 6.558594 C 6.8125 6.558594 6.792969 6.578125 6.792969 6.628906 L 6.777344 9.214844 C 6.777344 9.296875 6.820312 9.300781 6.867188 9.257812 C 7.335938 8.925781 7.898438 8.761719 8.554688 8.761719 C 9.84375 8.761719 11.621094 9.433594 11.621094 12.003906 Z M 11.621094 11.988281 "/>
<path style=" stroke:none;fill-rule:nonzero;fill:rgb(20%,18.039216%,18.039216%);fill-opacity:1;" d="M 78.382812 118.011719 C 78.382812 115.683594 80.03125 114.738281 81.691406 114.738281 C 83.28125 114.738281 84.359375 115.5625 84.769531 116.675781 C 84.851562 116.882812 84.914062 117.121094 84.964844 117.390625 L 84.964844 117.417969 C 84.964844 117.527344 84.90625 117.578125 84.785156 117.578125 L 83.363281 117.578125 C 83.265625 117.578125 83.199219 117.527344 83.171875 117.417969 C 83.164062 117.359375 83.132812 117.273438 83.09375 117.160156 C 82.886719 116.566406 82.421875 116.167969 81.703125 116.167969 C 80.457031 116.167969 80.148438 117.316406 80.148438 118.003906 C 80.148438 118.804688 80.402344 119.796875 81.660156 119.796875 C 82.265625 119.796875 82.9375 119.511719 83.109375 118.992188 C 83.148438 118.898438 83.222656 118.847656 83.320312 118.847656 L 84.769531 118.847656 C 84.890625 118.847656 84.949219 118.914062 84.949219 119.023438 L 84.949219 124.707031 C 84.949219 124.835938 84.835938 124.878906 84.769531 124.878906 L 78.953125 124.878906 C 78.863281 124.878906 78.773438 124.792969 78.773438 124.707031 L 78.773438 123.617188 C 78.773438 123.550781 78.824219 123.441406 78.953125 123.441406 L 83.140625 123.441406 C 83.191406 123.441406 83.214844 123.421875 83.214844 123.371094 L 83.230469 120.785156 C 83.230469 120.703125 83.183594 120.699219 83.140625 120.742188 C 82.667969 121.074219 82.109375 121.238281 81.449219 121.238281 C 80.164062 121.238281 78.382812 120.566406 78.382812 117.996094 Z M 78.382812 118.011719 "/>
</g>
</svg>
