<?xml version="1.0" encoding="UTF-8"?>
<svg xmlns="http://www.w3.org/2000/svg" xmlns:xlink="http://www.w3.org/1999/xlink" width="90px" height="130px" viewBox="0 0 90 130" version="1.1">
<g id="surface1">
<path style="fill-rule:nonzero;fill:rgb(100%,100%,100%);fill-opacity:1;stroke-width:1.8;stroke-linecap:butt;stroke-linejoin:round;stroke:rgb(20%,18.039216%,18.039216%);stroke-opacity:1;stroke-miterlimit:4;" d="M 1986.096936 695.288463 L 2109.69591 695.288463 C 2114.944607 695.288463 2119.200138 699.540824 2119.200138 704.789933 L 2119.200138 899.388856 C 2119.200138 904.637966 2114.944607 908.890327 2109.69591 908.890327 L 1986.096936 908.890327 C 1980.854524 908.890327 1976.598994 904.637966 1976.598994 899.388856 L 1976.598994 704.789933 C 1976.598994 699.540824 1980.854524 695.288463 1986.096936 695.288463 Z M 1986.096936 695.288463 " transform="matrix(0.621434,0,0,0.603525,-1227.634242,-419.080992)"/>
<path style="fill:none;stroke-width:1;stroke-linecap:butt;stroke-linejoin:miter;stroke:rgb(65.098041%,54.901963%,34.901962%);stroke-opacity:1;stroke-miterlimit:4;" d="M 9.999561 6.998827 L 109.997671 6.998827 C 111.658821 6.998827 113.001323 8.345582 113.001323 10.00063 L 113.001323 169.999436 C 113.001323 171.654485 111.658821 173.001239 109.997671 173.001239 L 9.999561 173.001239 C 8.343634 173.001239 7.001133 171.654485 7.001133 169.999436 L 7.001133 10.00063 C 7.001133 8.345582 8.343634 6.998827 9.999561 6.998827 Z M 9.999561 6.998827 " transform="matrix(0.747788,0,0,0.722222,0.135734,-0.0000205002)"/>
<path style=" stroke:none;fill-rule:nonzero;fill:rgb(100%,100%,100%);fill-opacity:1;" d="M 3.878906 4.335938 L 3.878906 28.167969 L 14.347656 28.167969 L 14.347656 4.335938 Z M 3.878906 4.335938 "/>
<path style=" stroke:none;fill-rule:nonzero;fill:rgb(100%,100%,100%);fill-opacity:1;" d="M 86.128906 125.664062 L 86.128906 101.832031 L 75.660156 101.832031 L 75.660156 125.664062 Z M 86.128906 125.664062 "/>
<path style=" stroke:none;fill-rule:nonzero;fill:rgb(20%,18.039216%,18.039216%);fill-opacity:1;" d="M 26.261719 7.945312 C 26.261719 7.945312 24.679688 10.828125 21.402344 13.542969 C 18.785156 15.707031 15.980469 18.089844 15.980469 21.484375 C 15.980469 24.078125 17.699219 26.359375 20.28125 26.359375 C 23.296875 26.359375 24.863281 23.871094 24.863281 21.957031 C 24.863281 21.8125 24.996094 21.703125 25.140625 21.703125 C 25.289062 21.703125 25.410156 21.8125 25.421875 21.957031 L 25.421875 22.929688 C 25.421875 25.875 25.089844 28.089844 22.710938 29.792969 L 23.609375 30.695312 C 23.609375 30.695312 24.769531 29.828125 26.261719 29.828125 C 27.757812 29.828125 28.917969 30.695312 28.917969 30.695312 L 29.816406 29.792969 C 27.4375 28.089844 27.105469 25.875 27.105469 22.929688 L 27.105469 21.957031 C 27.113281 21.8125 27.238281 21.703125 27.386719 21.703125 C 27.53125 21.703125 27.664062 21.8125 27.664062 21.957031 C 27.664062 23.871094 29.226562 26.359375 32.246094 26.359375 C 34.828125 26.359375 36.546875 24.078125 36.546875 21.484375 C 36.546875 18.089844 33.742188 15.707031 31.125 13.542969 C 27.847656 10.828125 26.261719 7.945312 26.261719 7.945312 Z M 26.261719 7.945312 "/>
<path style=" stroke:none;fill-rule:nonzero;fill:rgb(20%,18.039216%,18.039216%);fill-opacity:1;" d="M 26.328125 122.054688 C 26.328125 122.054688 27.910156 119.171875 31.191406 116.457031 C 33.808594 114.292969 36.609375 111.910156 36.609375 108.515625 C 36.609375 105.921875 34.894531 103.640625 32.3125 103.640625 C 29.292969 103.640625 27.730469 106.128906 27.730469 108.042969 C 27.730469 108.1875 27.597656 108.296875 27.449219 108.296875 C 27.304688 108.296875 27.179688 108.1875 27.171875 108.042969 L 27.171875 107.070312 C 27.171875 104.125 27.5 101.910156 29.882812 100.207031 L 28.984375 99.304688 C 28.984375 99.304688 27.824219 100.171875 26.328125 100.171875 C 24.832031 100.171875 23.675781 99.304688 23.675781 99.304688 L 22.777344 100.207031 C 25.15625 101.910156 25.488281 104.125 25.488281 107.070312 L 25.488281 108.042969 C 25.476562 108.1875 25.355469 108.296875 25.207031 108.296875 C 25.058594 108.296875 24.925781 108.1875 24.925781 108.042969 C 24.925781 106.128906 23.363281 103.640625 20.347656 103.640625 C 17.765625 103.640625 16.046875 105.921875 16.046875 108.515625 C 16.046875 111.910156 18.851562 114.292969 21.46875 116.457031 C 24.746094 119.171875 26.328125 122.054688 26.328125 122.054688 Z M 26.328125 122.054688 "/>
<path style=" stroke:none;fill-rule:nonzero;fill:rgb(20%,18.039216%,18.039216%);fill-opacity:1;" d="M 26.261719 53.625 C 26.261719 53.625 24.679688 56.507812 21.402344 59.222656 C 18.785156 61.390625 15.980469 63.773438 15.980469 67.167969 C 15.980469 69.757812 17.699219 72.042969 20.28125 72.042969 C 23.296875 72.042969 24.863281 69.550781 24.863281 67.636719 C 24.863281 67.492188 24.996094 67.382812 25.140625 67.382812 C 25.289062 67.382812 25.410156 67.492188 25.421875 67.636719 L 25.421875 68.609375 C 25.421875 71.554688 25.089844 73.769531 22.710938 75.472656 L 23.609375 76.375 C 23.609375 76.375 24.769531 75.507812 26.261719 75.507812 C 27.757812 75.507812 28.917969 76.375 28.917969 76.375 L 29.816406 75.472656 C 27.4375 73.769531 27.105469 71.554688 27.105469 68.609375 L 27.105469 67.636719 C 27.113281 67.492188 27.238281 67.382812 27.386719 67.382812 C 27.53125 67.382812 27.664062 67.492188 27.664062 67.636719 C 27.664062 69.550781 29.226562 72.042969 32.246094 72.042969 C 34.828125 72.042969 36.546875 69.757812 36.546875 67.167969 C 36.546875 63.773438 33.742188 61.390625 31.125 59.222656 C 27.847656 56.507812 26.261719 53.625 26.261719 53.625 Z M 26.261719 53.625 "/>
<path style=" stroke:none;fill-rule:nonzero;fill:rgb(20%,18.039216%,18.039216%);fill-opacity:1;" d="M 63.652344 7.945312 C 63.652344 7.945312 62.070312 10.828125 58.792969 13.542969 C 56.175781 15.707031 53.371094 18.089844 53.371094 21.484375 C 53.371094 24.078125 55.089844 26.359375 57.671875 26.359375 C 60.6875 26.359375 62.25 23.871094 62.25 21.957031 C 62.25 21.8125 62.382812 21.703125 62.53125 21.703125 C 62.679688 21.703125 62.800781 21.8125 62.8125 21.957031 L 62.8125 22.929688 C 62.8125 25.875 62.480469 28.089844 60.101562 29.792969 L 61 30.695312 C 61 30.695312 62.15625 29.828125 63.652344 29.828125 C 65.148438 29.828125 66.308594 30.695312 66.308594 30.695312 L 67.203125 29.792969 C 64.824219 28.089844 64.492188 25.875 64.492188 22.929688 L 64.492188 21.957031 C 64.503906 21.8125 64.628906 21.703125 64.773438 21.703125 C 64.921875 21.703125 65.054688 21.8125 65.054688 21.957031 C 65.054688 23.871094 66.617188 26.359375 69.636719 26.359375 C 72.214844 26.359375 73.933594 24.078125 73.933594 21.484375 C 73.933594 18.089844 71.128906 15.707031 68.511719 13.542969 C 65.234375 10.828125 63.652344 7.945312 63.652344 7.945312 Z M 63.652344 7.945312 "/>
<path style=" stroke:none;fill-rule:nonzero;fill:rgb(20%,18.039216%,18.039216%);fill-opacity:1;" d="M 63.71875 122.054688 C 63.71875 122.054688 65.300781 119.171875 68.578125 116.457031 C 71.195312 114.292969 74 111.910156 74 108.515625 C 74 105.921875 72.28125 103.640625 69.699219 103.640625 C 66.683594 103.640625 65.121094 106.128906 65.121094 108.042969 C 65.121094 108.1875 64.988281 108.296875 64.839844 108.296875 C 64.691406 108.296875 64.570312 108.1875 64.558594 108.042969 L 64.558594 107.070312 C 64.558594 104.125 64.890625 101.910156 67.269531 100.207031 L 66.375 99.304688 C 66.375 99.304688 65.214844 100.171875 63.71875 100.171875 C 62.222656 100.171875 61.0625 99.304688 61.0625 99.304688 L 60.167969 100.207031 C 62.546875 101.910156 62.878906 104.125 62.878906 107.070312 L 62.878906 108.042969 C 62.867188 108.1875 62.746094 108.296875 62.597656 108.296875 C 62.449219 108.296875 62.316406 108.1875 62.316406 108.042969 C 62.316406 106.128906 60.753906 103.640625 57.734375 103.640625 C 55.15625 103.640625 53.4375 105.921875 53.4375 108.515625 C 53.4375 111.910156 56.242188 114.292969 58.859375 116.457031 C 62.136719 119.171875 63.71875 122.054688 63.71875 122.054688 Z M 63.71875 122.054688 "/>
<path style=" stroke:none;fill-rule:nonzero;fill:rgb(20%,18.039216%,18.039216%);fill-opacity:1;" d="M 63.652344 53.625 C 63.652344 53.625 62.070312 56.507812 58.792969 59.222656 C 56.175781 61.390625 53.371094 63.773438 53.371094 67.167969 C 53.371094 69.757812 55.089844 72.042969 57.671875 72.042969 C 60.6875 72.042969 62.25 69.550781 62.25 67.636719 C 62.25 67.492188 62.382812 67.382812 62.53125 67.382812 C 62.679688 67.382812 62.800781 67.492188 62.8125 67.636719 L 62.8125 68.609375 C 62.8125 71.554688 62.480469 73.769531 60.101562 75.472656 L 61 76.375 C 61 76.375 62.15625 75.507812 63.652344 75.507812 C 65.148438 75.507812 66.308594 76.375 66.308594 76.375 L 67.203125 75.472656 C 64.824219 73.769531 64.492188 71.554688 64.492188 68.609375 L 64.492188 67.636719 C 64.503906 67.492188 64.628906 67.382812 64.773438 67.382812 C 64.921875 67.382812 65.054688 67.492188 65.054688 67.636719 C 65.054688 69.550781 66.617188 72.042969 69.636719 72.042969 C 72.214844 72.042969 73.933594 69.757812 73.933594 67.167969 C 73.933594 63.773438 71.128906 61.390625 68.511719 59.222656 C 65.234375 56.507812 63.652344 53.625 63.652344 53.625 Z M 63.652344 53.625 "/>
<path style=" stroke:none;fill-rule:nonzero;fill:rgb(20%,18.039216%,18.039216%);fill-opacity:1;" d="M 44.957031 30.789062 C 44.957031 30.789062 43.375 33.671875 40.097656 36.386719 C 37.480469 38.550781 34.675781 40.933594 34.675781 44.328125 C 34.675781 46.921875 36.394531 49.203125 38.976562 49.203125 C 41.992188 49.203125 43.554688 46.714844 43.554688 44.800781 C 43.554688 44.65625 43.6875 44.546875 43.835938 44.546875 C 43.984375 44.546875 44.105469 44.65625 44.117188 44.800781 L 44.117188 45.773438 C 44.117188 48.71875 43.785156 50.933594 41.40625 52.636719 L 42.304688 53.539062 C 42.304688 53.539062 43.460938 52.671875 44.957031 52.671875 C 46.453125 52.671875 47.613281 53.539062 47.613281 53.539062 L 48.511719 52.636719 C 46.128906 50.933594 45.800781 48.71875 45.800781 45.773438 L 45.800781 44.800781 C 45.808594 44.65625 45.933594 44.546875 46.078125 44.546875 C 46.226562 44.546875 46.359375 44.65625 46.359375 44.800781 C 46.359375 46.714844 47.921875 49.203125 50.941406 49.203125 C 53.523438 49.203125 55.238281 46.921875 55.238281 44.328125 C 55.238281 40.933594 52.4375 38.550781 49.820312 36.386719 C 46.539062 33.671875 44.957031 30.789062 44.957031 30.789062 Z M 44.957031 30.789062 "/>
<path style=" stroke:none;fill-rule:nonzero;fill:rgb(20%,18.039216%,18.039216%);fill-opacity:1;" d="M 8.183594 17.332031 C 8.183594 17.332031 7.550781 18.488281 6.238281 19.570312 C 5.191406 20.4375 4.070312 21.390625 4.070312 22.75 C 4.070312 23.785156 4.757812 24.699219 5.789062 24.699219 C 6.996094 24.699219 7.621094 23.703125 7.621094 22.9375 C 7.621094 22.878906 7.675781 22.835938 7.734375 22.835938 C 7.792969 22.835938 7.839844 22.878906 7.84375 22.9375 L 7.84375 23.328125 C 7.84375 24.503906 7.714844 25.390625 6.761719 26.070312 L 7.121094 26.433594 C 7.121094 26.433594 7.582031 26.085938 8.183594 26.085938 C 8.78125 26.085938 9.242188 26.433594 9.242188 26.433594 L 9.601562 26.070312 C 8.652344 25.390625 8.519531 24.503906 8.519531 23.328125 L 8.519531 22.9375 C 8.523438 22.878906 8.570312 22.835938 8.628906 22.835938 C 8.691406 22.835938 8.742188 22.878906 8.742188 22.9375 C 8.742188 23.703125 9.367188 24.699219 10.574219 24.699219 C 11.605469 24.699219 12.292969 23.785156 12.292969 22.75 C 12.292969 21.390625 11.171875 20.4375 10.125 19.570312 C 8.816406 18.488281 8.183594 17.332031 8.183594 17.332031 Z M 8.183594 17.332031 "/>
<path style=" stroke:none;fill-rule:nonzero;fill:rgb(20%,18.039216%,18.039216%);fill-opacity:1;" d="M 81.890625 112.671875 C 81.890625 112.671875 82.523438 111.519531 83.835938 110.433594 C 84.882812 109.566406 86.003906 108.613281 86.003906 107.253906 C 86.003906 106.21875 85.316406 105.304688 84.28125 105.304688 C 83.074219 105.304688 82.449219 106.300781 82.449219 107.066406 C 82.449219 107.125 82.398438 107.167969 82.339844 107.167969 C 82.28125 107.167969 82.230469 107.125 82.226562 107.066406 L 82.226562 106.679688 C 82.226562 105.5 82.359375 104.613281 83.3125 103.933594 L 82.953125 103.574219 C 82.953125 103.574219 82.488281 103.917969 81.890625 103.917969 C 81.292969 103.917969 80.828125 103.574219 80.828125 103.574219 L 80.46875 103.933594 C 81.421875 104.613281 81.554688 105.5 81.554688 106.679688 L 81.554688 107.066406 C 81.550781 107.125 81.5 107.167969 81.441406 107.167969 C 81.382812 107.167969 81.328125 107.125 81.328125 107.066406 C 81.328125 106.300781 80.703125 105.304688 79.496094 105.304688 C 78.464844 105.304688 77.777344 106.21875 77.777344 107.253906 C 77.777344 108.613281 78.898438 109.566406 79.945312 110.433594 C 81.257812 111.519531 81.890625 112.671875 81.890625 112.671875 Z M 81.890625 112.671875 "/>
<path style=" stroke:none;fill-rule:nonzero;fill:rgb(20%,18.039216%,18.039216%);fill-opacity:1;" d="M 6.632812 15.238281 C 6.484375 15.238281 6.433594 15.175781 6.484375 15.035156 L 9.789062 6.660156 C 9.8125 6.601562 9.789062 6.570312 9.730469 6.570312 L 6.515625 6.570312 C 6.460938 6.570312 6.441406 6.59375 6.441406 6.644531 L 6.441406 7.292969 C 6.441406 7.359375 6.386719 7.46875 6.261719 7.46875 L 5.183594 7.46875 C 5.019531 7.46875 5.003906 7.34375 5.003906 7.292969 L 5.003906 5.300781 C 5.003906 5.179688 5.117188 5.128906 5.183594 5.128906 L 11.480469 5.128906 C 11.570312 5.128906 11.660156 5.214844 11.660156 5.300781 L 11.660156 6.457031 C 11.660156 6.515625 11.644531 6.585938 11.613281 6.671875 L 8.324219 15.09375 C 8.292969 15.1875 8.226562 15.238281 8.113281 15.238281 Z M 6.632812 15.238281 "/>
<path style=" stroke:none;fill-rule:nonzero;fill:rgb(20%,18.039216%,18.039216%);fill-opacity:1;" d="M 83.371094 114.761719 C 83.523438 114.761719 83.574219 114.824219 83.523438 114.964844 L 80.214844 123.339844 C 80.195312 123.398438 80.214844 123.429688 80.277344 123.429688 L 83.492188 123.429688 C 83.542969 123.429688 83.566406 123.40625 83.566406 123.355469 L 83.566406 122.707031 C 83.566406 122.640625 83.617188 122.53125 83.746094 122.53125 L 84.824219 122.53125 C 84.988281 122.53125 85.003906 122.65625 85.003906 122.707031 L 85.003906 124.699219 C 85.003906 124.820312 84.890625 124.871094 84.824219 124.871094 L 78.527344 124.871094 C 78.4375 124.871094 78.347656 124.785156 78.347656 124.699219 L 78.347656 123.542969 C 78.347656 123.484375 78.363281 123.414062 78.390625 123.328125 L 81.683594 114.90625 C 81.710938 114.8125 81.777344 114.761719 81.890625 114.761719 Z M 83.371094 114.761719 "/>
</g>
</svg>
