<?xml version="1.0" encoding="UTF-8"?>
<svg xmlns="http://www.w3.org/2000/svg" xmlns:xlink="http://www.w3.org/1999/xlink" width="90px" height="130px" viewBox="0 0 90 130" version="1.1">
<g id="surface1">
<path style="fill-rule:nonzero;fill:rgb(100%,100%,100%);fill-opacity:1;stroke-width:1.8;stroke-linecap:butt;stroke-linejoin:round;stroke:rgb(20%,18.039216%,18.039216%);stroke-opacity:1;stroke-miterlimit:4;" d="M 1986.096907 695.288463 L 2109.69588 695.288463 C 2114.944578 695.288463 2119.200109 699.540824 2119.200109 704.789933 L 2119.200109 899.388856 C 2119.200109 904.637966 2114.944578 908.890327 2109.69588 908.890327 L 1986.096907 908.890327 C 1980.854495 908.890327 1976.598964 904.637966 1976.598964 899.388856 L 1976.598964 704.789933 C 1976.598964 699.540824 1980.854495 695.288463 1986.096907 695.288463 Z M 1986.096907 695.288463 " transform="matrix(0.621434,0,0,0.603525,-1227.634224,-419.080992)"/>
<path style="fill:none;stroke-width:1;stroke-linecap:butt;stroke-linejoin:miter;stroke:rgb(65.098041%,54.901963%,34.901962%);stroke-opacity:1;stroke-miterlimit:4;" d="M 9.999537 6.998827 L 109.997647 6.998827 C 111.658797 6.998827 113.001299 8.345582 113.001299 10.00063 L 113.001299 169.999436 C 113.001299 171.654485 111.658797 173.001239 109.997647 173.001239 L 9.999537 173.001239 C 8.34361 173.001239 7.001108 171.654485 7.001108 169.999436 L 7.001108 10.00063 C 7.001108 8.345582 8.34361 6.998827 9.999537 6.998827 Z M 9.999537 6.998827 " transform="matrix(0.747788,0,0,0.722222,0.135752,-0.0000205002)"/>
<path style=" stroke:none;fill-rule:nonzero;fill:rgb(100%,100%,100%);fill-opacity:1;" d="M 3.878906 4.335938 L 3.878906 28.167969 L 14.347656 28.167969 L 14.347656 4.335938 Z M 3.878906 4.335938 "/>
<path style=" stroke:none;fill-rule:nonzero;fill:rgb(100%,100%,100%);fill-opacity:1;" d="M 86.128906 125.664062 L 86.128906 101.832031 L 75.660156 101.832031 L 75.660156 125.664062 Z M 86.128906 125.664062 "/>
<path style=" stroke:none;fill-rule:nonzero;fill:rgb(20%,18.039216%,18.039216%);fill-opacity:1;" d="M 45.003906 7.945312 C 45.003906 7.945312 43.421875 10.828125 40.140625 13.542969 C 37.523438 15.707031 34.722656 18.089844 34.722656 21.484375 C 34.722656 24.078125 36.4375 26.359375 39.019531 26.359375 C 42.039062 26.359375 43.601562 23.871094 43.601562 21.957031 C 43.601562 21.8125 43.734375 21.703125 43.882812 21.703125 C 44.027344 21.703125 44.152344 21.8125 44.160156 21.957031 L 44.160156 22.929688 C 44.160156 25.875 43.832031 28.089844 41.449219 29.792969 L 42.347656 30.695312 C 42.347656 30.695312 43.507812 29.828125 45.003906 29.828125 C 46.5 29.828125 47.65625 30.695312 47.65625 30.695312 L 48.554688 29.792969 C 46.175781 28.089844 45.84375 25.875 45.84375 22.929688 L 45.84375 21.957031 C 45.855469 21.8125 45.976562 21.703125 46.125 21.703125 C 46.273438 21.703125 46.40625 21.8125 46.40625 21.957031 C 46.40625 23.871094 47.96875 26.359375 50.984375 26.359375 C 53.566406 26.359375 55.285156 24.078125 55.285156 21.484375 C 55.285156 18.089844 52.480469 15.707031 49.863281 13.542969 C 46.585938 10.828125 45.003906 7.945312 45.003906 7.945312 Z M 45.003906 7.945312 "/>
<path style=" stroke:none;fill-rule:nonzero;fill:rgb(20%,18.039216%,18.039216%);fill-opacity:1;" d="M 45.070312 122.054688 C 45.070312 122.054688 46.652344 119.171875 49.929688 116.457031 C 52.546875 114.292969 55.351562 111.910156 55.351562 108.515625 C 55.351562 105.921875 53.632812 103.640625 51.050781 103.640625 C 48.035156 103.640625 46.472656 106.128906 46.472656 108.042969 C 46.472656 108.1875 46.335938 108.296875 46.191406 108.296875 C 46.042969 108.296875 45.921875 108.1875 45.910156 108.042969 L 45.910156 107.070312 C 45.910156 104.125 46.242188 101.910156 48.621094 100.207031 L 47.722656 99.304688 C 47.722656 99.304688 46.5625 100.171875 45.070312 100.171875 C 43.574219 100.171875 42.414062 99.304688 42.414062 99.304688 L 41.515625 100.207031 C 43.894531 101.910156 44.226562 104.125 44.226562 107.070312 L 44.226562 108.042969 C 44.21875 108.1875 44.09375 108.296875 43.945312 108.296875 C 43.800781 108.296875 43.667969 108.1875 43.667969 108.042969 C 43.667969 106.128906 42.105469 103.640625 39.085938 103.640625 C 36.503906 103.640625 34.785156 105.921875 34.785156 108.515625 C 34.785156 111.910156 37.589844 114.292969 40.207031 116.457031 C 43.488281 119.171875 45.070312 122.054688 45.070312 122.054688 Z M 45.070312 122.054688 "/>
<path style=" stroke:none;fill-rule:nonzero;fill:rgb(20%,18.039216%,18.039216%);fill-opacity:1;" d="M 8.183594 17.332031 C 8.183594 17.332031 7.550781 18.488281 6.238281 19.570312 C 5.191406 20.4375 4.070312 21.390625 4.070312 22.75 C 4.070312 23.785156 4.757812 24.699219 5.789062 24.699219 C 6.996094 24.699219 7.621094 23.703125 7.621094 22.9375 C 7.621094 22.878906 7.675781 22.835938 7.734375 22.835938 C 7.792969 22.835938 7.839844 22.878906 7.84375 22.9375 L 7.84375 23.328125 C 7.84375 24.503906 7.714844 25.390625 6.761719 26.070312 L 7.121094 26.433594 C 7.121094 26.433594 7.582031 26.085938 8.183594 26.085938 C 8.78125 26.085938 9.242188 26.433594 9.242188 26.433594 L 9.601562 26.070312 C 8.652344 25.390625 8.519531 24.503906 8.519531 23.328125 L 8.519531 22.9375 C 8.523438 22.878906 8.570312 22.835938 8.628906 22.835938 C 8.691406 22.835938 8.742188 22.878906 8.742188 22.9375 C 8.742188 23.703125 9.367188 24.699219 10.574219 24.699219 C 11.605469 24.699219 12.292969 23.785156 12.292969 22.75 C 12.292969 21.390625 11.171875 20.4375 10.125 19.570312 C 8.816406 18.488281 8.183594 17.332031 8.183594 17.332031 Z M 8.183594 17.332031 "/>
<path style=" stroke:none;fill-rule:nonzero;fill:rgb(20%,18.039216%,18.039216%);fill-opacity:1;" d="M 81.890625 112.671875 C 81.890625 112.671875 82.523438 111.519531 83.835938 110.433594 C 84.882812 109.566406 86.003906 108.613281 86.003906 107.253906 C 86.003906 106.21875 85.316406 105.304688 84.28125 105.304688 C 83.074219 105.304688 82.449219 106.300781 82.449219 107.066406 C 82.449219 107.125 82.398438 107.167969 82.339844 107.167969 C 82.28125 107.167969 82.230469 107.125 82.226562 107.066406 L 82.226562 106.679688 C 82.226562 105.5 82.359375 104.613281 83.3125 103.933594 L 82.953125 103.574219 C 82.953125 103.574219 82.488281 103.917969 81.890625 103.917969 C 81.292969 103.917969 80.828125 103.574219 80.828125 103.574219 L 80.46875 103.933594 C 81.421875 104.613281 81.554688 105.5 81.554688 106.679688 L 81.554688 107.066406 C 81.550781 107.125 81.5 107.167969 81.441406 107.167969 C 81.382812 107.167969 81.328125 107.125 81.328125 107.066406 C 81.328125 106.300781 80.703125 105.304688 79.496094 105.304688 C 78.464844 105.304688 77.777344 106.21875 77.777344 107.253906 C 77.777344 108.613281 78.898438 109.566406 79.945312 110.433594 C 81.257812 111.519531 81.890625 112.671875 81.890625 112.671875 Z M 81.890625 112.671875 "/>
<path style=" stroke:none;fill-rule:nonzero;fill:rgb(20%,18.039216%,18.039216%);fill-opacity:1;" d="M 7.277344 13.664062 C 7.226562 13.714844 7.246094 13.75 7.308594 13.75 L 11.570312 13.75 C 11.660156 13.75 11.75 13.835938 11.75 13.925781 L 11.75 15.015625 C 11.75 15.078125 11.703125 15.1875 11.570312 15.1875 L 5.136719 15.1875 C 5.085938 15.1875 4.960938 15.175781 4.960938 15.015625 L 4.960938 13.980469 C 4.960938 13.894531 4.988281 13.824219 5.046875 13.765625 C 6.199219 12.589844 7.285156 11.347656 8.382812 10.109375 C 9.296875 9.085938 9.761719 8.304688 9.761719 7.777344 C 9.761719 6.992188 9.132812 6.441406 8.203125 6.441406 C 7.320312 6.441406 6.664062 6.933594 6.664062 7.808594 L 6.664062 8.183594 C 6.664062 8.242188 6.617188 8.355469 6.484375 8.355469 L 5.09375 8.355469 C 4.980469 8.355469 4.914062 8.292969 4.914062 8.183594 L 4.914062 7.5625 C 4.972656 5.945312 6.433594 5.003906 8.203125 5.003906 C 10.335938 5.003906 11.507812 6.285156 11.507812 7.75 C 11.507812 8.535156 11.074219 9.4375 10.207031 10.464844 C 9.273438 11.570312 8.265625 12.601562 7.277344 13.65625 Z M 7.277344 13.664062 "/>
<path style=" stroke:none;fill-rule:nonzero;fill:rgb(20%,18.039216%,18.039216%);fill-opacity:1;" d="M 82.730469 116.335938 C 82.78125 116.285156 82.757812 116.25 82.699219 116.25 L 78.4375 116.25 C 78.347656 116.25 78.257812 116.164062 78.257812 116.074219 L 78.257812 114.984375 C 78.257812 114.921875 78.300781 114.8125 78.4375 114.8125 L 84.867188 114.8125 C 84.917969 114.8125 85.046875 114.824219 85.046875 114.984375 L 85.046875 116.019531 C 85.046875 116.105469 85.015625 116.175781 84.957031 116.234375 C 83.804688 117.410156 82.722656 118.652344 81.621094 119.890625 C 80.710938 120.914062 80.246094 121.695312 80.246094 122.222656 C 80.246094 123.007812 80.875 123.558594 81.800781 123.558594 C 82.683594 123.558594 83.34375 123.066406 83.34375 122.191406 L 83.34375 121.816406 C 83.34375 121.757812 83.386719 121.644531 83.523438 121.644531 L 84.914062 121.644531 C 85.023438 121.644531 85.09375 121.707031 85.09375 121.816406 L 85.09375 122.4375 C 85.03125 124.054688 83.574219 124.996094 81.800781 124.996094 C 79.671875 124.996094 78.496094 123.714844 78.496094 122.25 C 78.496094 121.464844 78.929688 120.558594 79.796875 119.535156 C 80.730469 118.429688 81.742188 117.398438 82.730469 116.34375 Z M 82.730469 116.335938 "/>
</g>
</svg>
