<?xml version="1.0" encoding="UTF-8"?>
<svg xmlns="http://www.w3.org/2000/svg" xmlns:xlink="http://www.w3.org/1999/xlink" width="90px" height="130px" viewBox="0 0 90 130" version="1.1">
<g id="surface1">
<path style="fill-rule:nonzero;fill:rgb(100%,100%,100%);fill-opacity:1;stroke-width:1.8;stroke-linecap:butt;stroke-linejoin:round;stroke:rgb(20%,18.039216%,18.039216%);stroke-opacity:1;stroke-miterlimit:4;" d="M 1986.096959 695.288463 L 2109.695932 695.288463 C 2114.94463 695.288463 2119.200161 699.540824 2119.200161 704.789933 L 2119.200161 899.388856 C 2119.200161 904.637966 2114.94463 908.890327 2109.695932 908.890327 L 1986.096959 908.890327 C 1980.854547 908.890327 1976.599016 904.637966 1976.599016 899.388856 L 1976.599016 704.789933 C 1976.599016 699.540824 1980.854547 695.288463 1986.096959 695.288463 Z M 1986.096959 695.288463 " transform="matrix(0.621434,0,0,0.603525,-1227.634256,-419.080992)"/>
<path style="fill:none;stroke-width:1;stroke-linecap:butt;stroke-linejoin:miter;stroke:rgb(65.098041%,54.901963%,34.901962%);stroke-opacity:1;stroke-miterlimit:4;" d="M 9.99958 6.998827 L 109.99769 6.998827 C 111.65884 6.998827 113.001342 8.345582 113.001342 10.00063 L 113.001342 169.999436 C 113.001342 171.654485 111.65884 173.001239 109.99769 173.001239 L 9.99958 173.001239 C 8.343653 173.001239 7.001151 171.654485 7.001151 169.999436 L 7.001151 10.00063 C 7.001151 8.345582 8.343653 6.998827 9.99958 6.998827 Z M 9.99958 6.998827 " transform="matrix(0.747788,0,0,0.722222,0.13572,-0.0000205002)"/>
<path style=" stroke:none;fill-rule:nonzero;fill:rgb(100%,100%,100%);fill-opacity:1;" d="M 3.878906 4.335938 L 3.878906 28.167969 L 14.347656 28.167969 L 14.347656 4.335938 Z M 3.878906 4.335938 "/>
<path style=" stroke:none;fill-rule:nonzero;fill:rgb(100%,100%,100%);fill-opacity:1;" d="M 86.128906 125.664062 L 86.128906 101.832031 L 75.660156 101.832031 L 75.660156 125.664062 Z M 86.128906 125.664062 "/>
<path style=" stroke:none;fill-rule:nonzero;fill:rgb(20%,18.039216%,18.039216%);fill-opacity:1;" d="M 26.261719 7.945312 C 26.261719 7.945312 24.679688 10.828125 21.402344 13.542969 C 18.785156 15.707031 15.980469 18.089844 15.980469 21.484375 C 15.980469 24.078125 17.699219 26.359375 20.28125 26.359375 C 23.296875 26.359375 24.859375 23.871094 24.859375 21.957031 C 24.859375 21.8125 24.996094 21.703125 25.140625 21.703125 C 25.289062 21.703125 25.410156 21.8125 25.421875 21.957031 L 25.421875 22.929688 C 25.421875 25.875 25.089844 28.089844 22.710938 29.792969 L 23.609375 30.695312 C 23.609375 30.695312 24.769531 29.828125 26.261719 29.828125 C 27.757812 29.828125 28.917969 30.695312 28.917969 30.695312 L 29.816406 29.792969 C 27.4375 28.089844 27.105469 25.875 27.105469 22.929688 L 27.105469 21.957031 C 27.113281 21.8125 27.238281 21.703125 27.386719 21.703125 C 27.53125 21.703125 27.664062 21.8125 27.664062 21.957031 C 27.664062 23.871094 29.226562 26.359375 32.246094 26.359375 C 34.828125 26.359375 36.546875 24.078125 36.546875 21.484375 C 36.546875 18.089844 33.742188 15.707031 31.125 13.542969 C 27.847656 10.828125 26.261719 7.945312 26.261719 7.945312 Z M 26.261719 7.945312 "/>
<path style=" stroke:none;fill-rule:nonzero;fill:rgb(20%,18.039216%,18.039216%);fill-opacity:1;" d="M 26.328125 122.054688 C 26.328125 122.054688 27.910156 119.171875 31.191406 116.457031 C 33.808594 114.292969 36.609375 111.910156 36.609375 108.515625 C 36.609375 105.921875 34.894531 103.640625 32.3125 103.640625 C 29.292969 103.640625 27.730469 106.128906 27.730469 108.042969 C 27.730469 108.1875 27.597656 108.296875 27.449219 108.296875 C 27.304688 108.296875 27.179688 108.1875 27.171875 108.042969 L 27.171875 107.070312 C 27.171875 104.125 27.5 101.910156 29.882812 100.207031 L 28.984375 99.304688 C 28.984375 99.304688 27.824219 100.171875 26.328125 100.171875 C 24.832031 100.171875 23.675781 99.304688 23.675781 99.304688 L 22.777344 100.207031 C 25.15625 101.910156 25.488281 104.125 25.488281 107.070312 L 25.488281 108.042969 C 25.476562 108.1875 25.355469 108.296875 25.207031 108.296875 C 25.058594 108.296875 24.925781 108.1875 24.925781 108.042969 C 24.925781 106.128906 23.363281 103.640625 20.347656 103.640625 C 17.765625 103.640625 16.046875 105.921875 16.046875 108.515625 C 16.046875 111.910156 18.851562 114.292969 21.46875 116.457031 C 24.746094 119.171875 26.328125 122.054688 26.328125 122.054688 Z M 26.328125 122.054688 "/>
<path style=" stroke:none;fill-rule:nonzero;fill:rgb(20%,18.039216%,18.039216%);fill-opacity:1;" d="M 26.261719 38.402344 C 26.261719 38.402344 24.679688 41.285156 21.402344 43.996094 C 18.785156 46.164062 15.980469 48.546875 15.980469 51.941406 C 15.980469 54.535156 17.699219 56.816406 20.28125 56.816406 C 23.296875 56.816406 24.859375 54.324219 24.859375 52.410156 C 24.859375 52.265625 24.996094 52.160156 25.140625 52.160156 C 25.289062 52.160156 25.410156 52.269531 25.421875 52.410156 L 25.421875 53.386719 C 25.421875 56.328125 25.089844 58.546875 22.710938 60.246094 L 23.609375 61.152344 C 23.609375 61.152344 24.769531 60.285156 26.261719 60.285156 C 27.757812 60.285156 28.917969 61.152344 28.917969 61.152344 L 29.816406 60.246094 C 27.4375 58.546875 27.105469 56.328125 27.105469 53.386719 L 27.105469 52.410156 C 27.113281 52.269531 27.238281 52.160156 27.386719 52.160156 C 27.53125 52.160156 27.664062 52.265625 27.664062 52.410156 C 27.664062 54.324219 29.226562 56.816406 32.246094 56.816406 C 34.828125 56.816406 36.546875 54.535156 36.546875 51.941406 C 36.546875 48.546875 33.742188 46.164062 31.125 43.996094 C 27.847656 41.285156 26.261719 38.402344 26.261719 38.402344 Z M 26.261719 38.402344 "/>
<path style=" stroke:none;fill-rule:nonzero;fill:rgb(20%,18.039216%,18.039216%);fill-opacity:1;" d="M 63.652344 7.945312 C 63.652344 7.945312 62.070312 10.828125 58.792969 13.542969 C 56.175781 15.707031 53.371094 18.089844 53.371094 21.484375 C 53.371094 24.078125 55.089844 26.359375 57.671875 26.359375 C 60.6875 26.359375 62.25 23.871094 62.25 21.957031 C 62.25 21.8125 62.382812 21.703125 62.53125 21.703125 C 62.679688 21.703125 62.800781 21.8125 62.8125 21.957031 L 62.8125 22.929688 C 62.8125 25.875 62.480469 28.089844 60.101562 29.792969 L 61 30.695312 C 61 30.695312 62.15625 29.828125 63.652344 29.828125 C 65.148438 29.828125 66.308594 30.695312 66.308594 30.695312 L 67.203125 29.792969 C 64.824219 28.089844 64.492188 25.875 64.492188 22.929688 L 64.492188 21.957031 C 64.503906 21.8125 64.628906 21.703125 64.773438 21.703125 C 64.921875 21.703125 65.054688 21.8125 65.054688 21.957031 C 65.054688 23.871094 66.617188 26.359375 69.636719 26.359375 C 72.214844 26.359375 73.933594 24.078125 73.933594 21.484375 C 73.933594 18.089844 71.128906 15.707031 68.511719 13.542969 C 65.234375 10.828125 63.652344 7.945312 63.652344 7.945312 Z M 63.652344 7.945312 "/>
<path style=" stroke:none;fill-rule:nonzero;fill:rgb(20%,18.039216%,18.039216%);fill-opacity:1;" d="M 63.71875 122.054688 C 63.71875 122.054688 65.300781 119.171875 68.578125 116.457031 C 71.195312 114.292969 74 111.910156 74 108.515625 C 74 105.921875 72.28125 103.640625 69.699219 103.640625 C 66.683594 103.640625 65.121094 106.128906 65.121094 108.042969 C 65.121094 108.1875 64.988281 108.296875 64.839844 108.296875 C 64.691406 108.296875 64.570312 108.1875 64.558594 108.042969 L 64.558594 107.070312 C 64.558594 104.125 64.890625 101.910156 67.269531 100.207031 L 66.375 99.304688 C 66.375 99.304688 65.214844 100.171875 63.71875 100.171875 C 62.222656 100.171875 61.0625 99.304688 61.0625 99.304688 L 60.167969 100.207031 C 62.546875 101.910156 62.878906 104.125 62.878906 107.070312 L 62.878906 108.042969 C 62.867188 108.1875 62.746094 108.296875 62.597656 108.296875 C 62.449219 108.296875 62.316406 108.1875 62.316406 108.042969 C 62.316406 106.128906 60.753906 103.640625 57.734375 103.640625 C 55.15625 103.640625 53.4375 105.921875 53.4375 108.515625 C 53.4375 111.910156 56.242188 114.292969 58.859375 116.457031 C 62.136719 119.171875 63.71875 122.054688 63.71875 122.054688 Z M 63.71875 122.054688 "/>
<path style=" stroke:none;fill-rule:nonzero;fill:rgb(20%,18.039216%,18.039216%);fill-opacity:1;" d="M 63.652344 38.402344 C 63.652344 38.402344 62.070312 41.285156 58.792969 43.996094 C 56.175781 46.164062 53.371094 48.546875 53.371094 51.941406 C 53.371094 54.535156 55.089844 56.816406 57.671875 56.816406 C 60.6875 56.816406 62.25 54.324219 62.25 52.410156 C 62.25 52.265625 62.382812 52.160156 62.53125 52.160156 C 62.679688 52.160156 62.800781 52.269531 62.8125 52.410156 L 62.8125 53.386719 C 62.8125 56.328125 62.480469 58.546875 60.101562 60.246094 L 61 61.152344 C 61 61.152344 62.15625 60.285156 63.652344 60.285156 C 65.148438 60.285156 66.308594 61.152344 66.308594 61.152344 L 67.203125 60.246094 C 64.824219 58.546875 64.492188 56.328125 64.492188 53.386719 L 64.492188 52.410156 C 64.503906 52.269531 64.628906 52.160156 64.773438 52.160156 C 64.921875 52.160156 65.054688 52.265625 65.054688 52.410156 C 65.054688 54.324219 66.617188 56.816406 69.636719 56.816406 C 72.214844 56.816406 73.933594 54.535156 73.933594 51.941406 C 73.933594 48.546875 71.128906 46.164062 68.511719 43.996094 C 65.234375 41.285156 63.652344 38.402344 63.652344 38.402344 Z M 63.652344 38.402344 "/>
<path style=" stroke:none;fill-rule:nonzero;fill:rgb(20%,18.039216%,18.039216%);fill-opacity:1;" d="M 26.328125 91.597656 C 26.328125 91.597656 27.910156 88.714844 31.191406 86.003906 C 33.808594 83.835938 36.609375 81.453125 36.609375 78.058594 C 36.609375 75.464844 34.894531 73.183594 32.3125 73.183594 C 29.292969 73.183594 27.730469 75.675781 27.730469 77.589844 C 27.730469 77.734375 27.597656 77.839844 27.449219 77.839844 C 27.304688 77.839844 27.179688 77.730469 27.171875 77.589844 L 27.171875 76.613281 C 27.171875 73.671875 27.5 71.453125 29.882812 69.753906 L 28.984375 68.847656 C 28.984375 68.847656 27.824219 69.714844 26.328125 69.714844 C 24.832031 69.714844 23.675781 68.847656 23.675781 68.847656 L 22.777344 69.753906 C 25.15625 71.453125 25.488281 73.671875 25.488281 76.613281 L 25.488281 77.589844 C 25.476562 77.730469 25.355469 77.839844 25.207031 77.839844 C 25.058594 77.839844 24.925781 77.734375 24.925781 77.589844 C 24.925781 75.675781 23.363281 73.183594 20.347656 73.183594 C 17.765625 73.183594 16.046875 75.464844 16.046875 78.058594 C 16.046875 81.453125 18.851562 83.835938 21.46875 86.003906 C 24.746094 88.714844 26.328125 91.597656 26.328125 91.597656 Z M 26.328125 91.597656 "/>
<path style=" stroke:none;fill-rule:nonzero;fill:rgb(20%,18.039216%,18.039216%);fill-opacity:1;" d="M 63.71875 91.597656 C 63.71875 91.597656 65.300781 88.714844 68.578125 86.003906 C 71.195312 83.835938 74 81.453125 74 78.058594 C 74 75.464844 72.28125 73.183594 69.699219 73.183594 C 66.683594 73.183594 65.121094 75.675781 65.121094 77.589844 C 65.121094 77.734375 64.988281 77.839844 64.839844 77.839844 C 64.691406 77.839844 64.570312 77.730469 64.558594 77.589844 L 64.558594 76.613281 C 64.558594 73.671875 64.890625 71.453125 67.269531 69.753906 L 66.375 68.847656 C 66.375 68.847656 65.214844 69.714844 63.71875 69.714844 C 62.222656 69.714844 61.0625 68.847656 61.0625 68.847656 L 60.167969 69.753906 C 62.546875 71.453125 62.878906 73.671875 62.878906 76.613281 L 62.878906 77.589844 C 62.867188 77.730469 62.746094 77.839844 62.597656 77.839844 C 62.449219 77.839844 62.316406 77.734375 62.316406 77.589844 C 62.316406 75.675781 60.753906 73.183594 57.734375 73.183594 C 55.15625 73.183594 53.4375 75.464844 53.4375 78.058594 C 53.4375 81.453125 56.242188 83.835938 58.859375 86.003906 C 62.136719 88.714844 63.71875 91.597656 63.71875 91.597656 Z M 63.71875 91.597656 "/>
<path style=" stroke:none;fill-rule:nonzero;fill:rgb(20%,18.039216%,18.039216%);fill-opacity:1;" d="M 44.957031 23.175781 C 44.957031 23.175781 43.375 26.058594 40.097656 28.773438 C 37.480469 30.941406 34.675781 33.324219 34.675781 36.71875 C 34.675781 39.308594 36.394531 41.59375 38.976562 41.59375 C 41.992188 41.59375 43.554688 39.101562 43.554688 37.1875 C 43.554688 37.042969 43.6875 36.933594 43.835938 36.933594 C 43.984375 36.933594 44.105469 37.046875 44.117188 37.1875 L 44.117188 38.164062 C 44.117188 41.105469 43.785156 43.320312 41.40625 45.023438 L 42.304688 45.925781 C 42.304688 45.925781 43.460938 45.058594 44.957031 45.058594 C 46.453125 45.058594 47.613281 45.925781 47.613281 45.925781 L 48.511719 45.023438 C 46.128906 43.320312 45.800781 41.105469 45.800781 38.164062 L 45.800781 37.1875 C 45.808594 37.046875 45.933594 36.933594 46.078125 36.933594 C 46.226562 36.933594 46.359375 37.042969 46.359375 37.1875 C 46.359375 39.101562 47.921875 41.59375 50.941406 41.59375 C 53.523438 41.59375 55.238281 39.308594 55.238281 36.71875 C 55.238281 33.324219 52.4375 30.941406 49.820312 28.773438 C 46.539062 26.058594 44.957031 23.175781 44.957031 23.175781 Z M 44.957031 23.175781 "/>
<path style=" stroke:none;fill-rule:nonzero;fill:rgb(20%,18.039216%,18.039216%);fill-opacity:1;" d="M 45.023438 106.824219 C 45.023438 106.824219 46.605469 103.941406 49.882812 101.226562 C 52.5 99.058594 55.304688 96.675781 55.304688 93.28125 C 55.304688 90.6875 53.585938 88.40625 51.007812 88.40625 C 47.988281 88.40625 46.425781 90.898438 46.425781 92.8125 C 46.425781 92.957031 46.292969 93.066406 46.144531 93.066406 C 46 93.066406 45.875 92.953125 45.863281 92.8125 L 45.863281 91.835938 C 45.863281 88.894531 46.195312 86.679688 48.574219 84.976562 L 47.679688 84.074219 C 47.679688 84.074219 46.519531 84.941406 45.023438 84.941406 C 43.527344 84.941406 42.371094 84.074219 42.371094 84.074219 L 41.472656 84.976562 C 43.851562 86.679688 44.183594 88.894531 44.183594 91.835938 L 44.183594 92.8125 C 44.171875 92.953125 44.050781 93.066406 43.902344 93.066406 C 43.753906 93.066406 43.621094 92.957031 43.621094 92.8125 C 43.621094 90.898438 42.058594 88.40625 39.042969 88.40625 C 36.460938 88.40625 34.742188 90.6875 34.742188 93.28125 C 34.742188 96.675781 37.546875 99.058594 40.164062 101.226562 C 43.441406 103.941406 45.023438 106.824219 45.023438 106.824219 Z M 45.023438 106.824219 "/>
<path style=" stroke:none;fill-rule:nonzero;fill:rgb(20%,18.039216%,18.039216%);fill-opacity:1;" d="M 8.183594 17.332031 C 8.183594 17.332031 7.550781 18.488281 6.238281 19.570312 C 5.191406 20.4375 4.070312 21.390625 4.070312 22.75 C 4.070312 23.785156 4.757812 24.699219 5.789062 24.699219 C 6.996094 24.699219 7.621094 23.703125 7.621094 22.9375 C 7.621094 22.878906 7.675781 22.835938 7.734375 22.835938 C 7.792969 22.835938 7.839844 22.878906 7.84375 22.9375 L 7.84375 23.328125 C 7.84375 24.503906 7.714844 25.390625 6.761719 26.070312 L 7.121094 26.433594 C 7.121094 26.433594 7.582031 26.085938 8.183594 26.085938 C 8.78125 26.085938 9.242188 26.433594 9.242188 26.433594 L 9.601562 26.070312 C 8.652344 25.390625 8.519531 24.503906 8.519531 23.328125 L 8.519531 22.9375 C 8.523438 22.878906 8.570312 22.835938 8.628906 22.835938 C 8.691406 22.835938 8.742188 22.878906 8.742188 22.9375 C 8.742188 23.703125 9.367188 24.699219 10.574219 24.699219 C 11.605469 24.699219 12.292969 23.785156 12.292969 22.75 C 12.292969 21.390625 11.171875 20.4375 10.125 19.570312 C 8.816406 18.488281 8.183594 17.332031 8.183594 17.332031 Z M 8.183594 17.332031 "/>
<path style=" stroke:none;fill-rule:nonzero;fill:rgb(20%,18.039216%,18.039216%);fill-opacity:1;" d="M 81.890625 112.671875 C 81.890625 112.671875 82.523438 111.519531 83.835938 110.433594 C 84.882812 109.566406 86.003906 108.613281 86.003906 107.253906 C 86.003906 106.21875 85.316406 105.304688 84.28125 105.304688 C 83.074219 105.304688 82.449219 106.300781 82.449219 107.066406 C 82.449219 107.125 82.398438 107.167969 82.339844 107.167969 C 82.28125 107.167969 82.230469 107.125 82.226562 107.066406 L 82.226562 106.679688 C 82.226562 105.5 82.359375 104.613281 83.3125 103.933594 L 82.953125 103.574219 C 82.953125 103.574219 82.488281 103.917969 81.890625 103.917969 C 81.292969 103.917969 80.828125 103.574219 80.828125 103.574219 L 80.46875 103.933594 C 81.421875 104.613281 81.554688 105.5 81.554688 106.679688 L 81.554688 107.066406 C 81.550781 107.125 81.5 107.167969 81.441406 107.167969 C 81.382812 107.167969 81.328125 107.125 81.328125 107.066406 C 81.328125 106.300781 80.703125 105.304688 79.496094 105.304688 C 78.464844 105.304688 77.777344 106.21875 77.777344 107.253906 C 77.777344 108.613281 78.898438 109.566406 79.945312 110.433594 C 81.257812 111.519531 81.890625 112.671875 81.890625 112.671875 Z M 81.890625 112.671875 "/>
<path style=" stroke:none;fill-rule:nonzero;fill:rgb(20%,18.039216%,18.039216%);fill-opacity:1;" d="M 9.640625 5.054688 C 7.980469 5.054688 6.84375 6.160156 6.84375 8.109375 L 6.84375 12.074219 C 6.84375 13.988281 7.90625 15.167969 9.632812 15.175781 C 11.375 15.175781 12.453125 13.953125 12.453125 12.074219 L 12.453125 8.109375 C 12.453125 6.160156 11.269531 5.0625 9.632812 5.0625 Z M 4.339844 5.273438 C 4.25 5.273438 4.1875 5.359375 4.1875 5.4375 L 4.1875 14.785156 C 4.1875 14.878906 4.234375 14.949219 4.339844 14.949219 L 5.46875 14.949219 C 5.558594 14.957031 5.617188 14.863281 5.617188 14.785156 L 5.617188 5.4375 C 5.617188 5.367188 5.550781 5.273438 5.46875 5.273438 Z M 9.640625 6.464844 C 10.425781 6.464844 11.03125 7.011719 11.03125 8.054688 L 11.03125 12.164062 C 11.03125 13.144531 10.492188 13.75 9.640625 13.75 C 8.816406 13.75 8.273438 13.1875 8.273438 12.164062 L 8.273438 8.054688 C 8.273438 6.984375 8.890625 6.464844 9.640625 6.464844 Z M 9.640625 6.464844 "/>
<path style=" stroke:none;fill-rule:nonzero;fill:rgb(20%,18.039216%,18.039216%);fill-opacity:1;" d="M 80.367188 124.945312 C 82.027344 124.945312 83.164062 123.839844 83.164062 121.890625 L 83.164062 117.925781 C 83.164062 116.011719 82.101562 114.832031 80.375 114.824219 C 78.632812 114.824219 77.554688 116.046875 77.554688 117.925781 L 77.554688 121.890625 C 77.554688 123.839844 78.734375 124.9375 80.375 124.9375 Z M 85.667969 124.726562 C 85.757812 124.726562 85.816406 124.640625 85.816406 124.5625 L 85.816406 115.214844 C 85.816406 115.121094 85.773438 115.050781 85.667969 115.050781 L 84.539062 115.050781 C 84.449219 115.042969 84.390625 115.136719 84.390625 115.214844 L 84.390625 124.5625 C 84.390625 124.632812 84.457031 124.726562 84.539062 124.726562 Z M 80.367188 123.535156 C 79.582031 123.535156 78.976562 122.988281 78.976562 121.945312 L 78.976562 117.835938 C 78.976562 116.855469 79.511719 116.25 80.367188 116.25 C 81.1875 116.25 81.734375 116.8125 81.734375 117.835938 L 81.734375 121.945312 C 81.734375 123.015625 81.113281 123.535156 80.367188 123.535156 Z M 80.367188 123.535156 "/>
</g>
</svg>
