<?xml version="1.0" encoding="UTF-8"?>
<svg xmlns="http://www.w3.org/2000/svg" xmlns:xlink="http://www.w3.org/1999/xlink" width="90px" height="130px" viewBox="0 0 90 130" version="1.1">
<g id="surface1">
<path style="fill-rule:nonzero;fill:rgb(100%,100%,100%);fill-opacity:1;stroke-width:1.8;stroke-linecap:butt;stroke-linejoin:round;stroke:rgb(20%,18.039216%,18.039216%);stroke-opacity:1;stroke-miterlimit:4;" d="M 1986.096929 695.288463 L 2109.695902 695.288463 C 2114.9446 695.288463 2119.200131 699.540824 2119.200131 704.789933 L 2119.200131 899.388856 C 2119.200131 904.637966 2114.9446 908.890327 2109.695902 908.890327 L 1986.096929 908.890327 C 1980.854517 908.890327 1976.598986 904.637966 1976.598986 899.388856 L 1976.598986 704.789933 C 1976.598986 699.540824 1980.854517 695.288463 1986.096929 695.288463 Z M 1986.096929 695.288463 " transform="matrix(0.621434,0,0,0.603525,-1227.634237,-419.080992)"/>
<path style="fill:none;stroke-width:1;stroke-linecap:butt;stroke-linejoin:miter;stroke:rgb(65.098041%,54.901963%,34.901962%);stroke-opacity:1;stroke-miterlimit:4;" d="M 9.999555 6.998827 L 109.997665 6.998827 C 111.658815 6.998827 113.001317 8.345582 113.001317 10.00063 L 113.001317 169.999436 C 113.001317 171.654485 111.658815 173.001239 109.997665 173.001239 L 9.999555 173.001239 C 8.343628 173.001239 7.001126 171.654485 7.001126 169.999436 L 7.001126 10.00063 C 7.001126 8.345582 8.343628 6.998827 9.999555 6.998827 Z M 9.999555 6.998827 " transform="matrix(0.747788,0,0,0.722222,0.135739,-0.0000205002)"/>
<path style=" stroke:none;fill-rule:nonzero;fill:rgb(100%,100%,100%);fill-opacity:1;" d="M 3.878906 4.335938 L 3.878906 28.167969 L 14.347656 28.167969 L 14.347656 4.335938 Z M 3.878906 4.335938 "/>
<path style=" stroke:none;fill-rule:nonzero;fill:rgb(100%,100%,100%);fill-opacity:1;" d="M 86.128906 125.664062 L 86.128906 101.832031 L 75.660156 101.832031 L 75.660156 125.664062 Z M 86.128906 125.664062 "/>
<path style=" stroke:none;fill-rule:nonzero;fill:rgb(20%,18.039216%,18.039216%);fill-opacity:1;" d="M 26.261719 7.945312 C 26.261719 7.945312 24.679688 10.828125 21.402344 13.542969 C 18.785156 15.707031 15.980469 18.089844 15.980469 21.484375 C 15.980469 24.078125 17.699219 26.359375 20.28125 26.359375 C 23.296875 26.359375 24.863281 23.871094 24.863281 21.957031 C 24.863281 21.8125 24.996094 21.703125 25.140625 21.703125 C 25.289062 21.703125 25.410156 21.8125 25.421875 21.957031 L 25.421875 22.929688 C 25.421875 25.875 25.089844 28.089844 22.710938 29.792969 L 23.609375 30.695312 C 23.609375 30.695312 24.769531 29.828125 26.261719 29.828125 C 27.757812 29.828125 28.917969 30.695312 28.917969 30.695312 L 29.816406 29.792969 C 27.4375 28.089844 27.105469 25.875 27.105469 22.929688 L 27.105469 21.957031 C 27.113281 21.8125 27.238281 21.703125 27.386719 21.703125 C 27.53125 21.703125 27.664062 21.8125 27.664062 21.957031 C 27.664062 23.871094 29.226562 26.359375 32.246094 26.359375 C 34.828125 26.359375 36.546875 24.078125 36.546875 21.484375 C 36.546875 18.089844 33.742188 15.707031 31.125 13.542969 C 27.847656 10.828125 26.261719 7.945312 26.261719 7.945312 Z M 26.261719 7.945312 "/>
<path style=" stroke:none;fill-rule:nonzero;fill:rgb(20%,18.039216%,18.039216%);fill-opacity:1;" d="M 26.328125 122.054688 C 26.328125 122.054688 27.910156 119.171875 31.191406 116.457031 C 33.808594 114.292969 36.613281 111.910156 36.613281 108.515625 C 36.613281 105.921875 34.894531 103.640625 32.3125 103.640625 C 29.292969 103.640625 27.730469 106.128906 27.730469 108.042969 C 27.730469 108.1875 27.597656 108.296875 27.449219 108.296875 C 27.304688 108.296875 27.179688 108.1875 27.171875 108.042969 L 27.171875 107.070312 C 27.171875 104.125 27.5 101.910156 29.882812 100.207031 L 28.984375 99.304688 C 28.984375 99.304688 27.824219 100.171875 26.328125 100.171875 C 24.832031 100.171875 23.675781 99.304688 23.675781 99.304688 L 22.777344 100.207031 C 25.15625 101.910156 25.488281 104.125 25.488281 107.070312 L 25.488281 108.042969 C 25.476562 108.1875 25.355469 108.296875 25.207031 108.296875 C 25.058594 108.296875 24.925781 108.1875 24.925781 108.042969 C 24.925781 106.128906 23.363281 103.640625 20.347656 103.640625 C 17.765625 103.640625 16.046875 105.921875 16.046875 108.515625 C 16.046875 111.910156 18.851562 114.292969 21.46875 116.457031 C 24.746094 119.171875 26.328125 122.054688 26.328125 122.054688 Z M 26.328125 122.054688 "/>
<path style=" stroke:none;fill-rule:nonzero;fill:rgb(20%,18.039216%,18.039216%);fill-opacity:1;" d="M 26.261719 53.625 C 26.261719 53.625 24.679688 56.507812 21.402344 59.222656 C 18.785156 61.390625 15.980469 63.773438 15.980469 67.167969 C 15.980469 69.757812 17.699219 72.042969 20.28125 72.042969 C 23.296875 72.042969 24.863281 69.550781 24.863281 67.636719 C 24.863281 67.492188 24.996094 67.382812 25.140625 67.382812 C 25.289062 67.382812 25.410156 67.492188 25.421875 67.636719 L 25.421875 68.609375 C 25.421875 71.554688 25.089844 73.769531 22.710938 75.472656 L 23.609375 76.375 C 23.609375 76.375 24.769531 75.507812 26.261719 75.507812 C 27.757812 75.507812 28.917969 76.375 28.917969 76.375 L 29.816406 75.472656 C 27.4375 73.769531 27.105469 71.554688 27.105469 68.609375 L 27.105469 67.636719 C 27.113281 67.492188 27.238281 67.382812 27.386719 67.382812 C 27.53125 67.382812 27.664062 67.492188 27.664062 67.636719 C 27.664062 69.550781 29.226562 72.042969 32.246094 72.042969 C 34.828125 72.042969 36.546875 69.757812 36.546875 67.167969 C 36.546875 63.773438 33.742188 61.390625 31.125 59.222656 C 27.847656 56.507812 26.261719 53.625 26.261719 53.625 Z M 26.261719 53.625 "/>
<path style=" stroke:none;fill-rule:nonzero;fill:rgb(20%,18.039216%,18.039216%);fill-opacity:1;" d="M 63.652344 7.945312 C 63.652344 7.945312 62.070312 10.828125 58.792969 13.542969 C 56.175781 15.707031 53.371094 18.089844 53.371094 21.484375 C 53.371094 24.078125 55.089844 26.359375 57.671875 26.359375 C 60.6875 26.359375 62.25 23.871094 62.25 21.957031 C 62.25 21.8125 62.382812 21.703125 62.53125 21.703125 C 62.679688 21.703125 62.800781 21.8125 62.8125 21.957031 L 62.8125 22.929688 C 62.8125 25.875 62.480469 28.089844 60.101562 29.792969 L 61 30.695312 C 61 30.695312 62.15625 29.828125 63.652344 29.828125 C 65.148438 29.828125 66.308594 30.695312 66.308594 30.695312 L 67.203125 29.792969 C 64.824219 28.089844 64.492188 25.875 64.492188 22.929688 L 64.492188 21.957031 C 64.503906 21.8125 64.628906 21.703125 64.773438 21.703125 C 64.921875 21.703125 65.054688 21.8125 65.054688 21.957031 C 65.054688 23.871094 66.617188 26.359375 69.636719 26.359375 C 72.214844 26.359375 73.933594 24.078125 73.933594 21.484375 C 73.933594 18.089844 71.128906 15.707031 68.511719 13.542969 C 65.234375 10.828125 63.652344 7.945312 63.652344 7.945312 Z M 63.652344 7.945312 "/>
<path style=" stroke:none;fill-rule:nonzero;fill:rgb(20%,18.039216%,18.039216%);fill-opacity:1;" d="M 63.71875 122.054688 C 63.71875 122.054688 65.300781 119.171875 68.578125 116.457031 C 71.195312 114.292969 74 111.910156 74 108.515625 C 74 105.921875 72.28125 103.640625 69.699219 103.640625 C 66.683594 103.640625 65.121094 106.128906 65.121094 108.042969 C 65.121094 108.1875 64.988281 108.296875 64.839844 108.296875 C 64.691406 108.296875 64.570312 108.1875 64.558594 108.042969 L 64.558594 107.070312 C 64.558594 104.125 64.890625 101.910156 67.269531 100.207031 L 66.375 99.304688 C 66.375 99.304688 65.214844 100.171875 63.71875 100.171875 C 62.222656 100.171875 61.0625 99.304688 61.0625 99.304688 L 60.167969 100.207031 C 62.546875 101.910156 62.878906 104.125 62.878906 107.070312 L 62.878906 108.042969 C 62.867188 108.1875 62.746094 108.296875 62.597656 108.296875 C 62.449219 108.296875 62.316406 108.1875 62.316406 108.042969 C 62.316406 106.128906 60.753906 103.640625 57.738281 103.640625 C 55.15625 103.640625 53.4375 105.921875 53.4375 108.515625 C 53.4375 111.910156 56.242188 114.292969 58.859375 116.457031 C 62.136719 119.171875 63.71875 122.054688 63.71875 122.054688 Z M 63.71875 122.054688 "/>
<path style=" stroke:none;fill-rule:nonzero;fill:rgb(20%,18.039216%,18.039216%);fill-opacity:1;" d="M 63.652344 53.625 C 63.652344 53.625 62.070312 56.507812 58.792969 59.222656 C 56.175781 61.390625 53.371094 63.773438 53.371094 67.167969 C 53.371094 69.757812 55.089844 72.042969 57.671875 72.042969 C 60.6875 72.042969 62.25 69.550781 62.25 67.636719 C 62.25 67.492188 62.382812 67.382812 62.53125 67.382812 C 62.679688 67.382812 62.800781 67.492188 62.8125 67.636719 L 62.8125 68.609375 C 62.8125 71.554688 62.480469 73.769531 60.101562 75.472656 L 61 76.375 C 61 76.375 62.15625 75.507812 63.652344 75.507812 C 65.148438 75.507812 66.308594 76.375 66.308594 76.375 L 67.203125 75.472656 C 64.824219 73.769531 64.492188 71.554688 64.492188 68.609375 L 64.492188 67.636719 C 64.503906 67.492188 64.628906 67.382812 64.773438 67.382812 C 64.921875 67.382812 65.054688 67.492188 65.054688 67.636719 C 65.054688 69.550781 66.617188 72.042969 69.636719 72.042969 C 72.214844 72.042969 73.933594 69.757812 73.933594 67.167969 C 73.933594 63.773438 71.128906 61.390625 68.511719 59.222656 C 65.234375 56.507812 63.652344 53.625 63.652344 53.625 Z M 63.652344 53.625 "/>
<path style=" stroke:none;fill-rule:nonzero;fill:rgb(20%,18.039216%,18.039216%);fill-opacity:1;" d="M 8.183594 17.332031 C 8.183594 17.332031 7.550781 18.488281 6.238281 19.570312 C 5.191406 20.4375 4.070312 21.390625 4.070312 22.75 C 4.070312 23.785156 4.757812 24.699219 5.789062 24.699219 C 6.996094 24.699219 7.621094 23.703125 7.621094 22.9375 C 7.621094 22.878906 7.675781 22.835938 7.734375 22.835938 C 7.792969 22.835938 7.839844 22.878906 7.84375 22.9375 L 7.84375 23.328125 C 7.84375 24.503906 7.714844 25.390625 6.761719 26.070312 L 7.121094 26.433594 C 7.121094 26.433594 7.582031 26.085938 8.183594 26.085938 C 8.78125 26.085938 9.242188 26.433594 9.242188 26.433594 L 9.601562 26.070312 C 8.652344 25.390625 8.519531 24.503906 8.519531 23.328125 L 8.519531 22.9375 C 8.523438 22.878906 8.570312 22.835938 8.628906 22.835938 C 8.691406 22.835938 8.742188 22.878906 8.742188 22.9375 C 8.742188 23.703125 9.367188 24.699219 10.574219 24.699219 C 11.605469 24.699219 12.292969 23.785156 12.292969 22.75 C 12.292969 21.390625 11.171875 20.4375 10.125 19.570312 C 8.816406 18.488281 8.183594 17.332031 8.183594 17.332031 Z M 8.183594 17.332031 "/>
<path style=" stroke:none;fill-rule:nonzero;fill:rgb(20%,18.039216%,18.039216%);fill-opacity:1;" d="M 81.890625 112.671875 C 81.890625 112.671875 82.523438 111.519531 83.835938 110.433594 C 84.882812 109.566406 86.003906 108.613281 86.003906 107.253906 C 86.003906 106.21875 85.316406 105.304688 84.28125 105.304688 C 83.074219 105.304688 82.449219 106.300781 82.449219 107.066406 C 82.449219 107.125 82.398438 107.167969 82.339844 107.167969 C 82.28125 107.167969 82.230469 107.125 82.226562 107.066406 L 82.226562 106.679688 C 82.226562 105.5 82.359375 104.613281 83.3125 103.933594 L 82.953125 103.574219 C 82.953125 103.574219 82.488281 103.917969 81.890625 103.917969 C 81.292969 103.917969 80.828125 103.574219 80.828125 103.574219 L 80.46875 103.933594 C 81.421875 104.613281 81.554688 105.5 81.554688 106.679688 L 81.554688 107.066406 C 81.550781 107.125 81.5 107.167969 81.441406 107.167969 C 81.382812 107.167969 81.328125 107.125 81.328125 107.066406 C 81.328125 106.300781 80.703125 105.304688 79.496094 105.304688 C 78.464844 105.304688 77.777344 106.21875 77.777344 107.253906 C 77.777344 108.613281 78.898438 109.566406 79.945312 110.433594 C 81.257812 111.519531 81.890625 112.671875 81.890625 112.671875 Z M 81.890625 112.671875 "/>
<path style=" stroke:none;fill-rule:nonzero;fill:rgb(20%,18.039216%,18.039216%);fill-opacity:1;" d="M 5.042969 11.96875 L 5.042969 7.5625 C 5.042969 6.039062 6.269531 4.945312 8.242188 4.945312 C 10.042969 4.945312 11.367188 5.914062 11.367188 7.488281 L 11.367188 7.808594 C 11.367188 7.929688 11.253906 7.980469 11.1875 7.980469 L 9.8125 7.980469 C 9.722656 7.980469 9.632812 7.894531 9.632812 7.808594 L 9.632812 7.707031 C 9.632812 6.953125 9.101562 6.390625 8.242188 6.390625 C 7.34375 6.390625 6.777344 6.984375 6.777344 7.765625 L 6.777344 9.351562 C 6.777344 9.410156 6.828125 9.433594 6.867188 9.394531 C 7.292969 8.992188 7.875 8.789062 8.617188 8.789062 C 10.433594 8.789062 11.621094 9.972656 11.621094 11.980469 C 11.621094 14.140625 10.214844 15.273438 8.347656 15.273438 C 6.671875 15.273438 5.042969 14.335938 5.042969 11.96875 Z M 6.777344 12.054688 C 6.777344 12.589844 6.925781 13.816406 8.316406 13.816406 C 9.789062 13.816406 9.886719 12.378906 9.886719 12.011719 C 9.886719 11.078125 9.4375 10.203125 8.332031 10.203125 C 6.964844 10.203125 6.777344 11.398438 6.777344 12.054688 Z M 6.777344 12.054688 "/>
<path style=" stroke:none;fill-rule:nonzero;fill:rgb(20%,18.039216%,18.039216%);fill-opacity:1;" d="M 84.964844 118.03125 L 84.964844 122.4375 C 84.964844 123.960938 83.738281 125.054688 81.765625 125.054688 C 79.960938 125.054688 78.636719 124.085938 78.636719 122.511719 L 78.636719 122.191406 C 78.636719 122.070312 78.75 122.019531 78.816406 122.019531 L 80.195312 122.019531 C 80.285156 122.019531 80.375 122.105469 80.375 122.191406 L 80.375 122.292969 C 80.375 123.046875 80.902344 123.609375 81.765625 123.609375 C 82.660156 123.609375 83.230469 123.015625 83.230469 122.234375 L 83.230469 120.648438 C 83.230469 120.589844 83.175781 120.566406 83.140625 120.605469 C 82.714844 121.007812 82.128906 121.210938 81.390625 121.210938 C 79.574219 121.210938 78.382812 120.027344 78.382812 118.019531 C 78.382812 115.859375 79.789062 114.726562 81.660156 114.726562 C 83.335938 114.726562 84.964844 115.664062 84.964844 118.03125 Z M 83.230469 117.945312 C 83.230469 117.410156 83.082031 116.183594 81.6875 116.183594 C 80.214844 116.183594 80.117188 117.621094 80.117188 117.988281 C 80.117188 118.921875 80.566406 119.796875 81.675781 119.796875 C 83.042969 119.796875 83.230469 118.601562 83.230469 117.945312 Z M 83.230469 117.945312 "/>
</g>
</svg>
