<?xml version="1.0" encoding="UTF-8"?>
<svg xmlns="http://www.w3.org/2000/svg" xmlns:xlink="http://www.w3.org/1999/xlink" width="90px" height="130px" viewBox="0 0 90 130" version="1.1">
<g id="surface1">
<path style="fill-rule:nonzero;fill:rgb(100%,100%,100%);fill-opacity:1;stroke-width:1.8;stroke-linecap:butt;stroke-linejoin:round;stroke:rgb(20%,18.039216%,18.039216%);stroke-opacity:1;stroke-miterlimit:4;" d="M 1986.096906 695.288463 L 2109.695879 695.288463 C 2114.944577 695.288463 2119.200108 699.540824 2119.200108 704.789933 L 2119.200108 899.388856 C 2119.200108 904.637966 2114.944577 908.890327 2109.695879 908.890327 L 1986.096906 908.890327 C 1980.854494 908.890327 1976.598963 904.637966 1976.598963 899.388856 L 1976.598963 704.789933 C 1976.598963 699.540824 1980.854494 695.288463 1986.096906 695.288463 Z M 1986.096906 695.288463 " transform="matrix(0.621434,0,0,0.603525,-1227.634223,-419.080992)"/>
<path style="fill:none;stroke-width:1;stroke-linecap:butt;stroke-linejoin:miter;stroke:rgb(65.098041%,54.901963%,34.901962%);stroke-opacity:1;stroke-miterlimit:4;" d="M 9.999536 6.998827 L 109.997646 6.998827 C 111.658796 6.998827 113.001298 8.345582 113.001298 10.00063 L 113.001298 169.999436 C 113.001298 171.654485 111.658796 173.001239 109.997646 173.001239 L 9.999536 173.001239 C 8.343609 173.001239 7.001107 171.654485 7.001107 169.999436 L 7.001107 10.00063 C 7.001107 8.345582 8.343609 6.998827 9.999536 6.998827 Z M 9.999536 6.998827 " transform="matrix(0.747788,0,0,0.722222,0.135753,-0.0000205002)"/>
<path style=" stroke:none;fill-rule:nonzero;fill:rgb(100%,100%,100%);fill-opacity:1;" d="M 86.128906 125.664062 L 86.128906 101.832031 L 75.660156 101.832031 L 75.660156 125.664062 Z M 86.128906 125.664062 "/>
<path style=" stroke:none;fill-rule:nonzero;fill:rgb(20%,18.039216%,18.039216%);fill-opacity:1;" d="M 45.003906 7.945312 C 45.003906 7.945312 43.421875 10.828125 40.140625 13.542969 C 37.523438 15.707031 34.722656 18.089844 34.722656 21.484375 C 34.722656 24.078125 36.4375 26.359375 39.019531 26.359375 C 42.039062 26.359375 43.601562 23.871094 43.601562 21.957031 C 43.601562 21.8125 43.734375 21.703125 43.882812 21.703125 C 44.027344 21.703125 44.152344 21.8125 44.160156 21.957031 L 44.160156 22.929688 C 44.160156 25.875 43.832031 28.089844 41.449219 29.792969 L 42.347656 30.695312 C 42.347656 30.695312 43.507812 29.828125 45.003906 29.828125 C 46.5 29.828125 47.65625 30.695312 47.65625 30.695312 L 48.554688 29.792969 C 46.175781 28.089844 45.84375 25.875 45.84375 22.929688 L 45.84375 21.957031 C 45.855469 21.8125 45.976562 21.703125 46.125 21.703125 C 46.273438 21.703125 46.40625 21.8125 46.40625 21.957031 C 46.40625 23.871094 47.96875 26.359375 50.984375 26.359375 C 53.566406 26.359375 55.285156 24.078125 55.285156 21.484375 C 55.285156 18.089844 52.480469 15.707031 49.863281 13.542969 C 46.585938 10.828125 45.003906 7.945312 45.003906 7.945312 Z M 45.003906 7.945312 "/>
<path style=" stroke:none;fill-rule:nonzero;fill:rgb(20%,18.039216%,18.039216%);fill-opacity:1;" d="M 45.070312 122.054688 C 45.070312 122.054688 46.652344 119.171875 49.929688 116.457031 C 52.546875 114.292969 55.351562 111.910156 55.351562 108.515625 C 55.351562 105.921875 53.632812 103.640625 51.050781 103.640625 C 48.035156 103.640625 46.472656 106.128906 46.472656 108.042969 C 46.472656 108.1875 46.335938 108.296875 46.191406 108.296875 C 46.042969 108.296875 45.921875 108.1875 45.910156 108.042969 L 45.910156 107.070312 C 45.910156 104.125 46.242188 101.910156 48.621094 100.207031 L 47.722656 99.304688 C 47.722656 99.304688 46.5625 100.171875 45.070312 100.171875 C 43.574219 100.171875 42.414062 99.304688 42.414062 99.304688 L 41.515625 100.207031 C 43.894531 101.910156 44.226562 104.125 44.226562 107.070312 L 44.226562 108.042969 C 44.21875 108.1875 44.09375 108.296875 43.945312 108.296875 C 43.800781 108.296875 43.667969 108.1875 43.667969 108.042969 C 43.667969 106.128906 42.105469 103.640625 39.085938 103.640625 C 36.503906 103.640625 34.785156 105.921875 34.785156 108.515625 C 34.785156 111.910156 37.589844 114.292969 40.207031 116.457031 C 43.488281 119.171875 45.070312 122.054688 45.070312 122.054688 Z M 45.070312 122.054688 "/>
<path style=" stroke:none;fill-rule:nonzero;fill:rgb(20%,18.039216%,18.039216%);fill-opacity:1;" d="M 45.003906 53.625 C 45.003906 53.625 43.421875 56.507812 40.140625 59.222656 C 37.523438 61.390625 34.722656 63.773438 34.722656 67.167969 C 34.722656 69.757812 36.4375 72.042969 39.019531 72.042969 C 42.039062 72.042969 43.601562 69.550781 43.601562 67.636719 C 43.601562 67.492188 43.734375 67.382812 43.882812 67.382812 C 44.027344 67.382812 44.152344 67.492188 44.160156 67.636719 L 44.160156 68.609375 C 44.160156 71.554688 43.832031 73.769531 41.449219 75.472656 L 42.347656 76.375 C 42.347656 76.375 43.507812 75.507812 45.003906 75.507812 C 46.5 75.507812 47.65625 76.375 47.65625 76.375 L 48.554688 75.472656 C 46.175781 73.769531 45.84375 71.554688 45.84375 68.609375 L 45.84375 67.636719 C 45.855469 67.492188 45.976562 67.382812 46.125 67.382812 C 46.273438 67.382812 46.40625 67.492188 46.40625 67.636719 C 46.40625 69.550781 47.96875 72.042969 50.984375 72.042969 C 53.566406 72.042969 55.285156 69.757812 55.285156 67.167969 C 55.285156 63.773438 52.480469 61.390625 49.863281 59.222656 C 46.585938 56.507812 45.003906 53.625 45.003906 53.625 Z M 45.003906 53.625 "/>
<path style=" stroke:none;fill-rule:nonzero;fill:rgb(100%,100%,100%);fill-opacity:1;" d="M 3.878906 4.335938 L 3.878906 28.167969 L 14.347656 28.167969 L 14.347656 4.335938 Z M 3.878906 4.335938 "/>
<path style=" stroke:none;fill-rule:nonzero;fill:rgb(20%,18.039216%,18.039216%);fill-opacity:1;" d="M 8.183594 17.332031 C 8.183594 17.332031 7.550781 18.488281 6.238281 19.570312 C 5.191406 20.4375 4.070312 21.390625 4.070312 22.75 C 4.070312 23.785156 4.757812 24.699219 5.789062 24.699219 C 6.996094 24.699219 7.621094 23.703125 7.621094 22.9375 C 7.621094 22.878906 7.675781 22.835938 7.734375 22.835938 C 7.792969 22.835938 7.839844 22.878906 7.84375 22.9375 L 7.84375 23.328125 C 7.84375 24.503906 7.714844 25.390625 6.761719 26.070312 L 7.121094 26.433594 C 7.121094 26.433594 7.582031 26.085938 8.183594 26.085938 C 8.78125 26.085938 9.242188 26.433594 9.242188 26.433594 L 9.601562 26.070312 C 8.652344 25.390625 8.519531 24.503906 8.519531 23.328125 L 8.519531 22.9375 C 8.523438 22.878906 8.570312 22.835938 8.628906 22.835938 C 8.691406 22.835938 8.742188 22.878906 8.742188 22.9375 C 8.742188 23.703125 9.367188 24.699219 10.574219 24.699219 C 11.605469 24.699219 12.292969 23.785156 12.292969 22.75 C 12.292969 21.390625 11.171875 20.4375 10.125 19.570312 C 8.816406 18.488281 8.183594 17.332031 8.183594 17.332031 Z M 8.183594 17.332031 "/>
<path style=" stroke:none;fill-rule:nonzero;fill:rgb(20%,18.039216%,18.039216%);fill-opacity:1;" d="M 81.890625 112.671875 C 81.890625 112.671875 82.523438 111.519531 83.835938 110.433594 C 84.882812 109.566406 86.003906 108.613281 86.003906 107.253906 C 86.003906 106.21875 85.316406 105.304688 84.28125 105.304688 C 83.074219 105.304688 82.449219 106.300781 82.449219 107.066406 C 82.449219 107.125 82.398438 107.167969 82.339844 107.167969 C 82.28125 107.167969 82.230469 107.125 82.226562 107.066406 L 82.226562 106.679688 C 82.226562 105.5 82.359375 104.613281 83.3125 103.933594 L 82.953125 103.574219 C 82.953125 103.574219 82.488281 103.917969 81.890625 103.917969 C 81.292969 103.917969 80.828125 103.574219 80.828125 103.574219 L 80.46875 103.933594 C 81.421875 104.613281 81.554688 105.5 81.554688 106.679688 L 81.554688 107.066406 C 81.550781 107.125 81.5 107.167969 81.441406 107.167969 C 81.382812 107.167969 81.328125 107.125 81.328125 107.066406 C 81.328125 106.300781 80.703125 105.304688 79.496094 105.304688 C 78.464844 105.304688 77.777344 106.21875 77.777344 107.253906 C 77.777344 108.613281 78.898438 109.566406 79.945312 110.433594 C 81.257812 111.519531 81.890625 112.671875 81.890625 112.671875 Z M 81.890625 112.671875 "/>
<path style=" stroke:none;fill-rule:nonzero;fill:rgb(20%,18.039216%,18.039216%);fill-opacity:1;" d="M 11.628906 11.929688 C 11.628906 13.6875 10.628906 15.246094 8.324219 15.246094 C 6.835938 15.246094 5.132812 14.421875 5.035156 12.089844 C 5.035156 11.972656 5.09375 11.917969 5.214844 11.917969 L 6.605469 11.917969 C 6.722656 11.917969 6.785156 11.972656 6.785156 12.089844 C 6.828125 12.789062 7.105469 13.808594 8.324219 13.808594 C 9.683594 13.808594 9.878906 12.566406 9.878906 11.867188 C 9.878906 10.636719 9.386719 9.859375 8.308594 9.859375 C 8.136719 9.859375 7.914062 9.953125 7.621094 10.148438 C 7.53125 10.191406 7.457031 10.199219 7.367188 10.089844 L 6.679688 9.171875 C 6.597656 9.0625 6.640625 8.976562 6.695312 8.925781 L 9.160156 6.601562 C 9.199219 6.566406 9.175781 6.515625 9.117188 6.515625 L 5.378906 6.515625 C 5.332031 6.515625 5.199219 6.5 5.199219 6.339844 L 5.199219 5.25 C 5.199219 5.128906 5.308594 5.078125 5.378906 5.078125 L 11.34375 5.078125 C 11.433594 5.078125 11.523438 5.164062 11.523438 5.25 L 11.523438 6.5 C 11.523438 6.585938 11.496094 6.660156 11.433594 6.714844 L 9.296875 8.78125 C 9.257812 8.816406 9.273438 8.847656 9.355469 8.867188 C 11.082031 9.101562 11.628906 10.601562 11.628906 11.929688 Z M 11.628906 11.929688 "/>
<path style=" stroke:none;fill-rule:nonzero;fill:rgb(20%,18.039216%,18.039216%);fill-opacity:1;" d="M 78.375 118.070312 C 78.375 116.3125 79.378906 114.753906 81.683594 114.753906 C 83.171875 114.753906 84.875 115.578125 84.972656 117.910156 C 84.972656 118.027344 84.914062 118.082031 84.792969 118.082031 L 83.402344 118.082031 C 83.28125 118.082031 83.222656 118.027344 83.222656 117.910156 C 83.175781 117.210938 82.902344 116.191406 81.683594 116.191406 C 80.320312 116.191406 80.125 117.433594 80.125 118.132812 C 80.125 119.363281 80.621094 120.140625 81.695312 120.140625 C 81.867188 120.140625 82.09375 120.046875 82.386719 119.851562 C 82.476562 119.808594 82.550781 119.800781 82.640625 119.910156 L 83.328125 120.828125 C 83.410156 120.9375 83.363281 121.023438 83.3125 121.074219 L 80.84375 123.398438 C 80.808594 123.433594 80.828125 123.484375 80.890625 123.484375 L 84.628906 123.484375 C 84.671875 123.484375 84.808594 123.5 84.808594 123.660156 L 84.808594 124.75 C 84.808594 124.871094 84.695312 124.921875 84.628906 124.921875 L 78.660156 124.921875 C 78.570312 124.921875 78.480469 124.835938 78.480469 124.75 L 78.480469 123.5 C 78.480469 123.414062 78.511719 123.339844 78.570312 123.285156 L 80.710938 121.21875 C 80.746094 121.179688 80.730469 121.152344 80.648438 121.132812 C 78.921875 120.898438 78.375 119.398438 78.375 118.070312 Z M 78.375 118.070312 "/>
</g>
</svg>
