<?xml version="1.0" encoding="UTF-8"?>
<svg xmlns="http://www.w3.org/2000/svg" xmlns:xlink="http://www.w3.org/1999/xlink" width="90px" height="130px" viewBox="0 0 90 130" version="1.1">
<g id="surface1">
<path style="fill-rule:nonzero;fill:rgb(100%,100%,100%);fill-opacity:1;stroke-width:1.8;stroke-linecap:butt;stroke-linejoin:round;stroke:rgb(20%,18.039216%,18.039216%);stroke-opacity:1;stroke-miterlimit:4;" d="M 1986.096914 695.288463 L 2109.695887 695.288463 C 2114.944585 695.288463 2119.200116 699.540824 2119.200116 704.789933 L 2119.200116 899.388856 C 2119.200116 904.637966 2114.944585 908.890327 2109.695887 908.890327 L 1986.096914 908.890327 C 1980.854502 908.890327 1976.598971 904.637966 1976.598971 899.388856 L 1976.598971 704.789933 C 1976.598971 699.540824 1980.854502 695.288463 1986.096914 695.288463 Z M 1986.096914 695.288463 " transform="matrix(0.621434,0,0,0.603525,-1227.634228,-419.080992)"/>
<path style="fill:none;stroke-width:1;stroke-linecap:butt;stroke-linejoin:miter;stroke:rgb(65.098041%,54.901963%,34.901962%);stroke-opacity:1;stroke-miterlimit:4;" d="M 9.999542 6.998827 L 109.997652 6.998827 C 111.658802 6.998827 113.001304 8.345582 113.001304 10.00063 L 113.001304 169.999436 C 113.001304 171.654485 111.658802 173.001239 109.997652 173.001239 L 9.999542 173.001239 C 8.343616 173.001239 7.001114 171.654485 7.001114 169.999436 L 7.001114 10.00063 C 7.001114 8.345582 8.343616 6.998827 9.999542 6.998827 Z M 9.999542 6.998827 " transform="matrix(0.747788,0,0,0.722222,0.135748,-0.0000205002)"/>
<path style=" stroke:none;fill-rule:nonzero;fill:rgb(100%,100%,100%);fill-opacity:1;" d="M 3.878906 4.335938 L 3.878906 28.167969 L 14.347656 28.167969 L 14.347656 4.335938 Z M 3.878906 4.335938 "/>
<path style=" stroke:none;fill-rule:nonzero;fill:rgb(100%,100%,100%);fill-opacity:1;" d="M 86.128906 125.664062 L 86.128906 101.832031 L 75.660156 101.832031 L 75.660156 125.664062 Z M 86.128906 125.664062 "/>
<path style=" stroke:none;fill-rule:nonzero;fill:rgb(20%,18.039216%,18.039216%);fill-opacity:1;" d="M 26.261719 7.945312 C 26.261719 7.945312 24.679688 10.828125 21.402344 13.542969 C 18.785156 15.707031 15.980469 18.089844 15.980469 21.484375 C 15.980469 24.078125 17.699219 26.359375 20.28125 26.359375 C 23.296875 26.359375 24.863281 23.871094 24.863281 21.957031 C 24.863281 21.8125 24.996094 21.703125 25.140625 21.703125 C 25.289062 21.703125 25.410156 21.8125 25.421875 21.957031 L 25.421875 22.929688 C 25.421875 25.875 25.089844 28.089844 22.710938 29.792969 L 23.609375 30.695312 C 23.609375 30.695312 24.769531 29.828125 26.261719 29.828125 C 27.757812 29.828125 28.917969 30.695312 28.917969 30.695312 L 29.816406 29.792969 C 27.4375 28.089844 27.105469 25.875 27.105469 22.929688 L 27.105469 21.957031 C 27.113281 21.8125 27.238281 21.703125 27.386719 21.703125 C 27.53125 21.703125 27.664062 21.8125 27.664062 21.957031 C 27.664062 23.871094 29.226562 26.359375 32.246094 26.359375 C 34.828125 26.359375 36.546875 24.078125 36.546875 21.484375 C 36.546875 18.089844 33.742188 15.707031 31.125 13.542969 C 27.847656 10.828125 26.261719 7.945312 26.261719 7.945312 Z M 26.261719 7.945312 "/>
<path style=" stroke:none;fill-rule:nonzero;fill:rgb(20%,18.039216%,18.039216%);fill-opacity:1;" d="M 26.328125 122.054688 C 26.328125 122.054688 27.910156 119.171875 31.191406 116.457031 C 33.808594 114.292969 36.613281 111.910156 36.613281 108.515625 C 36.613281 105.921875 34.894531 103.640625 32.3125 103.640625 C 29.292969 103.640625 27.730469 106.128906 27.730469 108.042969 C 27.730469 108.1875 27.597656 108.296875 27.449219 108.296875 C 27.304688 108.296875 27.179688 108.1875 27.171875 108.042969 L 27.171875 107.070312 C 27.171875 104.125 27.5 101.910156 29.882812 100.207031 L 28.984375 99.304688 C 28.984375 99.304688 27.824219 100.171875 26.328125 100.171875 C 24.832031 100.171875 23.675781 99.304688 23.675781 99.304688 L 22.777344 100.207031 C 25.15625 101.910156 25.488281 104.125 25.488281 107.070312 L 25.488281 108.042969 C 25.476562 108.1875 25.355469 108.296875 25.207031 108.296875 C 25.058594 108.296875 24.925781 108.1875 24.925781 108.042969 C 24.925781 106.128906 23.363281 103.640625 20.347656 103.640625 C 17.765625 103.640625 16.046875 105.921875 16.046875 108.515625 C 16.046875 111.910156 18.851562 114.292969 21.46875 116.457031 C 24.746094 119.171875 26.328125 122.054688 26.328125 122.054688 Z M 26.328125 122.054688 "/>
<path style=" stroke:none;fill-rule:nonzero;fill:rgb(20%,18.039216%,18.039216%);fill-opacity:1;" d="M 63.652344 7.945312 C 63.652344 7.945312 62.070312 10.828125 58.792969 13.542969 C 56.175781 15.707031 53.371094 18.089844 53.371094 21.484375 C 53.371094 24.078125 55.089844 26.359375 57.671875 26.359375 C 60.6875 26.359375 62.25 23.871094 62.25 21.957031 C 62.25 21.8125 62.382812 21.703125 62.53125 21.703125 C 62.679688 21.703125 62.800781 21.8125 62.8125 21.957031 L 62.8125 22.929688 C 62.8125 25.875 62.480469 28.089844 60.101562 29.792969 L 61 30.695312 C 61 30.695312 62.15625 29.828125 63.652344 29.828125 C 65.148438 29.828125 66.308594 30.695312 66.308594 30.695312 L 67.203125 29.792969 C 64.824219 28.089844 64.492188 25.875 64.492188 22.929688 L 64.492188 21.957031 C 64.503906 21.8125 64.628906 21.703125 64.773438 21.703125 C 64.921875 21.703125 65.054688 21.8125 65.054688 21.957031 C 65.054688 23.871094 66.617188 26.359375 69.636719 26.359375 C 72.214844 26.359375 73.933594 24.078125 73.933594 21.484375 C 73.933594 18.089844 71.128906 15.707031 68.511719 13.542969 C 65.234375 10.828125 63.652344 7.945312 63.652344 7.945312 Z M 63.652344 7.945312 "/>
<path style=" stroke:none;fill-rule:nonzero;fill:rgb(20%,18.039216%,18.039216%);fill-opacity:1;" d="M 63.71875 122.054688 C 63.71875 122.054688 65.300781 119.171875 68.578125 116.457031 C 71.195312 114.292969 74 111.910156 74 108.515625 C 74 105.921875 72.28125 103.640625 69.699219 103.640625 C 66.683594 103.640625 65.121094 106.128906 65.121094 108.042969 C 65.121094 108.1875 64.988281 108.296875 64.839844 108.296875 C 64.691406 108.296875 64.570312 108.1875 64.558594 108.042969 L 64.558594 107.070312 C 64.558594 104.125 64.890625 101.910156 67.269531 100.207031 L 66.375 99.304688 C 66.375 99.304688 65.214844 100.171875 63.71875 100.171875 C 62.222656 100.171875 61.0625 99.304688 61.0625 99.304688 L 60.167969 100.207031 C 62.546875 101.910156 62.878906 104.125 62.878906 107.070312 L 62.878906 108.042969 C 62.867188 108.1875 62.746094 108.296875 62.597656 108.296875 C 62.449219 108.296875 62.316406 108.1875 62.316406 108.042969 C 62.316406 106.128906 60.753906 103.640625 57.738281 103.640625 C 55.15625 103.640625 53.4375 105.921875 53.4375 108.515625 C 53.4375 111.910156 56.242188 114.292969 58.859375 116.457031 C 62.136719 119.171875 63.71875 122.054688 63.71875 122.054688 Z M 63.71875 122.054688 "/>
<path style=" stroke:none;fill-rule:nonzero;fill:rgb(20%,18.039216%,18.039216%);fill-opacity:1;" d="M 8.183594 17.332031 C 8.183594 17.332031 7.550781 18.488281 6.238281 19.570312 C 5.191406 20.4375 4.070312 21.390625 4.070312 22.75 C 4.070312 23.785156 4.757812 24.699219 5.789062 24.699219 C 6.996094 24.699219 7.621094 23.703125 7.621094 22.9375 C 7.621094 22.878906 7.675781 22.835938 7.734375 22.835938 C 7.792969 22.835938 7.839844 22.878906 7.84375 22.9375 L 7.84375 23.328125 C 7.84375 24.503906 7.714844 25.390625 6.761719 26.070312 L 7.121094 26.433594 C 7.121094 26.433594 7.582031 26.085938 8.183594 26.085938 C 8.78125 26.085938 9.242188 26.433594 9.242188 26.433594 L 9.601562 26.070312 C 8.652344 25.390625 8.519531 24.503906 8.519531 23.328125 L 8.519531 22.9375 C 8.523438 22.878906 8.570312 22.835938 8.628906 22.835938 C 8.691406 22.835938 8.742188 22.878906 8.742188 22.9375 C 8.742188 23.703125 9.367188 24.699219 10.574219 24.699219 C 11.605469 24.699219 12.292969 23.785156 12.292969 22.75 C 12.292969 21.390625 11.171875 20.4375 10.125 19.570312 C 8.816406 18.488281 8.183594 17.332031 8.183594 17.332031 Z M 8.183594 17.332031 "/>
<path style=" stroke:none;fill-rule:nonzero;fill:rgb(20%,18.039216%,18.039216%);fill-opacity:1;" d="M 81.890625 112.671875 C 81.890625 112.671875 82.523438 111.519531 83.835938 110.433594 C 84.882812 109.566406 86.003906 108.613281 86.003906 107.253906 C 86.003906 106.21875 85.316406 105.304688 84.28125 105.304688 C 83.074219 105.304688 82.449219 106.300781 82.449219 107.066406 C 82.449219 107.125 82.398438 107.167969 82.339844 107.167969 C 82.28125 107.167969 82.230469 107.125 82.226562 107.066406 L 82.226562 106.679688 C 82.226562 105.5 82.359375 104.613281 83.3125 103.933594 L 82.953125 103.574219 C 82.953125 103.574219 82.488281 103.917969 81.890625 103.917969 C 81.292969 103.917969 80.828125 103.574219 80.828125 103.574219 L 80.46875 103.933594 C 81.421875 104.613281 81.554688 105.5 81.554688 106.679688 L 81.554688 107.066406 C 81.550781 107.125 81.5 107.167969 81.441406 107.167969 C 81.382812 107.167969 81.328125 107.125 81.328125 107.066406 C 81.328125 106.300781 80.703125 105.304688 79.496094 105.304688 C 78.464844 105.304688 77.777344 106.21875 77.777344 107.253906 C 77.777344 108.613281 78.898438 109.566406 79.945312 110.433594 C 81.257812 111.519531 81.890625 112.671875 81.890625 112.671875 Z M 81.890625 112.671875 "/>
<path style=" stroke:none;fill-rule:nonzero;fill:rgb(20%,18.039216%,18.039216%);fill-opacity:1;" d="M 11.859375 11.027344 C 11.949219 11.027344 12.039062 11.113281 12.039062 11.203125 L 12.039062 12.386719 C 12.039062 12.449219 11.996094 12.558594 11.859375 12.558594 L 11.234375 12.558594 C 11.179688 12.558594 11.15625 12.582031 11.15625 12.632812 L 11.15625 15.09375 C 11.15625 15.160156 11.113281 15.269531 10.980469 15.269531 L 9.601562 15.269531 C 9.484375 15.269531 9.421875 15.203125 9.421875 15.09375 L 9.421875 12.632812 C 9.421875 12.582031 9.402344 12.558594 9.347656 12.558594 L 4.800781 12.558594 C 4.683594 12.558594 4.621094 12.496094 4.621094 12.386719 L 4.621094 11.441406 C 4.621094 11.382812 4.636719 11.308594 4.667969 11.214844 L 7.492188 5.078125 C 7.53125 4.992188 7.605469 4.945312 7.703125 4.945312 L 9.167969 4.945312 C 9.265625 4.945312 9.371094 4.996094 9.304688 5.15625 L 6.640625 10.941406 C 6.632812 10.96875 6.632812 11.027344 6.6875 11.027344 L 9.347656 11.027344 C 9.402344 11.027344 9.421875 11.007812 9.421875 10.957031 L 9.421875 8.949219 C 9.421875 8.816406 9.535156 8.773438 9.601562 8.773438 L 10.980469 8.773438 C 11.070312 8.773438 11.15625 8.863281 11.15625 8.949219 L 11.15625 10.957031 C 11.15625 11.007812 11.179688 11.027344 11.234375 11.027344 Z M 11.859375 11.027344 "/>
<path style=" stroke:none;fill-rule:nonzero;fill:rgb(20%,18.039216%,18.039216%);fill-opacity:1;" d="M 78.144531 118.972656 C 78.054688 118.972656 77.964844 118.886719 77.964844 118.796875 L 77.964844 117.613281 C 77.964844 117.550781 78.011719 117.441406 78.144531 117.441406 L 78.773438 117.441406 C 78.824219 117.441406 78.847656 117.417969 78.847656 117.367188 L 78.847656 114.90625 C 78.847656 114.839844 78.894531 114.730469 79.027344 114.730469 L 80.402344 114.730469 C 80.523438 114.730469 80.582031 114.796875 80.582031 114.90625 L 80.582031 117.367188 C 80.582031 117.417969 80.605469 117.441406 80.65625 117.441406 L 85.203125 117.441406 C 85.324219 117.441406 85.382812 117.503906 85.382812 117.613281 L 85.382812 118.558594 C 85.382812 118.617188 85.367188 118.691406 85.339844 118.785156 L 82.511719 124.921875 C 82.476562 125.007812 82.398438 125.054688 82.300781 125.054688 L 80.835938 125.054688 C 80.738281 125.054688 80.636719 125.003906 80.703125 124.84375 L 83.363281 119.058594 C 83.371094 119.03125 83.371094 118.972656 83.320312 118.972656 L 80.65625 118.972656 C 80.605469 118.972656 80.582031 118.992188 80.582031 119.042969 L 80.582031 121.050781 C 80.582031 121.179688 80.46875 121.226562 80.402344 121.226562 L 79.027344 121.226562 C 78.9375 121.226562 78.847656 121.136719 78.847656 121.050781 L 78.847656 119.042969 C 78.847656 118.992188 78.824219 118.972656 78.773438 118.972656 Z M 78.144531 118.972656 "/>
</g>
</svg>
